<?xml version="1.0" encoding="utf-8"?>
<!-- Generator: Adobe Illustrator 16.0.0, SVG Export Plug-In . SVG Version: 6.00 Build 0)  -->
<!DOCTYPE svg PUBLIC "-//W3C//DTD SVG 1.1//EN" "http://www.w3.org/Graphics/SVG/1.1/DTD/svg11.dtd">
<svg version="1.1" id="Capa_1" xmlns="http://www.w3.org/2000/svg" xmlns:xlink="http://www.w3.org/1999/xlink" x="0px" y="0px"
	 width="141.73px" height="141.73px" viewBox="0 0 141.73 141.73" enable-background="new 0 0 141.73 141.73" xml:space="preserve">
<circle fill="#FDC642" cx="70.865" cy="70.865" r="70.865"/>
<g>
	<path d="M99.6,44.096c0-5.401-2.104-10.479-5.924-14.298L92.9,29.022c-3.818-3.819-8.896-5.922-14.299-5.922
		c-5.4,0-10.479,2.103-14.297,5.922L31.379,61.948c-3.82,3.819-5.924,8.896-5.924,14.298c0,5.4,2.104,10.479,5.924,14.298
		l0.775,0.776c3.82,3.819,8.898,5.923,14.299,5.923S56.932,95.14,60.75,91.32l32.928-32.926C97.496,54.575,99.6,49.497,99.6,44.096z
		 M54.465,85.034c-2.141,2.14-4.986,3.318-8.012,3.318s-5.871-1.179-8.012-3.318l-0.777-0.776c-2.139-2.141-3.318-4.986-3.318-8.012
		c0-3.026,1.18-5.872,3.318-8.012l13.32-13.32l16.801,16.799L54.465,85.034z M87.391,52.107l-13.32,13.32l-16.799-16.8l13.32-13.32
		c2.139-2.14,4.984-3.318,8.01-3.318c3.027,0,5.873,1.179,8.014,3.319l0.775,0.776c2.141,2.14,3.318,4.985,3.318,8.011
		S89.531,49.967,87.391,52.107z"/>
	<path d="M92.559,71.196h-0.002c-6.334,0-12.289,2.467-16.77,6.947c-4.479,4.479-6.945,10.435-6.945,16.77
		s2.467,12.291,6.945,16.771c4.48,4.479,10.436,6.946,16.771,6.946c13.078,0,23.717-10.64,23.717-23.717
		C116.275,81.836,105.635,71.196,92.559,71.196z M82.074,84.429c2.801-2.8,6.523-4.342,10.484-4.342
		c3.793,0,7.256,1.434,9.881,3.786l-24.295,14.53c-0.271-1.13-0.412-2.299-0.412-3.49C77.732,90.953,79.273,87.229,82.074,84.429z
		 M92.559,109.741c-3.658,0-7.109-1.318-9.822-3.724l24.25-14.505c0.258,1.093,0.398,2.23,0.398,3.401
		C107.385,103.089,100.734,109.74,92.559,109.741z"/>
</g>
</svg>
