<?xml version="1.0" encoding="utf-8"?>
<!-- Generator: Adobe Illustrator 19.1.0, SVG Export Plug-In . SVG Version: 6.00 Build 0)  -->
<svg version="1.1" id="Capa_1" xmlns="http://www.w3.org/2000/svg" xmlns:xlink="http://www.w3.org/1999/xlink" x="0px" y="0px"
	 viewBox="-349 227.6 141.7 141.7" style="enable-background:new -349 227.6 141.7 141.7;" xml:space="preserve">
<style type="text/css">
	.st0{fill:#FAC038;}
	.st1{fill:#1D1D1B;}
</style>
<g>
	<g>
		<circle class="st0" cx="-278.1" cy="298.4" r="70.9"/>
	</g>
	<g>
		<path class="st1" d="M-260.6,299.3v-44.6c0-8.6-7-15.6-15.6-15.6h-3.8c-8.6,0-15.6,7-15.6,15.6v44.6c-8.9,5.9-14.3,15.8-14.3,26.6
			c0,17.6,14.3,31.8,31.8,31.8c17.6,0,31.8-14.3,31.8-31.8C-246.3,315.1-251.7,305.2-260.6,299.3z M-278.1,348.9
			c-12.7,0-23-10.3-23-23c0-8.4,4.6-16.1,12-20.2l2.3-1.3v-49.7c0-3.7,3-6.8,6.8-6.8h3.8c3.6,0,6.5,2.8,6.7,6.4h-8.6v8.9h8.6v3.8
			h-8.6v8.9h8.6v3.9h-8.6v8.9h8.6v15.8l2.3,1.3c7.4,4,12,11.8,12,20.2C-255.2,338.6-265.5,348.9-278.1,348.9z"/>
		<path class="st1" d="M-271.4,309.4v-14.6h-13.5v14.6c-6.9,2.7-11.8,9.4-11.8,17.3c0,10.2,8.3,18.6,18.6,18.6
			c10.2,0,18.6-8.3,18.6-18.6C-259.6,318.8-264.5,312.1-271.4,309.4z"/>
	</g>
</g>
</svg>
