<?xml version="1.0" encoding="utf-8"?>
<!-- Generator: Adobe Illustrator 19.1.0, SVG Export Plug-In . SVG Version: 6.00 Build 0)  -->
<svg version="1.1" id="Capa_1" xmlns="http://www.w3.org/2000/svg" xmlns:xlink="http://www.w3.org/1999/xlink" x="0px" y="0px"
	 viewBox="-495 638.6 141.7 141.7" style="enable-background:new -495 638.6 141.7 141.7;" xml:space="preserve">
<style type="text/css">
	.st0{fill:#FAC038;}
	.st1{fill:#1D1D1B;}
</style>
<g>
	<circle class="st0" cx="-424.1" cy="709.5" r="70.9"/>
	<g>
		<path class="st1" d="M-405.4,738.3h-43l-1.1-3.8h52.1l9.6-36.3h-71.9l-3.3-11.9h-18v8.9h11.3l14.6,52h8.5
			c-0.7,1.6-1.1,3.4-1.1,5.3c0,7.5,6.1,13.6,13.6,13.6c7.5,0,13.6-6.1,13.6-13.6c0-1.9-0.4-3.6-1.1-5.3h3.4
			c-0.5,1.5-0.8,3.1-0.8,4.7c0,7.5,6.1,13.6,13.6,13.6c7.5,0,13.6-6.1,13.6-13.6S-397.9,738.3-405.4,738.3z M-399.3,707.1l-4.9,18.5
			H-452l-5.2-18.5H-399.3z M-434.1,757.1c-2.6,0-4.7-2.1-4.7-4.7s2.1-4.7,4.7-4.7c2.6,0,4.7,2.1,4.7,4.7S-431.5,757.1-434.1,757.1z
			 M-405.4,756.6c-2.6,0-4.7-2.1-4.7-4.7c0-2.6,2.1-4.7,4.7-4.7c2.6,0,4.7,2.1,4.7,4.7C-400.7,754.5-402.8,756.6-405.4,756.6z"/>
		<polygon class="st1" points="-414,672 -413.8,680.3 -404.9,680.1 -405.4,663.9 -399.6,658.6 -405.6,652.1 -410.1,656.2 
			-436.5,656.6 -436.4,665.5 -419.9,665.3 -432.9,677.3 -440.2,672.7 -445,680.2 -431.9,688.5 		"/>
	</g>
</g>
</svg>
