<?xml version="1.0" encoding="utf-8"?>
<!-- Generator: Adobe Illustrator 19.1.0, SVG Export Plug-In . SVG Version: 6.00 Build 0)  -->
<svg version="1.1" id="Capa_1" xmlns="http://www.w3.org/2000/svg" xmlns:xlink="http://www.w3.org/1999/xlink" x="0px" y="0px"
	 viewBox="-349 227.6 141.7 141.7" style="enable-background:new -349 227.6 141.7 141.7;" xml:space="preserve">
<style type="text/css">
	.st0{fill:#FAC038;}
	.st1{fill:#1D1D1B;}
</style>
<g>
	<circle class="st0" cx="-278.1" cy="298.4" r="70.9"/>
	<g>
		<path class="st1" d="M-229.9,256.4c-9.9-11.4-23-17.7-36.8-17.7h-4.4v44.7c0,3.1,1.6,5.6,4.4,6.7c1.7,0.7,3.5,0.8,5.3,0.9
			c1.5,0.1,3.2,0.2,4,0.7c0.8,0.5,0.9,2.3,0.9,3.3c0,5.1-1.4,5.2-5.5,5.7c-1.6,0.2-3.3,0.4-4.9,1.1c-2.6,1.1-4.1,3.4-4.2,6.3
			c-0.1,4.1,0.2,27.3,0.4,45.9l0.1,4.4l4.4,0l0,0c0.1,0,0.1,0,0.2,0c13.8,0,26.8-6.3,36.5-17.8c9.5-11.3,14.8-26.2,14.8-42
			C-214.8,282.6-220.2,267.7-229.9,256.4z M-261,282c-0.4,0-0.8,0-1.3-0.1v-34.1c9.6,1.2,18.6,6.2,25.6,14.4
			c1.3,1.6,2.6,3.2,3.7,4.9c-2.3,1.6-4.9,4-6.2,4.5c-1.6,0.6,0-10.6-3.5-8c-3.5,2.6,1.9,9.6,0,11.6c-1.9,1.9-8.7,0.6-7.4,3.5
			c1.3,2.9,4.2,7.7,7.4,4.5c3.2-3.2,5.8-8.7,7.7-6.7c1.9,1.9-1.3,6,0.6,7.8c1.9,1.8,3.9-8.5,6.1-8.1c0,0,0.1,0,0.1,0
			c1.4,3.3,2.4,6.7,3.2,10.2c-0.4,0.1-0.8,0.3-1.3,0.4c-4.5,1-10,0.3-13.2-1.6c-2.7-1.6-5.4-0.1-8.8,5.4c-0.7-2.9-2.3-5.1-4.6-6.5
			C-255.5,282.3-258.6,282.2-261,282z M-261.9,349.1c-0.3-21-0.5-34.8-0.4-39.6c0.4-0.1,0.8-0.1,1.2-0.1c2.4-0.3,5.6-0.6,8.4-2.6
			c2.1-1.5,3.5-3.6,4.3-6.4c3.1,1.3,8.1,1.2,9.9,2.6c3.2,2.4,1.2,10.4,1.9,18.8c0.3,3.9,2.4,5.8,4.8,6.5
			C-238.7,339.7-249.5,347.6-261.9,349.1z"/>
		<path class="st1" d="M-267.4,295.6c-0.1-3.3-1.1-5.8-3.1-7.7c-3.4-3.1-8.1-2.9-11.5-2.8c-0.8,0-2,0.1-2.4,0c-0.2,0-0.7-0.7-1-2.4
			c-0.5-2.5-0.5-6-0.5-9c0-0.6,0-1.2,0-1.8v-33.2l-4.4,0c-13.8,0-26.8,6.3-36.4,17.8c-9.5,11.2-14.7,26.2-14.7,42
			c0,15.8,5.1,30.7,14.5,41.9c9.5,11.5,22.4,17.8,36.1,17.9l4.5,0l0-4.5c-0.1-13.5-0.1-39.9,0-43.2c0.1-2.9,0.6-3.9,0.8-4.1
			c0.1,0,0.2,0,0.4,0c0.1,0,0.4,0,0.6,0.1c2.9,0.3,9.8,1,14.1-2.9C-269,302.2-267.3,299.7-267.4,295.6z M-276.5,297
			c-0.6,0.6-2.3,1.1-7.1,0.6c-0.6-0.1-1-0.1-1.5-0.1c-4.1,0-6.4,1.9-7.6,3.6c-1.6,2.1-2.4,5-2.6,9.1c-0.1,3.4-0.1,28.2,0,38.8
			c-9.4-1.2-18.1-6.2-24.9-14.4c-8-9.6-12.4-22.5-12.4-36.2c0-3.4,0.3-6.7,0.8-9.9c2.8,1.4,6.4,2.2,9.6,2.6c6.1,0.9,6.4,4.6,4.3,5.4
			s-6.1,4.4-4,9.6s5.8,4.9,4.3,13.7c-1.5,8.8,5.5,15.9,4,11.9c-1.5-4,1.5-11.3,9.1-17.7s10.4-10.1,4.3-17.5
			c-6.1-7.4-20.5-7.2-25.3-11.3c-4.9-4.1-1.5-7.5,6.1-4.1s1.8-3.7,6.4-11c4.6-7.3,13.4-6.4,12.8-11c-0.4-3.3-5.7-5.2-10.8-5.1
			c4.9-3.3,10.4-5.5,16.2-6.3v24.1c0,0.6,0,1.2,0,1.8c0,3.5-0.1,7.4,0.7,10.9c1.3,6.5,5,8.7,7.8,9.3c1.5,0.3,3.1,0.3,4.8,0.2
			c1.3-0.1,4.4-0.2,5,0.4c0.1,0,0.3,0.4,0.3,1.4C-276.3,296.2-276.3,296.8-276.5,297z"/>
	</g>
</g>
</svg>
