<?xml version="1.0" encoding="UTF-8" standalone="no"?>
<!-- Generator: Adobe Illustrator 19.1.0, SVG Export Plug-In . SVG Version: 6.00 Build 0)  -->

<svg
   xmlns:dc="http://purl.org/dc/elements/1.1/"
   xmlns:cc="http://creativecommons.org/ns#"
   xmlns:rdf="http://www.w3.org/1999/02/22-rdf-syntax-ns#"
   xmlns:svg="http://www.w3.org/2000/svg"
   xmlns="http://www.w3.org/2000/svg"
   xmlns:sodipodi="http://sodipodi.sourceforge.net/DTD/sodipodi-0.dtd"
   xmlns:inkscape="http://www.inkscape.org/namespaces/inkscape"
   version="1.1"
   id="Capa_1"
   x="0px"
   y="0px"
   viewBox="-349 227.6 141.7 141.7"
   style="enable-background:new -349 227.6 141.7 141.7;"
   xml:space="preserve"
   sodipodi:docname="democracia-01.svg"
   inkscape:version="0.92.2 5c3e80d, 2017-08-06"><metadata
     id="metadata832"><rdf:RDF><cc:Work
         rdf:about=""><dc:format>image/svg+xml</dc:format><dc:type
           rdf:resource="http://purl.org/dc/dcmitype/StillImage" /><dc:title></dc:title></cc:Work></rdf:RDF></metadata><defs
     id="defs830" /><sodipodi:namedview
     pagecolor="#ffffff"
     bordercolor="#666666"
     borderopacity="1"
     objecttolerance="10"
     gridtolerance="10"
     guidetolerance="10"
     inkscape:pageopacity="0"
     inkscape:pageshadow="2"
     inkscape:window-width="2496"
     inkscape:window-height="1336"
     id="namedview828"
     showgrid="false"
     inkscape:zoom="5.1797943"
     inkscape:cx="43.31896"
     inkscape:cy="76.718482"
     inkscape:window-x="26"
     inkscape:window-y="66"
     inkscape:window-maximized="0"
     inkscape:current-layer="Capa_1" /><style
     type="text/css"
     id="style815">
	.st0{fill:#1D1D1B;}
</style><circle
     style="fill:#fdc642"
     cx="-278.25198"
     cy="298.70551"
     r="70.864998"
     id="circle1379" /><g
     id="g1207"
     transform="matrix(0.4657891,-0.12480781,0.12480781,0.4657891,18.272069,47.532428)"
     style="fill:#000000;fill-opacity:1"><path
       inkscape:connector-curvature="0"
       id="path1138"
       d="m -811.69994,422.48801 c -0.088,-0.25137 -1.4048,-14.03125 -2.926,-30.62195 -1.5213,-16.5907 -2.8374,-30.37057 -2.9249,-30.62195 -0.1201,-0.34561 -1.987,-0.45704 -7.6565,-0.45704 h -7.4976 l -0.5163,-1.0055 c -0.2839,-0.55302 -0.9295,-2.32178 -1.4346,-3.93058 -3.4557,-11.00722 -3.9676,-22.40959 -1.5429,-34.36971 1.1028,-5.44017 2.9141,-11.53392 3.5478,-11.93584 0.2616,-0.16596 9.9574,-0.30426 21.5463,-0.30734 17.6753,-0.005 21.1394,0.0773 21.4978,0.50916 0.2349,0.28311 0.3874,1.18875 0.3388,2.01254 -0.049,0.82379 0.078,1.66462 0.2824,1.86851 0.4388,0.43888 7.9648,-0.0401 17.8713,-1.1373 42.791,-4.73952 74.52055,-17.83424 96.15715,-39.68391 4.5551,-4.6 5.9981,-5.61932 7.9576,-5.62128 l 1.3711,-10e-4 v 67.64251 67.64252 h -1.2915 c -2.2573,0 -3.7139,-0.95034 -8.5179,-5.55743 -7.3171,-7.01729 -16.1688,-12.97017 -28.8945,-19.4319 -23.5903,-11.97855 -48.94455,-19.30283 -72.99775,-21.08751 -3.0165,-0.22381 -6.8831,-0.35497 -8.5924,-0.29147 l -3.1079,0.11545 -0.1828,2.00825 c -0.159,1.74596 -0.3142,2.0709 -1.1883,2.48799 -0.6425,0.30656 -1.0071,0.76951 -1.0101,1.28247 -0.02,3.44726 -2.9383,60.31715 -3.1093,60.59382 -0.351,0.56798 -16.9789,0.47008 -17.179,-0.10115 z"
       style="fill:#000000;stroke-width:0.36563522;fill-opacity:1" /><g
       transform="matrix(0.78191612,0,0,0.78191612,-235.84068,76.154238)"
       id="g1200"
       style="fill:#000000;fill-opacity:1"><g
         id="g1166"
         transform="translate(-247.11406,33.978183)"
         style="fill:#000000;fill-opacity:1"><path
           class="st0"
           d="m -283,284.6 h 13.6 l -6.8,32.2 c -0.2,0.5 -0.3,1 -0.3,1.5 0,0.5 -0.1,1 -0.1,1.5 0,1.3 0.3,2.2 0.9,2.7 0.6,0.5 1.6,0.8 2.9,0.8 0.9,0 1.5,-0.1 1.9,-0.2 0.4,-0.1 0.8,-0.3 1.1,-0.4 -0.1,1.7 -0.5,3.2 -1.1,4.4 -0.6,1.2 -1.4,2.2 -2.4,3 -1,0.8 -2,1.4 -3.2,1.8 -1.2,0.4 -2.4,0.6 -3.7,0.6 -1.4,0 -2.7,-0.2 -4,-0.6 -1.2,-0.4 -2.3,-1.1 -3.2,-2 -0.9,-0.9 -1.6,-2.1 -2.1,-3.5 -0.5,-1.4 -0.8,-3.1 -0.8,-5.1 0,-0.9 0.1,-1.8 0.2,-2.8 0.1,-1 0.3,-2.1 0.6,-3.4 z m 16.9,-12.6 c 0,1 -0.2,2 -0.6,2.9 -0.4,0.9 -0.9,1.7 -1.6,2.4 -0.7,0.7 -1.5,1.2 -2.4,1.6 -0.9,0.4 -1.9,0.6 -2.9,0.6 -1,0 -2,-0.2 -2.9,-0.6 -0.9,-0.4 -1.7,-0.9 -2.4,-1.6 -0.7,-0.7 -1.2,-1.4 -1.6,-2.4 -0.4,-0.9 -0.6,-1.9 -0.6,-2.9 0,-1 0.2,-2 0.6,-2.9 0.4,-0.9 0.9,-1.7 1.6,-2.4 0.7,-0.7 1.5,-1.2 2.4,-1.6 0.9,-0.4 1.9,-0.6 2.9,-0.6 1,0 2,0.2 2.9,0.6 0.9,0.4 1.7,0.9 2.4,1.6 0.7,0.7 1.2,1.5 1.6,2.4 0.4,0.9 0.6,1.8 0.6,2.9 z"
           id="path1164"
           inkscape:connector-curvature="0"
           style="fill:#000000;fill-opacity:1" /></g><path
         inkscape:connector-curvature="0"
         id="path1170"
         d="m -525.21484,278.37734 c -6.97137,0 -13.62776,1.33934 -19.74805,3.75 v 9.70118 c 5.96549,-2.9121 12.66524,-4.55079 19.74805,-4.55079 24.8,0 45.10156,20.19961 45.10156,45.09961 0,24.9 -20.20156,45.10157 -45.10156,45.10157 -7.08281,0 -13.78256,-1.63869 -19.74805,-4.55079 v 9.69922 c 6.12038,2.41075 12.77655,3.75 19.74805,3.75 29.7,0 54,-24.2 54,-54 0,-29.8 -24.2,-54 -54,-54 z"
         style="fill:#000000;fill-opacity:1" /></g></g></svg>