<?xml version="1.0" encoding="utf-8"?>
<!-- Generator: Adobe Illustrator 16.0.0, SVG Export Plug-In . SVG Version: 6.00 Build 0)  -->
<!DOCTYPE svg PUBLIC "-//W3C//DTD SVG 1.1//EN" "http://www.w3.org/Graphics/SVG/1.1/DTD/svg11.dtd">
<svg version="1.1" id="Capa_1" xmlns="http://www.w3.org/2000/svg" xmlns:xlink="http://www.w3.org/1999/xlink" x="0px" y="0px"
	 width="141.73px" height="141.73px" viewBox="0 0 141.73 141.73" enable-background="new 0 0 141.73 141.73" xml:space="preserve">
<circle fill="#FDC642" cx="70.865" cy="70.864" r="70.866"/>
<path d="M119.688,60.756c0-0.268,0.03-0.726,0.062-1.21c0.188-2.936,0.562-8.8-3.485-12.244l0.103-24.876l-8.891-0.037
	l-0.079,19.262l-26.05-16.247l-2.438,3.319c-0.141,0.19-1.489,2.06-2.75,4.919c-0.53-0.501-1.118-0.957-1.761-1.357l-3.603-2.248
	v-7.63h-8.891v2.085l-0.514-0.319c-1.774-1.107-3.816-1.693-5.901-1.693c-3.883,0-7.426,1.965-9.476,5.253l-0.223,0.354
	c-1.312,2.106-1.836,4.485-1.65,6.787c-2.193,0.86-4.083,2.407-5.378,4.483l-0.22,0.353c-1.313,2.106-1.837,4.485-1.651,6.788
	c-2.194,0.861-4.084,2.409-5.382,4.488l-0.216,0.347c-1.282,2.056-1.852,4.418-1.658,6.79c-2.191,0.861-4.079,2.409-5.375,4.486
	l-0.216,0.347c-1.578,2.531-2.076,5.523-1.403,8.429c0.442,1.907,1.356,3.623,2.646,5.026l-2.549,4.089l-0.132,0.307
	c-2.167,5.021-0.298,10.992,4.347,13.889l0.351,0.219c2.085,1.301,4.48,1.827,6.809,1.635c0.852,2.175,2.377,4.094,4.461,5.394
	l0.354,0.222c2.086,1.3,4.482,1.825,6.809,1.633c0.853,2.176,2.378,4.096,4.463,5.396l0.352,0.219
	c2.085,1.301,4.482,1.826,6.809,1.635c0.854,2.175,2.38,4.097,4.467,5.397l0.347,0.217c2.53,1.578,5.523,2.076,8.429,1.403
	c0.521-0.121,1.028-0.278,1.52-0.467v1.716h8.891v-11.24l5.977-8.695c0.158-0.221,0.299-0.43,0.436-0.647l6.904-11.07l2.275-3.917
	l-2.33-2.415c-4.309-4.466-6.207-9.283-5.644-14.317c0.421-3.753,2.092-6.383,2.238-6.607l2.21-3.04l-2.762-2.685
	c-0.516-0.501-1.066-0.878-1.599-1.242c-1.262-0.863-2.989-2.045-4.892-5.641c-1.825-3.452-0.881-7.398,0.292-10.185l26.341,16.428
	c0.322,0.201,0.656,1.221,0.417,4.936c-0.04,0.631-0.079,1.228-0.079,1.807l0.336,58.559l8.89-0.051L119.688,60.756z M56.207,64.489
	c0.137,0.592,0.035,1.201-0.286,1.717l-0.219,0.352c-0.418,0.671-1.142,1.07-1.935,1.07l0,0c-0.174,0-0.343-0.024-0.507-0.062
	c-0.198-0.142-0.4-0.28-0.61-0.411l-13.007-8.112c-0.211-0.132-0.426-0.255-0.645-0.372c-0.214-0.264-0.368-0.574-0.447-0.915
	c-0.137-0.591-0.035-1.201,0.288-1.72l0.216-0.347c0.419-0.671,1.143-1.072,1.937-1.072c0.173,0,0.341,0.024,0.505,0.062
	c0.198,0.143,0.4,0.282,0.611,0.413l13.006,8.111c0.211,0.132,0.427,0.255,0.646,0.372C55.972,63.84,56.127,64.149,56.207,64.489z
	 M48.672,77.828l-0.219,0.352c-0.419,0.671-1.143,1.071-1.937,1.071c-0.427,0-0.829-0.115-1.196-0.345l-13.008-8.113
	c-0.515-0.321-0.874-0.823-1.011-1.414c-0.137-0.592-0.036-1.201,0.288-1.721l0.216-0.347c0.419-0.671,1.142-1.072,1.936-1.072
	c0.173,0,0.342,0.024,0.506,0.062c0.199,0.143,0.401,0.282,0.61,0.413l13.007,8.111c0.21,0.132,0.425,0.254,0.643,0.37
	C49.1,75.93,49.198,76.986,48.672,77.828z M63.456,52.867c0.137,0.591,0.035,1.2-0.287,1.717l-0.218,0.351
	c-0.419,0.67-1.142,1.071-1.935,1.071l0,0c-0.173,0-0.341-0.024-0.506-0.062c-0.198-0.143-0.401-0.282-0.61-0.412l-13.007-8.112
	c-0.211-0.132-0.426-0.254-0.644-0.371c-0.592-0.733-0.689-1.789-0.164-2.631l0.22-0.352c0.418-0.671,1.142-1.071,1.935-1.071
	c0.174,0,0.342,0.024,0.507,0.062c0.197,0.142,0.399,0.281,0.609,0.412l13.008,8.113c0.211,0.131,0.425,0.254,0.644,0.371
	C63.221,52.216,63.376,52.526,63.456,52.867z M53.332,32.797l0.223-0.355c0.418-0.671,1.142-1.071,1.935-1.071
	c0.427,0,0.829,0.116,1.197,0.345l13.007,8.113c1.063,0.663,1.39,2.068,0.727,3.13l-0.22,0.352
	c-0.418,0.671-1.143,1.071-1.936,1.071c-0.173,0-0.341-0.024-0.506-0.062c-0.198-0.143-0.4-0.282-0.609-0.412l-13.007-8.112
	c-0.211-0.131-0.426-0.254-0.644-0.371C52.907,34.693,52.808,33.637,53.332,32.797z M34.934,86.928
	c-0.721,0.843-1.979,1.034-2.925,0.444l-0.352-0.219c-0.876-0.547-1.269-1.628-0.973-2.594l1.932-3.1l4.562,2.846L34.934,86.928z
	 M85.582,84.885l-5.695,9.132c-0.042,0.066-0.088,0.132-0.134,0.194l-4.859,7.069l-4.776,6.947l-0.107,0.165
	c-0.322,0.516-0.825,0.875-1.416,1.012c-0.592,0.137-1.201,0.035-1.72-0.288l-0.348-0.216c-0.946-0.591-1.328-1.805-0.888-2.823
	l3.539-8.196l-5.28-3.14l-5.718,6.684c-0.722,0.844-1.979,1.034-2.926,0.444l-0.351-0.219c-0.946-0.59-1.327-1.804-0.888-2.823
	l3.422-7.93l-5.353-3.183l-5.528,6.462c-0.721,0.843-1.979,1.033-2.923,0.445l-0.354-0.221c-0.946-0.59-1.327-1.803-0.888-2.822
	l1.61-3.73c0.821,0.19,1.663,0.293,2.514,0.293c3.882,0,7.426-1.966,9.479-5.255l0.22-0.353c1.313-2.106,1.836-4.485,1.65-6.787
	c2.194-0.861,4.084-2.408,5.379-4.485l0.219-0.351c1.282-2.056,1.853-4.418,1.659-6.79c2.19-0.86,4.078-2.408,5.372-4.484
	l0.219-0.349c1.282-2.056,1.851-4.418,1.659-6.79c1.09-0.428,2.103-1.025,3.007-1.773c0.178,0.41,0.372,0.819,0.589,1.228
	c1.935,3.659,3.955,5.833,5.587,7.218c-0.686,1.67-1.359,3.816-1.695,6.322C79.203,70.4,79.769,77.534,85.582,84.885z"/>
</svg>
