<svg id="Capa_1" data-name="Capa 1" xmlns="http://www.w3.org/2000/svg" viewBox="0 0 141.73 141.73"><defs><style>.cls-1{fill:#fdc642;}</style></defs><title>4</title><circle class="cls-1" cx="70.86" cy="70.86" r="70.86"/><path d="M101.11,39.77a37.81,37.81,0,0,0-10.93-7.53V15.36H80.5V29.14a52.44,52.44,0,0,0-10-.95c-24.94,0-43,18.14-43,43.14a43.15,43.15,0,0,0,12.38,30.83,42,42,0,0,0,30,12.21c8.66,0,17-2.23,22.82-6.13l1.21-.8-4.67-7.53-1.25.71a37.22,37.22,0,0,1-18.11,4.57c-18.86,0-32-14-32-34,0-19.68,13.73-34,32.64-34A39,39,0,0,1,80.5,38.55V54.3a18.63,18.63,0,0,0-11.45-3.82c-11.9,0-20.54,9-20.54,21.36S57.23,93.4,69.26,93.4a17.88,17.88,0,0,0,13.86-6.14c2.18,3.89,6.22,6.14,11.26,6.14,10.89,0,17.92-10.18,17.92-25.92A38.5,38.5,0,0,0,101.11,39.77ZM69.87,84.32c-6.42,0-11.07-5.25-11.07-12.48s4.51-12.28,11-12.28c6.89,0,11.17,4.66,11.17,12.17C80.93,80.43,75.37,84.32,69.87,84.32Zm32.54-16.13c0,9.8-3.11,16.13-7.92,16.13-3.86,0-4.28-3.7-4.28-5.29V51.08h0V43C97.87,48.38,102.41,57.21,102.41,68.19ZM80.62,54.33v.06l-.08-.06Z"/></svg>