<?xml version="1.0" encoding="utf-8"?>
<!-- Generator: Adobe Illustrator 16.0.0, SVG Export Plug-In . SVG Version: 6.00 Build 0)  -->
<!DOCTYPE svg PUBLIC "-//W3C//DTD SVG 1.1//EN" "http://www.w3.org/Graphics/SVG/1.1/DTD/svg11.dtd">
<svg version="1.1" id="Capa_1" xmlns="http://www.w3.org/2000/svg" xmlns:xlink="http://www.w3.org/1999/xlink" x="0px" y="0px"
	 width="141.73px" height="141.73px" viewBox="0 0 141.73 141.73" enable-background="new 0 0 141.73 141.73" xml:space="preserve">
<circle fill="#FDC642" cx="70.865" cy="70.865" r="70.866"/>
<g>
	<path d="M90.032,77.02l-20.819,6.476V59.464c6.524-1.823,11.325-7.817,11.325-14.915c0-8.541-6.948-15.488-15.487-15.488
		c-8.541,0-15.489,6.947-15.489,15.488c0,7.098,4.802,13.092,11.326,14.915v35.341l25.863-8.045l9.575,13.428l6.779-4.833
		L90.032,77.02z M57.889,44.549c0-3.949,3.213-7.162,7.162-7.162c3.948,0,7.161,3.213,7.161,7.162c0,3.948-3.213,7.161-7.161,7.161
		C61.102,51.71,57.889,48.497,57.889,44.549z"/>
	<path d="M81.084,99.741c-3.76,3.012-8.295,4.605-13.115,4.605c-6.429,0-12.411-2.865-16.415-7.861
		c-7.243-9.039-5.783-22.286,3.256-29.53l1.284-1.029l-5.206-6.497l-1.285,1.029c-12.622,10.115-14.661,28.613-4.547,41.234
		c5.592,6.977,13.945,10.978,22.918,10.978c6.637,0,13.142-2.284,18.317-6.432l1.284-1.029l-5.207-6.498L81.084,99.741z"/>
</g>
</svg>
