<?xml version="1.0" encoding="utf-8"?>
<!-- Generator: Adobe Illustrator 16.0.0, SVG Export Plug-In . SVG Version: 6.00 Build 0)  -->
<!DOCTYPE svg PUBLIC "-//W3C//DTD SVG 1.1//EN" "http://www.w3.org/Graphics/SVG/1.1/DTD/svg11.dtd">
<svg version="1.1" id="Capa_1" xmlns="http://www.w3.org/2000/svg" xmlns:xlink="http://www.w3.org/1999/xlink" x="0px" y="0px"
	 width="141.73px" height="141.73px" viewBox="0 0 141.73 141.73" enable-background="new 0 0 141.73 141.73" xml:space="preserve">
<circle fill="#FDC642" cx="70.865" cy="70.865" r="70.866"/>
<path d="M78.988,36.206l-0.704,0.695c-0.383,0.378-38.49,38.005-52.624,52.625l-1.557,1.609l0.552,2.17
	c2.785,10.956,9.179,16.823,14.052,19.816c5.23,3.213,9.789,3.869,10.291,3.934l1.955,0.25l54.543-54.543l12.131-38.338
	L78.988,36.206z M48.229,108.674c-0.54-0.158-1.182-0.373-1.892-0.658l49.807-49.806l-5.678-5.678l-51.066,51.066
	c-0.427-0.399-0.849-0.828-1.265-1.285L89.19,51.256l-5.678-5.678L33.76,95.33c-0.25-0.604-0.486-1.234-0.705-1.893
	c13.97-14.34,45.093-45.112,50.168-50.127l18.394-5.608l2.573,2.573l-5.758,18.196L48.229,108.674z"/>
</svg>
