<?xml version="1.0" encoding="utf-8"?>
<!-- Generator: Adobe Illustrator 16.0.0, SVG Export Plug-In . SVG Version: 6.00 Build 0)  -->
<!DOCTYPE svg PUBLIC "-//W3C//DTD SVG 1.1//EN" "http://www.w3.org/Graphics/SVG/1.1/DTD/svg11.dtd">
<svg version="1.1" id="Capa_1" xmlns="http://www.w3.org/2000/svg" xmlns:xlink="http://www.w3.org/1999/xlink" x="0px" y="0px"
	 width="141.73px" height="141.73px" viewBox="0 0 141.73 141.73" enable-background="new 0 0 141.73 141.73" xml:space="preserve">
<circle fill="#FDC642" cx="70.865" cy="70.865" r="70.866"/>
<path d="M105.059,41.635H93.974c-0.405-5.103-2.126-9.037-5.135-11.714c-3.889-3.459-8.466-3.441-9.812-3.35H64.173
	c-7.318,0-11.272,2.971-13.3,5.464c-2.511,3.085-3.267,6.737-3.399,9.6H36.671c-9.114,0-16.53,7.416-16.53,16.53v40.487
	c0,9.115,7.416,16.531,16.53,16.531h68.388c9.115,0,16.531-7.416,16.531-16.531V58.166C121.59,49.051,114.174,41.635,105.059,41.635
	z M57.789,37.621c1.183-1.433,3.33-2.159,6.384-2.159l15.512-0.024c0.304-0.012,1.999-0.031,3.31,1.185
	c1.078,1,1.772,2.711,2.049,5.013H56.39C56.504,40.253,56.875,38.729,57.789,37.621z M112.699,98.652
	c0,4.213-3.428,7.641-7.641,7.641H36.671c-4.213,0-7.64-3.428-7.64-7.641V58.166c0-4.212,3.427-7.64,7.64-7.64h68.388
	c4.213,0,7.641,3.427,7.641,7.64V98.652z"/>
</svg>
