<?xml version="1.0" encoding="utf-8"?>
<!-- Generator: Adobe Illustrator 16.0.0, SVG Export Plug-In . SVG Version: 6.00 Build 0)  -->
<!DOCTYPE svg PUBLIC "-//W3C//DTD SVG 1.1//EN" "http://www.w3.org/Graphics/SVG/1.1/DTD/svg11.dtd">
<svg version="1.1" id="Capa_1" xmlns="http://www.w3.org/2000/svg" xmlns:xlink="http://www.w3.org/1999/xlink" x="0px" y="0px"
	 width="141.73px" height="141.73px" viewBox="0 0 141.73 141.73" enable-background="new 0 0 141.73 141.73" xml:space="preserve">
<circle fill="#FDC642" cx="70.865" cy="70.865" r="70.866"/>
<path d="M70.865,24.689c-25.461,0-46.176,20.714-46.176,46.176c0,25.461,20.715,46.176,46.176,46.176s46.176-20.715,46.176-46.176
	C117.041,45.403,96.326,24.689,70.865,24.689z M52.074,71.124c-5.089,0-9.215-4.126-9.215-9.215c0-5.09,4.126-9.216,9.215-9.216
	c5.09,0,9.215,4.126,9.215,9.216C61.289,66.998,57.164,71.124,52.074,71.124z M70.865,108.15V33.58
	c20.56,0,37.285,16.726,37.285,37.285C108.15,91.424,91.425,108.15,70.865,108.15z M84.671,71.124c-5.09,0-9.216-4.126-9.216-9.215
	c0-5.09,4.126-9.216,9.216-9.216c5.089,0,9.215,4.126,9.215,9.216C93.886,66.998,89.76,71.124,84.671,71.124z"/>
</svg>
