<?xml version="1.0" encoding="utf-8"?>
<!-- Generator: Adobe Illustrator 19.1.0, SVG Export Plug-In . SVG Version: 6.00 Build 0)  -->
<svg version="1.1" id="Capa_1" xmlns="http://www.w3.org/2000/svg" xmlns:xlink="http://www.w3.org/1999/xlink" x="0px" y="0px"
	 viewBox="-495 638.6 141.7 141.7" style="enable-background:new -495 638.6 141.7 141.7;" xml:space="preserve">
<style type="text/css">
	.st0{fill:#FAC038;}
	.st1{fill:#1D1D1B;}
</style>
<g>
	<circle class="st0" cx="-424.1" cy="709.5" r="70.9"/>
	<g>
		<path class="st1" d="M-438.9,743.1c-0.8,0.1-1.7,0.1-2.5,0.1c-15.6,0-29.1-9.2-35.4-22.4c2.3,17.5,17.3,31,35.4,31
			c3.2,0,6.3-0.4,9.3-1.2C-434.8,748.4-437,745.9-438.9,743.1z"/>
		<path class="st1" d="M-406.8,749.3c-15.3,0-28.7-8.9-35.1-21.8c3.1,16.5,17.7,29.1,35.1,29.1c17.4,0,32-12.5,35.1-29.1
			C-378.1,740.4-391.4,749.3-406.8,749.3z"/>
		<path class="st1" d="M-450.4,710.6h4.5c0-0.2,0-0.3,0-0.5c0-2,0.2-4,0.5-6c-0.1-0.8-0.2-1.6-0.3-2.4h-5.4c0.9-2.8,2.8-5.2,5.3-6.7
			c0.3-3.6,1-7,2.2-10.2c-8.5,1.6-15.2,8.4-16.6,16.9h-5v8.9h5.3c2.1,8,8.9,14.2,17.3,15.3c-1.4-3.2-2.4-6.6-2.9-10.2
			C-447.6,714.5-449.3,712.7-450.4,710.6z"/>
		<path class="st1" d="M-468.3,704.1c0-14.8,12-26.8,26.8-26.8c0.5,0,1,0,1.5,0c1.9-3,4.1-5.6,6.6-8c-2.6-0.6-5.3-0.9-8.1-0.9
			c-19.7,0-35.7,16-35.7,35.7c0,19.7,16,35.7,35.7,35.7c0.1,0,0.3,0,0.4,0c-1.6-2.8-2.8-5.9-3.6-9.1
			C-458,729.1-468.3,717.8-468.3,704.1z"/>
		<path class="st1" d="M-406.8,737.2c-15.6,0-29.1-9.2-35.4-22.4c2.3,17.5,17.3,31,35.4,31c18.1,0,33.1-13.5,35.4-31
			C-377.7,728-391.2,737.2-406.8,737.2z"/>
		<g>
			<path class="st1" d="M-406.8,733.8c-19.7,0-35.7-16-35.7-35.7c0-19.7,16-35.7,35.7-35.7c19.7,0,35.7,16,35.7,35.7
				C-371.1,717.7-387.1,733.8-406.8,733.8z M-406.8,671.3c-14.8,0-26.8,12-26.8,26.8s12,26.8,26.8,26.8c14.8,0,26.8-12,26.8-26.8
				S-392,671.3-406.8,671.3z"/>
		</g>
		<path class="st1" d="M-405,711.2c-4.7,0-8.7-2.7-10.7-6.6h9.3v-8.9h-10c1.5-4.9,6.1-8.4,11.4-8.4c3.2,0,6.2,1.2,8.5,3.5l6.3-6.3
			c-3.9-3.9-9.2-6.1-14.7-6.1c-10.3,0-18.8,7.5-20.5,17.3h-5v8.9h5.3c2.4,8.9,10.5,15.5,20.2,15.5c5.6,0,10.8-2.2,14.7-6.1l-6.3-6.3
			C-398.8,709.9-401.8,711.2-405,711.2z"/>
	</g>
</g>
</svg>
