<?xml version="1.0" encoding="utf-8"?>
<!-- Generator: Adobe Illustrator 16.0.0, SVG Export Plug-In . SVG Version: 6.00 Build 0)  -->
<!DOCTYPE svg PUBLIC "-//W3C//DTD SVG 1.1//EN" "http://www.w3.org/Graphics/SVG/1.1/DTD/svg11.dtd">
<svg version="1.1" id="Capa_1" xmlns="http://www.w3.org/2000/svg" xmlns:xlink="http://www.w3.org/1999/xlink" x="0px" y="0px"
	 width="141.73px" height="141.73px" viewBox="0 0 141.73 141.73" enable-background="new 0 0 141.73 141.73" xml:space="preserve">
<circle fill="#FDC642" cx="70.865" cy="70.865" r="70.866"/>
<path d="M70.865,16.846c-29.786,0-54.019,24.233-54.019,54.02s24.232,54.02,54.019,54.02s54.019-24.233,54.019-54.02
	S100.651,16.846,70.865,16.846z M115.774,66.42h-22.23l20.587-8.393C114.934,60.729,115.491,63.534,115.774,66.42z M110.765,49.799
	l-21.182,8.636l16.167-16.167C107.661,44.595,109.344,47.118,110.765,49.799z M99.463,35.981L84.148,51.295L92.731,31.4
	C95.115,32.726,97.368,34.26,99.463,35.981z M75.311,25.956c3.196,0.314,6.295,0.963,9.263,1.912l-9.263,21.472V25.956z
	 M66.42,25.956v21.167l-7.659-19.736C61.235,26.697,63.795,26.213,66.42,25.956z M50.477,30.612l8.61,22.188L42.268,35.981
	C44.79,33.909,47.541,32.105,50.477,30.612z M35.98,42.268l16.81,16.809l-22.172-8.611C32.109,47.534,33.911,44.787,35.98,42.268z
	 M27.391,58.749l19.751,7.671H25.956C26.214,63.791,26.699,61.228,27.391,58.749z M25.956,75.311h22.23L27.6,83.703
	C26.797,81.002,26.239,78.196,25.956,75.311z M30.966,91.933l21.182-8.636L35.98,99.463C34.069,97.136,32.388,94.613,30.966,91.933z
	 M42.268,105.75l15.314-15.314l-8.583,19.895C46.615,109.004,44.362,107.471,42.268,105.75z M66.42,115.775
	c-3.196-0.314-6.295-0.964-9.263-1.912l9.263-21.472V115.775z M60.899,70.865c0-5.495,4.471-9.966,9.966-9.966
	s9.966,4.471,9.966,9.966s-4.471,9.966-9.966,9.966S60.899,76.36,60.899,70.865z M75.311,115.775V94.606l7.659,19.737
	C80.495,115.033,77.936,115.518,75.311,115.775z M91.255,111.118l-8.611-22.188l16.82,16.819
	C96.94,107.821,94.189,109.626,91.255,111.118z M105.75,99.463L88.94,82.654l22.173,8.611
	C109.621,94.196,107.819,96.943,105.75,99.463z M114.34,82.981l-19.751-7.671h21.186C115.517,77.939,115.031,80.503,114.34,82.981z"
	/>
</svg>
