<?xml version="1.0" encoding="utf-8"?>
<!-- Generator: Adobe Illustrator 19.1.0, SVG Export Plug-In . SVG Version: 6.00 Build 0)  -->
<svg version="1.1" id="Capa_1" xmlns="http://www.w3.org/2000/svg" xmlns:xlink="http://www.w3.org/1999/xlink" x="0px" y="0px"
	 viewBox="-495 638.6 141.7 141.7" style="enable-background:new -495 638.6 141.7 141.7;" xml:space="preserve">
<style type="text/css">
	.st0{fill:#FAC038;}
	.st1{fill:#1D1D1B;}
</style>
<g>
	<circle class="st0" cx="-424.1" cy="709.5" r="70.9"/>
	<g>
		<path class="st1" d="M-381.5,681.5v-19.6h-19.6v8.9h4.4l-4.9,4.9c-6.5-4.3-14.2-6.9-22.6-6.9c-22.4,0-40.7,18.2-40.7,40.7
			c0,20.9,15.9,38.2,36.2,40.4v4.9h-4.2h-1.8v8.9h1.8h4.2v6.3h8.9v-6.3h4.2h1.8v-8.9h-1.8h-4.2v-4.9c20.3-2.2,36.2-19.5,36.2-40.4
			c0-10.9-4.3-20.7-11.2-28l4.4-4.4v4.4H-381.5z M-424.1,741.2c-17.5,0-31.8-14.3-31.8-31.8s14.3-31.8,31.8-31.8
			s31.8,14.3,31.8,31.8S-406.6,741.2-424.1,741.2z"/>
		<rect x="-434.7" y="697.8" class="st1" width="21.1" height="8.9"/>
		<rect x="-434.7" y="711.3" class="st1" width="21.1" height="8.9"/>
	</g>
</g>
</svg>
