<?xml version="1.0" encoding="utf-8"?>
<!-- Generator: Adobe Illustrator 16.0.0, SVG Export Plug-In . SVG Version: 6.00 Build 0)  -->
<!DOCTYPE svg PUBLIC "-//W3C//DTD SVG 1.1//EN" "http://www.w3.org/Graphics/SVG/1.1/DTD/svg11.dtd">
<svg version="1.1" id="Capa_1" xmlns="http://www.w3.org/2000/svg" xmlns:xlink="http://www.w3.org/1999/xlink" x="0px" y="0px"
	 width="141.73px" height="141.73px" viewBox="0 0 141.73 141.73" enable-background="new 0 0 141.73 141.73" xml:space="preserve">
<circle fill="#FDC642" cx="70.865" cy="70.865" r="70.865"/>
<path d="M69.058,112.037c7.365-5.729,7.835-12.664,6.691-17.029l28.52-49.415L70.865,12.189L37.462,45.593l29.463,51.05
	c0.104,0.25,0.494,1.285,0.384,2.627c-0.167,2.031-1.415,3.965-3.709,5.75c-6.771,5.268-7.425,13.373-4.57,18.658
	c2.026,3.752,5.601,5.863,9.519,5.863c1.23,0,2.495-0.207,3.755-0.639l-2.876-8.412c-0.841,0.287-1.805,0.389-2.575-1.037
	C65.98,117.84,65.849,114.533,69.058,112.037z M70.865,24.762l22.294,22.294L70.865,85.684L48.571,47.056L70.865,24.762z"/>
</svg>
