<?xml version="1.0" encoding="utf-8"?>
<!-- Generator: Adobe Illustrator 16.0.0, SVG Export Plug-In . SVG Version: 6.00 Build 0)  -->
<!DOCTYPE svg PUBLIC "-//W3C//DTD SVG 1.1//EN" "http://www.w3.org/Graphics/SVG/1.1/DTD/svg11.dtd">
<svg version="1.1" id="Capa_1" xmlns="http://www.w3.org/2000/svg" xmlns:xlink="http://www.w3.org/1999/xlink" x="0px" y="0px"
	 width="141.73px" height="141.73px" viewBox="0 0 141.73 141.73" enable-background="new 0 0 141.73 141.73" xml:space="preserve">
<circle fill="#FDC642" cx="70.865" cy="70.865" r="70.866"/>
<path d="M65.633,114.457h-8.89V51.246c0-0.229-0.002-0.478-0.003-0.744c-0.023-5.081-0.067-14.539,5.171-19.801
	c2.231-2.242,5.169-3.428,8.496-3.428c3.649,0,6.875,1.305,9.333,3.773c5.147,5.171,5.257,13.708,5.253,14.665l-8.891-0.041
	c0-0.013-0.021-2.91-1.038-5.617c-1.289-3.428-3.078-3.89-4.657-3.89c-1.226,0-1.797,0.409-2.195,0.809
	c-2.632,2.644-2.595,10.521-2.581,13.488c0.001,0.281,0.002,0.544,0.002,0.785V114.457z"/>
</svg>
