<svg xmlns="http://www.w3.org/2000/svg" width="70" height="70" fill="none" viewBox="0 0 70 70">
    <path fill="#fff" d="M35 15.063c-11.076 0-20.084 9.009-20.084 20.085 0 11.075 9.008 20.084 20.084 20.084s20.084-9.008 20.084-20.084S46.076 15.063 35 15.063zm-1.477 7.975c0-.739.738-1.477 1.477-1.477.738 0 1.477.738 1.477 1.477v6.94c0 .74-.739 1.33-1.477 1.33-.739 0-1.477-.738-1.477-1.33v-6.94zM35 45.485c-5.76 0-10.485-4.726-10.485-10.485 0-4.726 3.101-8.713 7.384-10.042v3.84c-2.216 1.18-3.692 3.396-3.692 6.054 0 3.84 3.101 6.793 6.793 6.793 3.84 0 6.793-3.1 6.793-6.793 0-2.658-1.477-5.02-3.692-6.055v-3.84A10.504 10.504 0 0 1 45.485 35c0 5.76-4.726 10.485-10.485 10.485zM11.962 35c0-.886-.738-1.624-1.477-1.624h-8.86C.885 33.376 0 34.114 0 35c0 .886.886 1.624 1.624 1.624h8.861c.59 0 1.477-.738 1.477-1.624zM70 35c0-.886-.738-1.624-1.477-1.624h-8.86c-.739 0-1.625.738-1.625 1.624 0 .886.886 1.624 1.625 1.624h8.86c.59 0 1.477-.738 1.477-1.624zM35 70c.886 0 1.624-.739 1.624-1.477v-8.86c0-.74-.738-1.625-1.624-1.625-.886 0-1.625.886-1.625 1.624v8.861c0 .59.739 1.477 1.625 1.477zM65.274 52.426c.443-.738.148-1.772-.59-2.215l-7.68-4.43c-.59-.296-1.772-.148-2.215.59-.443.738-.148 1.772.59 2.215l7.68 4.43c.738.444 1.772.148 2.215-.59zM17.574 65.422c.738.443 1.772.148 2.215-.59l4.43-7.68c.296-.591.148-1.772-.59-2.215-.739-.444-1.773-.148-2.216.59l-4.43 7.68c-.443.59-.148 1.772.59 2.215zM52.426 65.274c.738-.443 1.034-1.477.59-2.215l-4.43-7.68c-.443-.59-1.477-1.033-2.215-.59-.738.443-1.034 1.477-.59 2.215l4.43 7.68c.443.738 1.477 1.033 2.215.59zM4.726 52.426c.443.738 1.477 1.034 2.215.59l7.68-4.43c.59-.295 1.033-1.476.59-2.215-.443-.738-1.477-1.034-2.215-.59l-7.68 4.43c-.738.443-1.033 1.477-.59 2.215zM35 11.962c.886 0 1.624-.738 1.624-1.477v-8.86C36.624.885 35.886 0 35 0c-.886 0-1.625.886-1.625 1.624v8.861c0 .59.739 1.477 1.625 1.477zM14.916 23.481c.443-.738.147-1.772-.59-2.215l-7.68-4.43c-.591-.296-1.772-.148-2.215.59-.443.739-.148 1.772.59 2.215l7.68 4.43c.738.444 1.772.296 2.215-.59zM46.519 14.915c.738.444 1.772.148 2.215-.59l4.43-7.68c.296-.59.148-1.772-.59-2.215-.739-.443-1.773-.147-2.216.591l-4.43 7.68c-.443.738-.295 1.771.59 2.214zM23.48 15.063c.74-.443 1.035-1.477.591-2.215l-4.43-7.68c-.443-.59-1.477-1.033-2.215-.59-.738.443-1.034 1.477-.59 2.215l4.43 7.68c.443.59 1.476 1.033 2.215.59zM54.936 23.48c.443.74 1.477 1.035 2.216.592l7.679-4.43c.59-.444 1.034-1.477.59-2.216-.443-.738-1.476-1.034-2.215-.59l-7.679 4.43c-.59.443-1.034 1.477-.59 2.215z"/>
</svg>
