<svg xmlns="http://www.w3.org/2000/svg" width="87" height="74" fill="none" viewBox="0 0 87 74">
    <path fill="#fff" d="M29.395 70.744v2.22A1.01 1.01 0 0 0 30.43 74h26.588a1.01 1.01 0 0 0 1.034-1.036v-2.516c14.92-4.883 26.146-17.018 28.657-31.817v-.296a1.01 1.01 0 0 0-1.034-1.036H1.034A1.01 1.01 0 0 0 0 38.335v.444c2.659 14.947 14.18 27.23 29.395 31.965zM58.052 1.042c-.295.444-8.567 12.283.148 21.902 3.988 4.44 3.693 8.287 2.511 10.803h5.613c1.182-3.848.591-8.731-3.84-13.615-6.352-6.955.148-16.575.148-16.723.738-1.035.295-2.515-.887-3.107-1.181-.592-2.806-.296-3.693.74zM44.02 33.747h5.613c1.181-3.848.59-8.731-3.841-13.615-6.352-7.103.148-16.575.148-16.723.738-1.035.295-2.515-.887-3.107-1.33-.592-2.954-.296-3.692.74-.296.444-8.568 12.283.147 21.902 3.988 4.44 3.545 8.287 2.511 10.803zM24.373 1.042c-.295.444-8.567 12.283.148 21.902 3.988 4.44 3.693 8.287 2.511 10.803h5.613c1.182-3.848.591-8.731-3.84-13.615-6.352-6.955.147-16.575.147-16.723.739-1.035.296-2.515-.886-3.107-1.182-.592-2.806-.296-3.693.74z"/>
</svg>
