<svg xmlns="http://www.w3.org/2000/svg" width="70" height="68" fill="none" viewBox="0 0 70 68">
    <path fill="#fff" d="M23.31 39.493a.32.32 0 0 1 .297.297v10.393a.32.32 0 0 1-.297.297h-4.157a.32.32 0 0 1-.297-.297V39.79a.32.32 0 0 1 .297-.297h4.157zM69.188 54.934H.297a.32.32 0 0 0-.297.297v4.158a.32.32 0 0 0 .297.297h68.89a.32.32 0 0 0 .298-.297V55.23c.148-.148 0-.297-.297-.297zM69.188 63.249H.297a.32.32 0 0 0-.297.297v4.157A.32.32 0 0 0 .297 68h68.89a.32.32 0 0 0 .298-.297v-4.157c.148-.149 0-.297-.297-.297zM56.122 28.061c-.89-.742-3.117-2.227-5.938-2.227-1.93 0-3.86.742-5.494 2.376-.148.148-.148.297-.148.445v.445c0 .149 0 .297.148.446.149.148.297.148.446.148h.148c.148 0 .297-.148.297-.148.297-.297 1.336-.594 2.82-.594 1.486 0 4.306.445 7.127 2.97.149.148.297.296.594.296.149 0 .446-.148.594-.297 2.821-2.524 5.642-2.969 7.127-2.969 1.485 0 2.375.297 2.82.594.15.148.15.148.446.297h.446c.297 0 .445-.297.445-.594v-.297c0-.148 0-.297-.148-.445-1.634-1.634-3.564-2.376-5.642-2.376-2.821-.297-5.197 1.336-6.088 1.93zM51.816.594a.32.32 0 0 0-.297.297v.297c0 .148 0 .297.149.445.148.149.297.149.445.297h.149c.148 0 .297 0 .297-.148h.445c.297 0 3.118.148 4.9 3.266.148.148.297.297.445.297h.149c.148 0 .297 0 .297-.148 1.039-.446 2.078-.743 3.118-.743 1.781 0 2.82.743 3.118 1.04 0 .148.148.148.296.296l.149.149H65.92a.32.32 0 0 0 .297-.297v-.297c0-.148 0-.149-.148-.297-1.336-2.376-3.267-2.82-4.603-2.82-1.04 0-1.93.296-2.524.444C58.35 1.782 56.716 0 54.341 0c-.743 0-1.634.297-2.525.594zM37.266 11.284v.297c0 .148.149.297.297.445.149.149.297.149.446 0h.148c.149 0 .149-.148.297-.148.297-.149 1.188-.594 2.672-.594 1.337 0 3.415.297 5.494 2.078.148.149.297.149.594.149.148 0 .445-.149.594-.297 2.227-2.376 4.75-2.821 6.087-2.821.89 0 1.485.148 1.782.297.148.148.148.148.297.148H56.419c.297-.148.446-.296.446-.593v-.297c0-.149-.149-.297-.149-.446-1.336-1.188-2.821-1.781-4.454-1.781-2.376 0-4.306 1.484-5.197 2.078-.742-.445-2.524-1.485-4.602-1.485-1.782 0-3.415.743-4.9 2.227-.148.446-.297.594-.297.743zM2.524 16.777c0-4.157 3.415-7.423 7.424-7.423h.445C10.838 4.157 15.144 0 20.489 0c5.642 0 10.096 4.454 10.096 10.096 0 1.633-.445 3.118-1.04 4.454 5.049 1.188 8.909 5.642 8.909 10.987 0 6.236-5.048 11.284-11.284 11.284-.445 0-14.995-.148-14.995-.148a7.984 7.984 0 0 1-8.018-8.018c0-2.079.891-4.009 2.227-5.493-2.375-1.188-3.86-3.564-3.86-6.385z"/>
</svg>
