<svg xmlns="http://www.w3.org/2000/svg" width="65" height="69" fill="none" viewBox="0 0 65 69">
    <path fill="#fff" d="M58.658 16.222L44.943 29.348c-.59.442-.737.885-.737 1.917v36.574c0 .442.295.737.737.737h14.158c.442 0 .737-.295.737-.737V16.517c.148-.295-.295-1.18-1.18-.295zM19.135 33.33L5.42 46.455c-.59.59-.738.885-.738 1.917v19.614c0 .443.295.738.738.738h14.157c.443 0 .738-.295.738-.738V33.772c0-.59-.295-1.327-1.18-.442z"/>
    <path fill="#fff" d="M65 .442c0-.147 0-.147-.147-.295 0 0-.148-.147-.295-.147h-.295L53.792 2.36h-.148c-.147 0-.147 0-.147.147a.449.449 0 0 0 0 .59l.147.147 2.36 2.36L32.26 29.348 21.2 18.287c-.148-.147-.295-.147-.443 0l-2.95 2.95L.112 38.933c-.148.147-.148.295 0 .442l2.95 2.95c.147.147.294.147.442 0l17.402-17.403 7.963 7.964 2.95 2.95c.147.147.295.147.442 0L59.248 8.849l2.508 2.507a.449.449 0 0 0 .59 0c.147-.148.147-.148.147-.295L65 .442z"/>
    <path fill="#fff" d="M39.044 35.542l-6.636 6.636c-.148.148-.295.148-.443 0l-6.046-6.194c-1.032-1.032-1.327-.147-1.327.295v31.56c0 .442.295.737.737.737h14.158c.442 0 .737-.295.737-.737V35.837c.148-.443-.295-1.18-1.18-.295z"/>
</svg>
