<svg xmlns="http://www.w3.org/2000/svg" width="101" height="51" fill="none" viewBox="0 0 101 51">
    <path fill="#fff" d="M92.017 5.287C84.918-.335 75.448-.483 72.046.405l-.444.148c-3.994.888-10.356 2.515-17.753 11.687l-.147.148-.148.148c0 .148-.148.296-.148.296 0 .148 0 .148.148.296l.148.296c.887 1.627 2.07 3.55 3.106 5.473.148.148.296.296.592.296.148 0 .296 0 .444-.148l.148-.148C64.649 9.725 69.827 8.542 73.229 7.654l.444-.148c1.775-.444 8.728-.444 13.758 3.55 3.847 3.107 5.918 7.99 5.918 14.499 0 11.095-5.326 15.385-9.912 17.013-6.953 2.662-13.61-.888-13.758-.888l-.296-.148c-3.846-1.627-9.616-5.178-14.942-15.977C43.641 3.808 34.47 1.737 28.552.405h-.296C25.593-.187 15.977-.63 8.58 5.287 4.734 8.394 0 14.46 0 25.555c0 6.805 1.331 11.243 5.03 15.977.74 1.036 8.876 11.391 24.41 8.432 2.515-.443 5.917-1.627 9.616-4.438l3.402 3.107c.296.148.592.148.74 0 .148-.148.148-.296.148-.444l2.515-15.237v-.148c0-.148 0-.296-.148-.444-.148-.148-.296-.148-.296-.148h-.296l-14.498 4.142h-.296c-.148 0-.148.148-.296.148-.147.296-.147.592 0 .74l.148.148 3.255 2.958a16.33 16.33 0 0 1-5.326 2.22c-11.243 2.219-16.865-5.178-17.013-5.474l-.148-.148c-2.662-3.403-3.55-6.361-3.55-11.54 0-6.656 1.923-11.538 5.77-14.497 4.882-3.847 11.539-3.847 13.462-3.403l.296.148c4.882 1.184 11.687 2.663 21.007 21.303 4.882 9.616 10.8 15.977 18.492 19.38C67.46 48.781 72.046 51 77.964 51c2.514 0 5.177-.444 8.136-1.48 4.438-1.627 14.646-7.248 14.646-23.965 0-11.096-4.734-17.161-8.728-20.268z"/>
</svg>
