<svg xmlns="http://www.w3.org/2000/svg" width="90" height="74" fill="none" viewBox="0 0 90 74">
    <path fill="#fff" d="M35.025 21.468L6.207 4.738v54.04l28.818 8.736V21.468zM38.276 21.616v45.898l28.965-8.736V4.738L38.276 21.616zM83.94 57.89h-.738l3.399 11.992L90 57.89h-.887H90V9.772H83.202V57.89h.739z"/>
    <path fill="#fff" d="M73.448 7.107L70.345 4.59v55.669l-32.07 10.364h-3.25L3.103 61.739V4.59L0 7.108V63.96l34.877 9.624H38.424L70.64 63.368l2.808-.888V7.107zM90 3.405C90 1.481 88.522 0 86.601 0s-3.399 1.48-3.399 3.405v3.702H90V3.405z"/>
</svg>
