<svg xmlns="http://www.w3.org/2000/svg" width="84" height="84" fill="none" viewBox="0 0 84 84">
    <path fill="#fff" d="M56.702 46.654H27.15a.318.318 0 0 0-.295.296v8.865c0 .148.148.296.295.296h29.552a.318.318 0 0 0 .295-.296V46.95a.318.318 0 0 0-.295-.296zM56.702 27.741H27.15a.318.318 0 0 0-.295.296v8.865c0 .148.148.296.295.296h29.552a.318.318 0 0 0 .295-.296v-8.865a.318.318 0 0 0-.295-.296zM56.259 14.296L42.074.11c-.148-.148-.296-.148-.296 0L27.594 14.295c-.148.148 0 .444.147.444h28.37c.148 0 .295-.296.148-.444zM69.557 56.406L83.74 42.222c.148-.148.148-.296 0-.296L69.558 27.741c-.148-.147-.443 0-.443.148v28.222c0 .295.295.443.443.295zM27.594 69.704L41.778 83.89c.148.148.296.148.296 0l14.185-14.184c.147-.148 0-.444-.148-.444h-28.37c-.295 0-.295.296-.147.444zM14.296 27.594L.11 41.778c-.148.148-.148.296 0 .296l14.184 14.185c.148.147.444 0 .444-.148V27.74c-.148-.147-.296-.295-.444-.147z"/>
</svg>
