<svg xmlns="http://www.w3.org/2000/svg" width="64" height="86" fill="none" viewBox="0 0 64 86">
    <path fill="#fff" d="M63.088 0H43.142c-.147 0-.295.148-.295.296v6.661c0 .148.148.296.295.296h7.979l-8.865 8.881c-4.432-3.552-10.047-5.625-16.105-5.625C11.672 10.51 0 22.352 0 36.71c0 13.322 9.9 24.423 22.9 26.052v7.697h-7.83c-.148 0-.295.148-.295.296v7.105c0 .148.147.296.295.296h7.83v7.549c0 .148.149.296.296.296h7.092c.148 0 .296-.148.296-.296v-7.55h7.83a.318.318 0 0 0 .296-.295v-7.105a.318.318 0 0 0-.296-.296h-7.83v-7.845c12.41-2.073 22.014-12.878 22.014-25.904 0-5.625-1.773-10.805-4.728-15.098l8.717-8.733v7.4c0 .149.148.297.296.297h6.649c.147 0 .295-.148.295-.296V.296c-.59-.148-.59-.296-.739-.296zM26.004 56.1c-10.638 0-19.355-8.733-19.355-19.39 0-10.658 8.717-19.392 19.355-19.392 10.637 0 19.355 8.734 19.355 19.391C45.21 47.367 36.64 56.1 26.004 56.1z"/>
    <path fill="#fff" d="M37.824 28.716H14.479c-.147 0-.295.148-.295.296v5.625c0 .148.148.296.295.296h23.345c.147 0 .295-.148.295-.296v-5.625c-.148-.148-.148-.296-.295-.296zM37.824 38.93H14.479c-.147 0-.295.148-.295.295v5.625c0 .148.148.296.295.296h23.345c.147 0 .295-.148.295-.296v-5.625c-.148-.148-.148-.296-.295-.296z"/>
</svg>
