<svg xmlns="http://www.w3.org/2000/svg" width="66" height="65" fill="none" viewBox="0 0 66 65">
    <path fill="#fff" d="M66 28.857c0-9.323-7.4-17.018-16.722-17.314C46.91 4.883 40.548 0 33 0c-7.547 0-13.91 4.883-16.278 11.543C7.547 11.839 0 19.533 0 28.857c0 5.475 2.664 10.506 6.66 13.614-.445 1.48-.74 3.108-.74 4.735 0 9.471 7.694 17.314 17.313 17.314 3.552 0 6.955-1.184 9.767-2.96 2.812 1.776 6.067 2.96 9.619 2.96 9.47 0 17.314-7.695 17.314-17.314 0-1.628-.296-3.255-.592-4.735C63.336 39.363 66 34.33 66 28.857zM46.762 17.314c0 6.955-5.18 12.726-11.838 13.614-.148-.74-.148-1.332-.148-2.071 0-6.956 5.18-12.727 11.838-13.615.148.592.148 1.332.148 2.072zM33.148 57.12c-2.516-2.516-4.144-6.067-4.144-9.915 0-3.847 1.628-7.25 4.144-9.767 2.516 2.516 4.143 6.068 4.143 9.915-.148 3.7-1.627 7.252-4.143 9.767zM19.386 15.242c6.659 1.036 11.838 6.66 11.838 13.615 0 .74 0 1.48-.148 2.071-6.659-1.036-11.838-6.659-11.838-13.614 0-.74 0-1.48.148-2.072zm10.358 19.83c-2.22 4.587-6.955 7.695-12.282 7.695-2.22 0-4.44-.592-6.363-1.628 2.22-4.587 6.955-7.695 12.282-7.695 2.22 0 4.44.592 6.363 1.628zm6.512-.148c1.923-1.036 4.143-1.628 6.363-1.628 5.475 0 10.063 3.108 12.43 7.695-1.923 1.036-4.143 1.628-6.363 1.628-5.475 0-10.063-3.108-12.43-7.695zM33 3.552c5.623 0 10.507 3.403 12.726 8.287-5.623 1.035-10.358 4.735-12.726 9.766-2.368-5.031-7.103-8.73-12.727-9.766C22.493 6.955 27.377 3.552 33 3.552zM3.552 28.857c0-7.104 5.475-13.023 12.282-13.763-.148.74-.148 1.48-.148 2.22 0 5.031 2.22 9.619 5.623 12.726-5.77.592-10.654 4.144-13.318 9.027-2.664-2.515-4.44-6.067-4.44-10.21zM9.47 47.354c0-1.035.148-1.923.296-2.811 2.22 1.036 4.883 1.775 7.547 1.775 2.96 0 5.92-.74 8.287-2.22-.148 1.037-.296 2.072-.296 3.256 0 4.736 1.924 8.88 4.883 11.987-2.071 1.184-4.44 1.924-6.955 1.924-7.547-.148-13.762-6.364-13.762-13.91zm47.058-.148c0 7.547-6.215 13.763-13.762 13.763-2.516 0-4.736-.592-6.807-1.776a17.048 17.048 0 0 0 4.735-11.839c0-1.184-.148-2.22-.296-3.255 2.516 1.332 5.328 2.22 8.435 2.22 2.664 0 5.327-.593 7.547-1.776 0 .74.148 1.627.148 2.663zM44.84 30.04c3.403-3.107 5.475-7.695 5.475-12.726 0-.74 0-1.48-.148-2.22 6.955.74 12.282 6.66 12.282 13.763 0 3.995-1.775 7.695-4.587 10.21-2.516-4.883-7.4-8.435-13.022-9.027z"/>
</svg>
