<svg xmlns="http://www.w3.org/2000/svg" width="95" height="71" fill="none" viewBox="0 0 95 71">
    <path fill="#fff" d="M.742 51.211h20.93c.297 0 .445-.297.445-.445 0-.149 0-.297-.148-.297l-10.39-13.508-.15-.148c-.148-.149-.296-.149-.445-.149-.148 0-.296 0-.296.149l-.149.148L.297 50.321l-.149.148c0 .148-.148.148-.148.297.297.297.594.445.742.445zM21.672 53.14H.594c-.297 0-.446.298-.446.446v16.477c0 .297.297.445.446.445h6.828v-10.39c0-.297.297-.446.445-.446h6.235c.296 0 .445.297.445.445v10.391h6.976c.297 0 .446-.297.446-.445V53.586c.297-.148 0-.445-.297-.445zM94.406 48.836h-20.78c-.298 0-.446.149-.446.446V70.36c0 .297.297.445.445.445h20.781c.297 0 .446-.148.446-.445V49.282c.148-.149-.149-.446-.446-.446zm-11.43 13.805c0 .297-.296.445-.445.445h-6.234c-.297 0-.445-.148-.445-.445V58.93c0-.297.296-.445.445-.445h6.234c.297 0 .446.148.446.445v3.711zm0-6.977c0 .297-.296.446-.445.446h-6.234c-.297 0-.445-.149-.445-.446v-3.71c0-.297.296-.446.445-.446h6.234c.297 0 .446.148.446.445v3.711zm9.5 6.977c0 .297-.296.445-.445.445h-6.234c-.297 0-.445-.148-.445-.445V58.93c0-.297.296-.445.445-.445h6.234c.297 0 .446.148.446.445v3.711zm0-6.977c0 .297-.296.446-.445.446h-6.234c-.297 0-.445-.149-.445-.446v-3.71c0-.297.296-.446.445-.446h6.234c.297 0 .446.148.446.445v3.711zM46.016 0H25.68c-.297 0-.446.148-.446.445v69.766c0 .297.297.446.445.446h20.337c.296 0 .445-.297.445-.446V.594C46.609.297 46.312 0 46.016 0zM33.844 62.79a.32.32 0 0 1-.297.296h-4.602a.32.32 0 0 1-.297-.297v-5.195a.32.32 0 0 1 .297-.297h4.602a.32.32 0 0 1 .297.297v5.195zm0-12.024a.32.32 0 0 1-.297.297h-4.602a.32.32 0 0 1-.297-.297V45.57a.32.32 0 0 1 .297-.297h4.602a.32.32 0 0 1 .297.297v5.195zm0-11.875a.32.32 0 0 1-.297.297h-4.602a.32.32 0 0 1-.297-.297v-5.196a.32.32 0 0 1 .297-.296h4.602a.32.32 0 0 1 .297.296v5.196zm0-12.024a.32.32 0 0 1-.297.297h-4.602a.32.32 0 0 1-.297-.297v-5.195a.32.32 0 0 1 .297-.297h4.602a.32.32 0 0 1 .297.297v5.195zm0-11.875a.32.32 0 0 1-.297.297h-4.602a.32.32 0 0 1-.297-.297V9.797a.32.32 0 0 1 .297-.297h4.602a.32.32 0 0 1 .297.297v5.195zm9.203 47.797a.32.32 0 0 1-.297.297h-4.602a.32.32 0 0 1-.297-.297v-5.195a.32.32 0 0 1 .297-.297h4.602a.32.32 0 0 1 .297.297v5.195zm0-12.023a.32.32 0 0 1-.297.297h-4.602a.32.32 0 0 1-.297-.297V45.57a.32.32 0 0 1 .297-.297h4.602a.32.32 0 0 1 .297.297v5.195zm0-11.875a.32.32 0 0 1-.297.297h-4.602a.32.32 0 0 1-.297-.297v-5.196a.32.32 0 0 1 .297-.296h4.602a.32.32 0 0 1 .297.296v5.196zm0-12.024a.32.32 0 0 1-.297.297h-4.602a.32.32 0 0 1-.297-.297v-5.195a.32.32 0 0 1 .297-.297h4.602a.32.32 0 0 1 .297.297v5.195zm0-11.875a.32.32 0 0 1-.297.297h-4.602a.32.32 0 0 1-.297-.297V9.797a.32.32 0 0 1 .297-.297h4.602a.32.32 0 0 1 .297.297v5.195zM94.852 46.758c0 .297-.149.445-.446.445h-20.93c-.296 0-.445-.148-.445-.445v-4.156c0-.297.149-.445.446-.445h21.078c.297 0 .445.148.445.445v4.156h-.148zM70.656 13.211c0-.148-.296-.445-.445-.445-.148 0-.148 0-.297.148l-.148.149-20.04 25.383-.148.148c-.148.148-.148.297-.148.445v31.172c0 .297.297.445.445.445h20.336c.297 0 .445-.148.445-.445v-57zm-8.46 13.805l.148-.149c1.336-1.78 3.71-4.601 4.75-5.937l.148-.149c.149-.148.297-.148.446-.148.297 0 .445.148.593.445v6.532c0 .296-.296.593-.593.593H62.64c-.297 0-.594-.297-.594-.593 0-.446.149-.446.149-.594zM59.078 62.64c0 .297-.148.445-.445.445h-6.086c-.297 0-.445-.148-.445-.445v-3.86c0-.296.148-.445.445-.445h6.086c.297 0 .445.149.445.446v3.859zm0-7.125c0 .297-.148.445-.445.445h-6.086c-.297 0-.445-.148-.445-.445v-3.86c0-.296.148-.445.445-.445h6.086c.297 0 .445.149.445.446v3.859zm0-6.977c0 .297-.148.446-.445.446h-6.086c-.297 0-.445-.297-.445-.446v-3.86c0-.296.148-.444.445-.444h6.086c.297 0 .445.148.445.445v3.86zm0-15.437v8.312c0 .297-.297.445-.445.445h-6.086c-.297 0-.445-.148-.445-.445v-1.039-.148c.742-1.04 4.304-5.492 5.789-7.274l.148-.148c.149-.149.297-.149.446-.149.297 0 .445.149.593.446zm9.203 29.539c0 .297-.296.445-.445.445H61.75c-.297 0-.445-.148-.445-.445v-3.86c0-.296.297-.445.445-.445h6.086c.297 0 .445.149.445.446v3.859zm0-7.125c0 .297-.296.445-.445.445H61.75c-.297 0-.445-.148-.445-.445v-3.86c0-.296.297-.445.445-.445h6.086c.297 0 .445.149.445.446v3.859zm0-6.977c0 .297-.296.446-.445.446H61.75c-.297 0-.445-.297-.445-.446v-3.86c0-.296.297-.444.445-.444h6.086c.297 0 .445.148.445.445v3.86zm0-6.976c0 .297-.296.445-.445.445H61.75c-.297 0-.445-.148-.445-.445v-3.86c0-.297.297-.445.445-.445h6.086c.297 0 .445.148.445.445v3.86zm0-7.125c0 .296-.296.445-.445.445H61.75c-.297 0-.445-.297-.445-.445v-3.86c0-.297.297-.445.445-.445h6.086c.297 0 .445.148.445.445v3.86z"/>
</svg>
