<svg xmlns="http://www.w3.org/2000/svg" width="61" height="83" fill="none" viewBox="0 0 61 83">
    <path fill="#fff" d="M60.09.298C59.941.149 59.793 0 59.495 0H.744C.595 0 .298.149.149.298 0 .447 0 .596 0 .894l9.817 59.903c0 .298.297.596.743.596h12.197l.892 9.686h-5.057L30.492 83 42.39 71.079h-5.057l.893-9.686H50.57c.297 0 .595-.298.744-.596L60.536.894C60.24.745 60.24.447 60.09.298zM37.333 48.28s-2.677 2.682-6.99 2.384c-4.314.298-6.991-2.384-6.991-2.384-4.462-4.47-2.826-9.835-1.339-12.666.893-1.788 7.735-11.921 8.33-12.815.595.894 7.288 11.027 8.329 12.815 1.487 2.831 3.123 8.196-1.339 12.666zm18.741-35.316c-1.636-.745-3.57-.447-5.503.298-7.288 2.98-12.197 4.023-19.93 1.64-4.76-1.49-9.371-4.62-14.726-2.832-3.57 1.341-6.842 2.533-10.858 2.533l-2.38-11.92H57.71l-1.636 10.281z"/>
</svg>
