<svg xmlns="http://www.w3.org/2000/svg" width="88" height="74" fill="none" viewBox="0 0 88 74">
    <path fill="#fff" d="M87.884 53.617c-2.068-2.807-15.066-19.35-33.529-19.35-15.952 0-32.938 14.475-32.938 14.475S15.066 35.597 1.92 34.416H1.477c-.295 0-.59.296-.443.591 0 .295.148.443.148.443 1.624 2.806 6.055 10.783 6.055 18.759 0 7.976-4.283 15.952-6.055 18.758l-.148.148c0 .147-.148.147-.148.295 0 .296.148.443.443.443h.296c13.145-1.181 19.497-14.327 19.497-14.327S38.108 74 54.06 74c18.315 0 31.46-16.69 33.529-19.35 0-.147.147-.147.147-.147v-.295c.296-.591.296-.591.148-.591zm-23.19 2.363a5.295 5.295 0 0 1-5.317-5.317 5.295 5.295 0 0 1 5.318-5.318 5.295 5.295 0 0 1 5.317 5.318 5.295 5.295 0 0 1-5.317 5.317zM20.235 19.202c0-.148.148-.148 0 0 .296-.148.296-.296.444-.296.147 0 .295 0 .295.148 10.044 9.6 20.531 1.772 22.747 0l.147-.148h.296l.147.148c2.216 1.772 12.703 9.6 22.747 0 .147-.148.147-.148.295-.148s.148 0 .296.148l.147.148c1.92 1.92 10.34 9.157 19.202 1.477.148-.148.148-.148.148-.443v-3.693c0-.295-.296-.59-.591-.59h-.148c-.148 0-.148.147-.295.147-2.659 1.33-11.226 4.579-18.906-2.659 0 0-.148-.148-.296-.148H66.467c-.148 0-.148.148-.295.148-2.216 1.773-12.703 8.862-22.156.148l-.148-.148c-.148-.148-.295-.148-.443-.148-.148 0-.295 0-.295.148l-.148.148c-9.305 8.714-19.792 1.625-22.156-.148 0-.148-.147-.148-.295-.148h-.296s-.147.148-.295.148C12.26 20.68 3.84 17.43 1.034 16.1c-.148 0-.148-.148-.295-.148H.59c-.296 0-.591.296-.591.591v3.693c0 .147 0 .295.148.443 9.748 7.68 18.167.443 20.087-1.477zM1.625 2.806c-.148 0-.148 0 0 0-.443 0-.591.148-.591.444v3.692c0 .148 0 .296.148.443 8.862 7.68 17.281.443 19.201-1.477l.148-.148c.148 0 .148-.147.295-.147.148 0 .296 0 .296.147 10.044 9.601 20.53 1.773 22.746 0l.148-.147h.295l.148.147c2.216 1.773 12.703 9.601 22.746 0 .148-.147.148-.147.296-.147s.148 0 .295.147l.148.148c1.92 1.92 10.34 9.158 19.202 1.477.147-.147.147-.295.147-.443V3.25c0-.296-.295-.591-.59-.591h-.148c-.148 0-.148.147-.296.147-2.658 1.33-11.225 4.58-18.906-2.658L67.206 0H66.761c-.147 0-.147.148-.295.148C64.251 1.92 53.764 9.01 44.311.295l-.147-.147C44.016 0 43.868 0 43.72 0c-.147 0-.295 0-.295.148l-.148.147C33.972 9.01 23.485 1.92 21.122.148c0-.148-.148-.148-.296-.148h-.295c0 .148-.148.148-.296.148-7.68 7.237-16.1 3.988-18.906 2.658h.296z"/>
</svg>
