<svg xmlns="http://www.w3.org/2000/svg" width="78" height="73" fill="none" viewBox="0 0 78 73">
    <path fill="#fff" d="M66.96.6s-1.64 2.088-1.193 4.176c.447 2.088 2.833 3.281 2.833 3.281s1.64-2.088 1.193-4.176C69.346 1.794 66.96.601 66.96.601zM64.425 12.531s1.64-2.088 1.193-4.176c-.447-2.087-2.834-3.28-2.834-3.28s-1.64 2.087-1.193 4.175c.597 2.088 2.834 3.281 2.834 3.281zM70.987 10.294s1.64 1.64 3.579 1.492c1.938-.15 3.28-2.088 3.28-2.088s-1.64-1.64-3.579-1.492c-1.938.15-3.28 2.088-3.28 2.088zM73.671 1.346c-1.491 1.64-1.342 4.325-1.342 4.325s2.684.298 4.325-1.342C78.145 2.838 77.996.004 77.996.004s-2.834-.149-4.325 1.342zM70.241 16.558c1.939.298 3.728-1.342 3.728-1.342s-1.342-1.94-3.131-2.237c-1.94-.15-3.729 1.342-3.729 1.342s1.193 2.088 3.132 2.237zM71.881 46.98H57.714c-1.044 0-1.939.895-1.939 1.94 0 1.043.895 1.938 1.939 1.938H71.88c1.044 0 1.939-.895 1.939-1.939.15-1.044-.746-1.938-1.939-1.938zM71.881 69.052H57.714c-1.044 0-1.939.895-1.939 1.939s.895 1.939 1.939 1.939H71.88c1.044 0 1.939-.895 1.939-1.94.15-1.043-.746-1.938-1.939-1.938zM8.351 42.06c-.298-.15-.596-.15-1.044-.299.15.15.448.15 1.044.298z"/>
    <path fill="#fff" d="M71.434 52.35H58.31c-.596 0-1.193.447-1.193 1.192v4.027l-8.5.895-12.527-.298V50.56c1.64-.15 3.28-.597 4.921-1.044 12.08-3.43 14.615-10.887 14.317-17.747-.299-7.009 1.938-9.693 5.22-10.886.894-.299 1.789-.597 2.684-.746 0 1.79.447 3.728 1.193 6.114h.895c-.746-2.386-1.194-4.474-1.194-6.114 1.641-.15 2.834-.15 2.834-.15s-1.193-.596-2.684-1.938c.596-3.28 2.535-5.369 4.623-7.457 1.193-1.193 2.237-2.386 3.132-3.728l-.746-.447a17.991 17.991 0 0 1-3.132 3.579c-1.939 2.088-4.027 4.176-4.623 7.457l-2.088-2.088c-2.983-3.281-6.71-.895-12.229 4.175-5.517 5.07-12.229 5.22-18.94-1.64C21.476 8.803 13.72 8.952 8.5 9.4c3.58 1.49 4.922 4.92 6.711 13.421 1.939 8.948 6.711 13.124 13.422 13.571-3.132.448-3.877.895-8.799 4.325-3.877 2.684-9.246 1.79-11.483 1.342 4.027 1.193 8.799 5.518 13.124 7.01 2.535.894 5.07 1.342 7.755 1.64v7.307L5.518 57.57v5.07l43.099-.894 8.5.895v4.026c0 .597.448 1.193 1.193 1.193h13.124c.597 0 1.193-.447 1.193-1.193V53.692c0-.746-.596-1.343-1.193-1.343zm-40.117-1.641c.895 0 1.94 0 2.834-.15v7.457h-2.834V50.71zM4.325 61.745c0 1.044-.746 1.939-1.64 1.939H1.64c-.894 0-1.64-.895-1.64-1.94v-3.578c0-1.044.746-1.94 1.64-1.94h1.044c.895 0 1.64.896 1.64 1.94v3.579z"/>
</svg>
