<svg xmlns="http://www.w3.org/2000/svg" width="108" height="76" fill="none" viewBox="0 0 108 76">
    <path fill="#fff" d="M108 40.167c0-4.595-2.959-8.3-7.249-8.3-2.22 0-4.883 2.372-6.362 3.854-1.48-1.482-3.995-3.854-6.066-3.854-4.438 0-7.545 3.705-7.545 8.3a8.19 8.19 0 0 0 2.367 5.78L94.39 57.362l11.244-11.265c1.479-1.63 2.367-3.705 2.367-5.929z"/>
    <path fill="#fff" d="M59.918 75.888s-.148 0 0 0c-1.036 0-1.628-.741-1.776-1.482l-5.77-33.498-8.728 16.008c-.444.741-1.184 1.037-1.923.89-.74-.149-1.332-.742-1.48-1.631l-3.699-25.79-6.805 15.266c-.296.741-1.036 1.038-1.627 1.038H1.923C.888 46.689 0 45.799 0 44.762c0-1.038.888-1.927 1.923-1.927h25.003l8.877-20.01c.296-.74 1.183-1.185 1.923-1.037.888.148 1.48.741 1.627 1.63l3.847 26.68 8.58-15.86c.445-.74 1.184-1.037 1.924-.889.74.148 1.332.741 1.48 1.482L60.51 65.81 79.89 1.334C80.038.593 80.778.148 81.518 0c.74 0 1.48.296 1.775 1.038l10.208 21.195c.444.89 0 2.075-.887 2.52-.888.444-2.072 0-2.515-.89L81.962 6.966l-20.269 67.44c-.296.889-1.035 1.482-1.775 1.482z"/>
</svg>
