<svg xmlns="http://www.w3.org/2000/svg" width="69" height="70" fill="none" viewBox="0 0 69 70">
    <path fill="#fff" d="M68.409 38.526l-16.105-9.308V10.6c0-.443-.148-.739-.59-.886L35.016.11a1.262 1.262 0 0 0-1.034 0L17.287 9.715c-.296.147-.591.59-.591.886v18.617L.59 38.526c-.296.148-.591.591-.591.887V58.62c0 .443.148.738.591.886l16.696 9.604c.148.148.295.148.59.148.296 0 .444 0 .592-.148l16.105-9.309 16.105 9.309c.148.148.295.148.59.148.296 0 .444 0 .592-.148l16.548-9.456c.295-.148.591-.591.591-.887V39.56c-.148-.443-.296-.886-.591-1.034zM33.392 56.847l-13.446-7.683 13.446-7.683v15.366zM48.906 29.81L35.46 37.492V21.978l13.446 7.83zm-15.514 7.83l-13.446-7.682 13.446-7.683V37.64zm3.25 1.774l14.48-8.422 14.48 8.422-14.48 8.422-14.48-8.422zm13.446-11.525l-13.446-7.683 13.446-7.683v15.366zM32.21 20.205l-13.446 7.683V12.374l13.446 7.831zM16.696 66.451L2.216 58.03V41.334l14.48 8.421v16.696zm2.216 0V50.937l13.446 7.684-13.446 7.83zm47.724-8.421l-14.48 8.421V49.755l14.48-8.421v16.695z"/>
</svg>
