<svg xmlns="http://www.w3.org/2000/svg" width="119" height="61" fill="none" viewBox="0 0 119 61">
    <path fill="#fff" d="M118.557 29.829C114.275 23.922 95.229.148 59.5 0 23.918 0 4.577 23.627.443 29.68a2.038 2.038 0 0 1-.443.591c.148.148.295.444.443.739C4.725 36.916 23.77 60.69 59.5 60.838c35.582 0 54.923-23.626 59.057-29.68.148-.296.295-.444.443-.739 0-.148-.148-.295-.443-.59zM39.716 15.062c.295-.443 1.329-1.772 1.476-1.92.296-.295.886-.443 1.181-.443.443 0 .886.148.886.443 0 .296-.147 1.33-.295 1.625-.59.59-1.92 1.329-2.658 1.181-.442-.295-.738-.738-.59-.886zm-1.329 2.51l.148-.147c.443-.443 1.329-.591 1.92-.739.59-.147 1.476.148 1.476.59.147.444-1.625 1.182-1.92 1.478-.886.738-2.215 2.362-2.953 2.51h-.59c.59-1.329 1.18-2.51 1.92-3.692zm13.288 27.466c-.443 1.92-1.034 2.658-1.476 3.249-.443.59-2.215 1.329-3.396 1.329-1.181-.148-1.33-3.101-1.33-4.578 0-.59-.737 1.034-1.18-2.215-.295-2.067-1.624.148-1.624-1.181-.148-1.33-.738-1.034-1.477-1.92-.738-.886-1.624.148-2.51.443-1.033.443-.59.59-1.919.148h-.148c-1.18-2.954-1.919-6.202-1.919-9.598 0-.886 0-1.625.148-2.51 0-.148.147-.148.147-.296 1.33-1.477 1.33-1.92 1.33-1.92l1.476-.443s2.362.296 4.134 1.034c1.476.59 3.69 1.772 5.02 1.181.885-.443 1.771-.886 1.623-1.772-.147-1.033-.885-1.181-1.771-.59-.296.295-1.034-1.477-1.624-1.477-.59.148.738 2.067.295 2.067-.443.148-1.476-2.067-1.624-2.362-.148-.296-.886-1.182-1.624-.591-1.477 1.329-3.839 1.329-4.282 1.624-1.476 1.034-1.772-.295-1.772-1.181 0-.148.148-.443.148-.59.443-.591 2.215-.74 2.805-.296.59.443 1.034-.148 1.33-.295.294-.296.147-.739 0-1.034-.149-.295.294-.59.59-.738.295-.148 1.476-.886 1.919-1.182.443-.295 2.805-.59 3.839 0 1.033.59 1.92.148 2.51-.443.59-.738 1.476-1.329 1.771-1.476.296-.148-.886-1.33-1.919 0-1.033 1.329-1.476 1.329-2.067 1.329-.443 0-3.396-.739-3.691-1.625-.295-.886.886-1.624 1.92-2.067 1.033-.443 3.986-.443 4.724-.59 1.476-.296 3.396-1.034 4.43-.444 1.033.59-3.987 1.772-2.363 2.658.59.296 3.248-1.476 4.134-1.92 2.067-1.033-2.067-1.476-1.477-3.691.591-2.51-5.167-1.624-7.972-1.329 3.838-2.51 8.415-3.84 13.435-3.84 11.664 0 21.556 8.122 24.066 19.05 0 .59 0 .886-.148 1.18-.295.887-1.919 1.625-2.953.149-.295-.296-1.328-1.33-1.328.295 0 1.772 1.624 1.92.147 2.953-1.624 1.034-1.919.739-2.657 1.034-.739.295-1.477 2.067-1.329 2.953.148.886 2.51 3.544.738 3.396-.443 0-3.396-2.067-3.838-3.396-.443-1.329-1.034-2.658-1.477-3.691-.443-1.034-1.476-1.33-2.362-.739-.886.59.295 1.182-.443 2.51-.59 1.33-1.034 2.51-2.067 1.33-2.362-2.806-5.906-1.477-6.496-4.578-.296-1.624-1.772-1.477-2.953-2.51-1.181-.886-1.92-1.477-2.067-.739-.148.59 3.838 3.692 4.134 4.578.443 1.181-1.181 2.215-2.363 2.51-1.18.296-1.624-.59-2.805-1.92-1.18-1.18-1.624-2.067-1.771-1.18-.148 1.328 1.033 3.395 2.214 4.134 1.034.59 2.067.886 1.772 1.92-.295 1.033 0 .443-1.181 1.624s-1.33 1.477-1.33 2.953c.149 1.624-.294 1.624-.59 2.953-.443 1.477-.886.444-1.476 2.363zm26.723-9.893c.886 0 2.067 1.033 1.624 1.476-.443.443-1.771.295-2.362-.148-.738-.442.295-1.328.738-1.328zm-1.033-.739c-.295-.148-.443-.295-.739-1.033-.147-.591.296-.886.739-.739.443.295 1.18 1.034 1.18 1.477 0 .443-.885.295-1.18.295zm-11.073-.148c-.443.444-1.772.296-2.363-.147-.59-.443.443-1.33.739-1.33.885-.147 2.214 1.035 1.624 1.477zm-10.04 5.021c-.295.59-1.329 4.725-1.92 4.282-.59-.443.296-4.873.443-5.168.886-1.92 3.1-1.772 1.477.886zM59.5 55.375c-2.362 0-4.725-.295-6.94-1.034-.294-.295-.442-.738-.294-1.181.738-2.067 3.1-2.806 4.872-2.953 3.986-.444 9.301 2.657 10.187 2.214.886-.443 2.51-2.657 5.02-2.657 1.772 0 1.624.295 2.215.59-4.135 3.249-9.302 5.02-15.06 5.02zm17.57-7.236c-.296 0-.444-.148-.739-.295-1.329-.739-1.18.443-1.92.148-.737-.296.74-1.773-1.18-.444-1.92 1.33-1.477-.147-2.362-2.362-.886-2.215 1.033-4.725 2.51-5.316 2.214-.738 3.543-.886 4.576-1.181 2.953-.739 3.691-2.51 4.134-1.477.148.147.148.443.296.59.147.296.442 1.034.442 1.625-1.328 3.396-3.248 6.35-5.757 8.712zm6.791-12.404c-.738-.148-3.396-3.987-1.181-6.645.295-.443-.738-1.624-.443-1.624 1.181-.148 1.772.59 2.215 1.772v1.477c0 1.624-.148 3.396-.591 5.02z"/>
</svg>
