<svg xmlns="http://www.w3.org/2000/svg" width="120" height="53" fill="none" viewBox="0 0 120 53">
    <path fill="#fff" d="M104.889 4.44c0-2.516 2.074-4.44 4.444-4.44 2.519 0 4.445 1.924 4.445 4.44 0 2.517-1.926 4.44-4.445 4.44-2.518 0-4.444-2.071-4.444-4.44zM114.519 10.509c2.962.296 5.481 2.812 5.481 5.92v12.285c0 .888-.741 1.776-1.778 1.776-.889 0-1.778-.74-1.778-1.776V18.057c0-.444-.148-.888-.888-.888-.445 0-.593.592-.593.888V49.88c0 1.332-1.037 2.516-2.519 2.516-1.333 0-2.518-1.184-2.518-2.516V31.674c0-.148-.148-.74-.741-.74-.592 0-.741.592-.741.74v18.354c0 1.332-1.037 2.516-2.518 2.516-1.333 0-2.519-1.184-2.519-2.516V18.205c0-.296-.148-.888-.592-.888-.741 0-.889.592-.889.888v10.657c0 .888-.741 1.776-1.778 1.776-.889 0-1.778-.74-1.778-1.776V16.577c0-3.108 2.371-5.624 5.482-5.92H114.222c.148-.148.297-.148.297-.148zM78.222 6.808a4.297 4.297 0 0 0-4.296-4.292c-2.37 0-4.148 1.924-4.148 4.292a4.297 4.297 0 0 0 4.296 4.293c2.37 0 4.148-2.072 4.148-4.293zM65.481 16.281l-3.555 11.397s-.593 2.072 1.185 2.664c1.778.592 2.37-1.48 2.37-1.48l2.815-9.62s.148-.74.741-.593c.593.148.296.889.296.889l-4.888 18.057h4.592v12.877c0 1.184 1.037 2.22 2.222 2.22 1.186 0 2.222-1.036 2.222-2.22V37.595h1.186v12.877c0 1.184 1.037 2.22 2.222 2.22s2.222-1.036 2.222-2.22V37.595h4.593l-4.89-17.91s-.147-.74.297-.888c.593-.148.74.593.74.593l2.816 9.62s.592 2.072 2.37 1.48c1.778-.592 1.185-2.664 1.185-2.664L82.667 16.43s-1.186-3.256-4-3.256h-8.889c-2.963-.148-4.297 3.108-4.297 3.108zM52.889 6.808a4.297 4.297 0 0 0-8.593 0 4.297 4.297 0 0 0 4.297 4.293c2.518-.148 4.296-2.072 4.296-4.293zM40.148 16.281l-3.556 11.397S36 29.75 37.779 30.342c1.777.592 2.37-1.48 2.37-1.48l2.815-9.62s.148-.74.74-.593c.593.148.297.889.297.889L39.11 37.594h4.593v12.877c0 1.184 1.037 2.22 2.222 2.22s2.222-1.036 2.222-2.22V37.595h1.185v12.877c0 1.184 1.037 2.22 2.222 2.22 1.186 0 2.223-1.036 2.223-2.22V37.595h4.592l-4.889-17.91s-.148-.74.297-.888c.592-.148.74.593.74.593l2.815 9.62s.593 2.072 2.37 1.48c1.778-.592 1.186-2.664 1.186-2.664L57.333 16.43s-1.185-3.256-4-3.256h-8.889c-2.963-.148-4.296 3.108-4.296 3.108zM92.445 30.342c1.926 0 3.555-1.628 3.555-3.552 0-1.924-1.63-3.552-3.555-3.552-1.926 0-3.556 1.628-3.556 3.552.148 2.072 1.63 3.552 3.556 3.552zM84 41.295c-.148.444-.297 1.332.444 1.628 1.037.444 1.482-.444 1.482-.444l1.925-6.068s.297-.444.297 0v14.357c0 1.036.74 1.776 1.778 1.776 1.037 0 1.777-.74 1.777-1.776v-5.624s-.148-.74.593-.74c.593 0 .593.74.593.74v5.624c0 1.036.74 1.776 1.777 1.776s1.778-.74 1.778-1.776V36.41c0-.444.296-.148.296-.148l1.482 4.144s.593 1.924.889 1.924c.74.296 1.481 0 1.778-.74.148-.444.148-.888-.149-1.332 0-.148-2.222-5.476-2.518-6.216-.74-2.369-2.222-2.369-3.704-2.369h-2.222-2.667c-1.778 0-2.37 1.037-4.444 6.217-.148.888-1.185 3.256-1.185 3.404zM15.11 4.44c0-2.516-2.073-4.44-4.444-4.44-2.518 0-4.444 1.924-4.444 4.44 0 2.517 1.926 4.44 4.444 4.44 2.519 0 4.445-2.071 4.445-4.44zM5.481 10.509C2.52 10.805 0 13.32 0 16.429v12.285c0 .888.74 1.776 1.778 1.776 1.037 0 1.778-.74 1.778-1.776V18.057c0-.444.148-.888.888-.888.445 0 .593.592.593.888V49.88c0 1.332 1.037 2.516 2.519 2.516 1.333 0 2.518-1.184 2.518-2.516V31.674c0-.148.148-.74.74-.74.593 0 .742.592.742.74v18.354c0 1.332 1.185 2.516 2.518 2.516 1.333 0 2.519-1.184 2.519-2.516V18.205c0-.296.148-.888.592-.888.74 0 .89.592.89.888v10.657c0 .888.74 1.776 1.777 1.776.889 0 1.778-.74 1.778-1.776V16.577c0-3.108-2.37-5.624-5.482-5.92H6.074c-.444-.148-.593-.148-.593-.148z"/>
    <path fill="#fff" d="M23.407 28.566c-.296-.296-.592-.592-1.037-.592-.74 0-1.333.592-1.333 1.332 0 .148.148.592.148.592l3.556 6.365s.148.444.148.888v13.765c0 .888.74 1.776 1.778 1.776.888 0 1.777-.74 1.777-1.776V45.44s-.148-.74.593-.74c.593 0 .593.74.593.74v5.476c0 .888.74 1.776 1.777 1.776.89 0 1.778-.74 1.778-1.776V37.15c0-.444.148-.888.148-.888l3.26-5.92s.444-.889.444-1.037c0-.74-.593-1.332-1.333-1.332-.445 0-.89.296-1.037.592-.149.148-1.778 2.96-2.223 3.552-.592.593-1.037.444-1.037.444h-4.592s-.445 0-1.037-.444c-.593-.592-2.223-3.404-2.37-3.552z"/>
    <path fill="#fff" d="M28.889 30.342c1.925 0 3.555-1.628 3.555-3.552 0-1.924-1.63-3.552-3.556-3.552-1.925 0-3.555 1.628-3.555 3.552.148 2.072 1.63 3.552 3.556 3.552zM28.889 35.375l4 2.812 1.926 6.956H23.11l1.926-6.956 3.852-2.812z"/>
</svg>
