<?xml version="1.0" encoding="utf-8"?>
<!-- Generator: Adobe Illustrator 19.1.0, SVG Export Plug-In . SVG Version: 6.00 Build 0)  -->
<svg version="1.1" id="Capa_1" xmlns="http://www.w3.org/2000/svg" xmlns:xlink="http://www.w3.org/1999/xlink" x="0px" y="0px"
	 viewBox="-349 227.6 141.7 141.7" style="enable-background:new -349 227.6 141.7 141.7;" xml:space="preserve">
<style type="text/css">
	.st0{fill:#FAC038;}
	.st1{fill:#1D1D1B;}
</style>
<g>
	<circle class="st0" cx="-278.1" cy="298.4" r="70.9"/>
	<path class="st1" d="M-227.7,274l-6.1-6.4l-2,1.9l-6.5-6.7c1.9-2.8,2.7-5.9,2.2-8.9c-0.6-3.7-3.2-6.8-6.8-7.9
		c-3.2-1-6.7-0.4-9.9,1.7c-4.8-4.2-10.5-3.3-13.9-0.5c-3.7,3-5.6,8.7-2.5,14.4l-20.3,19.9l-5.4-0.2l-0.3,8.9l5.5,0.2l1.3,1.4
		l-39.3,42.2l25.9,24.7l33.1-58.1l-0.1-0.1c4.4-5.8,6.2-11.5,5.3-17c-0.7-4.3-3.1-7.6-5.3-9.8l5.4-5.3c3.2,2.6,6.4,4.5,6.9,4.8
		l2.5,1.4l2.3-1.7c0.2-0.1,3.5-2.6,6-4.7l7.4,7.6l0,0l6,6.3L-227.7,274z M-249.5,254.6c0.5,0.1,0.6,0.6,0.7,0.9c0,0.2,0,0.4,0,0.6
		l-1.5-1.5C-250,254.5-249.8,254.5-249.5,254.6z M-265.1,254.2c0.5-0.4,1-0.4,1.4-0.3c-0.7,0.6-1.5,1.3-2.2,1.9
		C-265.9,255.1-265.5,254.5-265.1,254.2z M-307.9,344.5l-11.3-10.8l32.7-35.2l2.9,3.2L-307.9,344.5z M-276.2,285.1
		c0.4,2.6-0.5,5.5-2.6,8.7l-6.8-7.5l6.5-6.4C-277.9,281.2-276.6,282.9-276.2,285.1z M-258.4,263.9c-0.5-0.4-1.1-0.8-1.7-1.2
		c0.8-0.7,1.8-1.6,2.8-2.5l1.6,1.6C-256.6,262.5-257.6,263.2-258.4,263.9z"/>
</g>
</svg>
