<?xml version="1.0" encoding="utf-8"?>
<!-- Generator: Adobe Illustrator 19.1.0, SVG Export Plug-In . SVG Version: 6.00 Build 0)  -->
<svg version="1.1" id="Capa_1" xmlns="http://www.w3.org/2000/svg" xmlns:xlink="http://www.w3.org/1999/xlink" x="0px" y="0px"
	 viewBox="-349 227.6 141.7 141.7" style="enable-background:new -349 227.6 141.7 141.7;" xml:space="preserve">
<style type="text/css">
	.st0{fill:#FAC038;}
	.st1{fill:#1D1D1B;}
</style>
<g>
	<g>
		<circle class="st0" cx="-278.1" cy="298.4" r="70.9"/>
	</g>
	<g>
		<g>
			<path class="st1" d="M-223.9,295.4c-0.5-13.9-6.3-27-16.4-36.7c-10.1-9.7-23.3-15.1-37.3-15.1c-14,0-27.3,5.4-37.3,15.1
				c-10,9.7-15.9,22.7-16.4,36.7l-8.9-0.3c0.6-16.2,7.4-31.4,19.1-42.7c11.7-11.3,27.2-17.6,43.5-17.6c16.3,0,31.8,6.2,43.5,17.6
				c11.7,11.3,18.5,26.5,19.1,42.7L-223.9,295.4z"/>
		</g>
	</g>
	<path class="st1" d="M-250.7,300.4c7-1.6,12.2-7.8,12.2-15.2c0-8.6-7-15.6-15.6-15.6c-5.1,0-9.6,2.4-12.5,6.2c0,0,0,0,0,0
		c-3.1-2.2-6.9-3.4-11-3.4c-3.9,0-7.6,1.2-10.6,3.2c0,0,0,0,0,0c-2.5-5.3-7.9-9-14.2-9c-8.6,0-15.6,7-15.6,15.6
		c0,6.2,3.6,11.6,8.9,14.1c-10.3,2.9-17.9,12.5-17.9,23.7v21.5h24.7v14.8h49.4v-9.9h23.7v-21.5
		C-229.5,312.4-238.7,302.1-250.7,300.4z M-259.8,299.7c0.7,0.3,1.4,0.5,2.2,0.7c-0.9,0.1-1.9,0.3-2.8,0.6
		C-260.2,300.6-260,300.2-259.8,299.7z M-254.1,278.4c3.7,0,6.7,3,6.7,6.7s-3,6.7-6.7,6.7c-1.5,0-2.9-0.5-4-1.3
		c-0.2-2.8-1-5.5-2.2-7.9c0,0,0,0,0,0C-259.4,280.2-257,278.4-254.1,278.4z M-277.7,281.2c5.9,0,10.6,4.8,10.6,10.6
		c0,5.9-4.8,10.6-10.6,10.6c-5.9,0-10.6-4.8-10.6-10.6C-288.3,286-283.5,281.2-277.7,281.2z M-302.5,275.4c3.7,0,6.7,3,6.7,6.7
		c0,3.7-3,6.7-6.7,6.7s-6.7-3-6.7-6.7C-309.2,278.4-306.2,275.4-302.5,275.4z M-302.4,332.6C-302.4,332.6-302.4,332.6-302.4,332.6
		l-15.9,0v-12.6c0-8.7,7.1-15.8,15.8-15.8c6,0,11.3,3.4,14,8.4C-296.2,316.2-301.6,323.7-302.4,332.6z M-262,347.4h-31.6v-12.6
		c0-8.7,7.1-15.8,15.8-15.8s15.8,7.1,15.8,15.8V347.4z M-238.3,337.5h-14.8v-2.7c0-9-4.8-16.9-12.1-21.2c2.9-2.8,6.7-4.5,11-4.5
		c8.7,0,15.8,7.1,15.8,15.8V337.5z"/>
</g>
</svg>
