<?xml version="1.0" encoding="utf-8"?>
<!-- Generator: Adobe Illustrator 16.0.0, SVG Export Plug-In . SVG Version: 6.00 Build 0)  -->
<!DOCTYPE svg PUBLIC "-//W3C//DTD SVG 1.1//EN" "http://www.w3.org/Graphics/SVG/1.1/DTD/svg11.dtd">
<svg version="1.1" id="Capa_1" xmlns="http://www.w3.org/2000/svg" xmlns:xlink="http://www.w3.org/1999/xlink" x="0px" y="0px"
	 width="141.73px" height="141.73px" viewBox="0 0 141.73 141.73" enable-background="new 0 0 141.73 141.73" xml:space="preserve">
<circle fill="#FDC642" cx="70.865" cy="70.866" r="70.865"/>
<path d="M118.952,53.07l2.891-8.891h-5.325l1.428-4.791h-8.47l-1.527,4.791h-50.82l1.429-4.791h-8.471l-1.527,4.791h-5.67
	l-2.891,8.891h5.727l-1.709,5.363H37.64l-2.89,8.89h6.432l-2.108,6.614H19.888v8.891h6.006c-1.198,2.338-2.264,5.258-3.116,8.889
	c-1.769,7.531-0.888,8.865-0.893,9.178l8.89,0.145c0.001-0.066-0.895-0.68,0.657-7.287c0.769-3.27,2.973-10.875,6.847-10.875
	c0.771,0,1.322,0.25,1.902,0.863c2.928,3.1,3.797,12.443,3.479,18.086l8.876,0.516c0.082-1.422,0.553-11.777-2.667-19.514h35.914
	c-1.197,2.338-2.263,5.258-3.116,8.889c-1.769,7.531-0.887,8.865-0.892,9.178l8.89,0.145c0.001-0.066-0.896-0.68,0.657-7.287
	c0.769-3.27,2.972-10.875,6.847-10.875c0.771,0,1.322,0.25,1.902,0.863c2.928,3.1,3.797,12.443,3.479,18.086l8.876,0.516
	c0.082-1.422,0.553-11.777-2.666-19.514h1.507v-8.891h-3.621l1.972-6.614h5.267l2.891-8.89h-5.507l1.599-5.363H118.952z
	 M98.463,73.938H48.257l1.971-6.614h50.343L98.463,73.938z M103.405,58.434H52.879l1.599-5.363h50.637L103.405,58.434z"/>
</svg>
