<svg width="32" height="29" viewBox="0 0 32 29" fill="none" xmlns="http://www.w3.org/2000/svg">
    <path fill-rule="evenodd" clip-rule="evenodd" d="M24.018 6.177c-1.135.826-1.77 1.274-1.79 1.262-.018-.01-.777-.557-1.688-1.214-1.913-1.381-1.817-1.313-1.829-1.302-.005.005.294.936.665 2.068.656 2.009.672 2.06.626 2.104-.026.025-.674.501-1.441 1.058s-1.532 1.114-1.701 1.239l-.307.226 2.242.006 2.241.007.348 1.062c.306.937.672 2.066.869 2.684a.897.897 0 0 0 .08.205c.008 0 .186-.529.395-1.174l.641-1.976.261-.802h2.179c1.343 0 2.173-.009 2.164-.023-.014-.022-.616-.462-2.609-1.903-.49-.354-.89-.656-.89-.672 0-.015.298-.948.662-2.072.364-1.125.657-2.049.652-2.054a89.63 89.63 0 0 0-1.77 1.271zM12.335 17.831c0 .342.003.485.008.319.004-.167.004-.447 0-.622s-.008-.039-.008.303zm-.004.733c0 .062.005.087.01.056a.355.355 0 0 0 0-.112c-.005-.03-.01-.005-.01.056zm2.815 2.212c0 .116.005.164.01.106a1.406 1.406 0 0 0 0-.212c-.005-.058-.01-.01-.01.106z" fill="#D71E55"/>
    <path fill-rule="evenodd" clip-rule="evenodd" d="M22.981.391c-1.218 1.826-2.095 2.6-3.444 3.042-.376.123-.392.13-.349.172.229.22 3.061 2.212 3.106 2.184.437-.267 3.47-2.52 3.444-2.557-.41-.576-2.43-3.233-2.458-3.232-.021 0-.153.172-.299.391zm-6.15 3.806c-2.013.75-3.683 2.819-4.07 5.042l-.032.182.812 1.08c.447.593.823 1.078.837 1.078.04 0 4.107-3.006 4.116-3.041.006-.026-.258-.837-1.312-4.039-.136-.414-.11-.392-.351-.302zm9.703 2.595c-.297.921-.543 1.7-.547 1.732-.006.05.064.108.466.395l2.128 1.524 1.656 1.187h.865c.476 0 .866-.007.866-.015 0-.02-.177-.26-2.522-3.39-2.143-2.86-2.329-3.106-2.355-3.106-.01 0-.26.753-.557 1.673zM0 11.084c0 .464.004.845.01.845.005 0 .313.061.685.136.372.075.681.137.688.137.006 0 .011 2.704.011 6.008 0 3.305.008 6.168.017 6.363l.016.354h2.406l.013-.056c.014-.058.187-1.13.187-1.155 0-.007.056.063.125.157.808 1.108 2.22 1.52 3.74 1.09 1.921-.544 2.93-2.645 2.736-5.697-.205-3.214-1.478-4.874-3.791-4.944-1.194-.036-1.745.226-2.399 1.14l-.224.313-.006-2.768-.007-2.768H0v.845zm30.349 3.2-.512.006-.055.466c-.03.256-.073.602-.096.768l-.04.302-.167-.215c-.827-1.067-2.081-1.46-3.499-1.097-2.074.532-3.25 2.99-2.976 6.22.217 2.568 1.6 4.192 3.67 4.314 1.091.064 1.847-.196 2.552-.878l.259-.25-.014.522c-.031 1.197-.335 1.867-1 2.205-.726.37-2.036.259-3.472-.295a3.012 3.012 0 0 0-.288-.102c-.003.003-.114.426-.247.938l-.255.976c-.033.116 1.138.543 1.908.697 1.441.288 2.988.12 4.009-.435 1.096-.596 1.652-1.408 1.831-2.674.033-.228.06-11.425.029-11.452a39.793 39.793 0 0 0-1.637-.016zm-19.394.988c0 .907.003.984.043.999.023.009.329.073.678.143l.636.127.015.21c.009.116.015 1.552.013 3.192l-.003 2.982-.486.106-.666.145-.18.04v1.686h5.278v-1.684l-.255-.066-.567-.147-.311-.08-.006-1.59c-.004-.875 0-2.119.009-2.765l.015-1.174.087-.113c.728-.953 2.588-.963 3.066-.017.22.434.227.545.227 3.3v2.363l-.597.144-.598.143v1.686h5.353V23.219l-.354-.079-.666-.147-.312-.069-.013-2.67c-.015-3.13-.021-3.203-.345-4.028-.898-2.292-4.283-2.526-5.804-.401-.138.193-.135.199-.172-.392-.015-.24-.04-.595-.056-.79l-.028-.353H10.955v.982zm17.333 1.364c.473.12.857.395 1.112.796l.078.123v2.2c0 2.2 0 2.202-.053 2.289-.598.983-2.34 1.146-3.042.284-.939-1.152-.785-4.47.25-5.378.397-.35 1.037-.47 1.655-.314zm-21.84.13c.956.215 1.443 1.303 1.444 3.227.001 2.15-.602 3.026-2.041 2.963-.69-.03-1.23-.309-1.548-.799l-.096-.147.006-2.155.007-2.155.12-.176c.45-.655 1.264-.949 2.108-.759z" fill="#fff"/>
</svg>
