<svg width="32" height="32" viewBox="0 0 32 32" fill="none" xmlns="http://www.w3.org/2000/svg">
    <path fill-rule="evenodd" clip-rule="evenodd" d="M3.398 32h25.184A3.425 3.425 0 0 0 32 28.602V3.398A3.395 3.395 0 0 0 28.602 0H3.398A3.395 3.395 0 0 0 0 3.398v25.204A3.395 3.395 0 0 0 3.398 32zm23.925-11.593-1.24-1.579c-3.197 2.279-5.816 3.318-10.093 3.318s-6.896-1.04-10.094-3.318l-1.239 1.58c3.218 2.678 6.876 4.057 11.333 4.057s8.095-1.38 11.333-4.058zM10.613 9.134h3.558v3.398h-3.278c-2.039 0-3.378-.5-4.257-2.478l1.359-.78c.62 1.26 1.36 1.56 2.618 1.56v-1.7zm8.375 0h3.558v3.398h-3.558V9.134z" fill="#fff"/>
</svg>
