<svg width="48" height="16" viewBox="0 0 48 16" fill="none" xmlns="http://www.w3.org/2000/svg">
    <path d="M21.346 8.748c.029.369-.078.736-.3 1.036a1.21 1.21 0 0 1-.976.36 1.493 1.493 0 0 1-.383-.056 1.184 1.184 0 0 1-.563-.487 1.152 1.152 0 0 1-.154-.72V5.745l.04-.034a1.708 1.708 0 0 1 1.128-.476 1.147 1.147 0 0 1 .948.393c.2.284.291.627.26.97v2.15zm-.565-5.496a2.796 2.796 0 0 0-1.63.465l-.203.15V.57c0-.294-.09-.393-.232-.465a1.63 1.63 0 0 0-.7-.09h-.564a1.56 1.56 0 0 0-.688.09c-.141.072-.22.171-.226.465v7.967c-.068.976.249 1.94.886 2.693.331.316.726.56 1.16.717.433.157.896.222 1.357.191h.214a5.94 5.94 0 0 0 1.083-.066 2.661 2.661 0 0 0 1.047-.358 2.61 2.61 0 0 0 .804-.75 3.64 3.64 0 0 0 .62-2.277v-1.53c0-1.301-.169-2.288-.609-2.93-.44-.643-1.128-.975-2.336-.975M36.89 8.875c.028.25-.027.502-.156.72a1.195 1.195 0 0 1-.56.488 1.346 1.346 0 0 1-.39.055 1.229 1.229 0 0 1-.976-.36 1.537 1.537 0 0 1-.299-1.036V6.703c-.028-.37.065-.738.266-1.053a1.127 1.127 0 0 1 .947-.393c.424.015.827.185 1.129.477l.04.033v3.108zM39.097.093a1.463 1.463 0 0 0-.615-.088h-.773a1.538 1.538 0 0 0-.627.088c-.124.072-.197.172-.203.444v3.595l-.192-.199a2.242 2.242 0 0 0-1.625-.66h-.09c-1.185 0-1.811.339-2.257.976-.446.637-.61 1.629-.61 2.93V8.52a4.277 4.277 0 0 0 .621 2.466c.21.303.485.559.804.75.32.191.676.313 1.047.358h-.073c.386.055.777.077 1.168.067h.214c.461.03.923-.035 1.357-.192a3.297 3.297 0 0 0 1.16-.717 3.766 3.766 0 0 0 .885-2.693V.61c0-.277-.079-.46-.197-.554M27.056 3.828a1.52 1.52 0 0 0-.632-.089h-.83a1.354 1.354 0 0 0-.603.089c-.13.072-.209.166-.209.449v7.147c0 .288.079.388.214.46.212.074.437.104.66.088h.723c.227.017.456-.013.671-.088.136-.072.209-.172.215-.46V4.277c0-.283-.08-.377-.21-.45zM26.012.188a1.4 1.4 0 0 0-.764.233c-.226.15-.402.363-.505.611a1.335 1.335 0 0 0 .305 1.475 1.406 1.406 0 0 0 1.503.293c.252-.103.468-.276.62-.498A1.34 1.34 0 0 0 27 .582a1.378 1.378 0 0 0-.99-.394zM4.983 6.664H2.388V6.35a1.199 1.199 0 0 1 .348-.941 1.243 1.243 0 0 1 .95-.367 1.245 1.245 0 0 1 .925.338 1.348 1.348 0 0 1 .372.97v.315zM3.77 3.24a3.496 3.496 0 0 0-1.57.322c-.49.228-.92.565-1.251.986A4.5 4.5 0 0 0 0 7.318v.599a4.856 4.856 0 0 0 .857 2.842c.33.44.764.792 1.264 1.028a3.44 3.44 0 0 0 1.608.324 6.652 6.652 0 0 0 3.013-.66.562.562 0 0 0 .215-.171.3.3 0 0 0 .05-.178 4.056 4.056 0 0 0-.124-.615 1.645 1.645 0 0 0-.23-.554.398.398 0 0 0-.328-.177.7.7 0 0 0-.231.05 7.048 7.048 0 0 1-2.212.393 1.81 1.81 0 0 1-1.129-.371 1.413 1.413 0 0 1-.413-.49 1.387 1.387 0 0 1-.151-.618v-.355h4.322a.808.808 0 0 0 .563-.24.78.78 0 0 0 .221-.563v-.704a3.831 3.831 0 0 0-.823-2.543 3.433 3.433 0 0 0-1.253-.844 3.488 3.488 0 0 0-1.5-.23M14.885 4.083a2.62 2.62 0 0 0-.993-.673 2.662 2.662 0 0 0-1.196-.164 3.947 3.947 0 0 0-1.84.404l-.186.1V.564c0-.293-.09-.393-.23-.465a1.722 1.722 0 0 0-.7-.094h-.638a1.647 1.647 0 0 0-.689.094c-.14.072-.225.172-.23.632v10.848a.356.356 0 0 0 .22.288c.208.078.431.108.654.088h.728c.225.02.453-.01.665-.088.136-.072.215-.172.22-.455v-5.33l.034-.033a1.615 1.615 0 0 1 1.196-.554 1.056 1.056 0 0 1 .915.394c.153.244.228.528.214.814v4.71c0 .282.085.382.22.454.212.078.44.108.666.088h.733c.223.02.446-.01.655-.088.135-.072.208-.172.214-.455V6.371a3.526 3.526 0 0 0-.632-2.288zM30.373 12.1a1.994 1.994 0 0 1-1.083-.316 2.222 2.222 0 0 1-.666-.832 2.182 2.182 0 0 1-.197-1.04V1.012c0-.637.524-.587 1.157-.587.631 0 1.258-.05 1.258.587v8.754c0 .449.225.488.513.488.192 0 .186.454.186.759 0 .393 0 .87-.282 1.002a2.617 2.617 0 0 1-.886.084zM47.972 10.482c0-.427-.683 0-.683-.765V4.05c0-.288-.085-.382-.226-.454a1.773 1.773 0 0 0-.694-.089h-.524a1.854 1.854 0 0 0-.706.09c-.146.071-.225.165-.231.453v5.264l-.034.039a1.553 1.553 0 0 1-1.128.554 1.05 1.05 0 0 1-.886-.344 1.3 1.3 0 0 1-.203-.809v-4.71c0-.27-.08-.36-.203-.431a1.527 1.527 0 0 0-.621-.083h-.801a1.377 1.377 0 0 0-.565.083c-.124.072-.197.16-.203.432V9.09c-.049.776.18 1.545.65 2.172.26.278.58.494.938.633.358.14.743.198 1.126.17a3.554 3.554 0 0 0 2.308-.82l.102-.083.079.1c.08.098.168.19.265.271a1.582 1.582 0 0 0 1.14.465c.654 0 1.128.067 1.128-.426v-1.07M16.127 15.38H8.34V16h7.787v-.62zM31.57 15.38h-7.787V16h7.787v-.62z" fill="#fff"/>
    <path d="M23.913 15.38h-7.787V16h7.787v-.62zM8.436 15.38H.649V16h7.787v-.62z" fill="#fff"/>
</svg>
