<svg width="48" height="12" viewBox="0 0 48 12" fill="none" xmlns="http://www.w3.org/2000/svg">
    <path fill-rule="evenodd" clip-rule="evenodd" d="M21.592.238v11.451h7.52V9.092h-4.768v-1.83h4.325V4.628h-4.325v-1.83h4.784V.239h-7.536zM30.438.238v11.451h2.834V8.031h.967l2.048 3.658h3.08l-2.36-3.86a3.79 3.79 0 0 0 1.575-1.662c.358-.722.508-1.55.43-2.371a4.245 4.245 0 0 0-.871-2.215A3.544 3.544 0 0 0 36.287.329L30.438.238zm2.736 2.543h2.146c1.294 0 1.262 2.725 0 2.743h-2.13l-.016-2.743z" fill="#1D1D1B"/>
    <path d="M45.199 0a4.92 4.92 0 0 0-2.39.628 5.557 5.557 0 0 0-1.892 1.75 6.364 6.364 0 0 0-.995 2.507 6.68 6.68 0 0 0 .107 2.74 6.23 6.23 0 0 0 1.187 2.4 5.405 5.405 0 0 0 2.02 1.56 4.865 4.865 0 0 0 2.43.392A5 5 0 0 0 48 11.122V8.213a3.09 3.09 0 0 1-1.089.798c-.41.177-.848.254-1.286.227a2.605 2.605 0 0 1-1.169-.171 2.843 2.843 0 0 1-1.009-.679 3.241 3.241 0 0 1-.682-1.073 3.543 3.543 0 0 1-.24-1.288c0-.443.081-.881.24-1.287.159-.407.391-.772.682-1.073a2.843 2.843 0 0 1 1.01-.679 2.605 2.605 0 0 1 1.168-.17 2.76 2.76 0 0 1 1.288.22c.41.178.78.452 1.087.803V.878A5.171 5.171 0 0 0 45.2 0z" fill="#1D1D1B"/>
    <path fill-rule="evenodd" clip-rule="evenodd" d="M10.485.293v11.616h2.572V3.073L10.485.293zm-2.72 0L5.177 3.146v8.763h2.588V.293zM15.645 6v5.835h2.588V9.037L15.645 6zM2.54 6.11 0 9.183v2.726h2.588l-.049-5.8z" fill="#FF2600"/>
</svg>
