<svg width="32" height="21" viewBox="0 0 32 21" fill="none" xmlns="http://www.w3.org/2000/svg">
    <path d="m2.006.65 2.678 6.587h.11L7.47.65H9.47v9.097H7.9V3.5h-.084L5.322 9.722H4.147L1.654 3.483H1.57v6.265H0V.65h2.006zM10.728 7.829c0-1.54 1.26-1.928 2.569-2.072 1.192-.127 1.679-.152 1.679-.608v-.026c0-.668-.403-1.048-1.15-1.048-.78 0-1.234.397-1.385.862l-1.495-.211C11.3 3.483 12.39 2.84 13.819 2.84c1.292 0 2.753.54 2.753 2.341v4.566h-1.536v-.939h-.05c-.294.575-.924 1.074-1.99 1.074-1.293 0-2.267-.71-2.267-2.054zm4.248-.533v-.803c-.21.169-1.041.279-1.46.33-.714.1-1.252.363-1.252.98 0 .592.479.896 1.142.896.957 0 1.57-.642 1.57-1.403zM14.262 0h1.562l-1.352 2.029H13.28L14.262 0zM21.767 4.886c-.126-.448-.512-.853-1.25-.853-.664 0-1.176.32-1.168.777-.008.398.27.634.957.787l1.159.245c1.276.279 1.897.87 1.905 1.843-.008 1.293-1.2 2.172-2.896 2.172-1.662 0-2.703-.743-2.904-1.995l1.553-.152c.134.609.613.93 1.343.93.755 0 1.26-.347 1.26-.82 0-.389-.295-.642-.916-.778l-1.158-.245c-1.302-.27-1.906-.93-1.906-1.919-.008-1.26 1.108-2.071 2.737-2.071 1.586 0 2.501.735 2.728 1.893l-1.444.186zM10.577 12.047h.957v1.031h.118c.218-.338.604-1.115 1.872-1.115 1.637 0 2.761 1.302 2.761 3.356 0 2.071-1.124 3.373-2.745 3.373-1.242 0-1.67-.778-1.888-1.133h-.084V21h-.99v-8.953zm2.83 5.749c1.242 0 1.888-1.1 1.888-2.494 0-1.37-.621-2.443-1.889-2.443-1.209 0-1.855.98-1.855 2.443s.663 2.494 1.855 2.494zM17.494 16.705c0-1.488 1.31-1.758 2.51-1.919 1.176-.152 1.67-.11 1.67-.592v-.033c0-.837-.452-1.32-1.359-1.32-.949 0-1.46.508-1.687.982l-.94-.339c.503-1.183 1.62-1.53 2.593-1.53.823 0 2.393.237 2.393 2.308v4.286h-.99v-.879h-.051c-.202.423-.79 1.032-1.922 1.032-1.234.008-2.217-.72-2.217-1.996zm4.18-.507v-.913c-.167.203-1.292.321-1.72.372-.772.101-1.46.338-1.46 1.099 0 .693.57 1.048 1.36 1.048 1.183.009 1.82-.794 1.82-1.606zM24.487 12.047h.99v6.51h-.99v-6.51zm1.074-2.849h1.159l-1.31 1.961h-.873l1.024-1.96zM30.984 13.755c-.176-.448-.529-.93-1.393-.93-.79 0-1.377.406-1.377.964 0 .498.344.76 1.108.947l.957.245c1.15.287 1.721.854 1.721 1.767 0 1.124-1.024 1.953-2.527 1.953-1.318 0-2.224-.592-2.46-1.7l.94-.236c.177.701.69 1.048 1.495 1.048.924 0 1.52-.457 1.52-1.015 0-.448-.311-.76-.957-.913l-1.075-.253c-1.184-.28-1.72-.88-1.72-1.784 0-1.1 1.006-1.885 2.375-1.885 1.276 0 1.98.617 2.291 1.547l-.898.245z" fill="#fff"/>
</svg>
