<svg width="32" height="32" viewBox="0 0 32 32" fill="none" xmlns="http://www.w3.org/2000/svg">
    <path fill-rule="evenodd" clip-rule="evenodd" d="M12.888 7.75c-.333 1.194-1.19 4.505 1.675 4.952 2.865.447 4.194.293 6.55 1.622 2.114 1.195 3.495 3.883 3.495 3.883l-1.802 3.76s-.029-1.177-.626-2.692c-.356-.9-1.354-2.015-2.22-2.69-2.322-1.815-4.331-.34-6.13-1.407-1.8-1.068-3.778-2.143-4.123-4.527-.157-1.085.313-2.795.313-2.795-2.124 1.781-3.656 4.656-3.792 7.615H0C0 6.753 7.16 0 15.995 0c8.836 0 16 6.754 16 15.471H25.76c-.317-5.217-4.409-9.341-9.605-9.341-.16 0-2.935.426-3.266 1.62z" fill="#fff"/>
    <path fill-rule="evenodd" clip-rule="evenodd" d="M19.112 24.25c.333-1.195 1.19-4.505-1.676-4.953-2.866-.448-4.195-.29-6.55-1.621-2.114-1.195-3.494-3.883-3.494-3.883l1.802-3.76s.028 1.177.626 2.692c.355.9 1.353 2.015 2.219 2.69 2.323 1.816 4.332.34 6.13 1.407 1.8 1.069 3.778 2.143 4.124 4.526.157 1.086-.315 2.797-.315 2.797 2.125-1.782 3.659-4.657 3.794-7.616H32C32 25.247 24.84 32 16.003 32s-16-6.754-16-15.47H6.24c.319 5.216 4.411 9.343 9.607 9.343.16 0 2.933-.428 3.266-1.622v-.001z" fill="#fff"/>
</svg>
