<?xml version="1.0" encoding="UTF-8" standalone="no"?>
<svg
   width="48"
   height="16"
   viewBox="0 0 48 16"
   fill="none"
   version="1.1"
   id="svg2"
   sodipodi:docname="sumar.svg"
   inkscape:version="1.3 (0e150ed6c4, 2023-07-21)"
   xmlns:inkscape="http://www.inkscape.org/namespaces/inkscape"
   xmlns:sodipodi="http://sodipodi.sourceforge.net/DTD/sodipodi-0.dtd"
   xmlns="http://www.w3.org/2000/svg"
   xmlns:svg="http://www.w3.org/2000/svg">
  <defs
     id="defs2" />
  <sodipodi:namedview
     id="namedview2"
     pagecolor="#505050"
     bordercolor="#eeeeee"
     borderopacity="1"
     inkscape:showpageshadow="0"
     inkscape:pageopacity="0"
     inkscape:pagecheckerboard="0"
     inkscape:deskcolor="#d1d1d1"
     inkscape:zoom="11.979167"
     inkscape:cx="24.375652"
     inkscape:cy="4.9669565"
     inkscape:window-width="2488"
     inkscape:window-height="1328"
     inkscape:window-x="2596"
     inkscape:window-y="76"
     inkscape:window-maximized="1"
     inkscape:current-layer="svg2" />
  <g
     id="g11"
     transform="matrix(0.04976745,0,0,0.04976745,3.0362029,0.81804361)">
    <g
       id="g10">
      <g
         id="g9">
        <g
           id="g8">
          <g
             id="g7">
            <g
               id="g6">
              <g
                 id="g5">
                <g
                   id="g4">
                  <g
                     id="g3">
                    <path
                       d="m 0.09,0 q 385.5,0.21 771,0.06 c 27.61,0 55.22,0.09 82.82,-0.07 0.2,12.55 0,25.1 0.09,37.66 H 0 C 0.06,25.11 -0.09,12.56 0.09,0 Z"
                       fill="#1c1c1c"
                       id="path1-3"
                       style="fill:#ffffff" />
                    <path
                       d="m 63.53,62.26 c 18.1,-2.66 37.12,-1.22 54.08,5.94 12.8,5.36 24.1,14.59 31.17,26.6 6.05,10 8.87,21.68 9.31,33.29 -14.53,0.06 -29.05,-0.07 -43.57,0.07 -1,-7.23 -3.82,-14.52 -9.5,-19.35 -7.3,-6.46 -17.39,-8.63 -26.9,-8.38 -8,0.35 -16.49,2.26 -22.26,8.14 -6.88,6.66 -6.9,18.72 -0.6,25.76 6,6.64 14.87,9.31 23.17,11.69 19.77,5.3 40.86,7.72 58.71,18.44 a 50,50 0 0 1 23.6,32.36 c 3.54,16.65 2.32,35.08 -6.88,49.79 -9.11,14.93 -25.08,24.49 -41.73,28.79 a 116.92,116.92 0 0 1 -50,1.78 C 45.28,274.01 29.13,265.78 17.86,252.64 6.32,239.25 0.35,221.49 0.05,203.92 c 14.59,0.07 29.18,0.1 43.77,0 0.83,8 3.28,16.1 8.46,22.44 6.81,8.6 18,12.87 28.75,12.9 9.29,0.26 19.17,-1.19 26.85,-6.79 a 21.59,21.59 0 0 0 6.93,-25.6 c -2.36,-5.1 -7.16,-8.48 -12.07,-10.88 -7.58,-3.56 -15.76,-5.57 -23.85,-7.58 -18.76,-4.73 -38.72,-8.88 -54,-21.51 C 14,158 7.78,144.49 6.52,130.68 4.62,116.22 7.52,100.8 16.25,88.93 27.14,73.63 45.33,65.06 63.53,62.26 Z M 398,132.75 c 9,-8.06 21,-12 33,-12.11 12,-0.11 24.64,2.18 34.34,9.68 a 41.79,41.79 0 0 1 13.11,17.51 c 1.79,-1.55 2.73,-3.77 4.15,-5.63 9.61,-12.42 24.85,-19.7 40.32,-21.2 15.28,-1.67 31.63,2.1 43.39,12.35 12,10.1 18.47,25.77 18.67,41.29 v 102 h -42.4 v -88 c -0.12,-9.08 -2.71,-18.71 -9.47,-25.14 -10.69,-10.42 -30.17,-8.57 -39.25,3.09 -5.36,6.73 -7.21,15.55 -7.18,24 0.06,28.65 -0.06,57.31 0.07,86 -14.25,0.18 -28.49,0 -42.74,0.08 v -87 c 0.05,-9.48 -2.47,-19.56 -9.45,-26.35 -11.07,-10.41 -31,-8.13 -39.69,4.27 -5.48,7.44 -6.76,17 -6.43,26 v 83.05 H 345.82 V 123.22 h 42.65 v 20.58 c 3.13,-3.69 5.73,-7.94 9.53,-11.05 z m 220.69,4.56 c 13.43,-11.84 31.73,-16.57 49.33,-16.68 17,-0.13 34.62,4.17 48.06,15 a 52.35,52.35 0 0 1 19.6,39.08 c 0.09,34 -0.1,67.9 0.1,101.84 -14.06,0.28 -28.13,0 -42.19,0.12 0,-6.69 -0.06,-13.38 0,-20.07 -4.59,9.5 -13.44,16.24 -23.39,19.4 -14.81,4.74 -31.63,4.17 -45.63,-2.86 a 43.91,43.91 0 0 1 -23.14,-29.41 c -3.09,-14.44 -0.19,-30.68 9.78,-41.93 9.35,-10.58 23.46,-15.75 37.27,-16.91 11.84,-0.92 23.74,-0.17 35.61,-0.5 a 10.16,10.16 0 0 0 9.15,-7.63 19.34,19.34 0 0 0 -6.62,-18.76 c -5.74,-4.67 -13.36,-6.17 -20.59,-6.15 -7.23,0.02 -15,2.13 -20.46,7.29 a 24.42,24.42 0 0 0 -7.7,17 h -38 a 55.43,55.43 0 0 1 18.82,-38.83 z m 30.22,78.17 c -7.06,4.62 -9.89,14.44 -6.68,22.18 2.9,6.49 10,9.94 16.82,10.45 9.17,0.58 18.85,-2.4 25.31,-9.14 6.85,-7.22 9.84,-17.53 9.15,-27.35 -10.19,0.07 -20.38,0 -30.56,0 a 22.75,22.75 0 0 0 -14.04,3.86 z M 178,123.29 c 14.22,-0.18 28.45,0 42.68,-0.1 0.12,28.83 0,57.65 0.07,86.47 0.16,8.91 3.2,18.11 9.94,24.21 11.41,10.55 31.13,9.42 41.69,-1.82 6.58,-6.64 9.51,-16.18 9.45,-25.39 v -83.42 h 42.65 v 153.43 h -42.63 v -20.73 a 48.93,48.93 0 0 1 -30,21.16 c -18.19,4.44 -39,1.67 -53.62,-10.64 -13.53,-11.1 -19.93,-28.79 -20.23,-45.88 0,-32.43 0.06,-64.86 0,-97.29 z m 577.57,-0.06 h 42.88 c 0,8.19 0,16.38 -0.05,24.57 4,-8.09 9.05,-16.29 17.4,-20.46 11.79,-6.15 25.47,-3.58 38.21,-4.11 v 35.43 h -27 a 25.41,25.41 0 0 0 -20.31,10.47 c -6.12,8.51 -7.87,19.27 -8.26,29.52 v 78 H 755.58 Q 755.55,200 755.57,123.23 Z"
                       fill="#e61455"
                       id="path2-6"
                       style="fill:#ffffff" />
                  </g>
                </g>
              </g>
            </g>
          </g>
        </g>
      </g>
    </g>
  </g>
</svg>
