<svg width="32" height="28" viewBox="0 0 32 28" fill="none" xmlns="http://www.w3.org/2000/svg">
    <path d="M16.028 28c-.671 0-1.33-.318-1.729-.907a2.001 2.001 0 0 1 .578-2.814c5.017-3.272 12.975-10.044 12.975-14.292 0-.133-.004-.26-.008-.386l-.001-.07v-.07c.005-.074.009-.145.009-.217 0-2.857-2.376-5.186-5.299-5.186A5.31 5.31 0 0 0 17.86 6.84c-.533.99-1.785 1.374-2.798.852-1.013-.522-1.407-1.752-.873-2.744C15.829 1.895 19.035 0 22.553 0 27.763 0 32 4.146 32 9.244c0 .102-.005.204-.008.306.003.138.008.285.008.437C32 17.78 18.692 26.67 17.174 27.66c-.353.23-.751.341-1.146.341z" fill="#683064"/>
    <path d="M3.742 1.953C1.469 3.64 0 6.3 0 9.287c0 .102.005.203.008.305-.003.138-.008.285-.008.436 0 2.331 1.308 4.899 3.032 7.185 1.849-.14 3.692-.397 4.96-.517-2.195-2.35-3.825-4.785-3.825-6.668 0-.133.004-.26.008-.385l.001-.07-.001-.07c-.004-.073-.008-.145-.008-.216 0-1.956 1.124-3.663 2.777-4.543l-3.202-2.79z" fill="url(#sipzcxgvqa)"/>
    <path opacity=".96" d="M9.49.064a9.62 9.62 0 0 0-5.748 1.89L6 5.383A5.386 5.386 0 0 1 9.49 4.114c1.982 0 3.789 1.065 4.714 2.775.536.989 1.794 1.371 2.811.85 1.018-.52 1.413-1.747.878-2.737C16.245 1.955 13.024.064 9.49.064z" fill="url(#9z81l8aa6b)"/>
    <path d="m7.993 16.696-4.96.517c4.039 5.278 10.802 9.761 11.86 10.447.355.228.755.34 1.151.34.675 0 1.338-.317 1.738-.905a1.989 1.989 0 0 0-.581-2.807c-2.783-1.803-6.467-4.671-9.208-7.592z" fill="url(#wna8hr1upc)"/>
    <path d="M7.102.358a9.534 9.534 0 0 0-5.25 3.366c1.016.867 2.298 1.89 3.203 2.602a5.351 5.351 0 0 1 3.67-2.15L7.103.358z" fill="url(#p1q73q4cad)"/>
    <defs>
        <linearGradient id="sipzcxgvqa" x1="3.742" y1="1.953" x2="3.797" y2="16.48" gradientUnits="userSpaceOnUse">
            <stop stop-color="#A3A37E"/>
            <stop offset=".236" stop-color="#F68C20"/>
            <stop offset="1" stop-color="#E96820"/>
        </linearGradient>
        <linearGradient id="9z81l8aa6b" x1="15.601" y1="4.872" x2="5.418" y2="2.006" gradientUnits="userSpaceOnUse">
            <stop stop-color="#618DB3"/>
            <stop offset=".404" stop-color="#69AAC6"/>
            <stop offset="1" stop-color="#B2A189"/>
        </linearGradient>
        <linearGradient id="wna8hr1upc" x1="6.163" y1="17.02" x2="10.893" y2="22.928" gradientUnits="userSpaceOnUse">
            <stop stop-color="#E96920"/>
            <stop offset="1" stop-color="#D73C25"/>
        </linearGradient>
        <linearGradient id="p1q73q4cad" x1="7.037" y1="2.238" x2="3.969" y2="5.042" gradientUnits="userSpaceOnUse">
            <stop stop-color="#9DA89C"/>
            <stop offset="1" stop-color="#F2971C"/>
        </linearGradient>
    </defs>
</svg>
