<?xml version="1.0" encoding="utf-8"?>
<!-- Generator: Adobe Illustrator 26.0.3, SVG Export Plug-In . SVG Version: 6.00 Build 0)  -->
<svg version="1.1" id="Capa_1" xmlns="http://www.w3.org/2000/svg" xmlns:xlink="http://www.w3.org/1999/xlink" x="0px" y="0px"
	 viewBox="0 0 32 32" style="enable-background:new 0 0 32 32;" xml:space="preserve">
<style type="text/css">
	.st0{fill:#1D1D1B;}
</style>
<g>
	<path class="st0" d="M10.7,10.3l1.4-0.1l0,3.7l1.7-0.1l0-3.7l1.4-0.1l0,8.9l-1.4,0.1l0-4.1L12.1,15l0,4.1l-1.4,0.1L10.7,10.3z"/>
	<path class="st0" d="M16.7,9.9l1.4-0.1l0,7.9l1.9-0.1l0,1.1l-3.3,0.2L16.7,9.9z"/>
	<path class="st0" d="M20.9,9.7l1.4-0.1c0.2,0,0.4,0,0.7,0c0.2,0,0.5,0,0.7,0.1c0.2,0,0.4,0.1,0.6,0.2c0.2,0.1,0.4,0.3,0.5,0.5
		c0.2,0.3,0.3,0.6,0.4,0.9c0.1,0.4,0.1,0.9,0.1,1.3v2.6c0,0.4,0,0.9-0.1,1.3c-0.1,0.3-0.2,0.6-0.4,0.9c-0.1,0.2-0.3,0.4-0.5,0.6
		c-0.2,0.1-0.4,0.3-0.6,0.3c-0.2,0.1-0.5,0.1-0.7,0.2c-0.2,0-0.5,0-0.7,0.1l-1.4,0.1L20.9,9.7z M22.6,17.5c0.2,0,0.4-0.1,0.6-0.1
		c0.2-0.1,0.3-0.2,0.4-0.4c0.1-0.2,0.2-0.4,0.2-0.7c0-0.3,0.1-0.7,0-1v-2.8c0-0.3,0-0.7-0.1-1c0-0.2-0.1-0.4-0.2-0.6
		c-0.1-0.1-0.2-0.3-0.4-0.3c-0.2-0.1-0.4-0.1-0.6-0.1l-0.4,0l0,7L22.6,17.5z"/>
	<path class="st0" d="M10,19.3l-1.1-0.9C9,18.2,9.1,18,9.2,17.7c0.1-0.4,0.2-0.9,0.1-1.3v-3.2c0-0.4,0-0.8-0.1-1.2
		c-0.1-0.3-0.2-0.5-0.3-0.8c-0.1-0.2-0.3-0.4-0.4-0.5c-0.1-0.1-0.3-0.2-0.5-0.3c-0.2-0.1-0.3-0.1-0.5-0.1c-0.2,0-0.3,0-0.5,0
		c-0.2,0-0.3,0-0.5,0.1c-0.2,0-0.3,0.1-0.5,0.2c-0.2,0.1-0.3,0.2-0.5,0.3c-0.2,0.2-0.3,0.3-0.4,0.5c-0.1,0.3-0.2,0.5-0.3,0.8
		c-0.1,0.4-0.1,0.8-0.1,1.2v3.2c0,0.5,0,0.9,0.2,1.3c0.1,0.3,0.2,0.6,0.4,0.8c0.1,0.2,0.3,0.4,0.6,0.5c0.2,0.1,0.4,0.2,0.6,0.2
		c0.4,0,0.8,0,1.2-0.1c0.2-0.1,0.4-0.2,0.6-0.3l0.3,0.3L10,19.3z M7.7,18.2c-0.1,0.1-0.1,0.2-0.3,0.3c-0.1,0.1-0.2,0.1-0.4,0.1
		c-0.1,0-0.2,0-0.4,0c-0.1,0-0.2-0.1-0.3-0.2c-0.1-0.1-0.1-0.3-0.2-0.4c0-0.2-0.1-0.5-0.1-0.7l0-4.1c0-0.2,0-0.5,0-0.7
		c0-0.2,0.1-0.3,0.2-0.5c0.1-0.1,0.1-0.2,0.3-0.3c0.1-0.1,0.2-0.1,0.4-0.1c0.1,0,0.2,0,0.4,0c0.1,0,0.2,0.1,0.3,0.2
		c0.1,0.1,0.1,0.3,0.2,0.5c0,0.2,0.1,0.5,0.1,0.7l0,4.1c0,0.2,0,0.5,0,0.7C7.8,17.9,7.7,18.1,7.7,18.2"/>
	<path class="st0" d="M32.1,18.5l0-4.8l-3.7,1.5l1.9-9.1L4.6,7.7c-0.6,0-1.1,0.2-1.6,0.5l0,0l-0.1,0l-2,1.4
		c-0.3,0.2-0.6,0.5-0.8,0.8c-0.2,0.3-0.3,0.7-0.3,1.1v11.9c0,0.3,0.1,0.6,0.2,0.9c0.1,0.3,0.3,0.5,0.5,0.7c0.2,0.2,0.5,0.4,0.8,0.5
		c0.3,0.1,0.6,0.2,0.9,0.1l22.6-1.3c0.8,0,1.5-0.3,2.2-0.7l3.7-2.8c0.4-0.3,0.8-0.6,1-1.1C31.9,19.5,32.1,19,32.1,18.5L32.1,18.5z
		 M29.1,20.4L4.7,21.8c-0.2,0-0.5,0-0.7-0.1c-0.2-0.1-0.4-0.2-0.6-0.4c-0.1-0.1-0.3-0.3-0.3-0.5c-0.1-0.2-0.1-0.4-0.1-0.6l0-9.6
		c0-0.5,0.2-0.9,0.6-1.3c0.3-0.3,0.8-0.5,1.3-0.6l24.1-1.4l-2,9.7l4.1-1.7v3.1C30.9,19.5,30.1,20.3,29.1,20.4"/>
</g>
</svg>
