<svg xmlns="http://www.w3.org/2000/svg" width="64" height="56" fill="none" viewBox="0 0 64 56">
    <path fill="#2D4252" d="M57.125 0H6.875C3.085 0 0 3.069 0 6.84v32.835c0 3.772 3.084 6.84 6.875 6.84h16.19c.197 0 .385.095.502.254l5.907 7.967c.592.799 1.503 1.26 2.5 1.264h.015c.992 0 1.901-.452 2.498-1.24l6.04-7.996c.118-.156.304-.248.5-.248h16.098c3.79 0 6.875-3.069 6.875-6.84V6.84C64 3.07 60.916 0 57.125 0zm3.125 39.675c0 .294-.042.578-.119.847L40.868 23.721 60.25 7.717v31.958zM57.125 3.731c.572 0 1.108.154 1.569.422L34 24.543c-1.157.954-2.835.954-3.991 0L5.312 4.15c.46-.266.994-.419 1.563-.419h50.25zM3.869 40.522c-.077-.27-.119-.553-.119-.847V7.708l19.387 16.008L3.87 40.522zm33.66 4l-5.536 7.328-5.408-7.296c-.821-1.108-2.137-1.77-3.52-1.77h-16.1L26.058 26.13l1.556 1.285c1.272 1.05 2.83 1.575 4.39 1.575 1.56 0 3.119-.525 4.39-1.575l1.55-1.28 19.09 16.65H41.028c-1.368 0-2.675.65-3.497 1.738z"/>
</svg>
