<svg width="32" height="32" viewBox="0 0 32 32" fill="none" xmlns="http://www.w3.org/2000/svg">
    <path d="M16 32c8.837 0 16-7.163 16-16S24.837 0 16 0 0 7.163 0 16s7.163 16 16 16z" fill="#007AB9"/>
    <path d="M24 17.809V24h-3.43v-5.776c0-1.45-.495-2.441-1.737-2.441-.948 0-1.511.667-1.76 1.312-.09.231-.113.552-.113.875V24h-3.43s.046-9.783 0-10.796h3.43v1.53c-.007.012-.017.024-.023.035h.023v-.035c.456-.734 1.269-1.784 3.091-1.784 2.257 0 3.949 1.543 3.949 4.859zM9.941 8C8.768 8 8 8.806 8 9.865c0 1.037.745 1.866 1.896 1.866h.022c1.197 0 1.94-.83 1.94-1.866C11.836 8.806 11.115 8 9.941 8zM8.204 24h3.429V13.204h-3.43V24z" fill="#F1F2F2"/>
</svg>
