<?xml version="1.0" encoding="utf-8"?>
<!-- Generator: Adobe Illustrator 16.0.0, SVG Export Plug-In . SVG Version: 6.00 Build 0)  -->
<!DOCTYPE svg PUBLIC "-//W3C//DTD SVG 1.1//EN" "http://www.w3.org/Graphics/SVG/1.1/DTD/svg11.dtd">
<svg version="1.1" id="Capa_1" xmlns="http://www.w3.org/2000/svg" xmlns:xlink="http://www.w3.org/1999/xlink" x="0px" y="0px"
	 width="96.719px" height="24.035px" viewBox="0 0 96.719 24.035" enable-background="new 0 0 96.719 24.035" xml:space="preserve">
<path fill="#FBC239" d="M14.095,6.833l3.067-5.14L14.324,0l-2.153,3.608L10.018,0l-2.84,1.693l3.068,5.141L0,24.035h24.281
	L14.095,6.833z M5.822,20.73l6.318-10.586l6.32,10.586H5.822z"/>
<g>
	<path fill="#FFFFFF" d="M32.99,11.161h9.348v2.388h-3.289v8.242h-2.787v-8.242H32.99V11.161z"/>
</g>
<g>
	<path fill="#FFFFFF" d="M74.854,18.484v3.308h-2.752v-10.63h4.656c2.303,0,3.859,1.299,3.859,3.669
		c0,2.355-1.557,3.653-3.859,3.653H74.854z M76.463,13.499h-1.609v2.666h1.609c1.004,0,1.455-0.537,1.455-1.334
		C77.918,14.018,77.467,13.499,76.463,13.499z"/>
</g>
<g>
	<circle fill="#FFFFFF" cx="95.326" cy="12.548" r="1.393"/>
</g>
<g>
	<circle fill="#FFFFFF" cx="56.996" cy="20.338" r="1.393"/>
</g>
<g>
	<path fill="#FFFFFF" d="M55.604,11.089h2.787v6.689h-2.787V11.089z"/>
</g>
<g>
	<path fill="#FFFFFF" d="M96.719,21.797h-2.787v-6.689h2.787V21.797z"/>
</g>
</svg>
