<?xml version="1.0" encoding="utf-8"?>
<!-- Generator: Adobe Illustrator 16.0.0, SVG Export Plug-In . SVG Version: 6.00 Build 0)  -->
<!DOCTYPE svg PUBLIC "-//W3C//DTD SVG 1.1//EN" "http://www.w3.org/Graphics/SVG/1.1/DTD/svg11.dtd">
<svg version="1.1" id="Capa_1" xmlns="http://www.w3.org/2000/svg" xmlns:xlink="http://www.w3.org/1999/xlink" x="0px" y="0px"
	 width="175.227px" height="47.208px" viewBox="0 0 175.227 47.208" enable-background="new 0 0 175.227 47.208"
	 xml:space="preserve">
<g>
	<path fill="#FFFFFF" d="M0,43.231h3.075v0.785H1.992v2.711H1.076v-2.711H0V43.231z"/>
	<path fill="#FFFFFF" d="M4.697,45.573v1.154H3.792v-3.496h1.571c0.752,0,1.27,0.428,1.27,1.189c0,0.529-0.267,0.895-0.693,1.055
		l0.82,1.252H5.746l-0.73-1.154H4.697z M4.697,44.842h0.57c0.324,0,0.473-0.166,0.473-0.422S5.592,44,5.268,44h-0.57V44.842z"/>
	<path fill="#FFFFFF" d="M9.446,43.231l1.333,3.496H9.852L9.6,46.049H8.33l-0.245,0.678H7.18l1.333-3.496H9.446z M8.609,45.297
		h0.717l-0.357-0.984L8.609,45.297z"/>
	<path fill="#FFFFFF" d="M14.509,46.727h-0.741l-1.463-2.043v2.043h-0.883v-3.496h0.854l1.351,1.926v-1.926h0.883V46.727z"/>
	<path fill="#FFFFFF" d="M16.131,45.69c0.074,0.24,0.279,0.359,0.564,0.359c0.278,0,0.472-0.119,0.472-0.336
		c0-0.164-0.107-0.238-0.33-0.291l-0.672-0.141c-0.513-0.115-0.899-0.383-0.899-0.975c0-0.684,0.569-1.133,1.344-1.133
		c0.854,0,1.338,0.467,1.436,1.07H17.15c-0.074-0.193-0.233-0.342-0.535-0.342c-0.262,0-0.439,0.113-0.439,0.307
		c0,0.154,0.108,0.24,0.291,0.279l0.684,0.16c0.598,0.143,0.928,0.467,0.928,1.008c0,0.719-0.603,1.127-1.366,1.127
		c-0.837,0-1.407-0.402-1.532-1.094H16.131z"/>
	<path fill="#FFFFFF" d="M19.718,45.639v1.088h-0.906v-3.496h1.532c0.758,0,1.27,0.428,1.27,1.207c0,0.775-0.512,1.201-1.27,1.201
		H19.718z M20.248,44h-0.53v0.875h0.53c0.33,0,0.479-0.176,0.479-0.438C20.727,44.17,20.578,44,20.248,44z"/>
	<path fill="#FFFFFF" d="M24.062,43.231l1.332,3.496h-0.928l-0.25-0.678h-1.271l-0.244,0.678h-0.906l1.334-3.496H24.062z
		 M23.225,45.297h0.719l-0.359-0.984L23.225,45.297z"/>
	<path fill="#FFFFFF" d="M26.943,45.573v1.154h-0.906v-3.496h1.572c0.752,0,1.27,0.428,1.27,1.189c0,0.529-0.268,0.895-0.693,1.055
		l0.818,1.252H27.99l-0.729-1.154H26.943z M26.943,44.842h0.57c0.324,0,0.471-0.166,0.471-0.422S27.838,44,27.514,44h-0.57V44.842z"
		/>
	<path fill="#FFFFFF" d="M32.148,43.231v0.785h-1.602v0.547h1.465v0.77h-1.465v0.604h1.602v0.791h-2.502v-3.496H32.148z"/>
	<path fill="#FFFFFF" d="M36.031,46.727h-0.74l-1.465-2.043v2.043h-0.883v-3.496h0.855l1.35,1.926v-1.926h0.883V46.727z"/>
	<path fill="#FFFFFF" d="M38.439,43.174c0.871,0,1.385,0.518,1.51,1.23h-0.912c-0.092-0.256-0.279-0.428-0.598-0.428
		c-0.484,0-0.758,0.428-0.758,1.002c0,0.57,0.273,1.004,0.758,1.004c0.318,0,0.506-0.172,0.598-0.434h0.912
		c-0.125,0.717-0.639,1.234-1.51,1.234c-0.98,0-1.68-0.746-1.68-1.805S37.459,43.174,38.439,43.174z"/>
	<path fill="#FFFFFF" d="M41.588,46.727H40.67v-3.496h0.918V46.727z"/>
	<path fill="#FFFFFF" d="M44.498,43.231l1.332,3.496h-0.928l-0.25-0.678h-1.271l-0.244,0.678H42.23l1.332-3.496H44.498z
		 M43.66,45.297h0.719l-0.359-0.984L43.66,45.297z"/>
	<path fill="#FFFFFF" d="M49.133,43.026h0.773l-1.412,4.182h-0.775L49.133,43.026z"/>
	<path fill="#FFFFFF" d="M52.936,46.727H52.02v-3.496h0.916V46.727z"/>
	<path fill="#FFFFFF" d="M56.887,46.727h-0.74l-1.463-2.043v2.043h-0.883v-3.496h0.854l1.35,1.926v-1.926h0.883V46.727z"/>
	<path fill="#FFFFFF" d="M57.752,46.727v-3.496h2.461v0.791h-1.555v0.695h1.43v0.775h-1.43v1.234H57.752z"/>
	<path fill="#FFFFFF" d="M62.52,46.784c-1.01,0-1.705-0.762-1.705-1.805c0-1.047,0.695-1.805,1.705-1.805
		c1.014,0,1.713,0.758,1.713,1.805C64.232,46.022,63.533,46.784,62.52,46.784z M62.52,43.977c-0.475,0-0.781,0.398-0.781,1.002
		s0.307,1.004,0.781,1.004c0.471,0,0.791-0.4,0.791-1.004S62.99,43.977,62.52,43.977z"/>
	<path fill="#FFFFFF" d="M65.861,45.573v1.154h-0.906v-3.496h1.572c0.752,0,1.27,0.428,1.27,1.189c0,0.529-0.268,0.895-0.693,1.055
		l0.818,1.252h-1.014l-0.729-1.154H65.861z M65.861,44.842h0.568c0.326,0,0.473-0.166,0.473-0.422S66.756,44,66.43,44h-0.568V44.842
		z"/>
	<path fill="#FFFFFF" d="M70.148,46.727l-0.729-2.078v2.078h-0.855v-3.496h1.117l0.768,2.176l0.764-2.176h1.111v3.496h-0.859v-2.078
		l-0.725,2.078H70.148z"/>
	<path fill="#FFFFFF" d="M75.232,43.231l1.334,3.496h-0.928l-0.252-0.678h-1.27l-0.246,0.678h-0.904l1.332-3.496H75.232z
		 M74.396,45.297h0.717l-0.359-0.984L74.396,45.297z"/>
	<path fill="#FFFFFF" d="M78.559,43.174c0.871,0,1.385,0.518,1.51,1.23h-0.912c-0.09-0.256-0.279-0.428-0.598-0.428
		c-0.484,0-0.758,0.428-0.758,1.002c0,0.57,0.273,1.004,0.758,1.004c0.318,0,0.508-0.172,0.598-0.434h0.912
		c-0.125,0.717-0.639,1.234-1.51,1.234c-0.979,0-1.68-0.746-1.68-1.805S77.58,43.174,78.559,43.174z"/>
	<path fill="#FFFFFF" d="M81.707,46.727h-0.916v-3.496h0.916V46.727z"/>
	<path fill="#FFFFFF" d="M84.139,46.784c-1.008,0-1.703-0.762-1.703-1.805c0-1.047,0.695-1.805,1.703-1.805
		c1.014,0,1.715,0.758,1.715,1.805C85.854,46.022,85.152,46.784,84.139,46.784z M84.139,43.977c-0.473,0-0.779,0.398-0.779,1.002
		s0.307,1.004,0.779,1.004s0.791-0.4,0.791-1.004S84.611,43.977,84.139,43.977z M83.678,42.934l0.467-0.74h0.918l-0.508,0.74H83.678
		z"/>
	<path fill="#FFFFFF" d="M89.664,46.727h-0.742l-1.463-2.043v2.043h-0.883v-3.496h0.854l1.35,1.926v-1.926h0.885V46.727z"/>
	<path fill="#FFFFFF" d="M93.188,43.026h0.775l-1.412,4.182h-0.777L93.188,43.026z"/>
	<path fill="#FFFFFF" d="M96.98,45.639v1.088h-0.906v-3.496h1.531c0.758,0,1.271,0.428,1.271,1.207c0,0.775-0.514,1.201-1.271,1.201
		H96.98z M97.51,44H96.98v0.875h0.529c0.33,0,0.479-0.176,0.479-0.438C97.988,44.17,97.84,44,97.51,44z"/>
	<path fill="#FFFFFF" d="M101.324,43.231l1.332,3.496h-0.928l-0.25-0.678h-1.27l-0.246,0.678h-0.906l1.334-3.496H101.324z
		 M100.486,45.297h0.719l-0.359-0.984L100.486,45.297z"/>
	<path fill="#FFFFFF" d="M104.205,45.573v1.154h-0.904v-3.496h1.57c0.752,0,1.271,0.428,1.271,1.189c0,0.529-0.27,0.895-0.695,1.055
		l0.82,1.252h-1.014l-0.73-1.154H104.205z M104.205,44.842h0.57c0.324,0,0.473-0.166,0.473-0.422S105.1,44,104.775,44h-0.57V44.842z
		"/>
	<path fill="#FFFFFF" d="M106.721,43.231h3.076v0.785h-1.082v2.711h-0.916v-2.711h-1.078V43.231z"/>
	<path fill="#FFFFFF" d="M111.43,46.727h-0.916v-3.496h0.916V46.727z"/>
	<path fill="#FFFFFF" d="M113.84,43.174c0.871,0,1.383,0.518,1.51,1.23h-0.912c-0.09-0.256-0.279-0.428-0.598-0.428
		c-0.484,0-0.758,0.428-0.758,1.002c0,0.57,0.273,1.004,0.758,1.004c0.318,0,0.508-0.172,0.598-0.434h0.912
		c-0.127,0.717-0.639,1.234-1.51,1.234c-0.98,0-1.682-0.746-1.682-1.805S112.859,43.174,113.84,43.174z"/>
	<path fill="#FFFFFF" d="M116.988,46.727h-0.918v-3.496h0.918V46.727z"/>
	<path fill="#FFFFFF" d="M118.758,45.639v1.088h-0.904v-3.496h1.531c0.758,0,1.271,0.428,1.271,1.207
		c0,0.775-0.514,1.201-1.271,1.201H118.758z M119.289,44h-0.531v0.875h0.531c0.33,0,0.479-0.176,0.479-0.438
		C119.768,44.17,119.619,44,119.289,44z"/>
	<path fill="#FFFFFF" d="M123.105,43.231l1.33,3.496h-0.928l-0.25-0.678h-1.27l-0.246,0.678h-0.906l1.332-3.496H123.105z
		 M122.266,45.297h0.719l-0.359-0.984L122.266,45.297z"/>
	<path fill="#FFFFFF" d="M126.428,43.174c0.873,0,1.385,0.518,1.51,1.23h-0.91c-0.092-0.256-0.279-0.428-0.6-0.428
		c-0.482,0-0.756,0.428-0.756,1.002c0,0.57,0.273,1.004,0.756,1.004c0.32,0,0.508-0.172,0.6-0.434h0.91
		c-0.125,0.717-0.637,1.234-1.51,1.234c-0.979,0-1.68-0.746-1.68-1.805S125.449,43.174,126.428,43.174z"/>
	<path fill="#FFFFFF" d="M129.578,46.727h-0.918v-3.496h0.918V46.727z"/>
	<path fill="#FFFFFF" d="M132.008,46.784c-1.006,0-1.703-0.762-1.703-1.805c0-1.047,0.697-1.805,1.703-1.805
		c1.016,0,1.715,0.758,1.715,1.805C133.723,46.022,133.023,46.784,132.008,46.784z M132.008,43.977
		c-0.471,0-0.779,0.398-0.779,1.002s0.309,1.004,0.779,1.004c0.473,0,0.793-0.4,0.793-1.004S132.48,43.977,132.008,43.977z
		 M131.547,42.934l0.467-0.74h0.918l-0.508,0.74H131.547z"/>
	<path fill="#FFFFFF" d="M137.533,46.727h-0.742l-1.463-2.043v2.043h-0.883v-3.496h0.854l1.35,1.926v-1.926h0.885V46.727z"/>
	<path fill="#FFFFFF" d="M141.055,43.026h0.777l-1.414,4.182h-0.775L141.055,43.026z"/>
	<path fill="#FFFFFF" d="M144.859,46.727h-0.918v-3.496h0.918V46.727z"/>
	<path fill="#FFFFFF" d="M148.812,46.727h-0.74l-1.465-2.043v2.043h-0.883v-3.496h0.855l1.35,1.926v-1.926h0.883V46.727z"/>
	<path fill="#FFFFFF" d="M151.221,43.174c0.871,0,1.385,0.518,1.508,1.23h-0.91c-0.092-0.256-0.279-0.428-0.598-0.428
		c-0.486,0-0.758,0.428-0.758,1.002c0,0.57,0.271,1.004,0.758,1.004c0.318,0,0.506-0.172,0.598-0.434h0.91
		c-0.123,0.717-0.637,1.234-1.508,1.234c-0.98,0-1.682-0.746-1.682-1.805S150.24,43.174,151.221,43.174z"/>
	<path fill="#FFFFFF" d="M154.367,46.727h-0.916v-3.496h0.916V46.727z"/>
	<path fill="#FFFFFF" d="M155.234,43.231h1.32c1.098,0,1.766,0.684,1.766,1.748c0,1.066-0.668,1.748-1.766,1.748h-1.32V43.231z
		 M156.51,45.936c0.582,0,0.904-0.369,0.904-0.957c0-0.592-0.322-0.963-0.904-0.963h-0.375v1.92H156.51z"/>
	<path fill="#FFFFFF" d="M161.543,43.231v0.785h-1.6v0.547h1.463v0.77h-1.463v0.604h1.6v0.791h-2.5v-3.496H161.543z"/>
	<path fill="#FFFFFF" d="M165.426,46.727h-0.74l-1.463-2.043v2.043h-0.883v-3.496h0.854l1.35,1.926v-1.926h0.883V46.727z"/>
	<path fill="#FFFFFF" d="M167.834,43.174c0.871,0,1.385,0.518,1.51,1.23h-0.91c-0.092-0.256-0.279-0.428-0.6-0.428
		c-0.484,0-0.758,0.428-0.758,1.002c0,0.57,0.273,1.004,0.758,1.004c0.32,0,0.508-0.172,0.6-0.434h0.91
		c-0.125,0.717-0.639,1.234-1.51,1.234c-0.979,0-1.68-0.746-1.68-1.805S166.855,43.174,167.834,43.174z"/>
	<path fill="#FFFFFF" d="M170.982,46.727h-0.918v-3.496h0.918V46.727z"/>
	<path fill="#FFFFFF" d="M173.893,43.231l1.334,3.496h-0.93l-0.25-0.678h-1.27l-0.246,0.678h-0.906l1.334-3.496H173.893z
		 M173.055,45.297h0.719l-0.359-0.984L173.055,45.297z"/>
</g>
<path fill="#FBC239" d="M102.994,30.53L90.057,8.68l3.896-6.529L90.348,0l-2.735,4.584L84.877,0l-3.605,2.15l3.896,6.529
	L72.154,30.53H102.994z M79.549,26.333l8.025-13.452l8.027,13.452H79.549z"/>
</svg>
