<?xml version="1.0" encoding="utf-8"?>
<!-- Generator: Adobe Illustrator 16.0.0, SVG Export Plug-In . SVG Version: 6.00 Build 0)  -->
<!DOCTYPE svg PUBLIC "-//W3C//DTD SVG 1.1//EN" "http://www.w3.org/Graphics/SVG/1.1/DTD/svg11.dtd" [
	<!ENTITY ns_flows "http://ns.adobe.com/Flows/1.0/">
	<!ENTITY ns_extend "http://ns.adobe.com/Extensibility/1.0/">
	<!ENTITY ns_ai "http://ns.adobe.com/AdobeIllustrator/10.0/">
	<!ENTITY ns_graphs "http://ns.adobe.com/Graphs/1.0/">
]>
<svg version="1.1" id="Capa_1" xmlns:x="&ns_extend;" xmlns:i="&ns_ai;" xmlns:graph="&ns_graphs;"
	 xmlns="http://www.w3.org/2000/svg" xmlns:xlink="http://www.w3.org/1999/xlink" xmlns:a="http://ns.adobe.com/AdobeSVGViewerExtensions/3.0/"
	 x="0px" y="0px" width="267.191px" height="115.577px" viewBox="0 0 267.191 115.577" enable-background="new 0 0 267.191 115.577"
	 xml:space="preserve">
<g>
	<path fill="#FFFFFF" d="M179.566,79.048c1.737-1.324,2.738-2.096,3.17-2.879c-1.545-2.35-2.795-4.912-3.696-7.633
		c-0.058,0.015-0.108,0.023-0.169,0.042c-6.754,2.006-13.534,3.93-20.319,5.837c-0.075,0.021-0.138,0.043-0.207,0.063
		c1.744,5.4,4.309,10.431,7.55,14.944c0.162-0.119,0.319-0.231,0.483-0.356C170.775,85.729,175.176,82.394,179.566,79.048z"/>
	<path fill="#FFFFFF" d="M191.232,85.546c0.086-0.139,0.166-0.281,0.247-0.426c-2.406-1.666-4.579-3.645-6.457-5.881
		c-0.031,0.025-0.063,0.049-0.097,0.074c-5.605,4.271-11.206,8.551-16.836,12.789c-0.033,0.023-0.057,0.045-0.087,0.069
		c3.511,4.285,7.666,8.022,12.314,11.068c0.037-0.058,0.072-0.106,0.109-0.169C183.99,97.207,187.626,91.386,191.232,85.546z"/>
	<path fill="#FFFFFF" d="M194.436,86.947c-0.015,0.029-0.029,0.06-0.045,0.085c-3.713,6.002-7.404,12.016-11.157,17.991
		c4.781,2.718,10.016,4.731,15.561,5.898c1.273-6.937,2.567-13.868,3.864-20.856C199.75,89.392,196.988,88.339,194.436,86.947z"/>
	<path fill="#FFFFFF" d="M218.191,89.894c1.356,6.939,2.682,13.885,3.966,20.836c5.441-1.24,10.571-3.299,15.256-6.037
		c-3.705-6.049-7.146-12.295-11.352-17.967C223.615,88.104,220.976,89.181,218.191,89.894z"/>
	<path fill="#FFFFFF" d="M214.844,90.563c-1.562,0.229-3.161,0.353-4.788,0.353c-1.354,0-2.685-0.091-3.995-0.251
		c-1.295,6.952-2.592,13.904-3.885,20.855c2.566,0.373,5.19,0.569,7.86,0.569c2.991,0,5.925-0.245,8.784-0.71
		c-1.346-6.888-2.66-13.781-3.945-20.678C214.867,90.653,214.854,90.61,214.844,90.563z"/>
	<path fill="#FFFFFF" d="M235.851,79.101c-0.132-0.098-0.269-0.198-0.403-0.297c-1.83,2.256-3.954,4.26-6.315,5.959
		c0.054,0.098,0.107,0.194,0.174,0.299c3.651,5.807,7.292,11.623,10.798,17.521c0.065,0.11,0.129,0.21,0.192,0.302
		c4.627-3.109,8.748-6.914,12.216-11.262c-0.125-0.104-0.258-0.21-0.41-0.321C246.646,87.286,241.261,83.175,235.851,79.101z"/>
	<path fill="#FFFFFF" d="M264.258,54.683c-5.789,0.559-11.578,1.11-17.365,1.682c-1.373,0.135-2.982-0.025-4.192,0.362
		c0.023,0.499,0.038,1.001,0.038,1.507c0,2.379-0.26,4.695-0.743,6.93c0.189,0.072,0.398,0.139,0.626,0.201
		c5.126,1.396,10.22,2.91,15.331,4.365c2.26,0.644,3.773,1.068,4.812,1.105c1.032-4.183,1.584-8.555,1.584-13.057
		C264.348,56.739,264.316,55.708,264.258,54.683z"/>
	<path fill="#FFFFFF" d="M244.387,69.412c-1.624-0.47-2.629-0.763-3.367-0.726c-0.878,2.604-2.075,5.062-3.546,7.326
		c0.147,0.133,0.312,0.268,0.5,0.402c4.164,3.023,8.26,6.143,12.362,9.252c2.053,1.557,3.391,2.562,4.413,2.943
		c2.991-4.328,5.369-9.113,7.01-14.229c-0.263-0.055-0.527-0.086-0.744-0.151C255.488,72.573,249.931,71.018,244.387,69.412z"/>
	<path fill="#FFFFFF" d="M233.475,35.086c-0.058,0.062-0.113,0.124-0.167,0.186c1.998,2.023,3.73,4.309,5.149,6.796
		c6.52-3.248,13.041-6.498,19.566-9.738c-2.608-4.909-5.948-9.369-9.873-13.236c-0.062,0.06-0.124,0.123-0.188,0.193
		C243.146,24.565,238.316,29.83,233.475,35.086z"/>
	<path fill="#FFFFFF" d="M240.101,45.357c1.081,2.521,1.855,5.204,2.273,8.003c0.15-0.01,0.31-0.029,0.479-0.061
		c6.772-0.645,13.937-1.354,21.11-1.987c-0.665-5.606-2.182-10.952-4.421-15.901c-6.426,3.276-13.094,6.134-19.263,9.828
		C240.216,45.278,240.158,45.318,240.101,45.357z"/>
	<path fill="#FFFFFF" d="M174.475,66.285c1.876-0.537,2.96-0.854,3.581-1.381c-0.447-2.154-0.685-4.386-0.685-6.671
		c0-0.609,0.021-1.214,0.054-1.815c-0.14-0.024-0.287-0.044-0.446-0.056c-7.056-0.547-14.107-1.129-21.162-1.701
		c-0.059,1.031-0.092,2.07-0.092,3.117c0,4.626,0.58,9.116,1.669,13.404c0.216-0.039,0.457-0.101,0.729-0.188
		C163.522,69.265,169.021,67.847,174.475,66.285z"/>
	<path fill="#FFFFFF" d="M198.412,22.609c0.579,1.481,0.862,3.353,1.765,4.464c2.674-0.847,5.498-1.358,8.422-1.486
		c0.018-0.171,0.027-0.351,0.024-0.55c-0.059-3.526-0.022-7.054-0.022-10.58c0.001-3.438-0.064-6.876,0.032-10.311
		c0.008-0.254-0.008-0.466-0.035-0.66c-5.739,0.149-11.256,1.193-16.42,2.99c0.062,0.298,0.178,0.633,0.333,1.016
		C194.544,12.504,196.443,17.57,198.412,22.609z"/>
	<path fill="#FFFFFF" d="M224.76,25.083c-0.657,1.713-1.037,2.719-1.014,3.474c2.526,1.168,4.881,2.643,7.009,4.387
		c0.147-0.131,0.298-0.285,0.455-0.459c4.596-5.106,9.267-10.145,13.908-15.208c0.169-0.185,0.322-0.367,0.477-0.55
		c-4.213-3.653-8.997-6.667-14.197-8.894c-0.132,0.214-0.256,0.481-0.377,0.813C229.005,14.151,226.859,19.608,224.76,25.083z"/>
	<path fill="#FFFFFF" d="M211.998,14.317c0,3.522-0.019,7.046,0.018,10.568c0.003,0.219-0.04,0.474-0.059,0.724
		c2.884,0.166,5.666,0.708,8.303,1.574c0.051-0.167,0.095-0.335,0.15-0.478c2.544-6.55,5.032-13.122,7.599-19.664
		c0.069-0.176,0.114-0.328,0.149-0.474c-5.083-1.798-10.511-2.86-16.161-3.062c-0.018,0.154-0.029,0.319-0.024,0.513
		C212.05,7.451,211.998,10.885,211.998,14.317z"/>
	<path fill="#FFFFFF" d="M187.394,29.975c1.22,1.347,1.937,2.136,2.609,2.459c2.114-1.646,4.435-3.037,6.918-4.129
		c-0.028-0.068-0.057-0.137-0.084-0.207c-2.596-6.721-5.213-13.432-7.76-20.171c-0.031-0.082-0.062-0.156-0.095-0.227
		c-5.121,2.156-9.84,5.076-14.02,8.614c0.137,0.205,0.318,0.425,0.55,0.671C179.541,21.251,183.456,25.624,187.394,29.975z"/>
	<path fill="#FFFFFF" d="M178.791,40.118c1.562,0.775,2.501,1.234,3.233,1.304c1.437-2.387,3.169-4.573,5.146-6.513
		c-0.062-0.074-0.119-0.153-0.184-0.224c-4.738-5.218-9.515-10.405-14.205-15.668c-0.138-0.155-0.267-0.276-0.392-0.382
		c-4.008,3.854-7.425,8.317-10.102,13.241c0.253,0.187,0.577,0.366,0.979,0.556C168.489,34.895,173.62,37.55,178.791,40.118z"/>
	<path fill="#FFFFFF" d="M176.631,52.886c0.443,0.141,0.822,0.195,1.152,0.177c0.464-2.917,1.317-5.702,2.499-8.309
		c-0.155-0.102-0.327-0.2-0.53-0.299c-6.158-2.998-12.293-6.047-18.387-9.174c-0.236-0.121-0.445-0.21-0.642-0.283
		c-2.316,5.006-3.895,10.424-4.591,16.114c0.196,0.041,0.413,0.072,0.657,0.092C163.353,51.72,169.909,52.31,176.631,52.886z"/>
</g>
<g>
	<path fill="#FFFFFF" d="M115.33,111.146L70.104,34.773l13.62-22.834L71.119,4.43l-9.558,16.014L51.995,4.43l-12.591,7.509
		l13.609,22.826L7.532,111.146H115.33z M33.376,96.46l28.047-47.013l28.06,47.013H33.376z"/>
</g>
</svg>
