<svg width="32" height="32" viewBox="0 0 32 32" fill="none" xmlns="http://www.w3.org/2000/svg">
    <path d="M16 32c8.836 0 16-7.164 16-16 0-8.837-7.164-16-16-16C7.163 0 0 7.163 0 16c0 8.836 7.163 16 16 16z" fill="#55ACEE"/>
    <path d="M24 11.54a6.547 6.547 0 0 1-1.886.516 3.29 3.29 0 0 0 1.444-1.816 6.572 6.572 0 0 1-2.084.796 3.283 3.283 0 0 0-5.594 2.994 9.318 9.318 0 0 1-6.766-3.43 3.283 3.283 0 0 0 1.016 4.383 3.259 3.259 0 0 1-1.487-.41v.04a3.285 3.285 0 0 0 2.633 3.22 3.27 3.27 0 0 1-1.483.056 3.286 3.286 0 0 0 3.067 2.28A6.586 6.586 0 0 1 8 21.528a9.285 9.285 0 0 0 5.031 1.475c6.038 0 9.34-5.002 9.34-9.34 0-.143-.003-.284-.01-.425A6.658 6.658 0 0 0 24 11.54z" fill="#fff"/>
</svg>
