<svg width="32" height="32" viewBox="0 0 32 32" fill="none" xmlns="http://www.w3.org/2000/svg">
    <path d="M16 32c8.836 0 16-7.164 16-16 0-8.837-7.164-16-16-16C7.163 0 0 7.163 0 16c0 8.836 7.163 16 16 16z" fill="#EFCA53"/>
    <path d="m18.015 18.934.855-.864a.602.602 0 0 0 0-.865l-4.03-4.078a.586.586 0 0 0-.855 0l-.855.865a.602.602 0 0 0 0 .865l4.03 4.077c.245.247.611.247.855 0z" fill="#fff"/>
    <path d="M11.298 15.104a2.726 2.726 0 0 1-.794-1.915c0-1.482 1.221-2.718 2.687-2.718.733 0 1.404.309 1.893.803l1.527 1.545c.244.247.61.247.855 0l.855-.865a.602.602 0 0 0 0-.865l-1.527-1.545A5.096 5.096 0 0 0 13.13 8C10.32 8 8 10.348 8 13.19c0 1.358.55 2.717 1.527 3.706l1.526 1.544c.245.247.611.247.855 0l.855-.865a.602.602 0 0 0 0-.865l-1.465-1.606zM22.412 15.166l-1.526-1.544a.586.586 0 0 0-.855 0l-.855.864a.602.602 0 0 0 0 .865l1.526 1.545c.489.494.794 1.174.794 1.915 0 1.482-1.221 2.718-2.687 2.718a2.664 2.664 0 0 1-1.893-.803l-1.527-1.544a.586.586 0 0 0-.855 0l-.855.864a.602.602 0 0 0 0 .865l1.527 1.545A5.096 5.096 0 0 0 18.87 24c2.81 0 5.13-2.348 5.13-5.19a5.518 5.518 0 0 0-1.588-3.644z" fill="#fff"/>
</svg>
