<?xml version="1.0" encoding="UTF-8"?>
<svg width="16px" height="16px" viewBox="0 0 16 16" version="1.1" xmlns="http://www.w3.org/2000/svg" xmlns:xlink="http://www.w3.org/1999/xlink">
    <title>github-image</title>
    <g id="Page-1" stroke="none" stroke-width="1" fill="none" fill-rule="evenodd">
        <g id="github-image" fill="#000000" fill-rule="nonzero">
            <path d="M8,0.0208333333 C3.58,0.0208333333 0,3.54083333 0,7.88216667 C0,11.3561667 2.292,14.3021667 5.47,15.3408333 C5.87,15.4148333 6.01666667,15.1715 6.01666667,14.9628333 C6.01666667,14.7761667 6.01,14.2815 6.00666667,13.6261667 C3.78133333,14.1001667 3.312,12.5715 3.312,12.5715 C2.948,11.6641667 2.422,11.4215 2.422,11.4215 C1.69733333,10.9341667 2.478,10.9441667 2.478,10.9441667 C3.28133333,10.9988333 3.70333333,11.7541667 3.70333333,11.7541667 C4.41666667,12.9561667 5.576,12.6088333 6.03333333,12.4081667 C6.10533333,11.8995 6.31133333,11.5535 6.54,11.3568333 C4.76333333,11.1601667 2.896,10.4841667 2.896,7.47216667 C2.896,6.61416667 3.206,5.91283333 3.71933333,5.36283333 C3.62933333,5.16416667 3.35933333,4.36483333 3.78933333,3.28216667 C3.78933333,3.28216667 4.45933333,3.0715 5.98933333,4.08816667 C6.62933333,3.9135 7.30933333,3.82683333 7.98933333,3.82283333 C8.66933333,3.82683333 9.34933333,3.9135 9.98933333,4.08816667 C11.5093333,3.0715 12.1793333,3.28216667 12.1793333,3.28216667 C12.6093333,4.36483333 12.3393333,5.16416667 12.2593333,5.36283333 C12.7693333,5.91283333 13.0793333,6.61416667 13.0793333,7.47216667 C13.0793333,10.4921667 11.2093333,11.1568333 9.42933333,11.3501667 C9.70933333,11.5861667 9.96933333,12.0681667 9.96933333,12.8048333 C9.96933333,13.8568333 9.95933333,14.7021667 9.95933333,14.9575 C9.95933333,15.1635 10.0993333,15.4095 10.5093333,15.3308333 C13.71,14.2988333 16,11.3508333 16,7.88216667 C16,3.54083333 12.418,0.0208333333 8,0.0208333333 L8,0.0208333333 Z" id="Path"></path>
        </g>
    </g>
</svg>