<svg xmlns="http://www.w3.org/2000/svg" width="16" height="12" fill="none" viewBox="0 0 16 12">
    <path fill="#2D4252" d="M5.032 12c6.038 0 9.34-4.616 9.34-8.62 0-.13-.003-.261-.01-.39A6.419 6.419 0 0 0 16 1.42a6.982 6.982 0 0 1-1.885.477c.678-.375 1.198-.968 1.443-1.675-.634.347-1.336.599-2.084.735A3.412 3.412 0 0 0 11.078 0C9.265 0 7.795 1.357 7.795 3.029c0 .238.029.469.085.69C5.152 3.594 2.732 2.389 1.113.556A2.846 2.846 0 0 0 .67 2.077c0 1.051.58 1.98 1.46 2.522A3.467 3.467 0 0 1 .644 4.22v.039c0 1.467 1.131 2.692 2.633 2.97a3.554 3.554 0 0 1-1.482.051c.418 1.204 1.63 2.08 3.066 2.104a6.943 6.943 0 0 1-4.077 1.297A7.23 7.23 0 0 1 0 10.64 9.864 9.864 0 0 0 5.032 12"/>
</svg>
