<svg width="23" height="16" viewBox="0 0 23 16" fill="none" xmlns="http://www.w3.org/2000/svg">
    <path d="M22.603 2.574C22.32 1.353 21.32.452 20.116.318 17.264 0 14.377-.002 11.504 0 8.63 0 5.742 0 2.89.318 1.687.452.687 1.353.405 2.574.005 4.312 0 6.21 0 8s0 3.688.4 5.426c.282 1.22 1.282 2.121 2.486 2.255 2.852.319 5.74.32 8.613.319 2.875.002 5.761 0 8.612-.319 1.204-.134 2.205-1.034 2.486-2.255C23 11.687 23 9.79 23 8s.003-3.688-.397-5.426zm-14.071 8.99V3.971l7.312 3.807-7.312 3.784z" fill="#fff"/>
</svg>
