<svg xmlns="http://www.w3.org/2000/svg" width="14" height="16" fill="none" viewBox="0 0 14 16">
    <path fill="#2D4252" d="M11.95 1.965C10.628.698 8.87 0 7 0S3.372.698 2.05 1.965C.728 3.232 0 4.916 0 6.708 0 8.5.728 10.184 2.05 11.45l4.604 4.412c.096.091.22.137.346.137.125 0 .25-.046.346-.137l4.604-4.412C13.272 10.184 14 8.5 14 6.708c0-1.792-.728-3.476-2.05-4.743zm-2.752 6.85c-.587.562-1.367.872-2.198.872-.83 0-1.611-.31-2.198-.873-.587-.562-.91-1.31-.91-2.106 0-.796.323-1.544.91-2.107C5.389 4.04 6.17 3.73 7 3.73c.83 0 1.611.31 2.198.872.588.563.911 1.311.911 2.107 0 .796-.323 1.544-.91 2.106z"/>
</svg>
