<svg width="16" height="16" viewBox="0 0 16 16" fill="none" xmlns="http://www.w3.org/2000/svg">
    <path d="M16 .377V.376a.37.37 0 0 0-.37-.372V0h-4.978v.004a.37.37 0 0 0-.366.371V2.03c0 .204.164.37.366.371h1.233L9.8 4.499A6.213 6.213 0 0 0 6.266 3.4C2.806 3.4 0 6.22 0 9.7S2.805 16 6.266 16c3.46 0 6.265-2.82 6.265-6.3a6.293 6.293 0 0 0-1.053-3.495l2.134-2.145v1.317a.37.37 0 0 0 .37.372h1.648a.37.37 0 0 0 .37-.372v-5zM6.266 13.599c-2.142 0-3.878-1.745-3.878-3.899 0-2.153 1.736-3.899 3.878-3.899 2.141 0 3.877 1.746 3.877 3.899 0 2.154-1.736 3.9-3.877 3.9z" fill="#1D1D1B"/>
</svg>
