<svg width="16" height="16" viewBox="0 0 16 16" fill="none" xmlns="http://www.w3.org/2000/svg">
<path fill-rule="evenodd" clip-rule="evenodd" d="M8 1.6C4.44183 1.6 1.6 4.44183 1.6 8C1.6 11.5582 4.44183 14.4 8 14.4C11.5582 14.4 14.4 11.5582 14.4 8C14.4 4.44183 11.5582 1.6 8 1.6ZM0 8C0 3.55817 3.55817 0 8 0C12.4418 0 16 3.55817 16 8C16 12.4418 12.4418 16 8 16C3.55817 16 0 12.4418 0 8Z" fill="#9CB0BF"/>
<path fill-rule="evenodd" clip-rule="evenodd" d="M7.2002 4H8.8002V7.66863L10.9659 9.83431L9.83451 10.9657L7.2002 8.33137V4Z" fill="#9CB0BF"/>
</svg>