<svg width="11" height="16" viewBox="0 0 11 16" fill="none" xmlns="http://www.w3.org/2000/svg">
    <path d="M11 5.6C11 2.435 8.42-.117 5.285.004 2.45.114.134 2.456.005 5.341c-.124 2.843 1.831 5.243 4.448 5.756v.636H2.88a.528.528 0 0 0-.524.534v1.066c0 .295.235.534.524.534h1.572v1.6c0 .294.234.533.523.533h1.048c.29 0 .524-.239.524-.533v-1.6h1.571c.29 0 .524-.239.524-.534v-1.066a.528.528 0 0 0-.524-.534H6.548v-.636C9.084 10.6 11 8.328 11 5.6zm-8.8 0c0-1.853 1.48-3.36 3.3-3.36 1.82 0 3.3 1.507 3.3 3.36S7.32 8.96 5.5 8.96c-1.82 0-3.3-1.507-3.3-3.36z" fill="#1D1D1B"/>
</svg>
