<svg width="352" height="290" viewBox="0 0 352 290" fill="none" xmlns="http://www.w3.org/2000/svg">
    <path d="M318.42 155.766a3.643 3.643 0 0 0 0-5.16 3.658 3.658 0 0 0-5.168 0 3.645 3.645 0 0 0 0 5.16 3.658 3.658 0 0 0 5.168 0z" fill="#DFE6FF"/>
    <path d="M351.257 97.057h-86.836c1.049-5.947 8.022-10.542 16.465-10.542.948 0 1.895.058 2.836.175-.022-.27-.032-.544-.032-.82 0-6.032 5.175-10.924 11.566-10.924a11.91 11.91 0 0 1 7.774 2.837c1.088-4.211 4.436-7.277 8.395-7.277 3.638 0 6.759 2.585 8.087 6.268a10.775 10.775 0 0 1 4.259-.868c5.649 0 10.227 4.284 10.227 9.585 0 .4-.026.8-.079 1.197.319-.043.641-.065.963-.065 3.561 0 6.624 2.628 7.982 6.396.312.017.635.047.967.093 3.667.505 5.979 1.99 7.426 3.945z" fill="#fff"/>
    <path d="M351.996 97.43H263.97l.076-.438c1.092-6.186 8.328-10.85 16.833-10.85.814 0 1.628.043 2.438.127v-.398c0-6.23 5.354-11.297 11.939-11.297 2.739-.01 5.403.89 7.571 2.561 1.294-4.15 4.762-7.002 8.6-7.002 3.583 0 6.805 2.401 8.299 6.147a11.102 11.102 0 0 1 4.048-.745c5.843 0 10.598 4.47 10.598 9.957 0 .261 0 .522-.031.78.186-.012.373-.02.543-.02 3.544 0 6.753 2.51 8.247 6.413.252.019.504.045.746.08 3.438.473 6.022 1.85 7.682 4.098l.437.587zm-87.12-.745h85.6c-1.545-1.748-3.746-2.794-6.703-3.204a11.151 11.151 0 0 0-.933-.09l-.248-.012-.084-.233c-1.47-4.078-4.895-6.583-8.544-6.089l-.485.067.065-.484c.05-.381.075-.765.075-1.15 0-5.079-4.42-9.212-9.852-9.212a10.332 10.332 0 0 0-4.104.838l-.373.157-.135-.373c-1.32-3.658-4.356-6.021-7.736-6.021-3.666 0-6.971 2.877-8.037 6.997l-.149.58-.455-.39a11.544 11.544 0 0 0-7.529-2.747c-6.168 0-11.193 4.733-11.193 10.552 0 .262.011.527.031.79l.038.456-.455-.058a22.793 22.793 0 0 0-2.799-.171c-7.928 0-14.706 4.181-15.995 9.797z" fill="#6F78A1"/>
    <path d="M293.635 30.1H149.187v139.87h144.448V30.1z" fill="#fff"/>
    <path d="M294.004 170.34H148.813V29.727h145.191V170.34zm-144.448-.745h143.702V30.472H149.56l-.004 139.123z" fill="#6F78A1"/>
    <path d="M275.055 24.14H130.606v139.871h144.449V24.141z" fill="#DFE6FF"/>
    <path d="M268.259 17.355H123.81v139.871h144.449V17.356z" fill="#fff"/>
    <path d="M268.634 157.598H123.437V16.985h145.197v140.613zm-144.449-.745h143.702V17.73H124.183l.002 139.123z" fill="#6F78A1"/>
    <path d="M242.586 0H98.137v139.87h144.449V0z" fill="#DFE6FF"/>
    <path d="M244.46 141.742H99.452V1.313H244.46v140.429zm-144.448-.558h143.889V1.872H100.012v139.312z" fill="#40479C"/>
    <path d="M167.844 38.425a29.05 29.05 0 0 1-3.871 14.522A29.099 29.099 0 0 1 153.358 63.6c-.49.286-.987.56-1.492.817a29.05 29.05 0 0 1-11.481 3.092 28.18 28.18 0 0 1-1.692.05h-.199a29.102 29.102 0 0 1-16.81-5.44l-.075-.056a22.555 22.555 0 0 1-1.095-.829 29.129 29.129 0 0 1-8.787-11.62 29.09 29.09 0 0 1 3.126-28.023 29.171 29.171 0 0 1 11.133-9.404 29.218 29.218 0 0 1 28.197 1.563 29.147 29.147 0 0 1 10.022 10.577 29.101 29.101 0 0 1 3.645 14.098h-.006z" fill="#fff"/>
    <path d="M129.155 63.449c-.142.795-.286 1.585-.441 2.373a29.133 29.133 0 0 1-7.036-3.703c2.91-3.925 7.563.834 7.477 1.33z" fill="#F09473"/>
    <path d="M140.242 64.8c-.502.808-.993 1.579-1.465 2.31l-.289.45a29.102 29.102 0 0 1-16.81-5.441l-.084.117c0-.057 0-.115.009-.173a22.555 22.555 0 0 1-1.095-.829c2.661-6.664 5.037-9.302 5.759-10.002.072-.072.147-.14.226-.203l7.1 7.115 5.852 5.864.797.791z" fill="#F0BA44"/>
    <path d="M166.05 48.51a29.237 29.237 0 0 1-12.686 15.088c-.49.287-.987.56-1.492.817a29.05 29.05 0 0 1-11.481 3.092 28.18 28.18 0 0 1-1.692.05l.09-.448a172.463 172.463 0 0 1 1.231-5.513c-.118.05-.228.1-.347.149-2.082.858-3.114-.745-3.528-3.465-.227-1.49-.268-3.313-.197-5.243.048-1.304.147-2.645.278-3.973.231-2.403.559-4.74.858-6.605.373-2.373.699-3.978.699-3.978a17.273 17.273 0 0 1-3.078-1.177c-.125-.06-.252-.123-.373-.187a24.061 24.061 0 0 1-8.529-7.19c-5.106-6.911 2.731-11.13 2.731-11.13s14.613-8.577 19.86 7.836a32.335 32.335 0 0 1 1.101 5.666c.319 3.032 1.729 8.125 7.43 10.28 4.714 1.786 7.488 3.78 9.125 5.932z" fill="#052033"/>
    <path d="m150.812 62.147-4.433-3.627-12.008-.286-6.985-.894s-.746-4.297-1.221-6.622c-.517-3.742-.407-8.424 1.813-12.852 4.779-9.536 5.809 12.053 5.809 12.053l1.03-14.342 6.301-1.244s1.09 7.823 5.334 9.231c10.438 3.487 4.018 14.739 4.36 18.583z" fill="#052033"/>
    <path d="M151.549 62.447c-.148-.931-.301-1.863-.437-2.848-.127-.9-.242-1.831-.334-2.809-.11-1.173-1.039-2.665-2.037-3.74a7.155 7.155 0 0 0-1.102-.983c-1.931-1.343-4.802-2.222-7.835-2.67a33.469 33.469 0 0 0-3.593-.331 30.398 30.398 0 0 0-2.366 0h-.112a24.72 24.72 0 0 0-2.927.285c-1.966.319-3.526.881-4.311 1.676a5.961 5.961 0 0 0-.22.231c-.98 1.064-2.077 2.742-2.966 4.5a16.168 16.168 0 0 0-1.705 6.301c0 .058 0 .116-.01.174l.084-.118a29.102 29.102 0 0 0 16.81 5.44h.2c.56 0 1.132-.016 1.692-.05a29.05 29.05 0 0 0 11.48-3.091c-.1-.662-.205-1.315-.311-1.967z" fill="#F0BA44"/>
    <path d="m130.679 50.051 2.332-12.555 6.343-1.839.459 13.783a3.57 3.57 0 0 1-1.151 2.554 3.892 3.892 0 0 1-1.293.79l-.302.113c-1.202.345-5.53.159-6.114-.965a2.918 2.918 0 0 1-.274-1.88z" fill="#D26F4A"/>
    <path d="M127.414 25.322c-1.391 5.6-2.069 21.524 8.649 17.601 0 0 3.787-.985 6.13-7.55 0 0 .56-4.726-.976-4.955-2.095-.315-9.73-5.923-12.312-7.696-.674-.466-1.293 1.804-1.491 2.6z" fill="#D26F4A"/>
    <path d="M153.358 63.6c-.49.286-.987.56-1.492.817a29.048 29.048 0 0 1-11.481 3.092c.166-.983.304-2.07.506-3.406.285-1.919.487-3.845.892-5.545.013-.047.024-.093.035-.14.869-3.42 3.436-5.72 6.927-5.368.131.052.251.129.352.227a5.141 5.141 0 0 1 1.401 1.833c.282.613.674 1.49 1.078 2.498.754 1.877 1.558 4.181 1.782 5.992z" fill="#F0BA44"/>
    <path d="M143.898 33.385c-.487 1.581-1.733 2.608-2.783 2.278-1.051-.33-1.504-1.863-1.017-3.446.487-1.583 1.733-2.598 2.781-2.276 1.049.322 1.511 1.864 1.019 3.444z" fill="#D26F4A"/>
    <path d="M172.91 62.134a36.684 36.684 0 0 1-14.924 19.328l-.216.138a36.275 36.275 0 0 1-5.358 2.8 36.703 36.703 0 0 1-11.782 2.804l-.234.015a37.136 37.136 0 0 1-3.19.06l-.811-.028a36.444 36.444 0 0 1-20.879-7.788l-.149-.119c-.099-.076-.198-.156-.295-.235-15.454-12.552-18.028-35.223-5.652-50.915 12.499-15.832 35.484-18.568 51.35-6.095a36.523 36.523 0 0 1 12.378 18.11 36.459 36.459 0 0 1-.238 21.925z" fill="#fff"/>
    <path d="M136.402 87.249c-7.346-.362-14.659-3.042-20.878-8.173l-.15-.125c-.099-.08-.197-.166-.294-.248a49.54 49.54 0 0 1 2.261-3.993c1.354-2.133 2.38-3.29 2.882-3.796.106-.112.218-.219.336-.319l10.564 11.11.241.254 5.038 5.29z" fill="#F0BA44"/>
    <path d="M172.91 62.134a36.684 36.684 0 0 1-14.924 19.328l-.216.138a36.275 36.275 0 0 1-5.358 2.8 36.703 36.703 0 0 1-11.783 2.804l.023-.095-.256.11a37.144 37.144 0 0 1-3.19.06c-1.119-.71-1.813-2.332-2.212-4.51a17.866 17.866 0 0 1-.101-.594c-.34-2.218-.403-4.928-.295-7.8.071-1.93.219-3.932.413-5.907.345-3.576.837-7.053 1.277-9.827.56-3.525 1.043-5.915 1.043-5.915s-1.865-.445-4.581-1.75c-.187-.09-.374-.187-.56-.282a35.764 35.764 0 0 1-11.38-9.036 33.742 33.742 0 0 1-1.306-1.661c-7.596-10.281 4.062-16.558 4.062-16.558s21.74-12.757 29.544 11.658c0 0 0 .033.03.096a47.799 47.799 0 0 1 1.608 8.332c.475 4.513 2.572 12.088 11.055 15.295 1.119.425 2.169.86 3.149 1.304a40.511 40.511 0 0 1 3.958 2.01z" fill="#052033"/>
    <path d="M158.994 75.284a54.637 54.637 0 0 1-1.12 5.895c-.033.143-.069.285-.102.424-.28.187-.56.354-.847.524a36.318 36.318 0 0 1-4.513 2.272l-2.276-1.863-6.19-.147-.606-.015-8.44-.199-2.624-.063-1.15-.145-1.555-.2-7.684-.983s-.187-1.049-.446-2.526a367.406 367.406 0 0 0-1.211-6.53.28.28 0 0 0 0-.041 88.702 88.702 0 0 0-.153-.756c-.714-5.158-.625-11.517 2.02-17.67.209-.487.435-.975.678-1.457 3.417-6.825 5.546-2.94 6.835 2.935a70.56 70.56 0 0 1 .933 5.495 128.746 128.746 0 0 1 .871 9.5l.091-1.271.603-8.395.653-9.1.031-.453.152-2.116 7.818-1.546 1.556-.31s.114.819.399 2.05c.106.458.235.976.392 1.53 1.005 3.601 3.124 8.802 7.145 10.146 8.4 2.818 9.458 9.01 8.74 15.015z" fill="#052033"/>
    <path d="M156.686 79.59a7.354 7.354 0 0 0-.769-2.483 15.306 15.306 0 0 0-2.261-3.353 10.626 10.626 0 0 0-1.641-1.534c-2.871-2.1-7.143-3.47-11.647-4.17a47.175 47.175 0 0 0-5.346-.517 44.204 44.204 0 0 0-3.517 0h-.166a34.461 34.461 0 0 0-4.354.445c-2.923.496-5.246 1.375-6.414 2.608-.11.116-.22.235-.328.361a26.526 26.526 0 0 0-2.735 3.89 40.602 40.602 0 0 0-1.679 3.134c-.155.32-.302.643-.442.97l.149.125c6.22 5.132 13.533 7.812 20.879 8.173a37.151 37.151 0 0 0 4.002-.034l.233-.016a35.598 35.598 0 0 0 16.282-5.336 55.21 55.21 0 0 1-.246-2.263z" fill="#F0BA44"/>
    <path d="M141.139 66.403a4.005 4.005 0 0 1-1.549 3.242 5.318 5.318 0 0 1-1.865.95l-.44.133c-1.748.372-8.125-.108-9.046-1.596a3.594 3.594 0 0 1-.56-1.895c0-.187.015-.374.047-.559l.483-2.875 1.198-7.1 1.037-6.166 9.225-2.024 1.47 17.89z" fill="#D26F4A"/>
    <path d="M121.928 33.14c-2.069 8.332-3.076 32.019 12.872 26.187 0 0 5.632-1.468 9.12-11.235 0 0 .829-7.03-1.453-7.372-3.115-.466-14.474-8.81-18.312-11.448-1.013-.693-1.934 2.684-2.227 3.869z" fill="#D26F4A"/>
    <path d="m157.982 81.173-.216.145a35.595 35.595 0 0 1-15.264 5.7c.221-1.623.461-3.196.795-4.657 0-.03.013-.057.019-.087.005-.03.022-.086.032-.13 1.294-5.337 5.113-8.93 10.305-8.382.196.082.374.202.524.354a7.954 7.954 0 0 1 2.052 2.78c.013.027.024.055.037.08a95.11 95.11 0 0 1 1.605 3.899c.035.097.074.196.111.298z" fill="#F0BA44"/>
    <path d="M146.442 45.126c.725-2.35.047-4.645-1.514-5.125-1.561-.48-3.413 1.037-4.138 3.388-.725 2.35-.047 4.645 1.514 5.125 1.56.48 3.413-1.037 4.138-3.388z" fill="#D26F4A"/>
    <path d="M76.07 290c41.219 0 74.634-1.642 74.634-3.667 0-2.026-33.415-3.668-74.634-3.668s-74.633 1.642-74.633 3.668c0 2.025 33.414 3.667 74.633 3.667z" fill="#DFE6FF"/>
    <path d="M102.976 158.945c-.487-1.062-1.742-2.002-3.442-2.581-2.225-.76-3.477-1.973-3.488-1.986a32.921 32.921 0 0 1-3.483-4.872 59.239 59.239 0 0 1-3.171-6.208c-1.722-3.888-3.295-8.268-4.808-13.392-1.28-4.355-2.425-8.917-3.486-13.947a224.02 224.02 0 0 1-1.972-10.606c-.097-.598-.187-1.192-.275-1.764l-.126-.877-.062-.434-.114-.859-10.096 1.74.205.931.107.47.214.931c.142.6.291 1.216.444 1.835.287 1.16.592 2.35.933 3.641a235.901 235.901 0 0 0 2.043 7.219c1.546 5.137 3.134 9.788 4.85 14.219a140.064 140.064 0 0 0 2.918 6.972 115.05 115.05 0 0 0 1.623 3.433 100.712 100.712 0 0 0 1.764 3.386 63.709 63.709 0 0 0 4.086 6.55 37.259 37.259 0 0 0 4.865 5.64l.056.058c.12.127 2.959 3.109 4.707 4.07.59.308 1.247.464 1.912.452 1.492 0 3.304-.724 3.862-2.11a2.362 2.362 0 0 0-.066-1.911z" fill="#F7A283"/>
    <path d="M74.33 150.174s-20.999.986-25.978.986c0 0 4.574 5.53 8.33 25.614 4.273 22.865 6.54 59.23 13.939 79.821 3.608 10.035 7.374 20.322 8.717 24.586.38 1.255.89 2.467 1.524 3.615.146.473.776.849 1.426.849l15.414-.186c.623 0-1.427-.546-1.966-.853-1.7-.967-4.958-2.308-9.008-3.042-.623-.113.317-.745.283-1.184L74.33 150.174z" fill="#5963DA"/>
    <path d="M83.511 114.211s-9.732 10.835-10.31 4.342c-.21-2.345-7.617 1.531-16.923-10.687l14.887-14.884c1.013.529 3.433 1.337 5.737 4.234 1.636 2.065 5.055 9.055 6.61 16.995z" fill="#F0D0BE"/>
    <path d="M70.319 150.174s-20.006 1.49-24.674 1.49c0 0-4.031 6.367-5.41 26.374-1.576 22.78-1.364 58.158.547 78.663.933 9.996 1.95 20.244 2.166 24.495.043 1.217.227 2.425.546 3.6.02.471.52.846 1.12.846l14.498-.187c.584 0 .862-.558.431-.858-1.356-.963-6.156-2.293-9.767-3.023-.56-.112.479-.745.56-1.179l19.983-130.221z" fill="#5963DA"/>
    <path d="M75.501 104.036c-.71-5.416-3.393-10.52-4.336-11.049l-.098-.055c-3.918-2.115-18.432-2.82-24.856 1.104-1.54.931-3.545 3.23-3.715 4.9-.224 2.12-1.354 1.522-1.692 3.366-1.505 8.212-2.985 26.469 2.239 51.257l33.298-.595-.763-30.958.167-10.868c.127-1.624-.031-5.494-.244-7.102z" fill="#F0D0BE"/>
    <path d="m44.08 286.141 16.504.186c.664.022 1.034-.991.573-1.572-1.453-1.835-10.69-6.147-11.53-6.18l-5.19-.11a1.532 1.532 0 0 0-.597.086 1.534 1.534 0 0 0-.87.799c-.084.184-.13.384-.136.586-.066 3.077.04 4.59.04 4.59-.02.881.514 1.602 1.206 1.615zM81.205 286.141l16.396.186c.663.022.844-.998.28-1.587-1.774-1.849-11.715-6.2-12.553-6.228l-5.167-.108c-.746-.025-1.474.521-1.321 1.49.496 3.103.879 4.628.879 4.628.138.879.794 1.606 1.486 1.619z" fill="#062438"/>
    <path d="m119.606 77.882-3.497-2.75-46.7 59.211 3.496 2.749 46.701-59.21z" fill="#153256"/>
    <path d="M160.77 22.1c-15.857-12.48-38.857-9.746-51.351 6.094-12.375 15.692-9.81 38.369 5.66 50.915.097.079.187.159.295.235l.149.12a36.445 36.445 0 0 0 20.879 7.787l.812.028c1.065.026 2.13 0 3.19-.06l.233-.015a36.697 36.697 0 0 0 16.275-5.081c.283-.17.559-.345.847-.523l.216-.138a36.537 36.537 0 0 0 11.864-12.463 36.46 36.46 0 0 0 1.567-33.383 36.51 36.51 0 0 0-10.644-13.517h.008zm2.664 48.564a32.318 32.318 0 0 1-4.44 4.61 31.321 31.321 0 0 1-2.767 2.105l-.31.209a32.202 32.202 0 0 1-12.601 4.913 32.345 32.345 0 0 1-11.939-.294c-.601-.124-1.2-.27-1.797-.44a32.05 32.05 0 0 1-8.135-3.503 32.97 32.97 0 0 1-3.946-2.833l-.155-.129a32.16 32.16 0 0 1-10.12-15.545 32.109 32.109 0 0 1 .156-18.539 32.15 32.15 0 0 1 10.38-15.373 32.258 32.258 0 0 1 35.383-3.562 32.189 32.189 0 0 1 13.244 12.995 32.123 32.123 0 0 1-2.95 35.384l-.003.002z" fill="#153256"/>
    <path d="M138.098 77.454c-.289 0-.578 0-.869-.015-6.334-.214-12.613-2.826-18.135-7.557a.372.372 0 0 1 .485-.559c12.421 10.617 25.394 8.26 33.393 2.506 8.611-6.197 14.81-18.561 9.247-32.223a.368.368 0 0 1 .002-.286.373.373 0 0 1 .489-.198.36.36 0 0 1 .201.203c2.519 6.187 2.813 12.71.853 18.868a28.217 28.217 0 0 1-10.356 14.234c-4.587 3.296-9.861 5.027-15.31 5.027z" fill="#fff"/>
    <path d="m41.724 115.208.082.145.069.123.138.237.272.456c.183.302.366.6.549.894.373.591.746 1.172 1.119 1.751a86.53 86.53 0 0 0 2.384 3.423 61.729 61.729 0 0 0 5.535 6.6 37.505 37.505 0 0 0 3.446 3.123c.638.505 1.315 1 2.052 1.477.777.506 1.587.958 2.425 1.354.23.103.448.207.69.304l.358.145.373.14c.247.091.515.175.775.257l.134.041a6.347 6.347 0 0 0 1.019.229c.381.055.767.079 1.152.073a8.195 8.195 0 0 0 1.644-.203c.38-.087.753-.196 1.12-.328.547-.196 1.08-.43 1.596-.699a22.309 22.309 0 0 0 2.306-1.395c.68-.464 1.306-.931 1.912-1.395a70.706 70.706 0 0 0 3.406-2.829 121.581 121.581 0 0 0 3.157-2.878 216.7 216.7 0 0 0 5.97-5.867 328.802 328.802 0 0 0 5.715-5.973c.938-1.004 1.87-2.011 2.799-3.023.932-1.013 1.84-2.021 2.762-3.057l-4.229-3.147c-.992.91-2.016 1.834-3.035 2.743-1.018.909-2.052 1.82-3.076 2.723a360.904 360.904 0 0 1-6.244 5.342 213.75 213.75 0 0 1-6.373 5.132 125.054 125.054 0 0 1-3.24 2.421 62.222 62.222 0 0 1-3.257 2.209 24.27 24.27 0 0 1-1.588.931c-.452.254-.92.479-1.4.673a1.512 1.512 0 0 1-.39.113c-.015 0-.012-.015.08-.045a2.3 2.3 0 0 1 .56-.078 3.936 3.936 0 0 1 1.238.175h.03-.013c-.071-.037-.14-.063-.218-.108l-.114-.059-.121-.069c-.079-.041-.167-.101-.25-.149a13.22 13.22 0 0 1-2.24-1.822c-.79-.79-1.53-1.629-2.213-2.512a50.073 50.073 0 0 1-3.918-5.931 70.72 70.72 0 0 1-2.51-4.805l-.372-.807-.187-.397-.084-.186-.039-.091a.78.78 0 0 1-.028-.071l-11.728 4.69z" fill="#F7A283"/>
    <path d="m43.392 121.332 2.212 3.496c1.894-.08 12.435-6.534 12.435-6.569.139-3.353-5.342-13.465-6.782-15.832-2.084-3.412-.982-9.102-5.037-8.382-1.948.343-6.686 4.515-7.296 9.973-.148 1.317.07 4.604.475 6.582.636 3.129 1.409 6.439 3.992 10.732z" fill="#F0D0BE"/>
    <path d="m45.503 125.152-.125-.167c-7.434-10.045-6.796-19.723-6.788-19.82a.282.282 0 0 1 .3-.259.282.282 0 0 1 .26.3c0 .095-.618 9.467 6.557 19.276a61.865 61.865 0 0 0 12.05-6.374c-.057-.931-.695-6.519-7.926-17.372a.28.28 0 0 1 .39-.395c.03.023.056.052.075.086 8.035 12.065 8.022 17.599 8.022 17.828v.144l-.118.08a61.891 61.891 0 0 1-12.499 6.603l-.198.07z" fill="#D1AD98"/>
    <path d="M52.395 67.787s-.457 11.266 2.229 14.759c2.686 3.492 3.337-2.92 3.27-3.912-.067-.99-.653-6.208-.918-7.78-.264-1.572.153-2.263-.576-2.302-.73-.039-2.076 1.118-2.104 1.338-.028.22-1.901-2.103-1.901-2.103z" fill="#153256"/>
    <path d="M66.767 93.436a2.742 2.742 0 0 1-.437 1.48c-.733 1.148-5.854 1.24-7.26.854l-.351-.125a4.624 4.624 0 0 1-1.493-.85 3.446 3.446 0 0 1-1.255-2.677l-1.463-16.123 9.977 3.895.769 4.483.811 4.733.664 3.865c.027.153.04.31.038.465z" fill="#F7A283"/>
    <path d="M71.727 65.725c1.365 5.709 3.688 23.642-8.037 20.14a31.554 31.554 0 0 1-5.925-3.412c-.306-.222-1-5.527-1.636-7.317 0 0-2.671-5.105-1.634-6.519 3.78-5.124 12.325-3.896 15.144-4.244.877-.1 1.894.542 2.088 1.352z" fill="#F7A283"/>
    <path d="M57.237 68.664s1.024 8.104 3.13 9.851c2.107 1.747 5.707 2.345 8.291 2.008 3.09-.404 4.06-2.049 4.06-2.049s.783 3.232-.187 6.04c-.97 2.81-3.701 2.208-4.873 2.357-1.171.149-6.08-1.004-9.566-3.437-1.15-.8-1.493-3.183-1.88-5.181-.803-4.07-.767-8.51-.767-8.51l.96-3.824.832 2.745z" fill="#153256"/>
    <path d="M57.344 69.405c.162 0 4.604-.81 8.404-2.492s6.343.537 6.343.537 4.516-4.098 3.113-6.864c-2.572-5.098-9.654-3.407-15.04-.372-5.385 3.034-5.245 1.402-8.312 4.183-3.067 2.78 1.462 12.267 1.462 12.267s1.345-.147 1.647-.62c.303-.474 2.383-6.639 2.383-6.639z" fill="#153256"/>
    <path d="M52.962 75.712c.416 1.978 1.528 3.15 2.73 3.027.783-.08 1.102-1.356.965-3.612-.123-2.017-1.072-3.352-2.274-3.222-1.201.13-1.837 1.829-1.421 3.807zM92.436 105.212a39.61 39.61 0 0 0 3.623-4.115c1.408-1.814 4.477-5.047 5.721-6.333a.808.808 0 0 1 .638-.247.8.8 0 0 1 .595.335c1.23 1.764 1.306 6.202-.602 9.033-1.28 1.9-5.794 4.534-5.794 4.534l-4.181-3.207z" fill="#F7A283"/>
    <path d="m116.799 155.547-13.36-9.539-13.79 19.255 13.358 9.538 13.792-19.254z" fill="#E6EBFF"/>
    <path d="M75.624 119.762h-.028a.276.276 0 0 1-.25-.305c.01-.099.987-9.906 0-15.689-.98-5.744-3.22-8.892-3.242-8.922a.278.278 0 0 1 .063-.39.28.28 0 0 1 .39.063c.096.13 2.338 3.272 3.341 9.156 1.004 5.884.014 15.739 0 15.832a.278.278 0 0 1-.274.255z" fill="#D1AD98"/>
    <path d="M61.87 213.364a.282.282 0 0 1-.278-.251l-4-37.461a.28.28 0 0 1 .25-.309.28.28 0 0 1 .31.25l4 37.462a.283.283 0 0 1-.06.205.266.266 0 0 1-.084.07.258.258 0 0 1-.105.032l-.033.002zM102.258 171.463a.186.186 0 0 1-.123-.046 82.386 82.386 0 0 0-8.83-6.743.183.183 0 0 1-.08-.118.187.187 0 0 1 .286-.193 82.573 82.573 0 0 1 8.87 6.775.184.184 0 0 1-.046.309.187.187 0 0 1-.077.016zM104.377 168.504a.187.187 0 0 1-.123-.047 82.792 82.792 0 0 0-8.83-6.742.187.187 0 0 1 .207-.311 82.854 82.854 0 0 1 8.869 6.774.188.188 0 0 1 .017.263.188.188 0 0 1-.14.063zM106.496 165.544a.186.186 0 0 1-.123-.044 82.56 82.56 0 0 0-8.827-6.745.188.188 0 0 1-.093-.118.19.19 0 0 1 .025-.149.187.187 0 0 1 .272-.042 82.841 82.841 0 0 1 8.869 6.772.186.186 0 0 1-.123.326zM108.616 162.587a.195.195 0 0 1-.122-.047 82.243 82.243 0 0 0-8.83-6.743.182.182 0 0 1-.08-.118.187.187 0 0 1 .286-.193 82.712 82.712 0 0 1 8.869 6.78c.037.033.06.078.063.128a.182.182 0 0 1-.045.135.188.188 0 0 1-.141.058zM110.737 159.627a.19.19 0 0 1-.124-.047 82.591 82.591 0 0 0-8.829-6.742.185.185 0 0 1-.052-.257.184.184 0 0 1 .259-.054 82.858 82.858 0 0 1 8.869 6.774.188.188 0 0 1 .063.128.188.188 0 0 1-.186.198zM112.863 156.667a.18.18 0 0 1-.123-.045 82.58 82.58 0 0 0-4.315-3.538.198.198 0 0 1-.053-.055.19.19 0 0 1-.023-.146.19.19 0 0 1 .091-.117.19.19 0 0 1 .213.023 84.029 84.029 0 0 1 4.333 3.539.188.188 0 0 1 .017.263.18.18 0 0 1-.14.076zM105.14 152.799a1.733 1.733 0 0 1-1.597-1.064 1.716 1.716 0 0 1-.099-.996 1.731 1.731 0 0 1 2.355-1.259 1.732 1.732 0 0 1 1.067 1.594 1.728 1.728 0 0 1-1.726 1.725zm0-3.075a1.352 1.352 0 1 0 .517 2.601 1.345 1.345 0 0 0 .835-1.251 1.35 1.35 0 0 0-1.352-1.35z" fill="#40479C"/>
    <path d="M98.398 99.637s1.19-5.519.476-5.161c-.714.357-4.376 5.286-3.832 8.428.545 3.142 2.612 0 2.612 0l.373-3.027.371-.24z" fill="#F7A283"/>
    <path d="M230.614 19.54H215.28a.28.28 0 1 1 0-.558h15.334a.278.278 0 0 1 .28.279.278.278 0 0 1-.28.28zM210.928 19.54h-29.787a.282.282 0 0 1-.28-.279.281.281 0 0 1 .28-.28h29.779a.278.278 0 0 1 .28.28.278.278 0 0 1-.28.28h.008zM230.615 29.464h-49.474a.282.282 0 0 1-.28-.28.281.281 0 0 1 .28-.279h49.474a.278.278 0 0 1 .279.28.278.278 0 0 1-.279.28zM230.615 39.377h-49.474a.282.282 0 0 1-.28-.28.281.281 0 0 1 .28-.279h49.474a.278.278 0 0 1 .279.28.278.278 0 0 1-.279.28zM230.615 49.295h-49.474a.282.282 0 0 1-.28-.28.281.281 0 0 1 .28-.279h49.474a.278.278 0 0 1 .279.28.278.278 0 0 1-.279.28zM230.615 59.213h-49.474a.282.282 0 0 1-.28-.28.281.281 0 0 1 .28-.279h49.474a.278.278 0 0 1 .279.28.278.278 0 0 1-.279.28zM230.615 69.137h-54.018a.28.28 0 1 1 0-.559h54.018a.278.278 0 0 1 .279.28.278.278 0 0 1-.279.28zM230.615 78.139h-59.757a.278.278 0 0 1-.279-.28.278.278 0 0 1 .279-.28h59.757a.278.278 0 0 1 .279.28.278.278 0 0 1-.279.28zM230.614 88.966h-66.985a.278.278 0 0 1-.279-.28.278.278 0 0 1 .279-.28h66.985a.278.278 0 0 1 .28.28.278.278 0 0 1-.28.28zM230.615 97.975H119.689a.278.278 0 0 1-.279-.279.278.278 0 0 1 .279-.28h110.926a.282.282 0 0 1 .28.28.281.281 0 0 1-.28.28zM167.844 110.095h-48.155a.275.275 0 0 1-.197-.082.28.28 0 0 1 .197-.477h48.155c.074 0 .145.03.198.082a.28.28 0 0 1-.198.477zM167.844 125.331h-48.155a.275.275 0 0 1-.197-.082.28.28 0 0 1 .197-.477h48.155c.074 0 .145.03.198.082a.28.28 0 0 1-.198.477zM230.614 110.095H179.07a.28.28 0 1 1 0-.559h51.544a.28.28 0 1 1 0 .559zM230.614 125.331H179.07a.28.28 0 1 1 0-.559h51.544a.28.28 0 1 1 0 .559z" fill="#40479C"/>
    <path d="M255.016 237.097H129.504c1.517-8.596 11.592-15.238 23.798-15.238 1.372 0 2.743.085 4.104.254a14.97 14.97 0 0 1-.046-1.185c0-8.721 7.48-15.789 16.707-15.789a17.194 17.194 0 0 1 11.236 4.098c1.573-6.087 6.412-10.52 12.137-10.52 5.257 0 9.768 3.736 11.688 9.059a15.579 15.579 0 0 1 6.156-1.255c8.163 0 14.782 6.204 14.782 13.856.001.578-.038 1.157-.115 1.73.461-.063.926-.094 1.391-.095 5.149 0 9.576 3.8 11.538 9.248.45.022.916.065 1.396.132 5.298.734 8.639 2.88 10.74 5.705z" fill="#DFE6FF"/>
    <path d="M238.401 232.273H112.89c1.514-8.596 11.59-15.24 23.796-15.24 1.372 0 2.743.085 4.104.256a14.571 14.571 0 0 1-.048-1.187c0-8.719 7.48-15.789 16.709-15.789a17.201 17.201 0 0 1 11.234 4.098c1.573-6.087 6.412-10.52 12.139-10.52 5.257 0 9.768 3.736 11.688 9.061a15.556 15.556 0 0 1 6.156-1.257c8.163 0 14.78 6.204 14.78 13.856a13.2 13.2 0 0 1-.114 1.732c.462-.064.927-.095 1.392-.095 5.147 0 9.574 3.8 11.536 9.246.452.022.916.065 1.398.132 5.307.736 8.65 2.882 10.741 5.707z" fill="#fff"/>
    <path d="M239.14 232.646H112.444l.078-.438c1.562-8.862 11.951-15.547 24.164-15.547 1.236 0 2.471.068 3.7.205a13.97 13.97 0 0 1-.021-.764c0-8.91 7.664-16.161 17.082-16.161a17.634 17.634 0 0 1 11.029 3.818c.838-2.824 2.411-5.353 4.478-7.166 2.281-2.009 5.003-3.071 7.874-3.071 5.158 0 9.794 3.496 11.902 8.94a15.878 15.878 0 0 1 5.943-1.136c8.356 0 15.154 6.383 15.154 14.229 0 .437-.021.877-.063 1.303.324-.029.647-.044.968-.044 5.074 0 9.684 3.626 11.803 9.26.393.026.791.067 1.181.121 4.923.678 8.622 2.647 10.991 5.851l.433.6zm-125.799-.745h124.292c-2.257-2.688-5.625-4.355-10.027-4.962a15.683 15.683 0 0 0-1.364-.129l-.248-.013-.084-.233c-1.97-5.468-6.361-9-11.193-9-.449 0-.898.031-1.343.092l-.483.065.063-.485c.075-.555.112-1.115.112-1.676 0-7.433-6.464-13.483-14.407-13.483a15.144 15.144 0 0 0-6.011 1.225l-.373.157-.135-.373c-1.932-5.353-6.382-8.813-11.336-8.813-5.377 0-10.22 4.211-11.777 10.244l-.151.579-.454-.391a16.86 16.86 0 0 0-10.991-4.01c-9.009 0-16.337 6.916-16.337 15.416 0 .384.017.773.047 1.157l.035.456-.453-.057a33.088 33.088 0 0 0-4.054-.252c-11.635-.017-21.567 6.191-23.328 14.486z" fill="#6F78A1"/>
    <path d="M78.34 49.288H.44c.942-5.337 7.195-9.459 14.771-9.459.85 0 1.7.053 2.545.159a8.825 8.825 0 0 1-.03-.745c0-5.413 4.643-9.801 10.37-9.801 2.557-.01 5.032.897 6.975 2.555.976-3.777 3.98-6.53 7.533-6.53 3.263 0 6.063 2.32 7.253 5.625a9.654 9.654 0 0 1 3.823-.78c5.067 0 9.174 3.85 9.174 8.6 0 .358-.023.718-.07 1.074.286-.04.574-.06.863-.06 3.196 0 5.942 2.358 7.16 5.739.28.015.57.04.868.082 3.294.454 5.37 1.784 6.665 3.54z" fill="#fff"/>
    <path d="M79.081 49.66H0l.076-.438c.984-5.567 7.49-9.765 15.14-9.765.716 0 1.433.037 2.146.11v-.315c0-5.61 4.819-10.173 10.744-10.173a11.1 11.1 0 0 1 6.77 2.274c1.18-3.712 4.29-6.257 7.736-6.257 3.22 0 6.113 2.148 7.462 5.506a10.028 10.028 0 0 1 3.61-.663c5.264 0 9.548 4.025 9.548 8.972 0 .22 0 .44-.026.658.149 0 .298-.015.445-.015 3.185 0 6.076 2.25 7.427 5.755.216.017.435.04.651.07 3.095.426 5.423 1.666 6.917 3.687l.435.594zM.899 48.915h76.656c-1.379-1.522-3.328-2.44-5.932-2.794a9.833 9.833 0 0 0-.836-.08l-.248-.013-.084-.233c-1.306-3.641-4.364-5.876-7.623-5.437l-.485.066.066-.485c.045-.34.067-.681.067-1.024 0-4.535-3.95-8.227-8.802-8.227a9.234 9.234 0 0 0-3.673.745l-.373.156-.134-.372c-1.177-3.265-3.888-5.375-6.903-5.375-3.272 0-6.221 2.568-7.173 6.248l-.149.58-.455-.392a10.314 10.314 0 0 0-6.729-2.454c-5.513 0-9.997 4.23-9.997 9.428 0 .233.01.471.028.706l.035.456-.453-.057a20.252 20.252 0 0 0-2.498-.155c-7.078 0-13.126 3.716-14.305 8.713z" fill="#6F78A1"/>
    <path d="m184.671 8.898.746 2.324a.22.22 0 0 0 .078.108.22.22 0 0 0 .127.041h2.45a.216.216 0 0 1 .126.391l-1.981 1.436a.216.216 0 0 0-.078.242l.757 2.325a.216.216 0 0 1-.332.242l-1.972-1.444a.22.22 0 0 0-.255 0l-1.981 1.438a.217.217 0 0 1-.332-.109.216.216 0 0 1 0-.133l.757-2.324a.221.221 0 0 0-.078-.242l-1.982-1.423a.214.214 0 0 1-.078-.108.21.21 0 0 1 .078-.242.218.218 0 0 1 .127-.041h2.45c.045 0 .09-.015.126-.042a.216.216 0 0 0 .079-.107l.746-2.325a.217.217 0 0 1 .422-.007zM195.571 8.898l.756 2.324a.213.213 0 0 0 .205.149h2.449a.215.215 0 0 1 .206.283.216.216 0 0 1-.079.108l-1.981 1.436a.215.215 0 0 0-.078.242l.757 2.325a.216.216 0 0 1-.332.242l-1.983-1.444a.218.218 0 0 0-.254 0l-1.981 1.438a.216.216 0 0 1-.332-.242l.757-2.324a.218.218 0 0 0-.078-.242l-1.981-1.423a.215.215 0 0 1-.079-.242.214.214 0 0 1 .206-.15h2.451a.217.217 0 0 0 .205-.149l.756-2.324a.215.215 0 0 1 .329-.113.212.212 0 0 1 .081.106zM206.469 8.898l.758 2.324a.214.214 0 0 0 .205.15h2.449c.046 0 .091.014.128.04a.218.218 0 0 1 .078.242.215.215 0 0 1-.079.108l-1.981 1.436a.215.215 0 0 0-.078.242l.757 2.325a.218.218 0 0 1-.334.242l-1.981-1.443a.22.22 0 0 0-.254 0l-1.981 1.438a.218.218 0 0 1-.254-.002.214.214 0 0 1-.078-.24l.757-2.325a.217.217 0 0 0-.078-.242l-1.981-1.423a.216.216 0 0 1 .127-.391h2.449a.217.217 0 0 0 .205-.15l.746-2.324a.217.217 0 0 1 .42-.007zM217.37 8.898l.757 2.324a.22.22 0 0 0 .078.108.22.22 0 0 0 .127.041h2.45a.218.218 0 0 1 .206.15.21.21 0 0 1-.001.133.214.214 0 0 1-.078.108l-1.982 1.436a.215.215 0 0 0-.078.242l.757 2.325a.213.213 0 0 1-.078.243.216.216 0 0 1-.256-.001l-1.981-1.444a.218.218 0 0 0-.253 0l-1.982 1.438a.216.216 0 0 1-.332-.109.216.216 0 0 1 0-.133l.758-2.324a.225.225 0 0 0-.001-.134.218.218 0 0 0-.078-.108l-1.988-1.423a.215.215 0 0 1 .127-.391h2.449a.217.217 0 0 0 .205-.15l.746-2.324a.219.219 0 0 1 .211-.185.217.217 0 0 1 .217.178zM228.269 8.898l.758 2.324a.214.214 0 0 0 .205.15h2.449c.046 0 .091.014.128.04a.214.214 0 0 1 .078.109.215.215 0 0 1-.079.242l-1.977 1.435a.215.215 0 0 0-.078.242l.757 2.325a.218.218 0 0 1-.334.242l-1.985-1.443a.218.218 0 0 0-.254 0l-1.981 1.438a.216.216 0 0 1-.332-.11.216.216 0 0 1 0-.133l.758-2.324a.225.225 0 0 0-.001-.134.218.218 0 0 0-.078-.108l-1.981-1.423a.216.216 0 0 1 .127-.391h2.447a.217.217 0 0 0 .207-.15l.747-2.324a.218.218 0 0 1 .074-.12.218.218 0 0 1 .267-.004c.038.03.066.07.078.117zM296.599 223.185c7.193-7.181 7.193-18.824 0-26.006-7.193-7.181-18.855-7.181-26.048 0-7.192 7.182-7.192 18.825 0 26.006 7.193 7.182 18.855 7.182 26.048 0z" fill="#fff"/>
    <path d="M283.575 228.947c-3.717 0-7.35-1.101-10.44-3.162a18.765 18.765 0 0 1-6.921-8.42 18.73 18.73 0 0 1-1.07-10.84 18.753 18.753 0 0 1 5.143-9.607 18.799 18.799 0 0 1 9.622-5.135 18.827 18.827 0 0 1 10.857 1.068 18.79 18.79 0 0 1 8.433 6.91 18.742 18.742 0 0 1 3.167 10.424 18.769 18.769 0 0 1-5.511 13.26 18.828 18.828 0 0 1-13.28 5.502zm0-36.779a18.074 18.074 0 0 0-10.026 3.036 18.03 18.03 0 0 0-6.646 8.086 17.992 17.992 0 0 0 3.912 19.634 18.07 18.07 0 0 0 19.665 3.906 18.045 18.045 0 0 0 8.099-6.636 18.002 18.002 0 0 0 3.041-10.009 18.023 18.023 0 0 0-5.291-12.735 18.083 18.083 0 0 0-12.754-5.284v.002z" fill="#6F78A1"/>
    <path d="M279.881 226.536c10.172 0 18.418-8.233 18.418-18.389 0-10.156-8.246-18.389-18.418-18.389-10.172 0-18.418 8.233-18.418 18.389 0 10.156 8.246 18.389 18.418 18.389z" fill="#FAC757"/>
    <path d="M274.257 202.638h-5.181a.48.48 0 0 1-.479-.479v-5.172a.48.48 0 0 1 .479-.479h5.181a.48.48 0 0 1 .479.479v5.172a.48.48 0 0 1-.479.479zm-5.101-.559h5.02v-5.012h-5.02v5.012zM274.257 211.896h-5.181a.48.48 0 0 1-.479-.478v-5.173a.477.477 0 0 1 .479-.478h5.181a.48.48 0 0 1 .479.478v5.173a.475.475 0 0 1-.479.478zm-5.101-.558h5.02v-5.013h-5.02v5.013zM274.257 221.155h-5.181a.48.48 0 0 1-.479-.478v-5.173a.475.475 0 0 1 .479-.478h5.181a.48.48 0 0 1 .479.478v5.173a.477.477 0 0 1-.479.478zm-5.101-.558h5.02v-5.013h-5.02v5.013z" fill="#fff"/>
    <path d="M271.731 201.194a.393.393 0 0 1-.222-.069c-.658-.449-.981-1.79-1.017-1.941a.28.28 0 0 1 .545-.124c.105.448.373 1.214.698 1.529.388-.457 1.211-2.854 1.795-4.97a.279.279 0 0 1 .539.147c-.526 1.911-1.513 5.152-2.196 5.402a.402.402 0 0 1-.142.026zM271.731 210.462a.391.391 0 0 1-.222-.069c-.659-.449-.981-1.79-1.017-1.941a.281.281 0 0 1 .422-.299.282.282 0 0 1 .123.175c.104.449.373 1.212.698 1.527.388-.454 1.21-2.853 1.794-4.968a.284.284 0 0 1 .34-.182.28.28 0 0 1 .199.33c-.526 1.911-1.513 5.152-2.195 5.401a.41.41 0 0 1-.142.026zM271.731 219.721a.391.391 0 0 1-.222-.069c-.659-.449-.981-1.788-1.017-1.939a.284.284 0 0 1 .036-.211.288.288 0 0 1 .175-.124.286.286 0 0 1 .211.036.269.269 0 0 1 .123.175c.104.447.373 1.212.698 1.527.388-.455 1.21-2.854 1.794-4.97a.272.272 0 0 1 .048-.1.276.276 0 0 1 .299-.102.278.278 0 0 1 .203.241.272.272 0 0 1-.011.11c-.526 1.91-1.513 5.15-2.195 5.402a.432.432 0 0 1-.142.024zM291.886 198.586H278.98a.283.283 0 0 1-.198-.081.284.284 0 0 1-.082-.198c0-.074.03-.145.082-.198a.283.283 0 0 1 .198-.081h12.906c.074 0 .145.029.198.081a.284.284 0 0 1 .082.198c0 .074-.03.145-.082.198a.283.283 0 0 1-.198.081zM291.886 201.194H278.98a.28.28 0 1 1 0-.559h12.906a.282.282 0 0 1 .28.28.28.28 0 0 1-.28.279zM291.886 207.806H278.98a.28.28 0 1 1 0-.559h12.906c.074 0 .145.03.198.082a.28.28 0 0 1-.198.477zM291.886 210.416H278.98a.284.284 0 0 1-.198-.082.28.28 0 0 1 .198-.477h12.906a.28.28 0 1 1 0 .559zM291.886 217.026H278.98a.28.28 0 1 1 0-.559h12.906a.28.28 0 1 1 0 .559zM291.886 219.634H278.98a.284.284 0 0 1-.198-.082.28.28 0 0 1 .198-.477h12.906a.28.28 0 1 1 0 .559z" fill="#fff"/>
    <path d="M211.925 255.023a2.577 2.577 0 0 0 0-3.648 2.587 2.587 0 0 0-3.654 0 2.577 2.577 0 0 0 0 3.648 2.586 2.586 0 0 0 3.654 0z" fill="#DFE6FF"/>
    <path d="M128.787 179.495a1.292 1.292 0 1 0 .002-2.584 1.292 1.292 0 0 0-.002 2.584zM280.825 64.492a1.292 1.292 0 1 0 .002-2.584 1.292 1.292 0 0 0-.002 2.584zM15.336 99.896a1.292 1.292 0 1 0-1.293-1.291c0 .713.58 1.29 1.293 1.29z" fill="#FAC757"/>
    <path d="M66.061 89.106 58.6 83.78c2.32 1.49 5.125 2.44 7.044 2.86l.418 2.465z" fill="#C27255"/>
    <path d="M136.61 58.446c-1.082.698-8.384 5.36-8.384 5.36l.619-3.674c1.655.268 6.673-.993 7.765-1.686z" fill="#964B2F"/>
    <path d="M136.728 58.37c-.019.013-.056.039-.113.073l.107-.072.006-.002z" fill="#C27F67"/>
</svg>
