<svg width="32" height="32" viewBox="0 0 32 32" fill="none" xmlns="http://www.w3.org/2000/svg">
    <path d="m9.164 21.85-5.558 4.2c1.051 1.25 2.253 2.4 3.655 3.3l3.656-5.95c-.65-.4-1.252-.95-1.753-1.55z" fill="#FD9D24"/>
    <path d="M23.036 21.7c-.5.6-1.052 1.15-1.703 1.6l3.656 5.95c1.352-.9 2.604-2.05 3.606-3.35l-5.559-4.2z" fill="#FCC30B"/>
    <path d="m24.138 29.8-3.656-5.95c-.65.4-1.402.65-2.153.85l1.302 6.85a15.93 15.93 0 0 0 4.507-1.75z" fill="#A21942"/>
    <path d="M17.327 24.95c-.4.05-.851.1-1.302.1-.35 0-.701 0-1.052-.05l-1.302 6.85c.752.1 1.553.15 2.354.15.902 0 1.753-.05 2.604-.2l-1.302-6.85z" fill="#FD6925"/>
    <path d="M13.972 24.8c-.802-.2-1.553-.45-2.204-.85L8.112 29.9c1.403.8 2.955 1.4 4.608 1.75l1.252-6.85z" fill="#DD1367"/>
    <path d="M25.04 16c0 .65-.051 1.3-.201 1.9l6.71 1.95c.3-1.25.451-2.5.451-3.85 0-.35 0-.65-.05-1l-6.961.65c.05.15.05.25.05.35z" fill="#FF3A21"/>
    <path d="M24.588 18.9c-.25.7-.55 1.4-1.001 2l5.609 4.2c.901-1.3 1.602-2.75 2.103-4.3l-6.71-1.9z" fill="#26BDE2"/>
    <path d="M7.011 16v-.4L.051 15c0 .35-.051.7-.051 1.05 0 1.35.15 2.65.45 3.85l6.711-1.95c-.1-.65-.15-1.3-.15-1.95z" fill="#3F7E44"/>
    <path d="M8.563 21.05a7.811 7.811 0 0 1-1.051-2.15l-6.71 1.95c.5 1.6 1.251 3.1 2.203 4.45l5.558-4.25z" fill="#BF8B2E"/>
    <path d="m30.598 9.35-6.26 3.1c.3.7.501 1.45.651 2.2L31.95 14c-.25-1.65-.7-3.2-1.352-4.65z" fill="#C5192D"/>
    <path d="M8.213 11.45c.4-.7.901-1.3 1.452-1.85L4.958 4.45a16.238 16.238 0 0 0-3.005 3.9l6.26 3.1z" fill="#56C02B"/>
    <path d="M7.111 14.6c.15-.8.35-1.55.651-2.25l-6.26-3.1C.802 10.7.351 12.3.1 14l7.011.6z" fill="#0A97D9"/>
    <path d="M19.781 7.8c.701.35 1.352.75 1.953 1.25l4.757-5.15c-1.251-1.05-2.654-1.95-4.206-2.6L19.78 7.8z" fill="#DDA63A"/>
    <path d="m23.887 11.55 6.26-3.1c-.75-1.45-1.752-2.75-2.904-3.9L22.485 9.7c.551.55 1.002 1.2 1.402 1.85z" fill="#4C9F38"/>
    <path d="M16.626 7c.751.05 1.502.2 2.253.45l2.504-6.5a15.147 15.147 0 0 0-4.757-.9V7z" fill="#E5243B"/>
    <path d="M13.32 7.4c.702-.25 1.503-.35 2.304-.4V0c-1.702.05-3.305.35-4.807.85l2.504 6.55z" fill="#19486A"/>
    <path d="M10.416 8.95A9.545 9.545 0 0 1 12.37 7.8L9.865 1.3c-1.502.65-2.904 1.5-4.106 2.5l4.657 5.15z" fill="#00689D"/>
</svg>
