<svg xmlns="http://www.w3.org/2000/svg" width="16" height="16" fill="none" viewBox="0 0 16 16">
    <path fill="#5F69E2" d="M8 4.87c-.259 0-.469-.216-.469-.483v-.96c0-.267.21-.484.469-.484s.469.217.469.484v.96c0 .267-.21.484-.469.484z"/>
    <path fill="#FFE377" d="M14.252 8.938H1.748c-.259 0-.468.217-.468.484v5.664c0 .267.21.484.468.484h12.504c.259 0 .468-.217.468-.484V9.422c0-.267-.21-.484-.468-.484z"/>
    <path fill="#FC0" d="M14.252 8.938H8v6.632h6.252c.259 0 .468-.217.468-.484V9.422c0-.267-.21-.484-.468-.484z"/>
    <path fill="#5F69E2" d="M4.224 4.87c-.259 0-.469-.216-.469-.483v-.96c0-.267.21-.484.47-.484.258 0 .468.217.468.484v.96c0 .267-.21.484-.469.484z"/>
    <path fill="#3440DA" d="M11.776 4.87c-.259 0-.469-.216-.469-.483v-.96c0-.267.21-.484.469-.484s.469.217.469.484v.96c0 .267-.21.484-.47.484z"/>
    <path fill="#FC0" d="M12.558.97c-.214-.411-.425-.757-.433-.771-.076-.124-.208-.199-.35-.199-.14 0-.272.075-.348.199-.009.014-.22.36-.433.77-.415.797-.468 1.116-.468 1.305 0 .712.56 1.291 1.25 1.291s1.25-.579 1.25-1.29c0-.19-.053-.509-.468-1.306z"/>
    <path fill="#3440DA" d="M8 2.943v1.928c.259 0 .469-.217.469-.484v-.96c0-.267-.21-.484-.469-.484z"/>
    <path fill="#FFE377" d="M8.349.199C8.273.075 8.142 0 8 0s-.273.075-.349.199c-.009.014-.22.36-.433.77-.415.797-.468 1.116-.468 1.305 0 .712.56 1.291 1.25 1.291s1.25-.579 1.25-1.29c0-.19-.053-.509-.468-1.306C8.568.56 8.358.213 8.35.2z"/>
    <path fill="#FC0" d="M8.782.97C8.568.558 8.358.212 8.35.198 8.273.075 8.142 0 8 0v3.565c.69 0 1.25-.579 1.25-1.29 0-.19-.053-.509-.468-1.306z"/>
    <path fill="#E5E5E5" d="M15.531 16H.47C.209 16 0 15.783 0 15.516s.21-.484.469-.484H15.53c.26 0 .469.217.469.484s-.21.484-.469.484z"/>
    <path fill="#D6D6D6" d="M15.531 15.032H8V16h7.531c.26 0 .469-.217.469-.484s-.21-.484-.469-.484z"/>
    <path fill="#989EEC" d="M8.679 4.349H7.32c-.315 0-.571.264-.571.59v3.737c0 .326.256.59.571.59H8.68c.315 0 .571-.264.571-.59V4.94c0-.326-.256-.59-.571-.59zM4.903 4.349H3.546c-.316 0-.572.264-.572.59v3.737c0 .326.256.59.572.59h1.357c.315 0 .571-.264.571-.59V4.94c0-.326-.256-.59-.571-.59z"/>
    <path fill="#7C83E7" d="M12.454 4.349h-1.357c-.315 0-.571.264-.571.59v3.737c0 .326.256.59.571.59h1.357c.316 0 .572-.264.572-.59V4.94c0-.326-.256-.59-.572-.59zM8.679 4.349H8v4.917h.679c.315 0 .571-.264.571-.59V4.94c0-.326-.256-.59-.571-.59z"/>
    <path fill="#FFA1C0" d="M13.803 8.01H2.197c-.72 0-1.308.554-1.308 1.233v1.248c0 .34.159.656.435.869.312.24.728.314 1.111.197l1.184-.362c.683-.208 1.437-.208 2.12 0l.934.286c.428.13.877.196 1.327.196.45 0 .899-.065 1.326-.196l.934-.286c.684-.209 1.437-.208 2.121 0l1.183.362c.384.117.8.044 1.112-.197.276-.213.434-.53.434-.87V9.244c0-.68-.586-1.232-1.307-1.232z"/>
    <path fill="#FF80A9" d="M13.803 8.01H8v3.667c.45 0 .899-.065 1.326-.196l.934-.286c.684-.209 1.437-.209 2.121 0l1.184.362c.383.117.799.044 1.11-.197.277-.213.435-.53.435-.87V9.244c0-.68-.586-1.232-1.307-1.232z"/>
    <path fill="#FFE377" d="M4.573.199C4.497.075 4.366 0 4.224 0c-.141 0-.273.075-.349.199-.008.014-.22.36-.433.77-.415.797-.468 1.116-.468 1.305 0 .712.56 1.291 1.25 1.291s1.25-.579 1.25-1.29c0-.19-.053-.509-.468-1.306C4.792.56 4.582.213 4.573.2z"/>
</svg>
