<svg width="16" height="14" viewBox="0 0 16 14" fill="none" xmlns="http://www.w3.org/2000/svg">
    <path d="M13.09 3.389h-.29c-.29 0-.51-.145-.655-.433l-.872-1.662C11.055.79 10.546.5 9.963.5h-4c-.508 0-1.018.289-1.308.794l-.8 1.662c-.146.288-.364.433-.655.433h-.29c-1.6 0-2.91 1.3-2.91 2.889v4.333C0 12.2 1.31 13.5 2.91 13.5h10.18c1.6 0 2.91-1.3 2.91-2.889V6.278c0-1.59-1.31-2.89-2.91-2.89zM8 10.61c-1.6 0-2.91-1.3-2.91-2.889C5.09 6.133 6.4 4.833 8 4.833s2.91 1.3 2.91 2.89C10.91 9.31 9.6 10.61 8 10.61z" fill="#1D1D1B"/>
</svg>
