<svg width="16" height="16" viewBox="0 0 16 16" fill="none" xmlns="http://www.w3.org/2000/svg">
    <path d="M11.669 0H4.33A4.336 4.336 0 0 0 0 4.331v7.338A4.336 4.336 0 0 0 4.331 16h7.338A4.336 4.336 0 0 0 16 11.67V4.33A4.336 4.336 0 0 0 11.669 0zM8 12.375A4.38 4.38 0 0 1 3.625 8 4.38 4.38 0 0 1 8 3.625 4.38 4.38 0 0 1 12.375 8 4.38 4.38 0 0 1 8 12.375zm4.48-7.718a1.294 1.294 0 0 1 0-2.586c.712 0 1.292.58 1.292 1.293s-.58 1.293-1.293 1.293z" fill="#1D1D1B"/>
    <path d="M8 4.563A3.44 3.44 0 0 0 4.563 8 3.44 3.44 0 0 0 8 11.437 3.44 3.44 0 0 0 11.437 8 3.44 3.44 0 0 0 8 4.563zM12.48 3.01a.355.355 0 1 0 0 .71.355.355 0 0 0 0-.71z" fill="#1D1D1B"/>
</svg>
