<?xml version="1.0" encoding="utf-8"?>
<!-- Svg Vector Icons : http://www.onlinewebfonts.com/icon -->
<!DOCTYPE svg PUBLIC "-//W3C//DTD SVG 1.1//EN" "http://www.w3.org/Graphics/SVG/1.1/DTD/svg11.dtd">
<svg version="1.1" xmlns="http://www.w3.org/2000/svg" xmlns:xlink="http://www.w3.org/1999/xlink" x="0px" y="0px" viewBox="0 0 1000 1000" enable-background="new 0 0 1000 1000" xml:space="preserve">
<metadata> Svg Vector Icons : http://www.onlinewebfonts.com/icon </metadata>
<g><path d="M736.1,40.2c-2.9,0-5.9,0.1-8.9,0.1c-69.3,2.4-133.1,32.3-180.4,84.8L339.2,325.3c0.1,0.1,0.8,0.9,0.8,0.9c34.6,34.2,80.3,53,128.9,53c0.4,0,0.7,0,1.1,0c49-0.3,94.9-17.2,129.3-52.1c0,0,2.8-2,20.5-20l11.8-11.6l15.5-13.4l6.9,6.9c0.2-0.2,10.9,10.8,10.7,11l184,197.4l21.3,22.5c22.5-22.6,36.6-36.8,36.6-36.8c55.5-50.5,85.8-122.4,83.3-197.2C985.1,148.6,872.1,40.2,736.1,40.2z"/><path d="M581.6,870.4c-0.4-0.4-0.6-1-0.9-1.5l-65.4,67.9c1,1,1.5,1.6,1.5,1.6c13.3,14,30.4,21.4,46.1,21.4c10.8,0,21-3.5,28.6-10.8c18.8-17.8,15.7-51.6-6.7-75.3L581.6,870.4z"/><path d="M644.9,334l-18.8,17.2c-41.5,42.1-96.9,65.5-156,65.8c-59.1,0.3-114.7-22.4-156.7-64l-14.9-16.3c-6.9-7.5-6-18.3,1.2-25.5l169.7-165l-11.6-12.4C409.4,76.5,338.7,43.6,264,43.6c-140,0-254,114.2-254,254.5c0,69.4,27.6,134.4,78.3,183.6l60.3,64.6l62.8-66.4c30.2-30.8,80.1-30.9,111.1-0.3c15.7,15.4,23.5,35.8,23.7,56.1c4.2-0.7,8.5-1.3,13-1.4c0.2,0,0.5,0,0.7,0c21.7,0,42.4,8.5,58.2,24.2c16.8,16.6,25,38.3,24.8,59.8c3.2-0.4,6.3-1,9.6-1c21.5-0.2,41.8,8.1,57.2,23.2c15.4,15.1,24,35.4,24.2,56.9c0,5.6-0.6,11.1-1.7,16.5c0.2,0,0.4-0.1,0.6-0.1c0.2,0,0.5,0,0.7,0c22.1,0,43.1,8.7,59.1,24.5c16.2,16,25.3,37.2,25.5,59.5c0.1,16-4.4,31.1-12.9,43.9c1.2,0.8,2.5,1.4,3.6,2.4c22.4,22.7,56.3,26.1,75.6,7.7c18.6-17.7,17.5-49.7-1.5-73.1c-0.4-0.4-0.9-0.5-1.4-0.9L552.6,647.1c-7.3-7.4-7.2-19.4,0.2-26.7c7.4-7.4,19.3-7.3,26.7,0.1l125,126.7c0.8,0.5,1.7,0.8,2.4,1.4c23.3,20.3,54.3,22.6,72.4,5.5c19.7-18.8,17-53.8-6-78.2L644.5,545.6c-7.3-7.4-7.2-19.4,0.2-26.7c7.4-7.3,19.3-7.2,26.7,0.2l125.3,127c0.1,0.1,0.3,0.1,0.4,0.3c23,23.3,57.9,26.8,77.8,7.9c8.7-8.3,13.6-20,14-33c0.4-16.5-6.4-33.3-18.8-46.3L644.9,334z"/><path d="M580.2,798.1c-0.1-12.3-5.2-23.9-14.3-32.9c-9-8.9-20.8-13.8-33-13.7c-10.9,0.1-21,4.2-28.3,11.7l-92.4,95.4c-16.1,16.4-14.8,44,2.9,61.5c9.1,8.9,20.8,13.8,33,13.7c10.9-0.1,21-4.3,28.4-11.8l92.4-95.4C576.3,819.2,580.3,809,580.2,798.1z"/><path d="M496,697.6c-0.1-11.4-4.7-22.2-12.9-30.2c-8.2-8.1-19-12.5-30.4-12.4c-9.6,0.1-18.5,3.5-25.7,9.5c-1.8,2.4-3.5,4.9-5.6,7.1L309.9,785.1c-1.5,1.5-3.2,2.5-4.7,3.9c-11.2,16.4-9.3,39.2,5.6,53.9c16.7,16.5,43.4,16.5,59.5,0.1l113.9-116C491.9,719.1,496.1,708.7,496,697.6z"/><path d="M391.6,585.3c-8.8-8.7-20.2-13.4-32.1-13.3c-10.6,0.1-20.4,4.1-27.5,11.4l-26.7,27.2l-82.3,87c-2.5,2.5-5.3,4.6-8,6.7c-9.4,16-6.5,37.8,8.4,52.4c17.2,17,43.9,17.8,59.6,1.9L394.5,645C410.1,629.1,408.8,602.3,391.6,585.3z"/><path d="M296.1,506.4c-8.1-8-18.7-12-29.1-12c-10.5,0-20.8,4-28.6,11.9l-99,101.6c-15.6,16-15.2,41.9,1.1,57.9c8,7.8,18.4,12.1,29.5,12c10.8-0.1,20.8-4.3,28.3-11.9l99-101.6C312.7,548.4,312.3,522.4,296.1,506.4z"/></g>
</svg>