<svg xmlns="http://www.w3.org/2000/svg" width="12" height="16" fill="none" viewBox="0 0 12 16">
    <path fill="#2D4252" d="M8.71 9.8H3.097c-.32 0-.58.269-.58.6 0 .331.26.6.58.6H8.71c.32 0 .58-.269.58-.6 0-.331-.26-.6-.58-.6zM3.097 7.4h3.29c.32 0 .58.269.58.6 0 .331-.26.6-.58.6h-3.29c-.32 0-.58-.269-.58-.6 0-.331.26-.6.58-.6zM8.71 12.2H3.097c-.32 0-.58.269-.58.6 0 .331.26.6.58.6H8.71c.32 0 .58-.269.58-.6 0-.331-.26-.6-.58-.6z"/>
    <path fill="#2D4252" fill-rule="evenodd" d="M11.818 4.604L7.27.164C7.162.059 7.02 0 6.87 0H.581C.26 0 0 .269 0 .6v14.8c0 .331.26.6.58.6h10.84c.32 0 .58-.269.58-.6V5.04c0-.165-.066-.323-.182-.436zm-.98 10.196H1.162V1.2h5.033v4c0 .331.26.6.58.6h4.065v9zm-.715-10.2L7.355 1.898V4.6h2.768z" clip-rule="evenodd"/>
</svg>
