<svg xmlns="http://www.w3.org/2000/svg" width="12" height="16" fill="none" viewBox="0 0 12 16">
    <path fill="#2D4252" d="M3.907 14.557C4.262 15.406 5.067 16 6 16c.934 0 1.738-.594 2.093-1.443H3.907zM6 1.529c.616 0 1.208.115 1.757.325v-.072C7.757.8 7 0 6.07 0h-.14C5 0 4.244.8 4.244 1.782v.07A4.907 4.907 0 0 1 6 1.53zM11.544 13.618H.456a.457.457 0 0 1-.446-.367.463.463 0 0 1 .238-.518c.044-.03.38-.279.716-1.029.617-1.377.746-3.318.746-4.703 0-2.5 1.925-4.533 4.29-4.533 2.36 0 4.28 2.023 4.29 4.515V7c0 1.385.13 3.326.746 4.703.336.75.672.998.716 1.029.188.092.28.303.237.518a.457.457 0 0 1-.445.367zm.213-.882z"/>
</svg>
