<svg width="32" height="31" viewBox="0 0 32 31" fill="none" xmlns="http://www.w3.org/2000/svg">
    <path fill-rule="evenodd" clip-rule="evenodd" d="m8.203 22.505-.087.097.096-.088a.74.74 0 0 0 .096-.097c0-.023-.024-.002-.105.088zm20.727 1.288c0 .393.004.55.01.348.005-.202.005-.523 0-.715-.006-.191-.01-.026-.01.367zM8.1 24.68c0 .005.044.049.097.097l.097.087-.088-.097c-.08-.09-.105-.11-.105-.087zm2.966 0a.74.74 0 0 0 .096.097l.097.087-.087-.097c-.081-.09-.106-.11-.106-.087zm14.56 0c0 .005.043.049.096.097l.097.087-.087-.097c-.082-.09-.106-.11-.106-.087zm-16.31 2.947c0 .006.044.049.097.097l.096.087-.087-.096c-.08-.09-.105-.11-.105-.088zm3.589.095a.652.652 0 0 0 .115.104c.008 0-.03-.047-.086-.104a.646.646 0 0 0-.115-.104c-.008 0 .03.047.086.104zM.88 12.614c.064.065.123.119.13.119a.518.518 0 0 0-.1-.12.824.824 0 0 0-.13-.119.519.519 0 0 0 .1.12zm4.107 1.473c.089.09.168.164.176.164a1.06 1.06 0 0 0-.146-.164 1.496 1.496 0 0 0-.176-.164c-.008 0 .058.074.146.164z" fill="#fff"/>
    <path fill-rule="evenodd" clip-rule="evenodd" d="M5.773 14.876c.342.344.629.625.637.625.008 0-.265-.281-.607-.625a19.457 19.457 0 0 0-.637-.625c-.008 0 .265.281.607.625zm-1.78.834c.098.098.184.178.192.178.008 0-.065-.08-.162-.178a1.76 1.76 0 0 0-.19-.179c-.009 0 .064.08.16.179zm1.675 1.615c.073.078.136.141.14.141.023 0 0-.027-.131-.15l-.141-.133.132.142zm2.863.253.053.067h-.266c-.517 0-.848.222-1.162.782-.157.28-.17.248.233.612.545.492 1.14.557 1.458.16.42-.525.391-.91-.109-1.422-.143-.146-.236-.236-.207-.2zM26.64 21.015l-.567.482.08.15c.153.283.143.284.892-.089.484-.24.655-.34.656-.379.002-.142-.355-.646-.458-.646-.02 0-.291.216-.603.482zm-7.092-.346c-.41.179-.438.724-.05.97.226.142.607.015.737-.246.213-.428-.25-.915-.687-.724zm4.513.016c-.374.187-.376.75-.004.957.224.124.61.006.728-.224.235-.455-.266-.962-.724-.733zm-6.293.322-.074.02-.008 2.03-.008 2.03.127.005.304.013c.098.005.248 0 .333-.009l.156-.017V21.016L18.502 21c-.14-.021-.647-.017-.734.006zM8.99 22.098c-1.529.33-1.658 2.545-.175 3.02.508.163 1.242.05 1.609-.25.09-.072-.068-.383-.296-.584l-.105-.092-.123.072c-.614.356-1.168.043-1.159-.656.009-.61.465-.904 1.03-.662l.213.092.148-.16c.206-.222.327-.47.258-.525-.295-.238-.937-.354-1.4-.255zm3.027-.015c-1.687.333-1.747 2.725-.076 3.079 1.24.262 2.223-.7 1.969-1.926-.168-.807-1.018-1.325-1.893-1.153zm3.215.01c-.781.149-.99.424-.62.82l.136.146.1-.056c.425-.24 1-.23 1.19.018.091.122.135.36.06.331-.193-.074-.88-.042-1.236.058-.848.238-.873 1.39-.037 1.686.464.165 1.376.117 2.042-.107l.204-.068-.002-.892c-.002-1.113-.033-1.272-.31-1.574-.288-.313-.956-.472-1.527-.363zm4.193-.02-.138.01-.005 1.5-.005 1.499.246.02c.136.011.306.013.38.005.073-.009.17-.017.215-.018l.081-.002v-1.485c0-1.386-.003-1.487-.052-1.507-.058-.025-.513-.039-.722-.022zm2.657-.003c-.793.123-1.3.682-1.342 1.477-.052 1.014.654 1.712 1.669 1.65.382-.024 1.023-.264 1.023-.384 0-.103-.247-.46-.387-.56l-.086-.061-.112.073c-.59.385-1.221-.007-1.155-.718.053-.566.524-.847 1.014-.605.218.108.208.11.408-.102.062-.065.152-.196.2-.29l.088-.17-.126-.067a1.945 1.945 0 0 0-.452-.191 2.791 2.791 0 0 0-.742-.052zm1.883.007-.104.019-.007 1.493-.008 1.493.25.021c.137.011.345.011.461 0l.212-.022-.005-1.467c-.003-.807-.016-1.484-.029-1.505-.026-.042-.581-.065-.77-.032zm2.539.02c-1.028.232-1.526 1.346-1.036 2.317.539 1.067 2.348 1.041 2.865-.04.615-1.288-.432-2.59-1.83-2.276zm3.61-.014c-.411.049-.85.212-1.074.4l-.093.08v2.524l.111.006.215.014c.057.005.22 0 .364-.009l.259-.017v-2.076l.168-.049c.21-.061.554-.046.669.03.194.127.207.201.214 1.164.008 1.053-.02.929.21.954.106.011.318.01.47 0l.279-.021.003-.839c.006-1.304-.04-1.533-.362-1.824-.356-.321-.758-.416-1.432-.337zm-17.573.788c.756.155.579 1.56-.196 1.561-.835.002-.963-1.417-.142-1.575.12-.023.164-.021.338.014zm14.686.054c.524.264.444 1.322-.112 1.476-.483.135-.855-.158-.889-.7-.041-.67.452-1.053 1.001-.776zM16 23.915l.138.02v.579l-.138.019c-.55.075-.84-.039-.84-.331 0-.263.29-.362.84-.286zm3.68 2.062c-.545.334-.217 1.153.396.988a.53.53 0 0 0 .285-.826c-.155-.204-.485-.283-.68-.162zM5.204 27.393c-.987.253-1.457 1.314-1.017 2.297.37.828 1.684 1.066 2.501.451.067-.05.032-.135-.16-.396-.186-.253-.23-.27-.439-.16-.567.299-1.102-.019-1.102-.655 0-.634.504-.968 1.039-.689l.185.097.167-.179c.16-.172.3-.387.3-.465 0-.204-1.032-.415-1.474-.301zm2.749-.022c-.264.044-.783.258-.865.357-.116.14.279.659.429.562.428-.277 1.117-.21 1.254.12.09.218.083.223-.294.201-1.047-.06-1.634.31-1.585.998.059.827 1.174 1.123 2.584.686l.293-.091-.016-.928c-.021-1.156-.057-1.298-.41-1.608-.274-.24-.912-.377-1.39-.297zm3.464.01a2.36 2.36 0 0 0-.907.35l-.155.101v1.264c0 1.137.004 1.265.047 1.281.073.028.662.028.793 0l.114-.024-.007-.571a65.49 65.49 0 0 1-.002-1.036l.003-.465.17-.035c.375-.078.522-.06.669.079.148.14.153.174.17 1.139l.014.908.223.016c.122.008.326.01.452.003l.23-.012v-.977c0-.61-.013-1.037-.034-1.135-.144-.685-.862-1.042-1.78-.886zm3.282-.01c-.298.041-.82.264-.893.381-.057.092.019.268.19.44l.145.145.175-.073c.603-.255 1.158-.173 1.257.184.052.188.065.182-.348.164-1.037-.045-1.583.307-1.545.996.047.827 1.16 1.123 2.579.687l.285-.088-.005-.915c-.006-1.177-.059-1.363-.475-1.678-.276-.21-.855-.313-1.365-.243zm3.196.04c-.22.05-.482.16-.742.314l-.096.057v1.286c0 .984.008 1.29.036 1.308.046.03.86.029.906 0 .027-.017.036-.29.036-1.075v-1.053l.222-.02a3.21 3.21 0 0 1 .417-.009l.195.012.07-.12a1.56 1.56 0 0 0 .18-.544l.02-.148-.21-.034a3.126 3.126 0 0 0-1.034.025zm1.66-.04-.097.013v1.484c0 1.474 0 1.485.061 1.505.077.024.789.023.829-.001.056-.035.039-2.982-.018-3.004-.05-.019-.614-.016-.776.004zm2.23.022c-.323.068-.73.273-.776.392-.023.062.046.217.161.362.145.182.177.192.35.113.535-.244 1.068-.17 1.186.163.071.204.09.195-.424.194-.947-.003-1.397.311-1.365.952.044.87 1.071 1.17 2.487.73l.286-.09.001-.693c.002-1.225-.046-1.471-.344-1.777-.323-.33-.958-.472-1.561-.346zm-13.069 1.82.097.02v.277c0 .325.017.306-.317.33-.437.03-.662-.08-.662-.323 0-.304.324-.416.882-.303zm6.803.003.084.017v.277c0 .325.018.306-.316.33-.447.031-.663-.076-.663-.33 0-.294.34-.405.895-.294zm7.146 0 .085.017v.277c0 .327.018.31-.348.33-.364.02-.532-.047-.594-.236-.111-.343.256-.509.857-.388zM12.024 11.088c-.293.492-.336.76-.176 1.089.458.94 1.781.613 1.734-.427-.027-.584-.467-.924-1.194-.922h-.21l-.154.26z" fill="#fff"/>
    <path fill-rule="evenodd" clip-rule="evenodd" d="M19.865.022c-.31.077-.484.248-.935.921-.304.454-1.027 1.524-1.538 2.278-.166.245-.443.654-.613.908l-.604.893-.735 1.087-.746 1.101-.703 1.042a323.465 323.465 0 0 1-1.373 2.032l-.368.543h.207c.713 0 1.146.358 1.187.979l.017.249.458-.666c.732-1.065.798-1.162 2.463-3.628a369.697 369.697 0 0 1 2.001-2.947c.357-.515.437-.626.45-.626.01 0 .008.285-.002.633-.01.348-.033 1.128-.049 1.734l-.058 2.084c-.015.54-.036 1.398-.046 1.905l-.018.923.088-.136c.256-.395.462-.479 1.23-.496l.555-.013.002-.11c.002-.06.006-.128.011-.153.005-.024.017-.473.028-.997s.04-1.65.063-2.5c.023-.852.05-1.864.059-2.248.009-.385.022-.814.03-.953.02-.38.06-2.152.059-2.694 0-.46-.003-.482-.083-.646-.179-.367-.651-.595-1.037-.5z" fill="#fff"/>
    <path fill-rule="evenodd" clip-rule="evenodd" d="M19.681 10.86c-1.2.176-1.073 1.872.14 1.872h.23l.249-.245c.314-.31.342-.43.373-1.623.001-.044-.7-.046-.992-.004zM1.31 10.86c-.668.11-1.053.784-.757 1.33.074.137 2.47 2.567 3.619 3.669 1.468 1.409 2.656 2.593 2.743 2.736.09.146.097.147.141.024.213-.59.711-.974 1.265-.975h.27l-.831-.81c-2.03-1.982-4.093-4.072-4.048-4.101.028-.019 1.613-.03 4.323-.03h4.279l-.157-.128c-.534-.435-.546-.905-.041-1.666l.054-.082-5.348.004c-2.966.002-5.421.015-5.512.03z" fill="#fff"/>
    <path fill-rule="evenodd" clip-rule="evenodd" d="M20.69 10.864c-.006.02-.025.285-.042.588-.04.718-.046.736-.333 1.021a4.964 4.964 0 0 0-.234.24c0 .005 1.124.002 2.498-.005s3.056-.003 3.738.01l1.24.022-.144.097c-.08.054-.805.483-1.611.954l-5.499 3.215c-.709.415-1.272.764-1.352.838-.735.688-.08 1.86.88 1.573.082-.024.968-.525 1.97-1.112l5.81-3.4c2.193-1.283 4.038-2.378 4.1-2.434.493-.447.33-1.306-.295-1.56l-.17-.069-5.272-.008c-4.227-.006-5.274 0-5.284.03zM1.117 12.852c.064.065.123.119.131.119a.516.516 0 0 0-.1-.12.825.825 0 0 0-.132-.119.516.516 0 0 0 .101.12zm3.454.81c.073.079.136.142.14.142.023 0 0-.027-.131-.15l-.141-.133.132.142zm2.212 5.345-.475.707c-.154.229-.307.45-.34.491a.28.28 0 0 0-.06.11c-.001.018-.012.038-.024.044-.013.005-.142.19-.287.412a4.592 4.592 0 0 1-.289.412c-.013.005-.024.027-.024.05 0 .02-.011.043-.025.049-.019.007-.546.784-.702 1.034a.377.377 0 0 1-.047.062c-.009.008-.161.236-.338.506-.176.27-.332.496-.346.502-.014.005-.025.027-.025.05 0 .021-.01.043-.024.049-.014.005-.169.23-.345.498-.176.27-.343.514-.37.544a.733.733 0 0 0-.094.137.55.55 0 0 1-.058.096c-.01.008-.094.135-.19.283a11.07 11.07 0 0 1-.316.465c-.08.108-.145.211-.145.228 0 .017-.01.036-.023.041-.013.005-.115.15-.226.323-.112.171-.212.319-.224.327a31.5 31.5 0 0 0-.639.946l-.422.64c-.216.327-.393.602-.393.61 0 .01-.034.06-.074.114a.416.416 0 0 0-.075.127c0 .016-.01.034-.023.039-.144.062-.218.668-.105.852.194.314.538.528.84.525.38-.005.588-.161.933-.7.078-.12.207-.31.286-.418.08-.108.145-.21.145-.228 0-.017.011-.035.025-.04a3.6 3.6 0 0 0 .255-.368c.127-.197.296-.446.376-.555a1.13 1.13 0 0 0 .145-.23c0-.019.013-.034.03-.034a.03.03 0 0 0 .03-.03c0-.015.018-.052.042-.081.047-.058.403-.588.925-1.377.189-.287.409-.61.489-.719a1.13 1.13 0 0 0 .144-.23c0-.019.014-.034.03-.034a.03.03 0 0 0 .03-.03c0-.015.019-.052.042-.081.023-.029.159-.227.302-.44l.608-.907c.191-.287.376-.555.409-.596a.28.28 0 0 0 .061-.11c0-.018.012-.038.024-.044.013-.005.115-.15.226-.322a9.85 9.85 0 0 1 .318-.465.756.756 0 0 0 .115-.183c0-.018.01-.037.024-.042.012-.005.114-.15.225-.322.111-.172.254-.381.318-.465a.766.766 0 0 0 .115-.183c0-.018.011-.037.025-.042.014-.006.115-.15.226-.323.11-.172.252-.38.316-.464a.763.763 0 0 0 .115-.183c0-.018.012-.037.026-.042.026-.01.39-.568.39-.598 0-.009-.057-.003-.127.013-.481.11-.759.015-1.204-.41-.358-.341-.314-.342-.55.01zm9.331 5.366c0 .057.006.08.014.052a.244.244 0 0 0 0-.104c-.008-.029-.014-.005-.014.052zm6.613 5.09c0 .058.006.081.013.053a.244.244 0 0 0 0-.104c-.007-.029-.013-.006-.013.052zm-7.147.06c0 .058.006.081.014.052a.244.244 0 0 0 0-.104c-.008-.028-.014-.005-.014.052z" fill="#fff"/>
</svg>
