<svg width="28" height="32" viewBox="0 0 28 32" fill="none" xmlns="http://www.w3.org/2000/svg">
    <path d="M.052 20.403V32s15.256-11.588 15.28-11.597H.052zM0 8.621C0 3.49 3.983 0 8.68 0c5.052 0 7.284 3.175 7.826 5.559l-3.534 1.094c-.26-1.14-1.317-3.071-4.292-3.071-2.253 0-4.79 1.576-4.79 5.04 0 3.102 2.325 4.906 4.85 4.906 2.915 0 4.08-1.908 4.412-3.094l3.566.987c-.544 2.28-2.773 5.773-7.992 5.773C3.89 17.19 0 13.77 0 8.62zM21.383 13.026c.047.79.615 1.558 1.85 1.558.924 0 1.376-.487 1.376-.998 0-.419-.292-.768-1.166-.956l-1.352-.288c-2.514-.537-3.496-1.931-3.496-3.562 0-2.116 1.897-3.836 4.53-3.836 3.415 0 4.601 2.093 4.72 3.44l-3 .526c-.097-.768-.583-1.42-1.684-1.42-.688 0-1.28.395-1.28 1.001 0 .488.402.768.924.866l1.565.289c2.435.496 3.63 1.94 3.63 3.637 0 1.977-1.544 3.908-4.69 3.908-3.701 0-4.887-2.35-4.98-3.628l3.053-.537z" fill="#fff"/>
</svg>
