<svg width="48" height="18" viewBox="0 0 48 18" fill="none" xmlns="http://www.w3.org/2000/svg">
    <path d="M15.184 1.732C16.486.394 18.442-.184 20.269.055c1.201.145 2.401.698 3.13 1.703.698.914.926 2.09.961 3.22-1.154.003-2.31-.002-3.464.003-.031-.635-.201-1.355-.786-1.697-.832-.448-1.958-.216-2.556.52C16.82 4.69 16.601 5.88 16.53 7c-.035.936 0 1.958.55 2.753.544.774 1.734.771 2.42.197.526-.431.743-1.106.922-1.739l3.47-.001c-.282 1.48-.87 2.98-2.041 3.972-1.335 1.147-3.22 1.418-4.905 1.124-1.228-.203-2.397-.884-3.091-1.94-.798-1.18-.98-2.665-.905-4.062.101-2.03.773-4.12 2.234-5.573zM42.815.204c1.281-.43 2.84-.195 3.785.83 1.102 1.192 1.391 2.904 1.4 4.478-.027 2.26-.633 4.633-2.174 6.338-1.12 1.261-2.924 1.871-4.563 1.43-.98-.22-1.695-1.025-2.102-1.913-.387 2.184-.77 4.369-1.153 6.553h-3.583c1.05-5.852 2.099-11.705 3.15-17.556h3.474c-.084.512-.176 1.024-.256 1.537.518-.722 1.156-1.416 2.022-1.697zM41.79 3.345c-1.064.518-1.505 1.745-1.746 2.832-.198 1.088-.343 2.32.246 3.316.345.6 1.096.843 1.749.714.713-.1 1.282-.644 1.622-1.256.553-.998.746-2.159.756-3.291-.01-.657-.093-1.367-.509-1.901-.496-.622-1.424-.709-2.118-.414zM25.76.364c1.195-.003 2.39 0 3.584-.001L28.197 6.86c-.127.738-.27 1.484-.23 2.238.013.483.314.98.803 1.095.755.176 1.588-.143 2.048-.77.457-.61.644-1.376.787-2.114l1.28-6.946c1.195-.003 2.389 0 3.583-.001L34.15 13.047c-1.146-.002-2.291 0-3.435-.002l.323-1.775c-.506.785-1.164 1.519-2.059 1.846-1.048.414-2.292.428-3.3-.106-.829-.454-1.326-1.354-1.476-2.27-.156-.944.012-1.9.175-2.83.46-2.516.924-5.03 1.382-7.546z" fill="#000"/>
    <path d="M1.465.352C5.975.351 10.486.36 14.997.348c-1.006.762-1.755 1.81-2.29 2.948-2.71 0-5.422.006-8.131-.001-.213.035-.344-.161-.487-.278-.872-.89-1.75-1.776-2.624-2.665zM3.768 4.836c.305.931.589 1.87.897 2.8.957-.004 1.913 0 2.87-.002-.778.576-1.556 1.156-2.327 1.742.294.94.6 1.876.892 2.817-.768-.589-1.55-1.159-2.323-1.74-.795.562-1.563 1.159-2.344 1.736.294-.937.597-1.873.892-2.811C1.555 8.79.778 8.21 0 7.632c.956.006 1.914 0 2.87.005.304-.931.596-1.868.898-2.801zM6.327 5.236c1.907.004 3.813-.002 5.72.003-.21.965-.279 1.955-.272 2.942-.856 0-1.712.002-2.569 0-.954-.986-1.92-1.962-2.88-2.945zM9.234 10.161c.937-.02 1.875-.01 2.812-.007.308 1.13.897 2.186 1.79 2.947-2.5-.012-5.001 0-7.502-.006.957-.987 1.943-1.946 2.9-2.934zM4.18 15.245c.128-.176.341-.198.54-.191 9.684.004 19.367-.002 29.048.003-.18.98-.364 1.96-.545 2.942-10.584 0-21.168.003-31.752-.003.9-.919 1.804-1.835 2.708-2.751z" fill="#B4131D"/>
</svg>
