<svg width="32" height="32" viewBox="0 0 32 32" fill="none" xmlns="http://www.w3.org/2000/svg">
    <path fill-rule="evenodd" clip-rule="evenodd" d="M9.78 30.737A15.82 15.82 0 0 0 16.01 32c2.151 0 4.258-.443 6.21-1.285a16.194 16.194 0 0 0 5.078-3.435 15.468 15.468 0 0 0 3.437-5.075A15.79 15.79 0 0 0 32 15.978a.643.643 0 0 0-1.286 0c0 1.972-.377 3.9-1.153 5.717a14.494 14.494 0 0 1-3.15 4.676 14.506 14.506 0 0 1-4.678 3.147 14.82 14.82 0 0 1-5.722 1.152c-1.974 0-3.903-.376-5.721-1.152a14.507 14.507 0 0 1-4.68-3.147 14.496 14.496 0 0 1-3.148-4.676 14.793 14.793 0 0 1-1.154-5.717c0-1.973.377-3.9 1.154-5.718A14.496 14.496 0 0 1 5.61 5.584a14.507 14.507 0 0 1 4.679-3.146 14.82 14.82 0 0 1 5.721-1.153c1.974 0 3.903.377 5.722 1.153.332.155.687 0 .842-.333a.617.617 0 0 0-.332-.842A15.82 15.82 0 0 0 16.01 0c-2.173 0-4.258.421-6.231 1.263A16.193 16.193 0 0 0 4.7 4.698a15.467 15.467 0 0 0-3.437 5.075A15.79 15.79 0 0 0 0 16c0 2.172.421 4.255 1.264 6.227a16.18 16.18 0 0 0 3.437 5.075 15.479 15.479 0 0 0 5.079 3.435zm6.231-1.308c-1.818 0-3.57-.354-5.233-1.063a13.613 13.613 0 0 1-4.28-2.881 13.356 13.356 0 0 1-2.883-4.277 13.21 13.21 0 0 1-1.065-5.23c0-1.817.355-3.568 1.065-5.23A13.603 13.603 0 0 1 6.498 6.47a13.366 13.366 0 0 1 4.28-2.881 13.234 13.234 0 0 1 5.233-1.064.643.643 0 0 1 0 1.286c-1.64 0-3.238.31-4.723.953a12.317 12.317 0 0 0-3.859 2.592 11.942 11.942 0 0 0-2.595 3.856 11.894 11.894 0 0 0-.953 4.72c0 1.64.31 3.236.953 4.72A12.307 12.307 0 0 0 7.43 24.51a11.951 11.951 0 0 0 3.859 2.592c1.508.643 3.082.953 4.723.953s3.238-.31 4.724-.953a12.317 12.317 0 0 0 3.858-2.592 11.943 11.943 0 0 0 2.595-3.856c.643-1.507.953-3.08.953-4.72 0-1.64-.31-3.236-.953-4.72a.653.653 0 0 1 .332-.843.654.654 0 0 1 .843.333 13.21 13.21 0 0 1 1.065 5.23 13.21 13.21 0 0 1-1.065 5.23 13.603 13.603 0 0 1-2.883 4.276 13.365 13.365 0 0 1-4.28 2.881c-1.619.754-3.37 1.108-5.189 1.108zm-4.236-3.412c1.353.576 2.772.864 4.236.864s2.883-.288 4.236-.864a10.81 10.81 0 0 0 3.46-2.327 11.052 11.052 0 0 0 2.328-3.457c.576-1.352.864-2.77.864-4.233a10.63 10.63 0 0 0-.864-4.233 10.802 10.802 0 0 0-2.329-3.457.657.657 0 0 0-.909 0 .655.655 0 0 0 0 .909 9.546 9.546 0 0 1 2.062 3.058A9.313 9.313 0 0 1 25.613 16a9.313 9.313 0 0 1-.754 3.723 9.544 9.544 0 0 1-2.062 3.058 9.554 9.554 0 0 1-3.06 2.061 9.332 9.332 0 0 1-3.726.754 9.332 9.332 0 0 1-3.725-.754 9.553 9.553 0 0 1-3.06-2.06 9.545 9.545 0 0 1-2.063-3.059A9.314 9.314 0 0 1 6.409 16c0-1.285.244-2.549.754-3.723a9.546 9.546 0 0 1 2.062-3.058 9.553 9.553 0 0 1 3.06-2.061.654.654 0 0 0 .333-.842.654.654 0 0 0-.843-.333A10.81 10.81 0 0 0 8.316 8.31a11.05 11.05 0 0 0-2.328 3.457A10.707 10.707 0 0 0 5.123 16c0 1.463.288 2.903.865 4.233a10.803 10.803 0 0 0 2.328 3.457 11.06 11.06 0 0 0 3.46 2.327zm4.236-1.707a8.44 8.44 0 0 1-3.238-.642 8.256 8.256 0 0 1-2.639-1.773 8.498 8.498 0 0 1-1.774-2.637c-.443-1.02-.643-2.106-.643-3.236 0-1.13.222-2.216.643-3.235a8.248 8.248 0 0 1 1.774-2.637.657.657 0 0 1 .91 0 .656.656 0 0 1 0 .908 6.992 6.992 0 0 0-1.508 2.238 6.811 6.811 0 0 0-.555 2.726c0 .953.178 1.862.555 2.726a6.993 6.993 0 0 0 1.508 2.238 6.999 6.999 0 0 0 2.24 1.507 6.824 6.824 0 0 0 2.727.554c.954 0 1.863-.177 2.728-.554a6.998 6.998 0 0 0 2.24-1.507 6.991 6.991 0 0 0 1.508-2.238 6.81 6.81 0 0 0 .554-2.726c0-.953-.178-1.861-.555-2.726a6.99 6.99 0 0 0-1.508-2.238 6.997 6.997 0 0 0-2.24-1.507.617.617 0 0 1-.332-.842c.133-.332.51-.487.843-.332a8.256 8.256 0 0 1 2.639 1.773 8.497 8.497 0 0 1 1.774 2.637c.443 1.02.643 2.105.643 3.235s-.222 2.216-.643 3.236a8.247 8.247 0 0 1-1.774 2.637 8.506 8.506 0 0 1-2.64 1.773c-1.02.443-2.106.642-3.237.642zm0-2.548c-.776 0-1.53-.155-2.24-.443a5.742 5.742 0 0 1-1.84-1.241 5.737 5.737 0 0 1-1.242-1.84c-.31-.709-.444-1.462-.444-2.238s.156-1.53.444-2.238a5.735 5.735 0 0 1 1.242-1.84 5.739 5.739 0 0 1 1.84-1.24c.71-.31 1.464-.444 2.24-.444.776 0 1.53.155 2.24.444.687.287 1.308.709 1.84 1.24a.655.655 0 0 1 0 .909.657.657 0 0 1-.909 0 4.326 4.326 0 0 0-1.419-.953 4.272 4.272 0 0 0-1.752-.354c-.599 0-1.197.11-1.752.354a4.441 4.441 0 0 0-2.373 2.371A4.264 4.264 0 0 0 11.532 16c0 .598.11 1.197.354 1.75a4.437 4.437 0 0 0 2.373 2.372 4.27 4.27 0 0 0 1.752.355c.599 0 1.198-.111 1.752-.355a4.441 4.441 0 0 0 1.42-.953.657.657 0 0 1 .909 0 .655.655 0 0 1 0 .909 5.74 5.74 0 0 1-1.841 1.24 5.935 5.935 0 0 1-2.24.444z" fill="#fff"/>
</svg>
