<svg width="40" height="25" viewBox="0 0 40 25" fill="none" xmlns="http://www.w3.org/2000/svg">
    <path fill-rule="evenodd" clip-rule="evenodd" d="M19.257 11.117c-.484-3.375-3.066-5.95-6.18-5.95-3.06 0-5.606 2.488-6.152 5.777 2.77.343 5.099 2.23 6.218 4.837 1.143-2.51 3.418-4.319 6.114-4.664zm13.814-.176c-.628-3.167-3.124-5.533-6.108-5.533-3.029 0-5.555 2.437-6.135 5.676 2.666.226 4.957 1.882 6.205 4.25 1.189-2.382 3.418-4.078 6.038-4.393zm-7.157-6.434C25.286 1.688 22.92 0 19.914 0s-5.357 1.341-5.938 4.224c2.666.202 4.887 2.72 6.136 4.829 1.188-2.12 3.182-4.266 5.802-4.546zM12.437 18.612c-.369-3.521-3.011-6.252-6.217-6.252-3.205 0-5.848 2.731-6.216 6.252h12.433zm13.545 0c-.37-3.521-3.012-6.252-6.217-6.252-3.206 0-5.848 2.731-6.217 6.252h12.434zm13.459 0c-.369-3.521-3.011-6.252-6.217-6.252-3.205 0-5.848 2.731-6.217 6.252h12.434z" fill="#fff"/>
    <path d="M2.094 20.944H.705v1.205h1.161c.107 0 .188.033.241.098.053.065.08.153.08.262 0 .11-.027.196-.08.261-.055.065-.135.096-.24.096H.704v1.552c0 .198-.033.344-.099.44a.295.295 0 0 1-.507-.003C.033 24.76 0 24.613 0 24.418v-3.627c0-.137.015-.249.045-.336a.346.346 0 0 1 .141-.19.461.461 0 0 1 .246-.059h1.662c.113 0 .196.034.25.101a.414.414 0 0 1 .082.266.42.42 0 0 1-.082.27c-.054.067-.137.1-.25.1zm2.39-.817c.36 0 .67.1.929.298.258.197.454.48.587.845.133.365.2.794.2 1.287 0 .364-.037.696-.11.993a2.412 2.412 0 0 1-.327.775 1.522 1.522 0 0 1-.537.502 1.502 1.502 0 0 1-.728.173 1.477 1.477 0 0 1-1.27-.681 2.42 2.42 0 0 1-.327-.782 4.182 4.182 0 0 1-.11-.986c0-.363.038-.694.115-.997.077-.302.188-.559.334-.771a1.5 1.5 0 0 1 .532-.487c.208-.113.445-.169.711-.169zm1 2.424c0-.345-.04-.645-.122-.898-.083-.253-.2-.444-.353-.574a.79.79 0 0 0-.916-.087.939.939 0 0 0-.308.314 1.747 1.747 0 0 0-.205.526c-.05.214-.074.453-.074.718 0 .27.025.51.074.728.05.216.121.396.212.539.09.143.195.249.313.32a.736.736 0 0 0 .388.106c.18 0 .346-.062.497-.183.151-.122.271-.311.361-.567.09-.254.134-.57.134-.942zm2.266.355h-.247v1.512c0 .2-.033.346-.098.44a.296.296 0 0 1-.253.142c-.113 0-.2-.05-.262-.148-.062-.099-.092-.243-.092-.434v-3.627c0-.205.034-.354.102-.446.068-.093.178-.139.33-.139h1.146c.158 0 .294.01.406.028a.936.936 0 0 1 .594.378c.084.116.148.25.19.403.044.154.066.316.066.488 0 .352-.073.633-.22.843-.146.21-.368.36-.665.447.124.09.244.223.359.398a4.931 4.931 0 0 1 .514 1.098c.049.159.074.269.074.33a.427.427 0 0 1-.044.183.356.356 0 0 1-.12.145.3.3 0 0 1-.176.053.282.282 0 0 1-.199-.076.685.685 0 0 1-.139-.19 8.319 8.319 0 0 1-.158-.34l-.282-.637a3.785 3.785 0 0 0-.272-.533.73.73 0 0 0-.244-.251.64.64 0 0 0-.31-.067zm.403-1.982h-.65v1.297h.63c.17 0 .313-.02.429-.059a.492.492 0 0 0 .264-.203.73.73 0 0 0 .092-.394.77.77 0 0 0-.074-.347.499.499 0 0 0-.204-.224c-.082-.047-.244-.07-.487-.07zm3.678-.797c.361 0 .67.1.93.298.258.197.454.48.587.845.133.365.2.794.2 1.287 0 .364-.037.696-.11.993a2.415 2.415 0 0 1-.328.775 1.523 1.523 0 0 1-.536.502 1.502 1.502 0 0 1-.729.173 1.477 1.477 0 0 1-1.27-.681 2.418 2.418 0 0 1-.326-.782 4.179 4.179 0 0 1-.11-.986c0-.363.038-.694.115-.997.077-.302.188-.559.334-.771.145-.212.322-.375.531-.487.209-.113.446-.169.712-.169zm1.002 2.424c0-.345-.042-.645-.124-.898-.082-.253-.2-.444-.352-.574a.79.79 0 0 0-.916-.087.938.938 0 0 0-.309.314 1.746 1.746 0 0 0-.204.526 3.2 3.2 0 0 0-.075.718c0 .27.026.51.075.728.05.216.12.396.212.539.09.143.195.249.312.32a.736.736 0 0 0 .389.106c.18 0 .346-.062.497-.183.15-.122.27-.311.36-.567.09-.254.134-.57.134-.942zm4.76 1.836-.166-.592h-1.415l-.166.604c-.065.235-.12.395-.166.477-.045.082-.12.124-.225.124-.088 0-.167-.044-.235-.132a.476.476 0 0 1-.102-.298c0-.065.008-.132.023-.2.017-.07.043-.164.079-.286l.89-3.06.091-.316c.036-.124.074-.226.115-.307a.557.557 0 0 1 .158-.198.387.387 0 0 1 .244-.076c.098 0 .18.026.246.076s.118.115.159.194c.04.08.074.165.102.256.027.091.063.213.105.364l.91 3.041c.07.232.106.4.106.505 0 .109-.033.21-.1.3-.067.092-.15.137-.244.137a.245.245 0 0 1-.143-.04.337.337 0 0 1-.1-.11 1.192 1.192 0 0 1-.085-.211c-.032-.096-.058-.18-.08-.252zm-1.395-1.31h1.04l-.524-1.942-.516 1.942zm5.31.43c0 .285-.055.54-.163.768a1.23 1.23 0 0 1-.476.533 1.391 1.391 0 0 1-.743.192c-.344 0-.627-.088-.85-.262a1.39 1.39 0 0 1-.385-.506 1.445 1.445 0 0 1-.148-.616.5.5 0 0 1 .089-.297.268.268 0 0 1 .226-.123.23.23 0 0 1 .188.096c.052.064.096.16.132.287.044.15.092.275.143.375a.685.685 0 0 0 .218.25.636.636 0 0 0 .368.098.673.673 0 0 0 .705-.691.632.632 0 0 0-.105-.381.687.687 0 0 0-.274-.224 3.772 3.772 0 0 0-.447-.165 2.739 2.739 0 0 1-.627-.277 1.148 1.148 0 0 1-.402-.435 1.425 1.425 0 0 1-.148-.684c0-.259.052-.49.156-.691.105-.2.257-.356.454-.464.198-.109.43-.163.698-.163.213 0 .398.037.554.108.156.072.286.168.389.286.102.119.177.244.225.374.047.131.071.26.071.384 0 .113-.03.216-.089.307-.06.09-.134.136-.222.136a.22.22 0 0 1-.184-.081 1.166 1.166 0 0 1-.136-.27 1.268 1.268 0 0 0-.229-.416c-.088-.1-.23-.15-.427-.15a.603.603 0 0 0-.44.163.525.525 0 0 0-.168.39.498.498 0 0 0 .214.422.96.96 0 0 0 .201.116c.069.028.181.068.338.122.196.063.374.13.533.206.159.075.294.166.406.274.112.106.198.242.26.406.063.165.095.365.095.603zm2.86-2.51h-.77v3.421c0 .198-.032.344-.098.44a.293.293 0 0 1-.252.142.298.298 0 0 1-.256-.145c-.065-.096-.099-.241-.099-.437v-3.421h-.769c-.12 0-.21-.037-.268-.108a.443.443 0 0 1-.088-.287c0-.121.03-.218.091-.29.061-.07.15-.106.265-.106h2.244c.122 0 .212.037.272.11.059.074.089.17.089.287 0 .118-.03.213-.09.286-.06.071-.15.108-.271.108zm.782 1.975v-2.266c0-.194.032-.337.096-.434a.292.292 0 0 1 .253-.145c.109 0 .195.049.26.145.063.097.096.242.096.434v2.319c0 .263.021.484.065.66a.78.78 0 0 0 .231.412c.111.097.266.146.465.146.276 0 .47-.099.585-.298.114-.198.17-.499.17-.902v-2.337c0-.195.032-.34.096-.436a.291.291 0 0 1 .254-.143.3.3 0 0 1 .257.143c.066.095.099.241.099.436v2.266c0 .369-.027.677-.08.923a1.562 1.562 0 0 1-.3.65 1.159 1.159 0 0 1-.442.346 1.473 1.473 0 0 1-.588.109c-.268 0-.498-.04-.692-.117-.193-.078-.35-.2-.471-.364a1.643 1.643 0 0 1-.27-.63 4.296 4.296 0 0 1-.084-.917zm4.637-.066h-.247v1.512c0 .2-.033.346-.098.44a.296.296 0 0 1-.253.142c-.113 0-.2-.05-.262-.148-.062-.099-.093-.243-.093-.434v-3.627c0-.205.035-.354.103-.446.068-.093.178-.139.33-.139h1.146c.158 0 .293.01.406.028a.936.936 0 0 1 .594.378c.084.116.148.25.19.403.044.154.066.316.066.488 0 .352-.073.633-.22.843-.146.21-.368.36-.666.447.125.09.245.223.36.398a4.938 4.938 0 0 1 .514 1.098c.049.159.074.269.074.33a.426.426 0 0 1-.164.328.3.3 0 0 1-.176.053.282.282 0 0 1-.2-.076.685.685 0 0 1-.138-.19 8.379 8.379 0 0 1-.158-.34l-.282-.637a3.788 3.788 0 0 0-.272-.533.73.73 0 0 0-.244-.251.64.64 0 0 0-.31-.067zm.403-1.982h-.65v1.297h.63c.17 0 .313-.02.429-.059a.493.493 0 0 0 .264-.203.73.73 0 0 0 .091-.394.771.771 0 0 0-.073-.347.5.5 0 0 0-.204-.224c-.082-.047-.244-.07-.487-.07zm2.175 3.494v-3.712c0-.194.033-.337.098-.434.064-.096.149-.145.252-.145a.3.3 0 0 1 .256.143c.066.095.1.24.1.436v3.712c0 .196-.034.34-.1.437a.299.299 0 0 1-.256.145c-.102 0-.185-.048-.25-.146-.066-.098-.1-.242-.1-.436zm3.72-.031-.165-.592h-1.415l-.166.604c-.065.235-.12.395-.166.477-.046.082-.121.124-.226.124-.088 0-.167-.044-.235-.132a.475.475 0 0 1-.102-.298c0-.065.008-.132.024-.2.016-.07.042-.164.078-.286l.89-3.06.092-.316c.035-.124.073-.226.114-.307a.557.557 0 0 1 .159-.198.387.387 0 0 1 .243-.076c.099 0 .18.026.246.076s.118.115.159.194c.04.08.075.165.102.256.028.091.063.213.105.364l.91 3.041c.071.232.107.4.107.505 0 .109-.033.21-.1.3-.068.092-.15.137-.245.137a.245.245 0 0 1-.142-.04.338.338 0 0 1-.1-.11 1.184 1.184 0 0 1-.086-.211l-.08-.252zm-1.395-1.31h1.04l-.524-1.942-.516 1.942zm5.31.43c0 .285-.054.54-.163.768a1.23 1.23 0 0 1-.476.533 1.391 1.391 0 0 1-.743.192c-.343 0-.627-.088-.85-.262a1.387 1.387 0 0 1-.385-.506 1.444 1.444 0 0 1-.148-.616.5.5 0 0 1 .09-.297.268.268 0 0 1 .225-.123.23.23 0 0 1 .188.096c.052.064.096.16.132.287.044.15.093.275.144.375a.685.685 0 0 0 .217.25.636.636 0 0 0 .369.098.686.686 0 0 0 .509-.198.674.674 0 0 0 .196-.493.632.632 0 0 0-.106-.381.686.686 0 0 0-.274-.224 3.77 3.77 0 0 0-.447-.165 2.742 2.742 0 0 1-.627-.277 1.149 1.149 0 0 1-.401-.435 1.424 1.424 0 0 1-.149-.684c0-.259.052-.49.157-.691.104-.2.256-.356.454-.464.197-.109.43-.163.697-.163.213 0 .398.037.555.108.155.072.285.168.388.286.102.119.177.244.225.374.047.131.072.26.072.384 0 .113-.03.216-.09.307-.059.09-.133.136-.222.136a.22.22 0 0 1-.184-.081 1.166 1.166 0 0 1-.136-.27 1.268 1.268 0 0 0-.228-.416c-.089-.1-.231-.15-.428-.15a.603.603 0 0 0-.44.163.525.525 0 0 0-.168.39.498.498 0 0 0 .214.422.96.96 0 0 0 .202.116c.068.028.18.068.337.122.196.063.374.13.533.206a1.5 1.5 0 0 1 .406.274c.112.106.199.242.261.406.062.165.094.365.094.603z" fill="#fff"/>
</svg>
