<svg width="32" height="24" viewBox="0 0 32 24" fill="none" xmlns="http://www.w3.org/2000/svg">
    <path fill-rule="evenodd" clip-rule="evenodd" d="M9.967 3.845c0 2.106-2.192 3.844-4.886 3.844s-4.9-1.738-4.9-3.844S2.373 0 5.081 0s4.886 1.739 4.886 3.845zM0 19.406v4.58h11.475v-4.608H9.59v-2.125l.586-.433a8.065 8.065 0 0 1 1.731-1.089c-.055 1.374 0 2.75.168 4.114a6.015 6.015 0 0 0 1.94 3.053c.53.606 1.26.998 2.052 1.102a3.669 3.669 0 0 0 1.54-.525 3.72 3.72 0 0 0 1.168-1.143c.619-.759 1.18-1.575 1.74-2.389.275-.398.549-.796.829-1.187.069.364.069.738 0 1.103.005.473.047.946.125 1.413.055.806.421 1.558 1.02 2.092 3.196 2.403 6.728-2.912 8.124-5.117.064-.097.145-.21.234-.336.626-.884 1.694-2.39.827-3.268-.256-.26-.895.432-1.668 1.27-1.038 1.125-2.318 2.513-3.246 2.221-2.957-.934.755-6.79 2.23-9.118a41.706 41.706 0 0 0 .505-.81c.6-.97 1.23-1.993.252-3.09-.942-1.056-1.625-.175-2.24.62a18.22 18.22 0 0 1-.203.257L20.2 14.784l-1.62 1.965-.122.154c-.539.674-1.504 1.881-2.278 1.881a1.069 1.069 0 0 1-.534-.258 1.09 1.09 0 0 1-.318-.505 2.275 2.275 0 0 1 .489-1.979l.272-.41c.815-1.234 1.628-2.464 2.52-3.66l1.633-2.149.111-.154c.342-.47.867-1.193.755-1.711-.126-.58-1.229-.58-1.676-.58a5.102 5.102 0 0 0-2.121 0c-.387.2-.64.49-.951.85a11.7 11.7 0 0 1-.515.564c-.369.373-.752.73-1.136 1.088-.256.239-.511.478-.763.72a137.687 137.687 0 0 1-4.355 4.02V8.466H0v4.538h1.815v6.402H0z" fill="#fff"/>
</svg>
