<svg width="32" height="26" viewBox="0 0 32 26" fill="none" xmlns="http://www.w3.org/2000/svg">
    <path fill-rule="evenodd" clip-rule="evenodd" d="M0 8.218 32 0v17.116L0 25.333V8.218zm5.06 2.567c0-.565.379-1.02 1.056-1.02s1.066.455 1.066 1.02c0 .534-.389 1.008-1.066 1.008S5.06 11.32 5.06 10.785zm.18 1.404h1.763v5.222c0 1.237-.508 2.057-2.002 2.057a3.67 3.67 0 0 1-.608-.049v-1.523c.1.01.2.02.299.02.368 0 .548-.128.548-.514v-5.213zm5 3.61c.528 0 .667-.376.667-.762V12.19h1.763v5.044h-1.674v-.564c-.358.515-.906.703-1.414.703-1.085 0-1.723-.782-1.723-1.82v-3.363h1.763v2.848c0 .366.12.762.617.762zm5.09 1.434h-1.764V12.19h1.674v.564c.378-.515.956-.703 1.464-.703 1.116 0 1.773.772 1.773 1.82v3.363h-1.763v-2.848c0-.346-.13-.722-.687-.722-.538 0-.698.356-.698.722v2.848zm4.362-5.044v-1.365l1.763-.405v1.77h1.126v1.563h-1.126v1.553c0 .395.18.514.518.514.23.005.456-.05.657-.158v1.523c-.258.109-.587.188-1.085.188-1.345 0-1.853-.712-1.853-1.919v-1.701h-.727v-1.563h.727zm5.648-.139c1.185 0 2.082.535 2.181 1.702l-1.803-.001c0-.346-.229-.386-.408-.386-.2 0-.369.07-.369.238 0 .178.1.257.488.336l.329.07c1.056.227 1.843.573 1.843 1.622 0 1.167-.956 1.74-2.232 1.74-1.364 0-2.34-.534-2.41-1.8h1.853c0 .366.219.495.508.495.299 0 .458-.099.458-.287 0-.207-.15-.287-.478-.356l-.379-.08c-.946-.197-1.782-.533-1.782-1.611 0-1.088.996-1.682 2.201-1.682z" fill="#fff"/>
</svg>
