<svg width="32" height="32" viewBox="0 0 32 32" fill="none" xmlns="http://www.w3.org/2000/svg">
    <path d="M14.735 31.93C7.927 31.405 2.139 26.506.469 19.855c-.636-2.53-.625-5.374.03-7.913C1.936 6.37 6.42 1.91 12.05.453 13.428.095 14.268 0 16.01 0c1.423 0 1.785.022 2.546.158 4.56.811 8.285 3.222 10.795 6.987a15.995 15.995 0 0 1 2.454 6.183c.186 1.058.254 3.152.139 4.251a16.09 16.09 0 0 1-1.996 6.249l-.394.69-.043-3.073c-.023-1.691-.052-4.178-.063-5.527a113.22 113.22 0 0 0-.05-2.928l-.03-.475-1.22.042c-.67.023-1.57.043-1.997.044l-.777.001.033 1.226c.018.675.051 2.78.072 4.678l.04 3.452-.718-1.103c-.395-.607-1.644-2.517-2.776-4.246a491.819 491.819 0 0 1-2.309-3.546l-.25-.403-3.628.047c-1.995.027-3.647.068-3.671.093-.024.024-.003 3.044.047 6.71.096 7.154.09 7.04.458 7.761.594 1.164 2.289 1.804 4.928 1.859l.83.017-.019-4.697c-.01-2.584-.036-5.07-.057-5.527-.025-.517-.015-.803.025-.76.08.084.816 1.234 2.258 3.523.599.95 1.27 2.007 1.49 2.35 1.068 1.651 3.108 4.897 3.108 4.945 0 .137-1.116.821-2.245 1.377-1.884.926-3.688 1.411-5.908 1.588-.944.075-1.17.074-2.347-.017z" fill="#fff"/>
</svg>
