<svg width="32" height="28" viewBox="0 0 32 28" fill="none" xmlns="http://www.w3.org/2000/svg">
    <path d="M21.096 15.383a16.5 16.5 0 0 0 1.591-2.855 18.109 18.109 0 0 0 1.16-3.887l-4.435 1.548L19.418 0h-7.054l.006 10.189L2.316 6.6 0 12.84l10.21 3.208-6.53 7.977L9.57 28l6.31-8.369L22.265 28h.097l5.724-3.976-6.502-7.968-.488-.673zm2.52.06c.5-1.088.889-2.224 1.175-3.385.32-1.302.515-2.631.629-3.964l-.839.293a24.302 24.302 0 0 1-.92 4.331 16.135 16.135 0 0 1-1.357 3.122l1.313-.398zm5.445-8.62c.123 1.108.255 2.216.339 3.329.088 1.172.12 2.349.067 3.523L32 12.909 29.7 6.6l-.64.223zm-2.903 7.85c.292-1.107.47-2.24.591-3.378.134-1.243.189-2.493.22-3.741l-.853.297c-.091 2.43-.35 4.886-1.175 7.19l1.217-.368zm2.176-.657c.294-2.298.193-4.637-.004-6.938l-.619.216c.035 1.999-.028 4.825-.423 7.04" fill="#fff"/>
</svg>
