<svg width="32" height="30" viewBox="0 0 32 30" fill="none" xmlns="http://www.w3.org/2000/svg">
    <path d="M32 14.4C32 6.583 25.402.225 17.3.225h-.056c-.84-.145-1.69-.22-2.543-.225C6.59 0 0 6.358 0 14.171c.001 2.43.65 4.817 1.884 6.923a14.796 14.796 0 0 0 5.55 6.496A15.164 15.164 0 0 0 15.705 30a15.296 15.296 0 0 0 6.257-1.319 15.065 15.065 0 0 0 5.138-3.751 14.023 14.023 0 0 0 3.608-4.744A13.804 13.804 0 0 0 32 14.4zm-5.583 9.837a13.883 13.883 0 0 1-6.154 3.053 14.395 14.395 0 0 0 6.615-5.179 14.031 14.031 0 0 0 2.53-7.933c.001-.486-.024-.972-.075-1.456.229.967.344 1.956.342 2.949a12.96 12.96 0 0 1-3.258 8.566zm2.003-10.062c0 7.248-6.102 13.149-13.62 13.206C8.417 26.248 3.566 20.86 3.566 14.4a12.9 12.9 0 0 1 1.351-5.707 13.123 13.123 0 0 1 3.75-4.554 14.376 14.376 0 0 1 8.976-1.712c3.103.42 5.976 1.84 8.172 4.035a12.796 12.796 0 0 1 2.605 7.713zM2.76 20.68a12.76 12.76 0 0 1 1.19-12.2 13.628 13.628 0 0 0-1.368 5.926 13.94 13.94 0 0 0 1.864 6.88 14.232 14.232 0 0 0 5.039 5.11 13.638 13.638 0 0 1-6.725-5.716zM15.706 1.335c-.16 0-.318 0-.479.023a13.9 13.9 0 0 1 1.96-.161c.787.14 1.56.348 2.31.622a15.465 15.465 0 0 0-3.791-.484zm-3.976-.05a14.89 14.89 0 0 0-3.6 2.047 14.53 14.53 0 0 0-4.596 4.032A14.25 14.25 0 0 0 1.036 12.9C1.61 7.171 6.003 2.505 11.73 1.284zm3.976 27.753a14.356 14.356 0 0 1-7.863-2.353 15.045 15.045 0 0 0 6.865 1.647h.058c.84.147 1.69.222 2.543.226 1.034-.001 2.066-.107 3.077-.317a14.42 14.42 0 0 1-4.68.797zM26.564 5.84a14.649 14.649 0 0 0-4.061-3.651c2.495.969 4.64 2.65 6.157 4.826a13.078 13.078 0 0 1 2.355 7.388 12.772 12.772 0 0 1-.622 3.924 13.697 13.697 0 0 0-.334-6.714 13.875 13.875 0 0 0-3.495-5.776v.003z" fill="#fff"/>
</svg>
