<svg width="32" height="24" viewBox="0 0 32 24" fill="none" xmlns="http://www.w3.org/2000/svg">
    <path d="M9.892.094 9.87.09c-.89.11-1.768.324-2.616.637-.563.204-1.11.456-1.636.754-.419.234-.823.498-1.21.789-.025.025-.07.041-.081.078a1.147 1.147 0 0 0-.194.135c-.249.207-.498.414-.726.646-.2.177-.377.382-.56.578-.084.106-.196.196-.257.317-.168.17-.308.371-.446.57-.098.139-.213.275-.285.429a8.1 8.1 0 0 0-.73 1.31c-.059.05-.084.126-.114.196-.04.098-.1.189-.103.299a6.1 6.1 0 0 0-.264.717 1.1 1.1 0 0 0-.14.45.873.873 0 0 0-.033.125c-.055.07-.064.163-.084.248-.02.11-.063.216-.057.33l-.002.014c-.083.1-.07.249-.08.374a.943.943 0 0 0-.03.168c-.068.164-.078.351-.077.531l-.004.022c-.05.124-.041.264-.063.395-.082.661-.083 1.33-.072 1.995.003.43.033.858.089 1.284.012.095.013.195.047.285l.009.05c-.005.223.028.444.099.654l.003.019c.008.14.006.293.079.415.053.306.126.607.217.902.008.12.04.238.092.345v-.03c.032.146.076.29.133.428a.75.75 0 0 0 .133.372l.009.023a.39.39 0 0 0 .101.258 10.586 10.586 0 0 0 1.672 2.872c.403.475.837.917 1.301 1.322.248.204.515.412.835.455.15.015.331-.043.396-.202.087-.094.069-.244.07-.366-.013-.123-.003-.262-.072-.367a1.006 1.006 0 0 0-.036-.164c-.015-.156-.034-.319-.111-.454-.083-.36-.175-.718-.286-1.068-.012-.13-.034-.268-.109-.375a15.98 15.98 0 0 0-.263-.91 1.593 1.593 0 0 0-.14-.487l-.005-.02a1.6 1.6 0 0 0-.136-.493 2.27 2.27 0 0 0-.072-.282c-.04-.207-.066-.426-.153-.618a1.13 1.13 0 0 0-.03-.13 1.571 1.571 0 0 0-.102-.494 1.548 1.548 0 0 0-.04-.211c-.011-.154-.01-.32-.077-.459a13.436 13.436 0 0 1-.116-2.44c.044-.199.022-.413.055-.617.033-.278.076-.555.131-.829l-.025-.03.025.02c.043-.278.125-.548.181-.823.083-.271.182-.54.254-.813a.95.95 0 0 0 .073-.15c.134-.366.306-.715.481-1.061.199-.366.424-.715.675-1.042l-.003-.018c.073-.078.142-.16.207-.245.193-.245.416-.46.627-.685.415-.377.845-.737 1.316-1.031v-.011c.185-.1.36-.219.544-.317a9.555 9.555 0 0 1 2.436-.937c1.175-.279 2.402-.339 3.588-.098.69.12 1.353.357 2 .629.36.177.717.362 1.067.561v.008c.483.297.945.632 1.383 1.002v.009c.304.264.592.549.862.853.258.296.492.616.725.937.042.14.175.257.318.216.117-.048.199-.156.29-.245v-.007c.212-.17.402-.368.613-.54v-.01c.1-.073.198-.152.29-.237.095-.076.197-.144.285-.229.036-.025.072-.052.105-.082.135-.062.257-.154.358-.27.179-.104.345-.234.519-.347.115-.03.244-.091.31-.198.091-.048.18-.102.265-.162a.47.47 0 0 0 .248-.143c.104-.045.205-.1.301-.162a.35.35 0 0 0 .234-.121c.106-.044.21-.094.31-.15a.654.654 0 0 0 .343-.156l.018-.01a.448.448 0 0 0 .236-.097l.054-.02a.834.834 0 0 0 .345-.136l.067-.023a.518.518 0 0 0 .264-.098c.175-.048.348-.107.52-.166a.876.876 0 0 0 .387-.11l.019-.005c.166-.017.34-.039.492-.117.066-.01.131-.025.197-.041.193-.005.384-.04.567-.105.113-.012.226-.03.338-.053.199.013.395-.032.593-.042.229-.048.464-.011.692-.066.323-.007.647-.007.972 0 .156.043.318.028.478.04.205.022.411.05.617.06.085.002.149-.068.186-.143.052-.127.023-.297-.101-.36a8.883 8.883 0 0 0-1.64-.853.841.841 0 0 0-.382-.145l-.02-.008c-.09-.093-.226-.103-.343-.113a1 1 0 0 0-.16-.047.887.887 0 0 0-.424-.108 1.137 1.137 0 0 0-.187-.039.963.963 0 0 0-.462-.078l-.017-.003c-.285-.078-.586-.063-.878-.1-.355-.017-.71.001-1.062.056a2.652 2.652 0 0 0-.376.048 1.593 1.593 0 0 0-.6.11l-.022.004a1.027 1.027 0 0 0-.455.117l-.017.006c-.169.018-.333.07-.486.15l-.021.007a.602.602 0 0 0-.283.087l.03.01a.61.61 0 0 0-.145.053.398.398 0 0 0-.268.117l-.02.008a.59.59 0 0 0-.306.146l-.022.009a.341.341 0 0 0-.234.117c-.429.218-.84.474-1.23.765-.062.04-.121.083-.177.132a4.26 4.26 0 0 0-.269.211 7.404 7.404 0 0 0-.45.389c-.142.117-.28.336-.486.234a.903.903 0 0 1-.095-.115 7.743 7.743 0 0 0-1.064-1.404 8.191 8.191 0 0 0-1.653-1.363C16.517.97 15.255.517 13.965.262c-1.34-.254-2.718-.35-4.072-.167" fill="#fff"/>
    <path d="M11.355 8.629a11.914 11.914 0 0 1 3.297-.408c1.053-.003 2.147.222 3.034.863.659.469 1.162 1.166 1.465 1.945.25.616.379 1.279.454 1.944.097 1.071.064 2.169-.209 3.21-.185.728-.488 1.431-.933 2.02-.41.552-.94.985-1.543 1.26-.823.386-1.742.447-2.627.38-.52-.011-1.035-.104-1.544-.216v4.039c.013.168-.102.333-.267.327-.739.015-1.478 0-2.218.006-.132-.003-.277.015-.393-.067-.102-.076-.131-.22-.13-.345V9.736a.68.68 0 0 1 .08-.352.617.617 0 0 1 .245-.249c.403-.234.85-.37 1.29-.505l-.001-.001zm1.857 2.446c-.153.03-.302.084-.456.103-.014 1.905 0 3.811-.007 5.717.668.18 1.361.256 2.048.183.148-.03.294-.074.435-.132.447-.183.799-.582.989-1.05.257-.594.302-1.26.322-1.905-.022-.723-.066-1.49-.436-2.118-.273-.482-.776-.768-1.286-.845-.534-.106-1.079-.039-1.61.046v.001zM24.564 8.23c.532-.01 1.068-.033 1.596.045a4.832 4.832 0 0 1 1.753.544 3.997 3.997 0 0 1 1.427 1.322c.661 1.014.914 2.273.948 3.495.05 1.168-.094 2.362-.54 3.436-.383.944-1.042 1.774-1.9 2.25-.893.506-1.932.6-2.925.52-.518-.007-1.027-.113-1.535-.212 0 1.365.006 2.735-.003 4.103.009.179-.167.277-.313.263-.774.006-1.55.004-2.322 0-.135.006-.29-.06-.332-.211-.037-.127-.018-.263-.023-.394V9.735c-.003-.154.024-.322.126-.437.166-.195.404-.281.626-.378 1.091-.442 2.257-.624 3.416-.691v.001zm-.386 2.797a3.19 3.19 0 0 0-.792.177c.009 1.893.003 3.788.003 5.681a5.422 5.422 0 0 0 2.04.192 1.89 1.89 0 0 0 .838-.363c.309-.234.52-.59.66-.963.253-.724.283-1.512.245-2.277-.042-.48-.11-.968-.311-1.404a1.749 1.749 0 0 0-.858-.883c-.575-.255-1.218-.245-1.825-.156v-.004z" fill="#fff"/>
</svg>
