<svg width="32" height="32" viewBox="0 0 32 32" fill="none" xmlns="http://www.w3.org/2000/svg">
    <path fill="#BFCD16" d="M0 0h32v32H0z"/>
    <path d="M27.71 30.084c.685-.1 1.27-.238 1.39-.327.122-.089.417-2.225.32-2.32-.044-.045-.163-.023-.44.082a5.607 5.607 0 0 1-1.638.374c-1.621.154-2.686-.371-3.088-1.524-.138-.394-.139-1.58-.002-2.093.335-1.26 1.206-2.148 2.437-2.485.268-.074.565-.097 1.216-.096.925.002 1.258.06 1.911.337.187.079.406.156.487.171.165.031.117.14.548-1.25.126-.408.221-.795.212-.862-.056-.39-2.79-.801-4.357-.654-1.626.153-2.867.664-3.844 1.584-.539.508-.867.945-1.175 1.566-.735 1.479-.804 3.478-.17 4.892.519 1.156 1.577 2.054 2.873 2.44.835.247 2.28.32 3.32.165zm-23.382-.153c.032-.038.21-.795.399-1.681.187-.887.353-1.653.368-1.702.024-.079.18-.095 1.179-.12 1.375-.035 1.81-.123 2.657-.541.94-.465 1.53-1.102 1.87-2.02.141-.381.172-.558.195-1.12.044-1.043-.126-1.605-.654-2.163-.456-.483-1.174-.78-2.227-.922-.226-.03-1.287-.07-2.357-.089-1.615-.027-1.962-.02-2.046.044-.078.06-.261.822-.813 3.383-1.34 6.219-1.464 6.822-1.43 6.911.03.079.198.09 1.419.09 1.04 0 1.398-.018 1.44-.07zm1.266-5.783c.02-.079.14-.639.267-1.244l.23-1.101.612-.015c.544-.014.639-.002.858.11.36.186.468.364.494.819.027.48-.055.733-.336 1.038-.32.348-.688.472-1.505.508l-.656.029.036-.144zm7.909 5.755c.028-.053.223-.954.432-2l.382-1.904.444.003c.627.005.807.077.953.386.065.138.258.946.431 1.806.173.856.338 1.613.367 1.682l.054.126 1.404-.014 1.404-.015.016-.14c.02-.182-.776-3.609-.929-3.993-.131-.331-.424-.786-.506-.786-.03 0-.053-.022-.053-.05 0-.027.175-.092.389-.145.82-.2 1.55-.688 1.847-1.234.557-1.023.383-2.472-.383-3.188-.601-.562-1.31-.754-3.081-.834-1.665-.075-3.874-.049-3.933.047-.024.039-.426 1.89-.894 4.113-1.352 6.43-1.284 6.084-1.217 6.164.047.057.37.073 1.441.073 1.258 0 1.385-.008 1.432-.097zm1.286-6.132c0-.066.273-1.472.363-1.87.028-.123.044-.126.85-.126.741 0 .844.012 1.064.125.576.296.607 1.114.058 1.55-.274.217-.744.324-1.598.364-.612.029-.737.021-.737-.043zM26.785 8.027c.078-.077.209-.096.462-.067.31.036.375.018.528-.146.156-.167.202-.179.445-.112.149.042.428.054.62.029.326-.043.355-.034.396.133.064.252.25.3.475.122a.82.82 0 0 1 .478-.15c.353 0 .478-.166.553-.737l.053-.4-.449-.422c-.247-.232-.47-.495-.497-.585-.05-.167-.707-.547-.945-.547a.337.337 0 0 1-.222-.115c-.052-.064-.15-.105-.215-.091a.218.218 0 0 1-.193-.067c-.042-.05-.445-.15-.898-.22-.763-.118-1.197-.292-.954-.382.05-.019.168-.095.26-.17.255-.206.117-.53-.28-.66-.591-.192-.932-.395-.932-.555 0-.227-.49-.656-.749-.656-.118 0-.235-.034-.26-.075-.07-.111-.306-.09-.412.037-.066.08-.172.099-.37.067-.205-.033-.366 0-.609.121-.194.098-.448.16-.618.154-.158-.007-.367.04-.464.104a.701.701 0 0 1-.294.115.186.186 0 0 0-.16.112c-.024.062-.093.113-.155.113-.163 0-.545.291-.545.416 0 .059-.067.107-.15.107-.082 0-.15-.046-.15-.103 0-.057-.05-.145-.111-.196-.14-.116-.145-.224-.012-.224.055 0 .161-.068.236-.15.096-.106.23-.15.46-.15.332 0 .449-.145.221-.276a.332.332 0 0 1-.13-.202c-.016-.078-.119-.209-.23-.292-.198-.148-.206-.148-.56-.011-.276.107-.525.135-1.07.122-.47-.012-.763.015-.868.078-.705.425-.769.445-.998.31-.15-.089-.248-.106-.316-.055-.054.04-.3.08-.547.09-.247.01-.533.046-.635.081-.89.309-1.091.338-2.349.334l-1.264-.003-.16-.2c-.174-.22-.31-.245-.598-.113-.148.067-.236.065-.396-.012-.113-.054-.509-.123-.879-.154s-.747-.08-.837-.109c-.133-.042-.193-.005-.31.188-.08.132-.25.302-.376.38-.282.17-.375.47-.205.657.126.14.154.695.054 1.056-.063.227-.274.286-.324.092-.02-.077-.227-.247-.459-.378l-.422-.238-.281.177a2.087 2.087 0 0 0-.383.3c-.08.097-.213.12-.6.104-.561-.021-.904.13-.904.401 0 .085-.067.24-.149.344a1.62 1.62 0 0 0-.229.486c-.064.239-.104.284-.206.237-.07-.032-.26-.055-.425-.05-.165.006-.454.011-.643.012-.405.003-.493.088-.581.558-.036.191-.108.399-.16.462-.078.093-.078.177-.004.43.05.174.14.392.2.485l.107.168h11.743c10.16 0 11.757-.015 11.851-.109z" fill="#fff"/>
    <path d="M15.178 17.276c-.187-.2-.19-.22-.115-.752.055-.392.053-.569-.006-.628-.115-.115-.314.058-.314.274 0 .098-.123.28-.299.443-.164.152-.299.342-.299.423 0 .115-.051.146-.243.146-.193 0-.27-.048-.374-.23-.072-.127-.13-.292-.13-.368 0-.169-.117-.215-.424-.168-.207.032-.28-.009-.572-.323-.184-.198-.32-.397-.303-.442.043-.114.463-.263.596-.212.12.046.403-.172.403-.311 0-.049-.085-.168-.19-.266-.203-.191-.139-.198-.85.091-.373.152-.451.014-.42-.746.015-.356-.005-.707-.044-.78-.046-.087-.042-.24.011-.44.075-.277.067-.325-.081-.483-.158-.167-.937-.48-1.195-.48-.23 0-.485-.411-.718-1.152-.112-.356-.192-.474-.416-.615-.153-.097-.314-.243-.358-.326-.103-.193-.313-.193-.487-.001-.153.17-.32.187-.592.063-.163-.074-.232-.057-.507.125-.38.252-.382.252-.804.047-.283-.138-.371-.15-.584-.08-.275.092-.683.04-1.002-.125-.157-.08-.247-.086-.386-.023-.26.119-.532-.033-.462-.257.106-.334.077-.455-.13-.556-.154-.075-.206-.154-.206-.316 0-.148-.077-.29-.243-.444l-.243-.228h11.426c7.598 0 11.41.024 11.38.074-.026.041-.11.075-.188.075-.203 0-.523.158-.523.258 0 .047.04.125.088.174.068.067.067.228-.004.691-.07.461-.072.666-.007.865.134.405.06.5-.358.458-.628-.064-1.37-.302-1.812-.583a5.094 5.094 0 0 0-.419-.212c-.211-.097-.369-.247-.508-.485-.11-.19-.244-.344-.296-.344-.053 0-.329.246-.614.547-.285.3-.687.643-.893.76a3.95 3.95 0 0 0-.575.397c-.16.147-.244.173-.41.129a3.24 3.24 0 0 0-.585-.066c-.371-.01-.374-.008-.355.214.01.129-.04.3-.12.402-.115.149-.162.164-.293.093-.23-.122-.454-.103-.875.076-.45.19-1.04.839-1.405 1.542l-.242.467.15.28c.145.27.165.28.524.27.735-.024 1.083-.151 1.083-.398 0-.104.272-.301.416-.301.07 0 .332.489.332.618 0 .073-.078.163-.174.2a.734.734 0 0 0-.293.247c-.09.138-.17.175-.33.152-.188-.026-.229.007-.357.292-.08.178-.157.342-.17.366-.026.044.31.218.422.218.035 0 .085-.12.113-.265.066-.354.225-.4.49-.146.167.16.217.277.221.515l.011.636c.005.266-.034.367-.207.537-.316.312-.552.343-.83.11l-.231-.195-.232.288c-.19.238-.269.283-.445.257-.117-.017-.236.006-.264.05-.097.157-.457.089-.654-.123zm12.21-7.283c-.185-.527-.024-1.035.327-1.035.137 0 .197.06.266.27.096.292.056.727-.083.895-.161.194-.421.128-.51-.13z" fill="#C90B3A"/>
</svg>
