<svg width="40" height="15" viewBox="0 0 40 15" fill="none" xmlns="http://www.w3.org/2000/svg">
    <path d="M9.05 4.768C9.05 1.39 7.22.234 4.724.234H0v14.541h3.278V9.49h1.208c2.68 0 4.564-1.288 4.564-4.72zm-3.328.071c0 1.311-.4 1.826-1.345 1.826H3.278V3.058H4.4c.96 0 1.322.496 1.322 1.781M19.003 10.713c0-2.415-1.049-3.625-3.862-4.899-1.422-.663-1.78-1.08-1.78-1.874a1.029 1.029 0 0 1 .278-.743.923.923 0 0 1 .714-.292c.893 0 1.227.372 2.19 1.566l2.323-2.17c-1.18-1.486-2.248-2.3-4.399-2.3-2.68 0-4.338 1.858-4.338 4.227 0 2.31 1.02 3.401 3.81 4.666 1.55.72 1.786 1.217 1.786 2.023s-.5 1.165-1.199 1.165c-.698 0-1.443-.61-2.369-1.752l-2.292 2.134c1.16 1.6 2.415 2.536 4.602 2.536 2.601 0 4.536-1.566 4.536-4.287M30.047 7.48c0-5.12-1.872-7.48-4.986-7.48S20.03 2.406 20.03 7.512c0 5.146 1.85 7.488 4.966 7.488 3.166 0 5.052-2.394 5.052-7.52zm-3.437.032c0 3.53-.509 4.486-1.549 4.486s-1.583-1.01-1.583-4.517c0-3.508.492-4.505 1.553-4.505s1.58 1.036 1.58 4.536zM40 14.775V11.8h-4.997V8.634h3.18V5.701h-3.18V3.204h4.87V.234h-8.187v14.541H40z" fill="#fff"/>
</svg>
