<svg width="32" height="32" viewBox="0 0 32 32" fill="none" xmlns="http://www.w3.org/2000/svg">
    <path d="m17.461 1.018.046.06.005.02.03.077.045.088.036.047.088.097.098.094.05.042.05.04.097.079.047.042.078.093.034.097-.007.05-.058.095-.092.087-.05.036-.1.052-.05.016-.099.01-.05-.009-.049-.013-.1-.054-.099-.079-.099-.09-.1-.076-.099-.048-.05-.009-.099.005-.1.027-.099.034-.05.02-.099.059-.095.084-.08.096-.06.097-.024.049-.026.049-.043.097-.036.097-.017.05-.027.097-.01.097.002.097-.002.048-.008.088v.078l.007.04.01.043.043.093.074.096.045.046.098.081.1.07.099.067.05.037.1.069.097.062.047.031.08.077.03.042.03.038.013.026.05.038-.025.097-.008.027.033.07-.058.038-.014.026-.029.04-.025.044-.059.092-.075.081-.042.035-.096.064-.05.026-.099.038-.05.009-.099-.01-.1-.036-.099-.046-.05-.023-.099-.055-.05-.03-.049-.029-.1-.044-.099-.02-.05-.003-.05-.002-.098.004-.05.008-.05.011-.1.04-.099.058-.099.078-.095.094-.083.097-.066.097-.053.095-.029.049-.014.027-.058.073.01.1v.14l.002.042.008.078.007.04.014.089.004.047-.002.049-.01.048-.05.098-.038.047-.094.083-.05.03-.099.025-.1-.01-.049-.014-.1-.034-.049-.02-.1-.04-.049-.017-.1-.034-.049-.016-.1-.029-.099-.012-.1.011-.049.012-.05.012-.099.04-.05.03-.099.072-.05.04-.1.074-.098.068-.1.047-.1.02-.049.002-.05-.002-.099-.016-.1-.032-.05-.023-.098-.053-.1-.057-.05-.028-.099-.064-.1-.07-.049-.034-.05-.035-.1-.058-.049-.023-.05-.026-.05-.02-.049-.022-.1-.038-.099-.04-.05-.02-.099-.035-.05-.016-.099-.032-.05-.017-.099-.032-.05-.016-.099-.032-.05-.013-.099-.018-.05-.005-.05-.008-.05-.008-.049-.011-.1-.015-.049-.003-.05-.001h-.199l-.097.003-.09.006-.041.006-.04.004-.083.013-.096.014-.05.005-.099.018-.05.013-.049.015-.1.033-.099.032-.1.034-.049.02-.1.046-.049.027-.1.053-.049.027-.1.064-.049.035-.1.068-.099.065-.1.065-.148.097-.1.065-.05.034-.049.035-.1.081-.099.09-.05.042-.099.078-.098.083-.047.046-.084.096-.039.048-.082.098-.045.048-.082.097-.038.046-.074.082-.039.037-.079.071-.042.034-.096.049-.095.026-.043.005-.076.007-.034-.002-.035-.004-.075-.021-.043-.016-.096-.028-.05-.012-.099-.03-.099-.028-.1-.016-.099-.004-.1.004-.099.015-.099.019-.1.01-.099.011-.05.01-.05.013-.098.03-.05.015-.1.03-.099.042-.1.054-.049.028-.097.045-.077.019-.074-.004.002.06-.03.059-.07.08-.082.093-.037.049-.037.048-.065.098-.054.097-.025.049-.046.097-.034.098-.012.049-.014.048-.011.05-.013.048-.014.097v.048l.002.046.003.042.01.078.006.04.014.089.006.047.002.097-.002.049-.017.097-.035.098-.059.097-.04.048-.094.086-.05.038-.05.03-.049.028-.1.041-.095.024-.042.006-.08.01-.085.014-.095.012-.05.003-.099.003-.05.002-.099.015-.05.012-.099.025-.05.01-.05.014-.05.011-.098.028-.098.041-.047.028-.043.03-.042.038-.038.04-.079.094-.069.098-.026.048-.035.098-.018.097-.005.049-.015.097-.009.049v.097l.009.05.013.096.007.097.007.088.006.04.004.038.018.082.032.094.02.049.04.097.039.098.04.097.02.049.019.048.018.05.016.048.033.097.017.049.036.097.02.05.02.048.022.049.02.048.024.049.047.097.046.098.05.097.027.049.048.097.035.098.01.049.012.048.008.098-.008.097-.025.098-.02.048-.02.049-.05.097-.029.05-.026.048-.05.097-.026.098-.005.097V14.22l.005.049.03.097.07.098.092.097.047.049.083.097.036.05.063.096.026.05.022.047.027.088.004.078-.003.04-.017.089-.013.047-.021.049-.024.048-.052.098-.023.048-.02.05-.034.097-.027.096-.01.088v.04l-.006.079-.004.042-.003.093v.049l.001.097.003.049.015.097.011.05.016.097.002.048.006.098.007.048.02.098.011.048.014.05.011.048.013.049.015.094.004.076v.073l-.087.04-.026.01-.036.048-.075-.04-.027-.01-.05-.02-.096-.052-.1-.073-.1-.073-.099-.049-.05-.012-.049-.008-.1-.004-.099.004-.1.015-.099.023-.05.015-.049.013-.05.02-.099.045-.05.023-.095.06-.08.078-.03.046-.03.047-.04.098-.015.049-.027.094-.03.1.057.073.014.027.03.05.023.045.05.098.053.097.03.049.06.097.04.098.01.048.002.098-.004.049-.01.097-.016.097-.011.05-.035.097-.048.097-.029.049-.027.048-.064.098-.039.049-.041.048-.095.098-.05.047-.1.087-.099.063-.05.022-.099.024-.05.01-.099.025-.1.045-.049.033-.094.084-.069.096-.034.097-.01.049L0 20.21v.049l.004.048.011.098.004.097.004.098.016.097.015.098.001.048-.01.094-.006.042-.004.04-.006.038-.003.04-.004.043-.003.093v.049l.004.097.007.049.024.097.016.05.04.095.051.088.03.04.08.068.096.068.1.072.05.038.049.036.095.083.08.093.06.098.02.048.02.049.015.097-.011.098-.013.049-.025.097-.012.049-.03.097-.017.049-.033.097-.015.049-.014.049-.017.097-.002.098.01.097.024.097.018.05.05.095.032.046.034.042.04.04.09.063.098.04.1.013.099.001H1.41l.1-.004.098-.015.1-.023.05-.013.05-.011.049-.014.1-.024.049-.01.05-.014.05-.011.05-.014.098-.023.05-.01.1-.018.05-.01.049-.01.1-.015.097-.007.09-.006.041-.002.08.005.043.007.096.019.05.013.099.036.05.023.049.025.1.063.099.074.048.042.047.046.08.096.06.097.026.05.059.097.069.097.036.049.063.097.032.049.08.096.047.046.098.078.05.03.1.05.049.022.1.034.049.013.1.016.099.005h.05l.099-.002.05-.003.099-.014.05-.011.099-.015.05-.003h.099l.05.003.1.016.049.014.1.035.099.053.05.036.049.04.1.094.095.098.041.048.039.049.063.097.03.05.06.097.027.048.03.049.05.097.02.05.044.096.046.098.022.049.034.097.014.049.015.049.03.097.013.049.007.048v.046l-.007.05-.028.1.046.025.005.019.016.028.016.078.013.093.002.049.003.097.001.047.005.046.002.042.01.079.007.04.014.088.01.096.004.05.016.097.014.048.034.098.021.048.02.05.042.097.051.097.03.049.032.048.067.098.066.097.07.098.04.048.09.098.048.049.1.097.1.097.049.048.05.046.099.082.1.073.099.064.05.027.05.026.098.044.1.034.05.012.05.013.099.019.099.017.05.008h.1l.049-.008.1-.015.049-.005.1-.018.099-.03.05-.017.049-.02.05-.02.05-.02.099-.034.05-.013.099-.016.1-.004h.049l.1.001.049.003.1.015.049.01.05.01.1.019.049.01.1.03.099.04.05.02.049.024.1.044.049.02.1.046.099.045.1.036.049.016.05.015.05.015.049.012.1.026.099.029.05.012.099.01H11.697l.05.006.099-.001.05-.009.099-.017.1-.02.099-.029.05-.015.05-.015.098-.025.05-.012.05-.015.05-.015.099-.029.05-.01.05-.006c.049-.003.099-.005.149-.004l.099.004.1.016.049.014.1.034.049.02.1.04.099.037.1.042.049.026.05.023.05.03.099.063.05.034.095.074.082.083.067.093.05.098.017.048.014.05.007.048-.003.095v.048l-.005.027.023.073-.062.038-.02.026-.034.04-.029.044-.05.096-.033.097-.008.05-.004.048.011.097.012.049.013.049.036.097.025.049.065.093.082.079.096.06.05.022.049.026.05.02.05.022.099.035.05.016.099.033.1.032.098.029.1.016.1.004.099-.001.05-.003.099-.015.05-.012.099-.024.05-.013.05-.014.099-.032.099-.034.05-.017.099-.042.05-.026.05-.023.099-.06.05-.037.099-.083.095-.08.08-.08.032-.041.063-.094.067-.097.03-.049.046-.097.036-.098.017-.048.021-.05.02-.048.02-.049.032-.096.018-.088.004-.04.005-.038.007-.083.002-.046.001-.047V30.1l-.001-.049-.002-.047-.004-.046-.003-.042-.01-.078-.017-.083-.014-.046-.027-.096-.021-.097-.024-.098-.036-.097-.02-.049-.039-.097-.043-.098-.025-.049-.042-.097-.035-.097-.014-.05-.019-.095-.007-.046-.008-.081-.002-.07.006-.069.007-.08.007-.094.016-.097.014-.05.032-.097.034-.097.018-.049.043-.097.026-.049.024-.049.06-.097.04-.049.088-.097.048-.049.1-.092.099-.073.05-.028.099-.05.1-.045.049-.018.1-.02.098.005.05.011.05.011.05.014.05.01.049.014.1.023.095.017.042.007.042.004.039.006.084.003.095-.014.05-.015.05-.017.099-.045.1-.05.049-.029.1-.073.099-.092.093-.097.074-.098.026-.048.036-.098.024-.097.014-.098v-.048l-.01-.098-.009-.049-.025-.096-.048-.087-.035-.041-.073-.079-.074-.087-.07-.097-.048-.097-.012-.049-.006-.097.009-.049.036-.097.05-.098.027-.049.065-.097.036-.049.064-.097.054-.098.05-.097.023-.049.024-.048.02-.049.042-.098.02-.048.019-.049.018-.049.033-.097.015-.049.015-.049.026-.097.011-.049.013-.048.01-.049.019-.098.01-.048.023-.098.014-.048.01-.049.015-.049.01-.048.027-.098.015-.049.032-.097.016-.049.038-.097.053-.098.08-.097.046-.049.098-.097.1-.096.05-.045.099-.068.099-.03.1-.005.099.004.099.02.05.018.05.02.05.025.098.047.05.02.05.022.1.035.049.017.05.016.099.028.1.017.05.002.049.002.1-.005.099-.014.05-.013.099-.024.099-.027.1-.034.05-.021.049-.022.05-.029.05-.03.094-.078.08-.093.06-.098.02-.048.021-.049.014-.049.014-.049.018-.093.007-.042.004-.04.008-.079.004-.042.002-.046.001-.096.001-.097.003-.049.014-.098.01-.047.008-.088-.002-.039v-.035l.002-.068.005-.035.006-.04.022-.087.015-.048.032-.097.034-.098.02-.048.048-.098.028-.048.026-.049.056-.098.075-.097.094-.097.1-.098.198-.195.1-.097.097-.098.089-.097.037-.049.054-.097.04-.098.04-.097.02-.049.037-.097.016-.049.032-.097.014-.049.016-.097.004-.098V18.506l-.004-.097-.008-.05-.012-.048-.046-.097-.03-.049-.07-.093-.082-.083-.096-.078-.05-.042-.094-.094-.08-.097-.049-.098-.02-.097-.002-.049.002-.048.019-.098.02-.049.047-.097.06-.096.032-.046.066-.082.033-.038.066-.083.065-.093.054-.098.02-.049.026-.097.013-.097.004-.094.002-.042v-.04l.003-.037v-.073l-.003-.036v-.034l-.002-.034-.004-.07-.013-.08-.009-.045-.01-.045-.006-.078.01-.072-.059-.073-.012-.027-.028-.049-.02-.046-.054-.097-.064-.095-.027-.048-.017-.028-.018-.073-.074-.033-.078-.045-.096-.045-.05-.016-.097-.038-.027-.01-.075-.056-.083.005-.074-.015-.043-.005-.025-.007-.073.022-.039-.057-.026-.012-.04-.027-.045-.02-.098-.055-.049-.036-.047-.04-.074-.09-.039-.083-.016-.078-.017-.088-.01-.047-.01-.098v-.097l.003-.05.028-.097.051-.097.032-.047.069-.087.04-.038.09-.058.098-.04.05-.014.099-.026.1-.016.098.005.1.018.1.005.049-.005.1-.02.099-.026.05-.015.099-.046.1-.062.095-.075.08-.088.063-.096.028-.048.029-.05.05-.097.021-.048.05-.098.054-.097.052-.098.028-.048.066-.098.083-.096.047-.046.098-.078.1-.058.05-.02.049-.02.1-.019.049-.002.1-.002h.049l.1.004.049.007.05.01.099.028.05.016.05.017.099.036.05.023.099.054.05.03.099.058.05.029.099.06.05.027.1.059.049.03.1.054.049.023.1.036.049.016.1.031.049.015.05.013.1.024.049.012.1.015.049.003.05.001.099-.004.1-.019.049-.018.05-.017.1-.04.049-.018.1-.044.099-.058.05-.038.049-.039.1-.084.049-.04.1-.068.05-.033.099-.06.099-.05.05-.017.05-.015.099-.016.099-.004h.05l.1.004.098.016.05.014.1.034.099.038.05.017.099.02.1.003h.099l.1-.004.049-.007.05-.01.05-.013.099-.034.099-.041.05-.026.05-.023.099-.058.05-.036.099-.07.05-.034.099-.067.05-.036.05-.039.099-.088.05-.046.049-.046.1-.082.05-.038.098-.081.05-.044.1-.08.05-.039.099-.082.099-.094.048-.048.047-.05.083-.096.07-.098.065-.097.03-.05.052-.097.02-.048.023-.049.019-.049.02-.048.035-.098.014-.049.018-.097.005-.049.017-.097.017-.096.002-.088-.003-.04-.002-.068-.002-.034-.002-.035-.013-.082-.012-.093-.003-.049-.003-.097-.003-.049-.015-.097-.023-.098-.014-.048-.012-.05-.015-.048-.032-.097-.038-.098-.048-.097-.028-.049-.048-.097-.02-.049-.03-.097-.01-.05-.02-.097-.01-.048-.01-.049-.014-.097v-.05l.015-.097.014-.048.016-.049.02-.049.048-.097.027-.049.054-.097.028-.049.063-.097.035-.05.06-.097.049-.097.02-.049.023-.048.031-.096.01-.046L32 6.63v-.079l-.008-.082-.002-.046V6.279l-.012-.096-.01-.046-.012-.083-.006-.038-.019-.078-.02-.079-.02-.078-.033-.088-.025-.048-.022-.048-.028-.049-.05-.097-.023-.05-.06-.097-.08-.097-.048-.049-.098-.097-.099-.093-.1-.082-.099-.067-.05-.031-.099-.055-.05-.021-.05-.022-.049-.017-.1-.032-.049-.012-.1-.024-.049-.012-.1-.015-.05-.003-.098-.001-.1.001-.05.003-.099.015-.05.012-.05.01-.049.014-.05.011-.05.012-.099.015-.098.007-.09.005-.04.003-.081-.004-.043-.005-.047-.005-.098-.016-.05-.012-.05-.01-.099-.026-.05-.015-.049-.015-.1-.029-.099-.017-.05-.006-.099-.015-.05-.008-.099.002-.1.024-.098.034-.05.019-.1.049-.095.064-.083.082-.036.046-.064.096-.03.048-.031.05-.032.048-.08.096-.047.046-.098.078-.1.059-.099.039-.05.01-.099.01-.1-.013-.049-.02-.05-.029-.099-.083-.095-.096-.041-.048-.04-.05-.058-.097-.045-.097-.038-.097-.04-.098-.021-.049-.039-.097-.04-.097-.02-.05-.018-.048-.036-.097-.02-.049-.048-.097-.028-.05-.05-.097-.021-.048-.051-.098-.065-.097-.038-.049-.035-.047-.076-.088-.084-.075-.047-.032-.049-.03-.1-.046-.099-.03-.05-.01-.049-.013-.1-.014h-.099l-.05.006-.05.008-.098.02-.1.013-.1.02-.049.018-.1.035-.099.028-.05.011-.05.012-.099.015-.05.003-.099.001-.099-.001-.05-.003-.099-.016-.05-.015-.05-.017-.099-.05-.1-.064-.049-.04-.1-.087-.047-.048-.047-.048-.08-.098-.054-.097-.024-.049-.06-.097-.086-.098-.098-.097-.1-.092-.05-.04-.049-.032-.05-.026-.099-.035-.05-.012-.1-.024-.049-.013-.1-.014h-.098l-.1.016-.1.03-.049.018-.1.048-.05.027-.098.049-.1.043-.05.02-.05.026-.049.022-.05.025-.099.042-.1.034-.049.014-.1.016-.05.003-.099-.003-.099-.02-.1-.038-.049-.029-.05-.03-.099-.078-.048-.046-.089-.096-.037-.049-.054-.097-.037-.098-.017-.048-.036-.098-.038-.097-.018-.049-.012-.049-.021-.097-.01-.049-.023-.097-.014-.049-.013-.049-.031-.097-.04-.098-.021-.048-.026-.049-.024-.049-.06-.097-.04-.049-.04-.049-.096-.097-.05-.049-.099-.097-.199-.195-.099-.097-.05-.05-.05-.046-.05-.045-.099-.072-.099-.046-.1-.034-.099-.028L18.604 0h-.05l-.1.014-.049.012-.1.025-.049.014-.1.04-.049.025-.1.049-.048.023-.09.058-.04.035-.035.034-.065.074-.057.083-.023.046-.026.047-.021.049-.022.049-.036.097-.017.049-.016.046-.017.048-.01.028-.023.073zm-.348 2.679-.05.049.05-.05zm-6.609 2.582-.05.048.05-.048zm1.54 1.9v4.92l-.049.049h-.249l-.099-.002-.047-.001-.05-.01-.027-.001-.075-.035.03-.1.01-.05.006-.045.004-.098v-.194l-.004-.098-.006-.048-.013-.098-.006-.049-.004-.093-.001-.042-.002-.04-.004-.039-.007-.082-.003-.093.003-.098.004-.049.002-.048.002-.049-.002-.049-.002-.048-.002-.096.005-.088.006-.041.004-.038.007-.04.01-.088-.006-.097-.007-.048-.004-.098.001-.097-.001-.049v-.097l.002-.049.003-.097-.001-.098-.002-.049-.002-.048.004-.098.015-.097.007-.049.003-.049.001-.097V9.834l-.004-.097-.015-.097-.017-.097-.004-.098.001-.049-.001-.048V9.202l.001-.05-.001-.048v-.097l.001-.098-.002-.048-.002-.05-.002-.095.004-.088.004-.04-.002-.039.003-.04-.003-.042.002-.046-.004-.048-.002-.046-.005-.075-.002-.073.075-.004.028-.006.096-.01.1-.005.099.002.047.002.077.01.075.01zm5.467-.05.05.05v.73h-.547l.008-.069.003-.06-.002-.036v-.078l.002-.079-.003-.038-.005-.082-.003-.094V8.13h.497zm4.571 0v.101l.005.095.01.097.005.049-.004.097-.011.098-.005.097v1.364l-.001.049-.001.047-.007.088-.006.04-.004.039-.007.04-.014.088-.005.048-.004.097V11.686l-.002.049-.001.046-.01.048-.001.028-.036.073-.102-.029-.097-.016-.047-.003-.05-.001h-.102l-.012-.073-.018-.076-.012-.095.001-.048.003-.098-.002-.048v-.098l.002-.097-.004-.098-.004-.049-.003-.097V9.737l-.002-.097-.002-.049-.013-.096-.014-.088-.006-.077v-.038l-.002-.035.002-.038-.005-.036-.005-.083-.002-.046V8.13h.101l.097.003.1.005.049.004.048-.001.047.002.08-.002.073-.011zm-16.15.098-.028.1-.01.05-.007.045-.004.095V8.666h-.447v3.653l.004.098.01.097.005.049v.049l-.01.097-.005.049-.004.097v.098l-.003.094-.01.05-.001.026-.036.073-.075-.004-.027-.007-.097-.014-.05-.002-.05.002-.096.014-.027.007-.075.004-.05-.048.003-.072.004-.025.003-.042.006-.071v-.068l-.002-.035.008-.081.01-.046.01-.096-.008-.096-.014-.088-.004-.041-.005-.038v-.352l-.002-.038-.003-.082.003-.046.002-.096-.004-.098-.004-.048-.001-.05-.002-.096.003-.097.004-.046.003-.042.008-.078.004-.04v-.089l-.004-.046-.004-.088.002-.039.001-.069v-.097l.004-.07.011-.08.004-.046-.001-.048-.015-.097-.007-.049-.006-.047.002-.088.004-.04-.002-.039.003-.04-.003-.042.002-.046-.003-.048v-.048l.001-.098.009-.097.007-.049.013-.097.006-.05v-.097l-.006-.048-.01-.098-.003-.048-.006-.098-.005-.049-.011-.097-.003-.049.001-.094.01-.05.001-.026.036-.073h-.497v-.487h1.242l.1.001.047.001.05.01.027.001.075.035zM16.8 8.211v.033h-.017v-.017l.017-.016zm2.401.406.054.015.02-.005h.195l.08.004.074.014.074.02v.488h.249l-.005.073-.006.027-.009.046-.018.073-.012.073.058-.073.014-.026.058-.083.034-.038.086-.059.048-.021.1-.038.05-.014.099-.008.099.01.05.005.099.006.05.002.1.017.098.03.049.018.047.025.078.065.05.086.012.047.009.05.008.097.015.097.011.049.011.097-.01.098-.012.048-.015.098-.003.049-.001.048v.731l.004.097.007.046.01.049.029.1-.075.035-.027.002-.05.01h-.047l-.05.002h-.497V12.466l.004.097.007.046.01.049.029.1.057-.073.029-.076.008-.046.004-.049.001-.048v-.78l.002-.049.001-.046.01-.048.001-.027.036-.073.073.002.025.004.081.004.04-.002.083-.005.093.01.077.028.075.056-.014.081-.006.038-.007.038-.013.088-.006.047-.004.098v.487l.004.097.014.098.008.048v.098l-.02.097-.018.049-.022.049-.071.092-.045.039-.099.058-.099.034-.1.016-.099.004h-.099l-.1-.001-.05-.003-.049-.007-.1-.024-.049-.019-.095-.058-.082-.079-.038-.038-.02-.025-.063-.038.012.07.017.054.02.07-.074.036-.027.001-.05.01-.047.001-.1.002h-.099l-.1-.005-.099-.02-.093-.049-.04-.036-.03-.04-.03-.094-.004-.049-.001-.049V12.66l-.005-.097-.005-.049-.01-.097v-.098l-.001-.048-.003-.05-.008-.048-.014-.097-.001-.049.004-.093.002-.042.006-.075-.001-.067-.003-.075.008-.088.007-.047.004-.097v-.098l.004-.049.011-.097.005-.098V10.858l-.002-.049-.003-.048-.005-.05-.014-.097-.005-.048v-.098l.005-.049.014-.097.006-.049.004-.097-.005-.098-.01-.097-.005-.049v-.048l.004-.096-.005-.046-.014-.04-.029-.039-.085-.072-.002.073-.003.027-.01.095-.006.049-.002.047.005.088.001.04.003.039-.004.04-.01.088v.045l.003.049.024.1-.074.035-.028.001-.05.01h-.095l-.09-.006-.04-.002-.04.002-.08.006-.099.002v-.876l-.1.048h-.049l.017.073.003.076-.01.095-.008.097-.002.098v.195l.002.097.002.049.021.097.046.098.03.048.065.098.033.049.066.097.166.243.066.098.066.097.032.05.055.097.021.048.02.098.003.048.002.098V12.027l.004.098.011.097.004.049v.097l.004.098.009.048.013.098.003.048-.003.098-.006.049-.01.048-.035.098-.026.047-.073.084-.094.058-.1.034-.099.016-.1.004h-.099l-.099-.001-.05-.003-.099-.015-.05-.012-.05-.012-.099-.04-.094-.068-.038-.045-.03-.047-.03-.098-.005-.049-.002-.097v-1.072h.547v.39l.004.098.006.048.014.098.005.048v.098l-.01.097-.005.049.008.095.028.1.056-.073.03-.076.008-.046.004-.049.001-.048v-.536l-.004-.098-.02-.097-.021-.049-.054-.097-.03-.05-.06-.096-.029-.05-.063-.097-.067-.097-.099-.146-.066-.098-.066-.097-.032-.049-.053-.097-.026-.098-.004-.048-.002-.098v-.975l.006-.097.03-.096.07-.083.093-.059.1-.035.05-.012.099-.023.05-.01h.099l.05.009.099.014.05.006.099.018.1.033.05.026.093.072.069.089.03.076.006.073.034-.073-.001-.027.003-.049-.017-.092-.007-.027-.012-.073h.199V8.86l.001-.096.001-.045.01-.04.001-.025.036-.038zm2.187.195-.05.049.05-.05zM7.175 11.199h-.152l-.097.001-.05.003-.099.015-.05.01-.096.005-.05-.007-.102-.027-.029.1-.01.049-.006.046-.004.097v.244l.004.097.013.098.009.048.004.098-.001.097.004.094.004.042v.04l.004.038.005.082.002.047.001.047v.195l.06-.033.038-.032.051-.033-.036-.073-.001-.027-.01-.049-.001-.045-.001-.05v-.925h.596l-.01.09-.004.039-.001.032-.002.034v.07l.003.08.004.046.003.048.004.048.002.05v.682l-.003.096-.02.098-.023.049-.065.092-.041.039-.096.058-.099.035-.1.025-.099.013h-.05l-.099-.01-.05-.005-.099-.005-.05-.003-.05-.008-.049-.012-.098-.049-.047-.036-.041-.041L5.957 13l-.027-.047-.022-.05-.02-.097-.005-.097V9.69l.001-.098.003-.048.017-.098.015-.049.02-.047.025-.046.074-.078.093-.059.05-.02.05-.019.1-.019.099-.004H6.579l.099.004.1.017.099.03.05.018.093.053.073.077.046.093.015.05.017.097.003.048v.195l-.002.096-.004.046-.004.083.001.038-.003.082-.004.046-.004.096.003.05.004.096-.001.048-.002.088v.078l.002.04v.043l.002.045.002.086-.002.04.005.039.005.082.002.043V11.2zm1.391-.049H8.02l-.002-.1-.002-.049-.013-.094-.007-.05-.007-.048-.004-.048-.005-.05-.005-.097.003-.097.003-.049-.003-.049-.001-.048-.003-.096.004-.088.004-.04.002-.08-.003-.041.001-.046-.002-.048.004-.097.01-.098-.012-.092-.042-.064-.07-.038v.487l-.002.047-.007.088-.004.04-.002.08.006.087.001.047.003.05-.003.097-.004.048-.001.094.003.042-.002.04.004.038.006.083.003.093v.195l-.003.096-.007.088-.006.074v.068l.003.034-.001.036.003.036-.002.074-.004.04-.001.043-.003.093.004.093.004.042v.04l.004.039.002.04.004.042.003.094v.487l-.003.096-.006.088-.002.04.004.076.004.02.003.07h-.597l.017-.074.004-.075-.001-.046.004-.098.008-.049.014-.097.004-.097-.001-.098-.003-.048-.014-.098-.01-.049-.008-.097.002-.047v-.046l-.002-.083-.004-.038-.007-.082-.003-.094.002-.097.001-.049.004-.049.002-.048.004-.05-.002-.046.003-.046-.001-.083-.004-.038-.003-.082.003-.046.002-.097-.002-.048-.006-.098-.003-.097v-.487l.003-.096.006-.088.002-.04-.002-.039-.002-.04-.004-.042-.001-.094.002-.048.016-.098.015-.097-.006-.098-.01-.048-.015-.098-.002-.049-.002-.094v-.1l.05-.05H7.623l.047.002.082.012.02.02.017.009-.018.055.075-.033.027-.018.097-.05.05-.02.1-.02.098-.003.05.004.05.01.048.02.047.03.079.082.027.047.022.049.021.097.003.049.001.097v1.559zm2.783.049-.05.049h-.695l.036.073v.027l.01.048.002.046.001.098V11.687l-.003.095-.005.088-.003.04.003.039.005.082.003.093v.634h.15V12.608l-.002-.094-.003-.048-.015-.098-.011-.049-.014-.097.002-.093.001-.042.003-.041-.003-.079-.003-.04.003-.043.003-.082-.002-.037v-.119l.003-.038-.001-.036.008-.04-.003-.02.033-.07.103.029.05.01.046.006.1.004h.248V12.71l-.001.096-.005.05-.01.048-.04.093-.064.079-.083.058-.095.04-.05.01-.05.008-.099.008-.1.011-.049.004h-.05l-.1-.01-.049-.006-.05-.005-.099-.022-.05-.022-.095-.063-.041-.041-.065-.093-.022-.05-.02-.097-.005-.097V9.64l.001-.097.011-.098.013-.049.05-.093.078-.077.095-.053.1-.035.05-.013.099-.017.1-.004h.049l.1.002.05.002.098.017.1.03.05.018.095.053.079.077.027.046.022.047.02.098.004.049.001.097V11.2zm4.124 0h-.695v1.559h.149v-.39l-.002-.097-.002-.05-.011-.097-.006-.048-.003-.049-.001-.097.001-.05.002-.048.003-.049-.002-.096-.01-.085-.005-.04-.014-.07.075-.017.077-.003.097.006h.05l.049-.003.097-.003.077.008.074.011v1.219l-.004.096-.019.098-.02.047-.02.046-.06.079-.08.058-.095.04-.05.01-.099.015-.05.007-.099.01h-.05l-.05-.005-.099-.012-.05-.005-.099-.018-.05-.015-.097-.045-.086-.071-.06-.092-.03-.098-.005-.097.002-.098-.002-.097-.003-.094-.001-.041v-.041l-.003-.037.001-.037-.001-.036.003-.036v-.034l-.002-.068-.004-.035-.007-.081-.003-.093v-.341l.003-.096.007-.088.006-.079-.002-.082-.004-.046-.007-.097-.003-.097v-.097l.002-.05.001-.046.006-.088.003-.041-.003-.038-.006-.082-.003-.094V9.884l.003-.096.006-.088.003-.041-.003-.038-.002-.082.006-.046.023-.097.02-.047.059-.086.04-.037.094-.053.05-.019.05-.016.099-.023.05-.007.099-.004H14.927l.1.004.049.007.05.01.099.033.05.026.048.033.045.039.07.092.019.048.01.05.006.097v1.656zm2.088-2.046v1.802l.004.098.005.048.01.098v.049l-.004.048-.011.098-.003.049-.002.048v.731l.002.097.01.098.017.097.007.048.003.046-.004.082-.004.038-.007.04-.014.089-.005.047-.005.095V13.147h-.496v-.389l-.002-.049-.003-.049-.015-.097-.02-.098-.006-.048-.004-.098v-.926l.003-.095.005-.088.003-.04-.003-.039-.005-.082-.002-.046-.001-.048v-.097l.003-.096.006-.088.006-.075-.001-.067-.005-.035-.006-.082-.003-.093V10.03l.003-.098.004-.048.004-.098-.003-.049-.005-.097-.003-.097v-.39h.152l.096-.004.05-.006.097-.009.077.003.075.016zm-8.349 0 .017.073.007.076.003.094v.05l.006.097.005.047-.002.046.002.042-.005.04-.002.038-.014.083-.013.093-.002.05-.002.097v.779l.004.097.011.098.005.097-.005.049-.01.097-.003.05-.002.048v.877l.002.097.002.049.011.097.005.049-.005.095-.015.1.072-.012.055-.017.072-.02-.036-.073-.001-.027-.01-.049-.001-.046-.002-.048V9.152h.547l.028.1.008.049.004.094-.001.05.004.097.004.048.003.098-.002.048-.002.05-.016.097-.01.048-.016.098-.003.049-.001.097V10.858l.004.097.015.098.015.097-.005.098-.018.097-.007.049-.004.097.004.098.011.097.004.049v.049l-.008.097-.003.049.011.097.017.098.003.097-.005.097.002.098.004.049.007.097.001.049.002.048-.002.098-.002.049-.016.097-.02.097-.021.095-.003.027-.036.073-.074-.012-.078-.013-.046-.002-.047.002-.078.013-.074.012V13.1h-.1l-.038.06-.067.043-.045.019-.098.016-.1-.012-.099-.034-.095-.058-.042-.04-.064-.092-.022-.048-.021-.098-.004-.097V11.443l.002-.097.006-.088.003-.04-.003-.038-.001-.083.012-.093.011-.049.015-.097.003-.049.001-.048v-.975l-.001-.049-.008-.097-.006-.049-.004-.097.006-.098L8.7 9.35l-.014-.075-.02-.073.074-.036h.028l.05-.01.046-.002.1-.001h.248zm2.087 0-.05.049.05-.05zm4.82 0 .005.1.015.095.02.097.013.098.016.097.012.049.015.097.002.049.002.097v.196l.056-.074.03-.076.012-.094.001-.098.002-.097.002-.049.015-.097.012-.05.015-.097.002-.048.002-.095v-.1h.596l-.001.073-.01.076-.02.094-.014.098-.003.049-.003.097-.003.049-.015.097-.02.098-.006.048-.008.098-.007.049-.02.097-.008.049-.014.097-.016.098-.011.048-.015.098-.003.048-.003.098-.001.047-.006.088-.003.04.005.08.004.041.004.094.003.048.015.098.01.048.016.098.003.049.003.097.002.049.006.048.014.098.006.049.01.097.003.049.005.048.005.05.016.096.011.05.015.097.003.048.002.098v.049l.004.048.015.098.01.048.016.098.003.049.003.097.002.049.017.094.029.1h-.646v-.389l-.002-.049-.002-.049-.015-.097-.012-.049-.015-.097-.002-.049-.002-.097V12.124l-.004-.097-.007-.046-.01-.049-.029-.1-.035.073-.002.027-.01.05v.045l-.002.049V12.222l-.002.097-.002.05-.015.097-.02.097-.01.097-.002.098-.003.049-.015.097-.02.095-.01.075v.074h-.597l.002-.1.002-.05.015-.094.011-.049.016-.097.002-.049.002-.097v-.098l.001-.048.003-.05.015-.097.011-.048.015-.098.003-.049.002-.048v-.098l.004-.048.015-.098.01-.049.016-.097.003-.049.005-.097.015-.097.011-.05.017-.097.004-.048.006-.05.003-.048.01-.097.006-.049.013-.097.002-.05-.01-.096-.02-.098-.007-.049-.008-.097-.007-.049-.008-.049-.02-.097-.007-.049-.008-.097-.015-.098-.011-.048-.015-.098-.009-.097-.005-.049-.014-.093-.007-.042-.01-.079-.004-.04-.015-.088-.01-.048-.019-.094-.01-.076v-.073h.595zm1.54 0-.049.049.05-.05zm-13.167.39-.05.048.05-.048zm1.987.048V9.741l-.004.094-.012.096-.013.088-.003.04V10.16l-.002.074-.002.042-.007.094-.004.048-.002.098v.195h.198l-.029-.1-.01-.05-.006-.045-.004-.098v-.828h-.1zm8.348 0-.036.073v.027l-.01.05-.002.045-.001.049v.682l.005.092.011.038.017.03.03.019.086.016-.013-.08-.004-.066v-.312l.002-.04v-.042l.002-.046v-.096l-.002-.048v-.046l.001-.082.004-.038.002-.081-.007-.042-.028-.064-.057-.038zm5.069 0-.072.036h-.027l-.1.013v2.972l.05.048h.199V9.786l-.002-.047-.001-.045-.01-.039-.001-.026-.036-.038zm.646 0-.036.073-.001.027-.01.05-.001.045-.002.049v.877h.15v-1.12h-.1zm-9.889.05V9.98l-.001.049-.003.049-.01.097-.005.049.003.097.002.098-.01.097-.006.046-.005.049-.014.1.05.049h.049l.1-.05-.03-.1-.01-.048-.006-.046-.004-.098v-.341l.004-.097.012-.096.007-.046.007-.042.01-.076.001-.02.008-.061h-.149zm3.43.194-.05.049.05-.05zm1.54.584-.05.05.05-.05zm1.292.731-.05.049.05-.049zm-12.374.195-.05.049.05-.049zm11.678.39.05.049-.05-.05zm2.136 5.553.075-.035.028-.001.05-.01.046-.001.05-.002h.597l.049.002.05.003.1.015.049.01.1.015.049.003.096.001h.103l-.014.073-.03.076-.02.046-.055.098-.06.097-.046.097-.016.05-.026.097-.02.097-.007.049-.003.097.015.098.02.048.068.098.094.097.05.049.1.097.248.244.596.584.199.195.1.098.099.093.095.083.043.037.041.041.08.088.043.047.095.098.1.097.05.049.097.097.046.05.038.045.049.076.018.073-.102.072-.05.039-.047.04-.095.093-.085.096-.038.046-.083.082-.044.038-.083.083-.039.046-.084.096-.095.097-.1.094-.048.041-.09.075-.04.034-.077.069-.074.077-.038.04-.041.038-.09.079-.094.086-.084.087-.039.04-.084.08-.047.041-.048.046-.05.047-.098.098-.047.049-.084.096-.038.046-.08.082-.04.037-.04.038-.08.073-.09.077-.049.042-.095.092-.043.046-.08.082-.041.038-.086.083-.082.09-.04.041-.04.04-.09.08-.049.041-.048.046-.09.092-.041.042-.039.04-.041.038-.043.041-.091.087-.083.086-.036.04-.034.037-.035.038-.076.073-.042.037-.094.082-.047.046-.084.096-.04.05-.083.097-.095.097-.05.047-.098.088-.09.075-.04.034-.07.065-.067.066-.033.035-.07.081-.04.046-.043.048-.095.097-.1.098-.198.194-.646.634-.15.146-.099.097-.095.098-.043.047-.08.088-.08.079-.08.08-.08.085-.043.04-.095.079-.05.042-.095.092-.083.088-.036.039-.069.069-.034.034-.038.035-.074.081-.037.046-.085.095-.046.046-.047.042-.09.078-.041.04-.04.043-.083.093-.096.098-.05.048-.148.146-.1.098-.05.049-.099.093-.095.082-.043.037-.08.073-.039.035-.067.057-.073.061-.075-.038-.028-.026-.05-.039-.046-.044-.1-.097-.099-.097-.149-.146-.1-.098-.05-.047-.049-.046-.098-.082-.047-.038-.084-.082-.039-.043-.084-.081-.045-.038-.089-.082-.08-.094-.041-.049-.043-.048-.095-.098-.098-.093-.047-.042-.043-.04-.041-.039-.039-.04-.084-.088-.095-.096-.05-.049-.1-.097-.248-.244-.248-.243-.1-.098-.1-.093-.094-.083-.043-.036-.042-.038-.08-.073-.085-.077-.083-.088-.08-.097-.09-.097-.098-.097-.05-.049-.248-.244-.348-.34-.149-.147-.05-.049-.099-.093-.098-.082-.09-.079-.08-.088-.083-.096-.044-.049-.083-.093-.038-.042-.084-.078-.094-.083-.047-.046-.043-.046-.08-.088-.041-.04L7.77 24l-.098-.088-.05-.047-.1-.098-.148-.146-.15-.146-.099-.098-.095-.097-.084-.096-.039-.046-.04-.042-.08-.077-.079-.073-.08-.075-.078-.078-.07-.078-.035-.037-.036-.038-.083-.073-.047-.037-.098-.082-.1-.093-.049-.05-.1-.097-.298-.292-.248-.244-.1-.097-.05-.049-.047-.048-.09-.096-.08-.088-.042-.041-.09-.078-.048-.042-.05-.046-.099-.096-.05-.05-.198-.194.026-.07.018-.02.026-.039.064-.066.074-.069.04-.04.04-.04.078-.084.038-.039.036-.035.072-.068.034-.035.07-.081.04-.046.09-.096.099-.098.05-.048.099-.094.098-.082.047-.038.084-.077.036-.035.041-.029.02-.017.071-.018-.05-.098.075-.037.028-.026.05-.04.046-.044.1-.096.05-.049.099-.097.05-.049.099-.096.047-.045.05-.039.027-.026.075-.037.023.073-.005.027-.002.048-.008.046-.008.05-.02.097-.01.048-.016.098-.005.097-.003.049-.015.097-.011.049-.016.097-.002.05-.002.048V20.114l-.005.097-.03.098-.031.048-.084.098-.095.092-.05.039-.028.026-.074.038v.097l.074.038.028.026.05.039.046.044.1.097.1.097.148.146.845.828.596.585.2.195.049.048.098.098.047.049.084.097.039.049.082.093.045.042.082.077.038.038.038.035.036.038.039.037.037.04.042.042.088.09.088.082.042.038.038.04.083.078.044.039.083.077.037.04.075.076.037.036.07.066.032.032.067.065.066.065.067.07.036.039.08.085.098.098-.012.074-.018.075-.01.046-.019.098-.01.049-.01.048-.016.098-.003.097.003.049.02.097.04.098.059.097.08.098.047.047.048.046.1.078.05.032.099.058.05.028.099.048.047.017.077.023.074.012-.074-.049-.028-.01-.05-.029-.046-.021-.1-.056-.1-.063-.097-.075-.047-.042-.08-.093-.06-.098-.02-.048-.02-.049-.01-.049-.009-.049-.004-.097v-.049l.002-.097.002-.049.015-.097.011-.049.02-.097.02-.095.03-.1.074.001.077.01.047.008.1.023.05.013.049.011.047.012.05.008.027.007.075.004v-.1l-.002-.049-.002-.046-.015-.097-.012-.049-.016-.097-.006-.049-.018-.097-.013-.049-.032-.098-.033-.097-.033-.097-.036-.098-.04-.097-.021-.049-.035-.097-.013-.049-.01-.049-.007-.048-.003-.098.003-.049.017-.097.013-.049.036-.097.05-.098.058-.097.05-.098.02-.048.045-.098.026-.048.058-.098.026-.048.048-.098.061-.092.086-.068.045-.019.078-.014.074-.002.012-.07.017-.054.02-.07h.153l.096-.006.1-.028.099-.057.05-.033.099-.046.05-.01.1.006.049.012.096.032.028.01.075.022.004-.073.019-.076.039-.095.026-.048.023-.049.057-.098.063-.097.032-.046.03-.049.02-.027.034-.073-.074-.021-.028-.011-.05-.017-.096-.03-.1-.025-.05-.01-.049-.013-.05-.01-.099-.018-.1-.02-.099-.017-.05-.005-.099-.017-.05-.01-.099-.017-.05-.005-.099-.016-.1-.02-.049-.006-.1-.008-.05-.007-.098-.019-.1-.015-.05-.002-.099-.002-.1-.001-.049-.003-.1-.015-.05-.01-.098-.015-.05-.003-.1-.002H10.157l-.099.005-.05.006-.099.02-.1.014-.05.003-.098.001-.1.002-.05.002-.099.015-.05.011-.099.015-.05.003-.1.002-.049.003-.1.015-.049.012-.05.01-.099.03-.1.039-.049.025-.05.022-.05.027-.099.047-.05.02-.05.022-.099.038-.099.038-.05.019-.099.028-.05.011-.05.012-.099.015-.1.004h-.049l-.1-.004-.099-.016-.05-.013-.049-.017-.098-.039-.047-.022-.084-.058-.039-.038-.08-.086-.074-.096-.054-.098-.04-.097-.039-.098-.018-.048-.02-.098-.006-.049-.013-.097-.004-.049v-.048l.01-.098.006-.048v-.098l-.012-.097-.004-.049.004-.098.012-.097.004-.097.004-.098.015-.097.011-.049.015-.097.009-.098.015-.097.02-.098.02-.097.01-.049.015-.049.03-.097.014-.049.02-.097.02-.098.023-.097.014-.049.012-.048.03-.098.017-.048.05-.147.033-.097.03-.098.03-.097.019-.049.044-.097.024-.049.042-.097.02-.049.02-.049.039-.097.043-.098.025-.048.042-.098.04-.097.021-.049.02-.049.027-.048.05-.098.022-.048.027-.05.023-.048.027-.049.05-.097.023-.049.03-.048.027-.05.032-.048.031-.048.067-.098.066-.097.033-.05.07-.097.036-.048.073-.098.035-.048.035-.05.07-.096.079-.098.08-.097.038-.05.084-.097.096-.096.05-.046.099-.08.1-.068.049-.03.1-.049.049-.019.1-.031.049-.012.1-.024.05-.013.098-.01.1.012.1.03.049.018.095.053.043.037.076.086.063.096.046.095.012.049.009.027.004.073.073-.073.068-.075.077-.085.041-.04.043-.038.047-.04.098-.089.095-.095.085-.087.038-.041.042-.038.042-.04.091-.089.085-.096.038-.048.084-.098.047-.049.049-.048.1-.098.148-.146.1-.097.099-.094.048-.041.09-.075.04-.034.036-.034.034-.035.035-.039.076-.088.043-.047.095-.098.1-.097.198-.195.15-.146.098-.098.1-.092.05-.038.099-.043h.05l.099.043.05.038.1.092.098.098.1.097.05.049.05.049.095.097.084.098.08.093.09.082.046.038.09.082.04.043.07.081.035.038.076.082.088.09.089.082.041.037.037.038.039.035.036.038.038.036.078.079.08.078.04.038.039.04.08.078.08.077.038.04.085.089.095.096.1.097.148.146.15.146.099.098.098.093.047.042.084.079.038.04.085.084.09.081.044.037.076.073.034.038.07.077.04.042.043.046.095.096.05.049.05.048.1.094.047.042.09.078.042.04.08.089.042.047.096.098.05.048.05.049.099.097.397.39.1.098.05.048.094.098.079.094.029.05.02.026.026.073zm3.727-4.92.002.073.008.076.006.046.004.049v.048l-.004.05-.011.096-.005.095v.1l-.074.004-.028.007-.05.008-.046.011-.1.015-.05.003-.096.001h-.102v-.682h.546zm-11.23 3.508-.017-.074-.015-.027-.02-.046-.045-.073-.052-.073-.022.038.008.026.01.04.045.091.028.049.063.097.034.049.063.097.03.05.059.096.06.098.06.097.031.05.036.048.072.097.069.098.07.097.039.049.08.097.04.049.076.097.036.05.039.048.036.049.038.048.036.049.076.097.04.05.08.096.04.05.039.048.084.097.047.05.098.097.05.048.099.098.1.097.099.096.05.046.099.083.05.038.099.08.05.044.099.08.05.035.05.034.099.065.298.195.1.065.049.032.1.062.049.029.1.058.099.062.047.031.05.03.027.02.075.033V18.409l.004-.098.016-.097.015-.049.042-.097.026-.05.066-.095.083-.088.095-.079.094-.08.04-.045.027-.026.038-.073-.102-.072-.05-.038-.094-.072-.027-.024-.075-.038v-.097l.062-.038.02-.026.036-.039.031-.043.07-.087.084-.077.095-.07.1-.053.049-.02.1-.034.099-.029.099-.016.1-.004H15.771l.099.001.05.003.099.015.047.01.05.009.027.007.075.004-.039-.073-.026-.027-.04-.05-.046-.045-.048-.049-.1-.097-.05-.048-.049-.046-.095-.082-.084-.079-.08-.084-.043-.04-.095-.079-.1-.082-.098-.094-.047-.047-.084-.088-.038-.04-.042-.038-.09-.083-.096-.093-.047-.05-.043-.048-.08-.093-.041-.042-.09-.079-.098-.082-.05-.046-.1-.096-.049-.049-.298-.292-.1-.098-.05-.048-.097-.098-.047-.048-.084-.098-.039-.049-.041-.048-.09-.096-.098-.083-.05-.028-.05-.015h-.05l-.098.043-.05.038-.1.092-.05.049-.099.097-.248.244-.994.974-.248.243-.1.098-.1.096-.046.045-.05.039-.027.026-.075.038zm-.696 1.753v-.243l.002-.098.003-.049.015-.097.01-.049.016-.097.003-.049.001-.049v-.244l-.004-.096-.007-.05-.02-.097-.014-.097-.003-.049-.002-.097-.001-.049-.003-.049-.015-.097-.01-.049-.02-.097-.02-.098-.01-.048-.01-.05-.02-.097-.01-.048-.012-.049L10 15.34l-.01-.05-.014-.048-.011-.049-.03-.097-.023-.049-.055-.097-.07-.092-.04-.038-.042-.03-.095-.03-.05-.002-.05.001-.099.02-.1.048-.099.067-.05.038-.05.037-.094.082-.085.094-.038.049-.042.048-.041.049-.044.049-.079.097-.032.049-.06.097-.065.098-.072.097-.034.049-.036.049-.063.097-.029.049-.06.097-.028.049-.029.049-.023.048-.05.098-.028.048-.022.05-.027.048-.022.049-.028.048-.022.049-.05.097-.026.05-.02.048-.023.048-.038.098-.021.049-.04.097-.039.098-.02.048-.04.098-.04.097-.04.098-.02.048-.036.098-.033.097-.015.049-.015.049-.027.097-.012.049-.015.048-.03.098-.016.049-.012.048-.026.098-.015.048-.016.05-.029.096-.02.098-.02.097-.01.05-.01.048-.02.097-.01.049-.01.049-.016.097-.008.098-.007.048-.02.098-.012.096.002.088.003.04-.005.079-.004.042-.002.093v.098l.002.047.007.088.006.04.004.038.015.083.022.093.013.049.031.097.02.05.024.048.067.093.088.077.048.027.1.034.1.011h.049l.05-.003.099-.016.05-.013.099-.034.05-.02.1-.04.098-.038.05-.021.05-.022.1-.054.099-.064.05-.034.049-.036.1-.073.05-.037.098-.082.096-.094.084-.097.039-.049.082-.097.044-.049.082-.097.07-.098.033-.049.034-.048.062-.098.044-.097.005-.098-.045-.097-.084-.097-.098-.094-.1-.082-.05-.037-.099-.072-.05-.035-.099-.06-.05-.029-.099-.06-.1-.055-.049-.023-.05-.027-.05-.022-.05-.025-.098-.042-.05-.018-.1-.03-.099-.02-.05-.01-.099-.021-.05-.012-.098-.04-.084-.069-.03-.044-.03-.096-.002-.098.017-.097.013-.049.032-.097.035-.098.018-.049.044-.097.055-.097.032-.05.069-.096.082-.094.047-.04.049-.033.1-.028.049.008.05.016.099.057.05.032.099.061.05.026.1.043.049.02.05.02.099.039.1.035.049.016.1.033.099.032.05.015.049.014.05.01.1.02.098.02.05.01.1.018.05.01.049.01.097.015.05.003.101.001zm.15-2.63v.048l.099.05-.05-.098h-.05zm.099.146.05.049-.05-.05zm.05.097.024.073.017.027.047.092.01.027.05.073.023-.037-.008-.026-.01-.04-.044-.086-.03-.04-.019-.025-.06-.038zm.05.877.012.073.018.076.015.095.003.048v.195l.002.098.009.097.01.098v.048l-.005.049-.01.097-.004.05-.001.048v.097l-.001.049-.003.049-.015.097-.02.098-.007.048-.008.098-.007.048-.008.05-.02.097-.02.097-.01.049-.023.097-.014.049-.011.049-.014.048-.025.098-.012.048-.032.098-.018.049-.02.048-.04.098-.04.097-.042.098-.025.048-.043.098-.038.097-.043.098-.026.048-.022.049-.028.049-.023.048-.057.098-.032.049-.032.048-.066.098-.066.097-.068.098-.036.048-.082.098-.09.097-.039.046-.048.076-.018.073.102-.028.05-.01.047-.007.1-.004.098-.001.05-.003.1-.015.05-.01.099-.015.05-.003.099-.002H10.405l.1.002.049.003.1.015.049.01.1.015.05.003.098.001.05.002.05.002.1.015.049.011.1.016.049.006.1.016.05.01.098.016.1.008.1.015.049.01.05.01.099.019.05.01.05.01.05.01.098.018.05.01.1.02.099.02.05.009.099.023.05.013.1.023.096.015.05.003.102.001.073-.1.04-.049.04-.046.09-.097.044-.049.08-.096.084-.088.095-.077.05-.038.05-.035.099-.073.05-.038.05-.034.049-.035.097-.058.027-.012.075-.049-.039-.06-.026-.02-.04-.035-.094-.061-.1-.058-.05-.029-.049-.03-.1-.064-.049-.033-.149-.097-.199-.13-.1-.065-.049-.034-.05-.034-.05-.036-.049-.035-.1-.075-.099-.078-.098-.079-.047-.036-.084-.073-.038-.038-.085-.077-.046-.042-.097-.094-.047-.049-.084-.097-.039-.049-.084-.097-.047-.049-.097-.097-.047-.049-.084-.097-.076-.098-.036-.049-.076-.097-.04-.049-.08-.097-.078-.098-.04-.048-.08-.098-.039-.048-.036-.05-.034-.048-.07-.097-.071-.098-.036-.048-.03-.05-.061-.096-.064-.098-.033-.049-.063-.097-.058-.092-.032-.04-.018-.025-.06-.038zm4.372 1.12.075.034.027.02.05.029.047.031.1.062.049.027.05.029.05.023.049.026.05.02.05.022.099.037.1.038.049.02.05.013.05.015.099.023.05.01.099.018.05.01.05.01.049.01.1.019.049.01.05.01.099.015.05.003.099.001H17.113l.05.049v.341l-.004.097-.02.098-.017.048-.04.098-.038.097-.038.098-.018.048-.02.098-.001.049.001.048.021.098.022.048.028.05.078.096.094.098.047.049.079.097.05.098.012.048.007.098-.014.097-.011.049-.008.049-.014.097-.01.049-.01.048-.04.098-.026.048-.048.098-.043.097-.018.05-.036.096-.018.046-.038.076-.058.073.029.098.01.049.006.024.005.073H17.361l.1-.001.046-.002.05-.01h.027l.075-.036-.03-.1-.009-.049-.007-.046-.004-.097V19.334h.075l.077.004.097.014.05.008.049.001.05-.001.05-.008.096-.014.077-.004h.075l.05.049v1.12l-.002.05-.003.048-.01.097-.005.049v.097l-.001.05-.003.048-.008.049-.015.097-.006.049-.017.097-.012.049-.012.048-.035.098-.044.097-.023.05-.021.048-.046.097-.055.098-.06.097-.057.098-.051.097-.022.049-.05.097-.026.046-.021.049-.017.027-.025.073.103.1.092.093.083.088.036.04.069.067.036.031.083.055.047.02.048.017.1.005.049-.017.048-.028.086-.083.06-.096.034-.097.016-.098.004-.097-.001-.098-.015-.097-.049-.097-.034-.046-.036-.049-.025-.027-.038-.073.074-.026.028-.017.048-.026.086-.062.037-.036.05-.08.016-.094-.015-.098-.036-.097-.02-.049-.038-.092-.023-.039-.01-.026-.048-.038.036-.073.002-.027.025-.095.042-.097.03-.049.073-.097.039-.049.036-.049.029-.048.024-.098-.006-.048-.017-.049-.058-.098-.033-.048-.048-.098-.017-.097.012-.098.03-.097.019-.049.044-.097.027-.049.028-.049.064-.097.033-.049.063-.097.055-.098.04-.097.02-.097.003-.049.001-.098V18.312l-.003-.096-.005-.088-.003-.04.003-.038.005-.083.007-.093.02-.098.017-.048.035-.095.01-.027.013-.073h-.348l-.05-.002-.049-.002-.1-.015-.099-.02-.05-.006-.099-.004-.05.002-.05.002-.099.015-.05.01-.099.016-.05.002-.099.002h-.348l-.099-.004-.1-.02-.097-.05-.09-.076-.04-.046-.035-.045-.031-.049-.02-.027-.034-.073h-.102l-.097-.004-.05-.007-.099-.02-.05-.01-.05-.014-.099-.023-.05-.01-.05-.01-.098-.018-.05-.011-.1-.016-.05-.006-.049-.008-.1-.019-.099-.015-.05-.002-.099-.006-.1-.013-.049-.008h-.1l-.099.014-.05.009-.049.005-.1.016-.049.012-.05.011-.095.03-.083.05-.066.074-.02.025-.034.072zm-6.41.098-.013.073-.019.076-.025.095-.012.048-.015.049-.035.097-.022.05-.022.048-.058.097-.065.095-.027.049-.017.027-.018.073.075.012.077.019.047.01.05.016.05.013.049.02.05.017.05.021.049.02.1.05.05.028.049.027.05.03.099.058.1.058.049.031.05.031.099.077.05.044.098.08.047.039.084.081.077.078.068.048.073.017.034-.073.018-.027.056-.095.027-.048.044-.098.018-.048.035-.098.016-.049.03-.097.009-.049.011-.097.011-.098.02-.097.008-.049.007-.048.004-.095V17.824l-.075-.02-.077-.018-.047-.007-.1-.008-.099-.015-.05-.012-.099-.024-.05-.01-.05-.015-.049-.01-.05-.014-.099-.027-.1-.034-.05-.02-.098-.04-.1-.037-.05-.022-.05-.02-.049-.026-.05-.021-.05-.026-.046-.02-.078-.027-.074-.014zm6.758.34-.053.07-.05.06-.067.066-.04.034-.09.074-.046.042-.046.046-.07.096-.03.098-.005.097V19.09l-.004.097-.013.095v.048l-.006.028.023.073.054-.037.02-.021.08-.059.046-.025.098-.044.1-.036.05-.014.049-.015.1-.023.099-.015.1-.004.099.002.05.002.049.009.05.012.099.048.095.078.079.093.029.049.044.097.015.049.01.049-.014.097-.027.049-.083.097-.096.095-.102.1-.022-.073-.01-.027-.034-.095-.017-.049-.037-.096-.025-.046-.029-.04-.037-.037-.088-.049-.049-.012-.05-.008-.099-.003-.05.003-.099.015-.05.012-.099.025-.05.012-.05.015-.049.015-.1.028-.046.01-.078.009-.074.001-.039.073-.026.027-.04.05-.094.092-.05.046-.099.082-.05.035-.099.068-.05.033-.099.072-.05.038-.05.037-.099.082-.05.046-.05.047-.094.098-.085.097-.037.049-.074.097-.038.05-.069.097-.033.048-.066.098-.066.097-.032.049-.032.048-.029.05-.06.097-.059.094-.026.05-.018.026-.026.073.075.056.077.028.047.008.1.006.097-.003.047-.004.084-.006h.039l.041-.004.09-.004.098.006.047.005.077.008.075.002.025.073.015.027.036.092.02.076.003.073h.102l.05-.002.091-.012.04-.019.027-.01.038-.055.075.026.027.019.05.028.095.077.09.09.041.042.039.04.084.079.047.042.098.093.048.049.046.049.07.097.036.093.006.042.004.04-.003.039-.007.082-.012.094-.01.048-.029.098-.033.097-.017.049-.015.049-.015.048-.012.05-.014.048-.024.097-.015.095-.002.049-.002.1-.074-.018-.028-.016-.094-.053-.05-.026-.027-.016-.075-.017.002-.1.002-.05.016-.094.02-.097.02-.098.01-.048.023-.098.014-.049.01-.048.013-.049.015-.098.003-.048v-.098l-.003-.048-.02-.092-.02-.038-.044-.048-.06-.017.014.1.005.049-.002.046-.007.048-.03.098-.02.049-.04.097-.02.049-.044.097-.026.049-.03.049-.07.097-.083.093-.095.079-.05.03-.05.028-.096.04-.077.018-.075.004.004.073.007.027.009.05.01.045.016.095.003.049v.1l.075.051.028.016.097.06.1.054.098.04.05.014.1.027.05.015.099.03.05.015.099.026.05.012.049.015.05.014.1.033.049.017.05.018.099.042.05.024.099.042.1.038.099.043.05.028.05.027.099.06.099.057.05.027.046.027.05.022.028.015.074.016v-.195l.075-.012.027-.008.05-.013.047-.015.097-.029.077-.016.075-.004.012-.073.02-.076.01-.046.014-.046.013-.049.03-.1-.048-.073-.009-.024-.029-.073-.013-.073.102-.029.096-.016.05-.003.05-.001h.1l.049-.001.1-.011.047-.012.089-.05.065-.076.022-.046.02-.096v-.098l-.02-.097-.02-.049-.024-.049-.05-.097-.037-.095-.006-.027-.037-.073.048-.038.01-.026.045-.083.061-.096.04-.05.046-.046.048-.047.1-.082.046-.035.05-.04.028-.021.074-.07v-.097l-.1-.048.023-.073.01-.027.037-.095.022-.049.022-.049.027-.048.058-.098.056-.097.047-.098.05-.097.055-.098.029-.048.023-.049.026-.049.04-.097.014-.049.015-.049.011-.048.022-.098.018-.097.009-.047.007-.046.006-.042.005-.041.008-.078.004-.042.001-.046.002-.048V19.53h-.348v1.315l.003.096.004.046.005.083.007.076-.002.02.033.07h-.994V21.084l-.002-.046-.001-.046-.01-.048-.001-.027-.036-.074.05-.038.01-.025.03-.04.02-.044.028-.047.022-.05.05-.097.027-.048.023-.049.024-.049.034-.093.015-.083.01-.078.015-.088.02-.096.009-.049.006-.049v-.097l-.02-.098-.022-.048-.028-.049-.079-.097-.093-.098-.047-.049-.08-.097-.049-.097-.02-.098v-.097l.008-.049.01-.049.04-.097.048-.098.026-.048.02-.049.02-.049.014-.048.015-.05.02-.097v-.094l-.014-.076-.013-.073h-.102l-.05-.001-.047-.003-.05-.006-.095-.013-.042-.007-.042-.004-.038-.005-.085-.007-.095-.007-.1-.015-.099-.02-.099-.019-.05-.01-.05-.014-.05-.015-.098-.033-.1-.032-.05-.016-.099-.036-.05-.02-.096-.035-.078-.019-.074-.004zm3.975 2.047-.025.073-.015.027-.036.095-.015.097.015.098.02.048.048.098.052.097.02.049.01.097-.025.098-.02.049-.052.097-.07.097-.037.05-.063.097-.022.048-.014.049.006.097.018.05.044.096.02.05.02.048.012.049.013.048.008.098-.004.095-.004.027-.003.073.074-.038.028-.026.05-.04.047-.044.1-.096.049-.049.149-.146.646-.633v-.098l-.249-.243-.099-.098-.095-.096-.043-.046-.079-.082-.038-.038-.075-.078-.036-.04-.039-.039-.07-.076-.018-.02-.054-.069H19.2zm-4.621.438.004-.073.008-.027.013-.047.05-.084.078-.068.095-.048.05-.02.1-.018.099-.004.1.004.099.02.095.049.041.036.038.04.048.094.01.098-.01.048-.048.092-.038.04-.088.058-.048.019-.05.015-.1.012-.05-.004-.049-.008-.1-.03-.049-.02-.1-.05-.096-.064-.027-.023-.075-.037zm.298-.146-.05.049-.099.049v.048l.05.098.1-.003.049-.01h.025l.074-.036-.018-.072-.045-.062-.017-.023-.069-.038zm-2.783 1.998-.048.073-.01.027-.023.048-.034.095-.017.049-.036.097-.02.049-.04.097-.04.098-.042.097-.026.049-.022.049-.028.048-.022.05-.026.048-.04.097-.014.049-.015.049-.011.046-.02.076-.012.073h-.249l.004-.073.007-.028.009-.048.024-.095.017-.049.018-.049.04-.097.02-.097-.01-.098-.014-.049-.015-.048-.03-.098-.009-.046-.01-.075-.001-.073-.058.037-.012.026-.028.04-.02.044-.043.096-.027.049-.05.097-.023.049-.029.049-.027.048-.06.098-.026.049-.043.097-.016.049-.023.097-.004.049.006.049.01.048.035.098.021.048.039.098.022.048.02.05.025.048.021.049.022.048.035.098.014.049.01.048.02.098.02.097.009.049.007.049.004.097v.097l-.002.098-.002.048-.015.095-.018.076-.013.073.102.029.097.02.1.019.099.019.05.006.099.006.05.003.096.016.102.028.038-.073.004-.027.027-.095.016-.048.03-.098.015-.049.026-.097.013-.049.03-.097.015-.049.02-.097-.006-.098-.01-.048-.008-.049-.008-.049-.006-.049-.018-.097-.03-.097-.018-.049-.02-.049-.02-.049-.02-.048-.019-.049-.034-.097-.032-.098-.014-.048-.016-.098-.003-.097.003-.049.02-.098.038-.097.025-.049.042-.097.04-.098.05-.097.03-.049.028-.048.046-.098.012-.048.008-.05.003-.048-.001-.095-.01-.048-.001-.027-.036-.073h-.1zm.448.048.02.07.017.055.012.07.075.022.027.01.097.036.1.042.046.024.05.02.028.017.074.024-.005.1-.011.049-.05.09-.082.079-.1.072.038.039.027.01.04.021.092.052.087.071.04.037.02.024.053.038-.07.097-.04.05-.018.024-.07.073v.097l.078.085.02.026.05.035-.072.1-.075.095-.066.097-.042.098-.016.049-.051.096-.038.046-.084.073-.083.038-.036.008-.062.013-.07.018-.013.073-.008.027-.014.049-.031.094-.017.05-.033.096-.017.05-.016.048-.03.095-.009.048-.007.027-.004.073.073.026.068.048.073.077.064.093.048.096.017.046.01.042.005.04-.003.08-.004.041-.002.046-.001.096v.536l-.05.049-.074-.004-.028-.007-.05-.008-.046-.01-.1-.016-.05-.003h-.099l-.1-.002-.049-.003-.097-.015-.077-.017-.075-.013.04.072.025.024.04.042.094.076.049.04.047.043.084.093.038.049.085.093.095.083.05.038.098.082.046.046.085.092.037.042.074.077.075.073.113.111.075.073.033.034.055.061.054.07.073-.039.025-.026.043-.037.073-.083.034-.04.07-.079.082-.084.086-.08.041-.035.039-.034.041-.034.09-.07.098-.073.095-.077.08-.088.032-.047.065-.094.038-.042.089-.078.048-.04.048-.043.047-.046.043-.046.079-.088.074-.077.076-.073.042-.038.09-.077.093-.088.043-.046.08-.088.08-.078.08-.083.039-.045.084-.08.047-.025.048-.008.1.032.1.07.049.037.048.031.09.058.077.05.02.014.063.016.058-.097.018-.027.023-.07-.062.002-.059-.026-.039-.024-.043-.032-.095-.067-.1-.065-.098-.062-.05-.027-.05-.028-.1-.05-.049-.022-.05-.027-.099-.048-.05-.02-.05-.021-.099-.038-.1-.04-.049-.02-.1-.035-.049-.016-.1-.033-.099-.032-.05-.015-.05-.015-.049-.012-.05-.014-.099-.027-.1-.034-.099-.039-.05-.022-.049-.02-.1-.05-.099-.065-.098-.081-.088-.093-.039-.05-.03-.048-.03-.049-.04-.097-.019-.098-.002-.048-.006-.098-.02-.097-.017-.049-.035-.097-.01-.049-.003-.049.026-.097.029-.049.07-.094.025-.027.039-.074h.1l.035.07.026.028.087.097h.1l.098-.1.078-.092.06-.076.062-.073-.05-.097.057-.038.01-.026.019-.039.01-.092v-.049l-.021-.093-.05-.077-.079-.049-.095-.019h-.05l-.1.018-.093.036-.04.027-.026.011-.039.049-.074-.04-.027-.013-.082-.06-.061-.08-.013-.026-.041-.073.06-.038.017-.023.046-.063.026-.071H12.988l-.049-.002-.05-.002-.099-.02-.05-.017-.046-.016-.078-.027-.074-.014zm-.845.098-.03.097-.009.049-.007.024-.004.073.05-.038.01-.025.028-.037.036-.07.025-.073h-.1zm.795.292-.1.097v.05h.398l-.039-.05-.026-.01-.04-.027-.043-.018-.075-.029-.075-.013zm-.199.243-.023.1-.039.095-.025.05-.038.096-.011.05-.011.097-.002.048.004.098.018.095.03.075.047.073.035-.037-.001-.026.002-.04-.01-.091.014-.098.027-.049.067-.097.03-.049.028-.097.002-.049-.006-.049-.01-.047-.031-.082-.026-.03-.013-.018-.058-.018zm2.584.195.05.05-.05-.05zm2.882.05-.074.072-.078.072-.045.04-.084.078-.03.037-.031.067-.006.072.075-.006.077-.03.093-.067.084-.088.036-.04.062-.058.07-.052.039.067.026.018.04.034.046.025.098.054.05.03.099.063.096.05.05.012.028.01.074-.022-.038-.05-.027-.01-.04-.028-.045-.02-.049-.028-.05-.021-.099-.05-.05-.029-.049-.027-.1-.06-.096-.054-.05-.021-.027-.017-.075-.024zm-5.068.096v.05l.05.097-.074.025-.023.02-.039.025-.046.055-.017.07.102-.006.05-.01.046-.02.094-.065.066-.07.04-.073-.075-.047-.025-.009-.075-.028-.074-.014zm2.136.098.05.049-.05-.049zm-2.136.39-.075.06-.074.045-.047.029-.028.012-.075.048.04.056.025.01.04.018.094.011.05-.002.05-.01.096-.035.028-.015.075-.033v-.097l-.072-.032-.056-.033-.071-.032zm-.1.438-.096.07-.04.038-.024.018-.038.069.074-.012.076-.023.043-.02.038-.022.049-.05.018-.068h-.1zm4.721.39-.075.04-.027.009-.097.039-.05.017-.048.02-.084.03-.03.022-.018.01-.018.056.102-.03.097-.025.05-.012.097-.035.082-.053.037-.052-.018-.036zm-6.758.682-.013.073-.017.076-.014.094.007.098.012.049.05.097.079.093.095.079.05.03.099.052.1.05.049.025.05.019.05.02.049.014.05.015.099.023.05.009.1.019.049.01.1.022.049.014.05.01.099.021.05.007.099.004.1.004.096.016.102.028.036-.073.001-.027.01-.048.002-.046V25.667l-.003-.097-.018-.095-.03-.076-.048-.073h-.398l-.049-.001-.05-.003-.099-.015-.05-.01-.099-.016-.1-.008-.049-.006-.1-.02-.099-.025-.05-.012-.093-.033-.04-.025-.027-.013-.038-.056-.102-.005-.094-.014-.077-.018-.075-.012zm6.112.049-.075.036-.027.004-.05.016-.045.011-.085.033-.03.025-.018.013-.018.056.075-.012.027-.008.097-.028.048-.017.083-.036.029-.022.01-.023.01-.016-.031-.032zm-5.665 1.071.036.035.026.002.087.012-.036-.035-.026-.002-.087-.012zm.199.049.036.035.026.002.087.012-.036-.035-.026-.002-.087-.012zm14.013.73.05.05-.05-.05zm-11.926.537-.05.048.05-.048z" fill="#fff"/>
</svg>
