<svg width="48" height="21" viewBox="0 0 48 21" fill="none" xmlns="http://www.w3.org/2000/svg">
    <path fill-rule="evenodd" clip-rule="evenodd" d="M32.57 7.94c.44.002 1.161.002 1.602 0 .44-.004.08-.007-.801-.007s-1.242.003-.801.006zm-2.635 3.462c0 1.482.002 2.089.005 1.348.003-.742.003-1.954 0-2.696-.003-.74-.005-.134-.005 1.348zM22.228 7.902c0 .011-.022.021-.048.021a.103.103 0 0 0-.073.032.087.087 0 0 1-.058.033c-.019 0-.047.019-.063.042-.016.024-.041.043-.056.043-.034 0-.106.078-.156.167-.021.038-.046.07-.054.07-.009 0-.016.019-.016.043 0 .023-.01.043-.02.043-.011 0-.02.023-.02.052 0 .029-.01.058-.02.066-.014.008-.02 1.06-.02 3.083 0 2.032.006 3.07.02 3.07.011 0 .02.067.02.16s.008.161.02.161c.011 0 .02.057.02.128 0 .07.009.133.02.14.011.008.02.052.02.099 0 .046.01.084.02.084.012 0 .02.025.02.055 0 .067.059.264.084.28.01.006.017.04.017.075 0 .034.01.063.02.063.012 0 .02.02.02.043 0 .023.01.043.02.043.012 0 .02.028.02.063s.01.069.021.076c.011.007.02.032.02.055s.01.042.02.042c.012 0 .02.02.02.043 0 .023.01.043.02.043.012 0 .02.018.02.04 0 .022.014.052.031.067.017.015.03.04.03.056 0 .017.01.03.02.03.011 0 .02.02.02.043 0 .024.008.043.018.043.009 0 .038.043.063.096a.33.33 0 0 0 .059.097c.006 0 .024.03.039.065.014.035.04.064.055.064.016 0 .029.014.029.032 0 .018.009.032.02.032.01 0 .02.015.02.033 0 .017.009.032.02.032.011 0 .02.01.02.022 0 .035.402.45.436.45.006 0 .043.034.082.076a.31.31 0 0 0 .09.075c.01 0 .038.019.062.043.024.023.057.043.075.043.018 0 .045.019.061.042.016.024.045.044.065.044.02 0 .036.007.036.016 0 .021.117.09.153.09.015 0 .028.01.028.022 0 .012.018.022.04.022.023 0 .04.01.04.021 0 .012.023.022.051.022.028 0 .05.01.05.021 0 .012.028.022.061.022s.06.01.06.021c0 .012.023.021.05.021.029 0 .051.01.051.022 0 .012.02.022.046.022.024 0 .063.015.084.032a.174.174 0 0 0 .095.032c.03 0 .06.01.068.021.006.012.048.022.091.022.044 0 .08.01.08.021 0 .012.04.022.09.022.049 0 .094.01.101.021.007.012.071.022.142.022.073 0 .13.01.13.021 0 .013.094.022.242.022s.242.008.242.021c0 .014.117.022.31.022.187 0 .317-.009.325-.022.007-.012.11-.021.242-.021.14 0 .231-.009.231-.022 0-.012.057-.021.13-.021.071 0 .135-.01.142-.022.007-.012.052-.021.1-.021.05 0 .094-.009.1-.02.006-.01.045-.024.087-.03.148-.023.206-.041.229-.07.012-.017.05-.03.08-.03.033 0 .059-.01.059-.022 0-.012.027-.021.06-.021.034 0 .06-.01.06-.022 0-.012.024-.021.051-.021.028 0 .05-.01.05-.022 0-.012.017-.021.036-.021.043 0 .315-.146.368-.198.02-.021.052-.039.07-.039.016 0 .03-.007.03-.016 0-.009.03-.03.066-.046a.334.334 0 0 0 .098-.07c.018-.022.04-.04.05-.04.01 0 .05-.031.089-.07.038-.039.102-.094.14-.123.082-.061.223-.212.3-.322a.995.995 0 0 1 .088-.11c.02-.019.036-.04.036-.049 0-.016.026-.051.095-.13.026-.03.046-.067.046-.085 0-.019.009-.034.02-.034.011 0 .02-.014.02-.032 0-.018.01-.032.02-.032.011 0 .02-.015.02-.033 0-.019.017-.053.038-.077a.658.658 0 0 0 .076-.122.312.312 0 0 1 .053-.087c.008-.004.015-.02.015-.038 0-.017.009-.05.02-.073l.04-.085a.24.24 0 0 0 .02-.086c0-.024.01-.043.02-.043.012 0 .02-.02.02-.042 0-.023.01-.048.02-.055.012-.007.021-.038.021-.067 0-.03.014-.069.03-.086a.14.14 0 0 0 .03-.083c0-.028.01-.057.02-.065.012-.007.02-.046.02-.087 0-.04.01-.074.02-.074.012 0 .021-.038.021-.084 0-.047.01-.091.02-.098.011-.008.02-.06.02-.118 0-.058.01-.111.02-.118.012-.008.02-.08.02-.163 0-.085.01-.149.02-.149.013 0 .021-.1.021-.256 0-.148.008-.262.02-.27.013-.009.02-.952.02-2.76 0-1.818-.007-2.748-.02-2.748-.011 0-.02-.043-.02-.096 0-.052-.01-.101-.02-.108-.011-.008-.02-.037-.02-.066 0-.029-.007-.052-.015-.052-.009 0-.037-.044-.064-.097-.026-.053-.054-.097-.062-.097a.302.302 0 0 1-.078-.064c-.035-.036-.077-.065-.094-.065-.016 0-.03-.01-.03-.021 0-.012-.017-.021-.038-.021-.022 0-.042-.011-.047-.024-.021-.07-.64-.13-.64-.062 0 .011-.022.021-.05.021a.123.123 0 0 0-.078.032c-.017.018-.042.033-.055.033-.013 0-.039.016-.057.037a.38.38 0 0 1-.088.069.394.394 0 0 0-.111.123c-.03.05-.062.093-.07.093-.008 0-.015.019-.015.043 0 .023-.01.043-.02.043-.011 0-.02.028-.02.062 0 .035-.012.067-.026.072-.02.007-.028.603-.039 2.83-.013 2.777-.02 3.19-.058 3.23-.01.011-.019.067-.019.123 0 .057-.009.104-.02.104-.01 0-.02.038-.02.085 0 .048-.009.086-.02.086-.011 0-.02.034-.02.075 0 .042-.01.076-.02.076-.011 0-.02.029-.02.064 0 .036-.01.065-.02.065-.012 0-.02.018-.02.04 0 .022-.012.05-.027.063a.32.32 0 0 0-.054.1c-.015.041-.035.076-.044.076-.01 0-.017.019-.017.043 0 .023-.009.043-.02.043-.011 0-.02.014-.02.032 0 .018-.01.032-.02.032-.011 0-.02.014-.02.032 0 .018-.037.073-.082.122-.045.049-.096.116-.115.15-.018.034-.044.061-.057.061-.012 0-.051.029-.086.064a.383.383 0 0 1-.073.065.645.645 0 0 0-.134.113c-.021.02-.051.037-.068.037-.017 0-.03.01-.03.022 0 .011-.018.021-.04.021-.023 0-.04.01-.04.022 0 .012-.023.021-.051.021-.028 0-.05.01-.05.021 0 .012-.019.022-.04.022-.023 0-.041.01-.041.022 0 .011-.027.02-.06.02-.032 0-.064.01-.071.023-.007.011-.04.021-.072.021-.032 0-.06.008-.06.018 0 .01-.047.025-.105.032-.058.008-.109.023-.112.035-.004.014-.095.022-.226.022-.124 0-.224.01-.231.022-.007.012-.043.021-.08.021-.038 0-.075-.01-.081-.021-.007-.012-.104-.022-.222-.022-.136 0-.21-.008-.216-.024-.004-.013-.054-.029-.112-.035-.058-.006-.105-.019-.105-.03 0-.01-.027-.018-.06-.018-.032 0-.064-.01-.071-.021-.007-.012-.03-.022-.052-.022a.186.186 0 0 1-.074-.019 2.78 2.78 0 0 0-.31-.153c-.01 0-.034-.017-.054-.037a1.355 1.355 0 0 0-.104-.092 1.44 1.44 0 0 1-.09-.075.874.874 0 0 1-.224-.234c-.043-.066-.09-.12-.105-.12-.014 0-.025-.02-.025-.043 0-.024-.009-.043-.02-.043-.011 0-.02-.014-.02-.03 0-.017-.008-.034-.017-.038a2.038 2.038 0 0 1-.185-.393c0-.015-.013-.04-.03-.054a.115.115 0 0 1-.03-.077c0-.027-.01-.056-.02-.063-.012-.007-.02-.046-.02-.086 0-.04-.01-.079-.02-.086-.012-.007-.02-.051-.02-.098 0-.046-.01-.084-.021-.084-.011 0-.02-.056-.02-.125a.362.362 0 0 0-.02-.146c-.013-.014-.023-1.023-.028-2.866-.007-2.832-.012-3.04-.065-3.063-.016-.006-.028-.037-.028-.069a.12.12 0 0 0-.04-.088c-.023-.017-.04-.046-.04-.065 0-.04-.127-.193-.16-.193a.022.022 0 0 1-.022-.021c0-.012-.018-.022-.04-.022-.023 0-.04-.01-.04-.021 0-.012-.018-.021-.04-.021-.02 0-.041-.011-.045-.024-.022-.07-.641-.13-.641-.062zm17.967.053c-.017.018-.059.033-.092.033-.035 0-.062.01-.062.021 0 .012-.018.021-.04.021-.023 0-.041.01-.041.022 0 .012-.014.021-.03.021-.017 0-.03.01-.03.022 0 .012-.012.021-.027.021-.03 0-.088.055-.145.138-.022.033-.056.08-.077.105a.286.286 0 0 0-.048.106c-.006.033-.019.066-.028.072-.01.006-.018.04-.018.073 0 .034-.009.068-.02.075-.013.01-.02 1.529-.02 4.489s.007 4.48.02 4.488c.011.007.02.037.02.066 0 .029.008.07.018.09.01.02.03.066.045.102a.44.44 0 0 0 .048.087c.01.013.043.054.07.091.028.038.062.068.075.068.013 0 .031.014.04.03.02.037.158.12.198.12.017 0 .03.01.03.022 0 .012.04.022.09.022.05 0 .091.01.091.021 0 .013.06.022.141.022.081 0 .142-.01.142-.022 0-.012.04-.021.09-.021.05 0 .09-.01.09-.022 0-.012.019-.021.041-.021.022 0 .04-.01.04-.022 0-.011.015-.021.033-.021.036 0 .283-.262.311-.33a.931.931 0 0 1 .037-.078c.088-.159.086-.103.1-3.553.013-3.121.014-3.155.052-3.093.02.035.06.083.085.108.026.024.047.055.047.07 0 .014.01.025.02.025.012 0 .02.013.02.028 0 .015.019.041.04.058.023.017.041.042.041.055 0 .013.041.071.09.13.05.057.091.113.091.123 0 .01.028.046.061.079s.06.07.06.082a.34.34 0 0 0 .071.102c.039.044.07.086.07.095 0 .008.028.045.061.083.033.037.06.077.06.089 0 .012.01.021.02.021.012 0 .02.014.02.03 0 .017.032.06.071.096.04.037.07.076.07.088 0 .022.039.077.112.16a.553.553 0 0 1 .068.104c.016.033.041.06.056.06s.027.014.027.031c0 .018.009.033.02.033.011 0 .02.012.02.028 0 .015.032.065.07.11.04.045.071.089.071.097 0 .008.036.056.08.106.045.05.081.1.081.113 0 .013.017.04.037.059.02.019.058.068.084.11.027.04.079.107.115.146.037.04.067.086.067.102 0 .017.009.03.02.03.01 0 .02.01.02.023 0 .022.034.067.15.2a.701.701 0 0 1 .092.132c.016.035.06.096.095.135a.321.321 0 0 1 .066.088c0 .01.027.048.06.085.034.037.06.075.06.084 0 .01.037.06.081.113.045.052.081.102.081.11 0 .01.03.05.066.089.035.04.08.098.097.131.032.06.089.136.215.287a.305.305 0 0 1 .065.106c0 .015.01.028.02.028.011 0 .02.01.02.023 0 .012.021.044.046.072a.726.726 0 0 1 .136.18c0 .009.018.03.04.047.022.017.04.044.04.06 0 .015.032.061.071.103.039.041.07.082.07.091 0 .01.037.06.081.111.044.053.08.104.08.114 0 .01.012.03.026.045a.942.942 0 0 1 .066.088c.022.033.067.09.1.127a.68.68 0 0 1 .089.125.804.804 0 0 0 .09.132c.035.041.081.1.103.133a.97.97 0 0 0 .066.087c.014.015.025.036.025.047 0 .01.025.047.056.082.03.034.082.1.115.148.033.047.076.101.096.12.02.02.035.044.035.054 0 .017.02.045.142.196a.216.216 0 0 1 .04.062.3.3 0 0 0 .06.072c.033.034.06.072.06.086 0 .028.236.28.263.28.01 0 .042.024.072.053.03.03.066.054.081.054.016 0 .028.01.028.021 0 .012.027.022.06.022.034 0 .06.01.06.021 0 .014.122.022.323.022.202 0 .322-.008.322-.022 0-.012.028-.021.06-.021.034 0 .061-.01.061-.022 0-.011.013-.021.029-.021a.433.433 0 0 0 .13-.102l.153-.153c.028-.027.051-.068.051-.09 0-.023.01-.042.02-.042.011 0 .02-.018.02-.041 0-.023.01-.048.02-.055.012-.008.02-.056.02-.109 0-.052.01-.095.02-.095.014 0 .021-1.496.021-4.444 0-2.94-.007-4.449-.02-4.458-.011-.007-.02-.05-.02-.098 0-.046-.01-.084-.02-.084-.011 0-.02-.024-.02-.054s-.009-.053-.02-.053c-.01 0-.024-.02-.032-.045-.018-.06-.22-.278-.26-.278-.017 0-.031-.007-.031-.016 0-.02-.098-.07-.137-.07-.015 0-.04-.014-.057-.032-.044-.046-.495-.046-.539 0a.11.11 0 0 1-.067.033c-.02 0-.06.02-.087.042a.19.19 0 0 1-.073.043c-.045 0-.25.238-.25.289 0 .016-.006.033-.014.037-.03.014-.086.171-.086.24 0 .039-.009.08-.02.092-.013.013-.022 1.098-.025 3.123-.003 1.966-.012 3.087-.024 3.06a.598.598 0 0 0-.081-.112c-.081-.091-.112-.131-.112-.147a.25.25 0 0 0-.05-.066c-.028-.03-.05-.063-.05-.074a.417.417 0 0 0-.081-.11.411.411 0 0 1-.08-.109c0-.011-.026-.046-.056-.078a.56.56 0 0 1-.086-.119.667.667 0 0 0-.095-.132c-.036-.038-.066-.08-.066-.093 0-.013-.01-.024-.02-.024-.011 0-.02-.012-.02-.027 0-.016-.019-.042-.04-.059-.023-.017-.04-.041-.04-.054 0-.013-.042-.07-.092-.127a.534.534 0 0 1-.09-.124c0-.012-.028-.048-.06-.081-.034-.033-.061-.07-.061-.082a.34.34 0 0 0-.07-.102.372.372 0 0 1-.071-.099c0-.01-.01-.018-.02-.018-.011 0-.02-.01-.02-.022a.27.27 0 0 0-.061-.089c-.033-.037-.06-.08-.06-.094 0-.015-.032-.056-.071-.093-.039-.036-.07-.078-.07-.094 0-.015-.019-.042-.04-.059-.023-.017-.041-.04-.041-.05 0-.011-.016-.036-.035-.055a.397.397 0 0 1-.064-.094c-.016-.032-.037-.059-.047-.059-.03 0-.076-.058-.076-.095 0-.018-.009-.033-.02-.033-.011 0-.02-.01-.02-.023 0-.012-.023-.046-.05-.076-.028-.03-.05-.063-.05-.074a.396.396 0 0 0-.081-.107.368.368 0 0 1-.081-.11c0-.012-.027-.05-.06-.083-.034-.033-.06-.07-.06-.082a.52.52 0 0 0-.092-.126.584.584 0 0 1-.09-.12c0-.01-.012-.03-.025-.046a.873.873 0 0 1-.066-.088 1.225 1.225 0 0 0-.1-.128.665.665 0 0 1-.09-.126.663.663 0 0 0-.086-.123.253.253 0 0 1-.056-.083c0-.01-.023-.039-.05-.062-.029-.023-.051-.053-.051-.066 0-.013-.01-.024-.02-.024-.012 0-.02-.013-.02-.029s-.025-.057-.056-.091a1.998 1.998 0 0 1-.115-.149 1.029 1.029 0 0 0-.095-.12c-.02-.019-.037-.043-.037-.055 0-.01-.016-.039-.035-.062a2.211 2.211 0 0 1-.095-.127 1.319 1.319 0 0 0-.116-.143c-.03-.031-.056-.072-.056-.091 0-.02-.01-.035-.02-.035-.011 0-.02-.01-.02-.022 0-.012-.02-.045-.046-.072a1.743 1.743 0 0 1-.196-.26 1.44 1.44 0 0 0-.115-.157.196.196 0 0 1-.046-.065.537.537 0 0 0-.08-.11.474.474 0 0 1-.082-.116c0-.01-.015-.035-.035-.054a1.071 1.071 0 0 1-.095-.12 1.248 1.248 0 0 0-.09-.119.423.423 0 0 1-.06-.09c-.059-.123-.393-.49-.445-.49-.011 0-.02-.01-.02-.021 0-.012-.018-.022-.04-.022-.023 0-.04-.01-.04-.021 0-.012-.019-.022-.04-.022-.023 0-.041-.01-.041-.021 0-.012-.028-.021-.062-.021s-.076-.015-.092-.033c-.024-.025-.09-.032-.32-.032s-.295.007-.32.032zm-8.436.011c0 .012-.05.022-.11.022-.062 0-.112.01-.112.021 0 .012-.027.021-.06.021s-.06.009-.06.02c0 .01-.032.035-.071.054a.571.571 0 0 0-.232.24.329.329 0 0 1-.05.077.236.236 0 0 0-.05.116c0 .028-.01.052-.02.052-.012 0-.02.053-.02.118s-.01.118-.021.118c-.03 0-.014 8.624.015 8.783.035.188.049.236.067.236.009 0 .022.02.03.046.007.024.044.08.081.122a.377.377 0 0 1 .069.095c0 .009.011.017.025.017.014 0 .043.024.064.053.02.03.054.054.075.054.02 0 .037.01.037.021 0 .012.018.022.04.022.023 0 .04.01.04.021 0 .012.033.022.072.022.038 0 .07.01.07.021 0 .013.08.022.2.022.112 0 .206-.01.213-.022.007-.012.04-.021.072-.021.032 0 .06-.01.06-.022 0-.011.012-.021.027-.021.078 0 .415-.323.415-.397 0-.018.01-.032.02-.032.012 0 .02-.03.02-.065s.01-.064.02-.064c.014 0 .02-.47.02-1.364v-1.364h1.199c.776 0 1.202-.007 1.21-.021.007-.012.088-.022.181-.022s.175-.01.182-.021c.007-.012.056-.022.11-.022.055 0 .104-.01.111-.021.007-.012.053-.022.101-.022.049 0 .094-.01.1-.021.008-.012.04-.021.071-.021a.138.138 0 0 0 .088-.033c.017-.018.058-.032.092-.032.034 0 .062-.01.062-.021 0-.012.023-.022.05-.022.05 0 .068-.007.166-.061a.214.214 0 0 1 .086-.025c.022 0 .04-.01.04-.021 0-.012.018-.022.04-.022.021 0 .044-.01.051-.021.007-.012.026-.022.043-.022a.102.102 0 0 0 .059-.027c.072-.068.09-.08.13-.08.022 0 .04-.01.04-.021 0-.012.012-.022.027-.022.014 0 .046-.02.07-.043.023-.024.057-.043.074-.043.017 0 .03-.01.03-.021 0-.012.01-.022.022-.022.023 0 .03-.006.15-.118a.405.405 0 0 1 .095-.075c.021 0 .091-.062.155-.137a5.08 5.08 0 0 1 .168-.181.565.565 0 0 0 .116-.148c0-.015.01-.028.02-.028.011 0 .02-.012.02-.027 0-.016.019-.042.04-.059.023-.017.041-.044.041-.06 0-.017.023-.05.05-.073.028-.023.05-.06.05-.083 0-.023.01-.042.021-.042.011 0 .02-.012.02-.027 0-.014.019-.05.04-.08.022-.03.04-.07.04-.091 0-.021.01-.038.02-.038.012 0 .021-.029.021-.064 0-.036.009-.065.02-.065.011 0 .02-.015.02-.034 0-.018.014-.048.03-.065a.143.143 0 0 0 .03-.085c0-.028.01-.052.02-.052.012 0 .021-.028.021-.063s.01-.07.02-.077c.011-.007.02-.05.02-.098 0-.046.01-.084.02-.084.012 0 .02-.061.02-.14 0-.078.01-.14.02-.14.014 0 .02-.213.02-.6 0-.376-.007-.604-.02-.613-.01-.007-.02-.065-.02-.13 0-.064-.008-.116-.02-.116-.01 0-.02-.039-.02-.085 0-.047-.009-.09-.02-.098-.01-.007-.02-.042-.02-.076 0-.035-.009-.064-.02-.064-.011 0-.02-.023-.02-.05a.118.118 0 0 0-.03-.078.115.115 0 0 1-.03-.077c0-.027-.01-.056-.02-.063-.012-.007-.021-.032-.021-.055s-.01-.042-.02-.042c-.011 0-.02-.014-.02-.031a.335.335 0 0 0-.039-.105l-.065-.124a.377.377 0 0 0-.039-.062.575.575 0 0 1-.05-.08c-.02-.039-.045-.07-.053-.07-.01 0-.016-.015-.016-.033 0-.036-.549-.633-.582-.633-.011 0-.044-.024-.071-.054-.028-.03-.064-.053-.08-.053-.017 0-.053-.022-.08-.048-.086-.085-.112-.103-.143-.103-.018 0-.032-.01-.032-.021 0-.012-.022-.021-.05-.021-.028 0-.05-.01-.05-.022 0-.012-.019-.021-.04-.021-.023 0-.04-.01-.04-.022 0-.012-.02-.021-.041-.021-.022 0-.04-.01-.04-.022 0-.012-.02-.021-.042-.021a.114.114 0 0 1-.072-.033.11.11 0 0 0-.068-.032c-.02 0-.043-.01-.05-.021-.007-.012-.034-.022-.06-.022-.027 0-.054-.01-.061-.021-.007-.012-.04-.022-.072-.022-.032 0-.06-.01-.06-.021 0-.012-.04-.022-.09-.022-.05 0-.09-.01-.09-.021 0-.012-.04-.022-.09-.022-.05 0-.095-.01-.102-.021-.007-.012-.07-.022-.142-.022-.073 0-.13-.009-.13-.021 0-.013-.1-.021-.26-.021-.153 0-.267-.01-.274-.022-.008-.014-.571-.021-1.623-.021-1.06 0-1.611.007-1.611.021zm3.315 1.74c.006.011.06.021.12.021s.115.01.121.021c.007.012.049.022.092.022.044 0 .08.01.08.021 0 .012.025.022.055.023.03 0 .073.014.095.032a.147.147 0 0 0 .075.031c.02 0 .037.01.037.022 0 .012.018.021.04.021.022 0 .04.01.04.022 0 .012.018.021.04.021.023 0 .04.008.04.016 0 .01.03.03.066.047.036.017.08.048.098.07.018.021.04.039.048.039.03 0 .232.211.232.242 0 .012.017.037.037.056.02.02.05.066.065.105.016.038.036.07.044.07.009 0 .015.013.015.03 0 .015.014.04.03.055.017.015.03.055.03.089 0 .034.01.062.021.062.011 0 .02.028.02.063s.01.069.02.076c.011.008.02.07.02.141 0 .07.01.128.02.128.013 0 .02.085.02.213 0 .12-.008.22-.02.227-.01.007-.02.06-.02.118 0 .058-.009.11-.02.118-.01.007-.02.047-.02.087 0 .041-.009.074-.02.074-.011 0-.02.02-.02.043 0 .024-.007.043-.015.043-.009 0-.033.044-.055.097-.022.053-.047.096-.056.096-.008 0-.015.012-.015.027-.001.051-.154.233-.33.392a7.094 7.094 0 0 0-.123.113c-.015.015-.038.027-.05.027a.022.022 0 0 0-.021.021c0 .012-.018.022-.04.022-.023 0-.04.01-.04.021 0 .012-.019.022-.041.022-.022 0-.04.01-.04.021 0 .012-.018.022-.04.022-.02 0-.044.01-.051.021-.007.012-.034.021-.06.021-.027 0-.054.01-.06.022-.008.012-.04.022-.073.022-.032 0-.059.01-.059.02 0 .013-.03.022-.069.022-.038 0-.083.015-.1.033-.02.022-.072.032-.172.032-.081 0-.142.009-.142.021 0 .014-.383.022-1.109.022h-1.108V9.684h1.177c.764 0 1.183.008 1.19.022z" fill="#fff"/>
    <path fill-rule="evenodd" clip-rule="evenodd" d="M8.808.093c-.078.072-.123.143-.05.078.033-.03.064-.06.07-.067a.103.103 0 0 1 .04-.023c.015-.005.02-.015.01-.022-.011-.007-.043.008-.07.034zM8.49.421c-.026.028-.038.05-.029.05.022 0 .095-.082.083-.093-.005-.005-.029.015-.054.043zm1.476.115c.007.012.026.021.042.021.016 0 .029.01.029.022 0 .012.011.021.025.02.014 0 .004-.02-.022-.042-.05-.045-.095-.058-.074-.021zm1.582.884c.043.042.141.103.141.087 0-.01-.025-.033-.055-.049-.072-.038-.098-.05-.086-.038zM6.44 2.576c-.02.024-.03.043-.022.043.021 0 .079-.065.068-.076-.005-.006-.026.01-.046.033zm-.128.142c-.037.044-.013.065.026.023.018-.018.032-.039.032-.045 0-.023-.03-.011-.058.022zm-.166.171a4.43 4.43 0 0 1-.147.156c-.114.108-.234.24-.22.24.01 0 .07-.054.135-.119a.721.721 0 0 1 .135-.118c.01 0 .018-.013.018-.03 0-.016.048-.073.106-.127.058-.054.1-.103.093-.11-.006-.007-.06.042-.12.108zM18.5 5.335c0 .018-.013.033-.029.033-.015 0-.031.007-.035.016a2.28 2.28 0 0 1-.198.17 8.351 8.351 0 0 0-.376.313c-.212.174-.55.455-.732.607l-1.098.914-.323.267c-.122.1-.236.197-.254.213l-.192.158c-.087.07-.28.231-.43.357-.15.125-.313.262-.363.302a162.015 162.015 0 0 0-1.008.838l-.503.419a121.356 121.356 0 0 1-.763.633l-.233.194-.302.248c-.082.072-.474.4-.614.515-.308.252-.355.29-.396.327-.022.02-.153.13-.292.243a21.836 21.836 0 0 0-.422.352l-.414.344c-.19.16-.377.314-.413.344a76.838 76.838 0 0 0-.856.714c-.509.418-.49.403-1.108.918-.391.327-.592.494-.829.688-.329.27-.372.31-.366.333.003.014.106.14.229.28.123.14.344.396.492.567a252.576 252.576 0 0 1 .927 1.074 71.471 71.471 0 0 0 .452.522 24.033 24.033 0 0 1 .4.465c.117.134.275.318.436.506l.232.268a112.028 112.028 0 0 1 .585.675c.023.025.136.156.252.292.116.135.255.294.308.353.053.06.102.13.108.157.016.066.095.057.105-.012.003-.026.014-.048.025-.048.01 0 .019-.012.019-.027s.018-.051.04-.08a.205.205 0 0 0 .04-.083c0-.015.011-.041.025-.058.063-.074.076-.096.076-.127 0-.018.009-.033.02-.033.011 0 .02-.02.02-.043 0-.024.01-.043.02-.043.011 0 .02-.018.02-.039s.019-.06.04-.085c.023-.025.041-.061.041-.08 0-.017.01-.032.02-.032.011 0 .02-.019.02-.041 0-.022.014-.046.03-.053.017-.007.03-.032.03-.056s.01-.043.021-.043c.011 0 .02-.013.02-.027a.21.21 0 0 1 .04-.081c.022-.03.04-.07.04-.091 0-.02.01-.038.02-.038.012 0 .021-.02.021-.043 0-.023.009-.043.02-.043.011 0 .02-.019.02-.043 0-.023.01-.043.02-.043a.02.02 0 0 0 .02-.02c0-.02.079-.156.121-.21a.111.111 0 0 0 .02-.059c0-.018.01-.033.02-.033.012 0 .021-.019.021-.043 0-.023.009-.043.02-.043.011 0 .02-.024.02-.053 0-.03.01-.054.02-.054.012 0 .02-.015.02-.033 0-.018.013-.038.027-.044.015-.006.04-.044.055-.085.014-.04.034-.074.043-.074.01 0 .017-.02.017-.043 0-.024.009-.043.02-.043.01 0 .02-.02.02-.043 0-.024.009-.043.02-.043.011 0 .02-.02.02-.043 0-.023.007-.043.015-.043.009 0 .029-.031.045-.07a.505.505 0 0 1 .05-.096c.06-.074.072-.092.072-.122 0-.017.009-.037.02-.045.01-.007.02-.032.02-.055s.007-.041.015-.042c.008 0 .025-.021.037-.048.05-.109.136-.263.152-.27.01-.004.018-.026.018-.048 0-.023.009-.041.02-.041.01 0 .02-.02.02-.043 0-.024.007-.043.016-.043.01 0 .029-.034.044-.075.015-.042.035-.076.044-.076.01 0 .017-.019.017-.043 0-.023.009-.043.02-.043.01 0 .02-.018.02-.04 0-.023.014-.047.03-.053.017-.007.03-.032.03-.056s.008-.044.018-.044c.01 0 .023-.017.03-.037.006-.021.034-.08.062-.13a.428.428 0 0 0 .052-.123c0-.018.009-.032.02-.032.01 0 .02-.02.02-.043 0-.024.009-.043.02-.043.011 0 .02-.02.02-.043 0-.023.01-.043.02-.043.012 0 .036-.034.055-.075.018-.041.04-.075.05-.075.009 0 .016-.02.016-.043 0-.024.01-.043.02-.043.011 0 .02-.02.02-.043 0-.023.01-.043.02-.043.012 0 .021-.024.021-.053 0-.03.008-.054.018-.054.01 0 .023-.017.03-.038a.721.721 0 0 1 .072-.123.348.348 0 0 0 .06-.124c.001-.02.01-.037.021-.037.011 0 .02-.02.02-.043 0-.024.01-.043.02-.043.012 0 .02-.02.02-.043 0-.024.01-.043.021-.043.011 0 .02-.015.02-.032 0-.018.01-.032.02-.032.011 0 .02-.016.02-.034 0-.019.012-.048.026-.064.062-.075.075-.096.075-.127 0-.018.01-.033.02-.033.011 0 .02-.024.02-.054s.01-.054.02-.054c.012 0 .02-.012.02-.028 0-.015.019-.049.041-.074.022-.025.04-.06.04-.078 0-.017.01-.038.02-.045.012-.007.02-.032.02-.055s.014-.042.031-.042.03-.019.03-.043c0-.023.01-.043.02-.043.011 0 .02-.019.02-.043 0-.023.01-.042.02-.042.012 0 .02-.015.02-.033 0-.018.01-.032.02-.032.012 0 .021-.02.021-.043 0-.024.01-.043.02-.043.011 0 .02-.02.02-.043 0-.023.01-.043.02-.043.012 0 .02-.019.02-.043 0-.023.01-.043.02-.043.011 0 .026-.024.033-.053.007-.03.02-.054.028-.054.009 0 .02-.017.027-.038.007-.02.035-.079.063-.129a.428.428 0 0 0 .051-.123c0-.018.01-.032.02-.032.011 0 .02-.02.02-.043 0-.024.01-.043.02-.043a.02.02 0 0 0 .021-.02c0-.02.078-.156.12-.21a.111.111 0 0 0 .02-.06c0-.017.01-.032.021-.032.011 0 .02-.02.02-.043 0-.024.01-.043.02-.043.011 0 .02-.024.02-.054s.008-.053.017-.053c.01 0 .03-.027.046-.06a.459.459 0 0 1 .039-.07c.03-.03.08-.13.08-.16 0-.018.009-.033.02-.033.011 0 .02-.019.02-.042 0-.024.008-.043.017-.043.009 0 .028-.034.044-.076.015-.041.035-.075.044-.075.009 0 .016-.015.016-.034 0-.018.011-.047.025-.063.063-.075.076-.096.076-.127 0-.019.009-.033.02-.033.011 0 .02-.02.02-.044 0-.024.018-.065.04-.09.023-.026.04-.06.04-.075s.01-.028.02-.028c.012 0 .021-.02.021-.043 0-.023.01-.043.02-.043.011 0 .02-.024.02-.053 0-.034.012-.054.03-.054.017 0 .03-.02.03-.043 0-.024.01-.043.021-.043.011 0 .02-.02.02-.043 0-.023.01-.043.02-.043.011 0 .02-.014.02-.032 0-.018.01-.032.02-.032.012 0 .02-.02.02-.043 0-.024.01-.043.02-.043.012 0 .021-.02.021-.043 0-.024.01-.043.02-.043.011 0 .02-.02.02-.043 0-.024.01-.043.02-.043.011 0 .02-.014.02-.03 0-.017.012-.044.026-.06a.788.788 0 0 0 .11-.194c.005-.021.018-.038.028-.038.01 0 .018-.024.018-.054s.009-.053.02-.053c.011 0 .02-.02.02-.043 0-.024.01-.043.02-.043.011 0 .02-.01.02-.023s.023-.055.051-.093a.287.287 0 0 0 .05-.096c0-.013.01-.024.02-.024.012 0 .02-.02.02-.043 0-.024.01-.043.02-.043.012 0 .021-.02.021-.043 0-.024.009-.043.02-.043.011 0 .02-.018.02-.04 0-.02.018-.059.04-.084.023-.026.04-.061.04-.08 0-.018.008-.033.016-.033.02 0 .086-.124.086-.162 0-.017.009-.03.02-.03.01 0 .02-.02.02-.044 0-.023.007-.043.016-.043.01 0 .03-.034.044-.075.016-.041.035-.075.044-.075.01 0 .017-.015.017-.034 0-.018.011-.047.025-.063.063-.075.076-.097.076-.128 0-.018.009-.033.02-.033.01 0 .02-.017.02-.037 0-.02.018-.062.04-.092a.21.21 0 0 0 .04-.08c0-.015.01-.027.02-.027.012 0 .02-.02.02-.043 0-.023.01-.043.02-.043.012 0 .021-.024.021-.054 0-.033.011-.053.03-.053.017 0 .03-.02.03-.043 0-.024.008-.043.017-.043.009 0 .029-.034.044-.075.015-.042.035-.075.044-.075.01 0 .017-.02.017-.043 0-.024.009-.043.02-.043.01 0 .02-.02.02-.043 0-.024.009-.043.02-.043.01 0 .02-.02.02-.043 0-.024.009-.043.02-.043a.02.02 0 0 0 .02-.02c0-.02.079-.156.12-.21a.111.111 0 0 0 .021-.06c0-.017.01-.032.02-.032.012 0 .02-.024.02-.054s.01-.054.02-.054c.012 0 .021-.019.021-.043 0-.023.009-.043.02-.043.011 0 .02-.014.02-.032 0-.018.008-.032.017-.032.01 0 .034-.038.056-.086.02-.047.045-.085.053-.085.009 0 .015-.02.015-.044 0-.023.01-.043.02-.043.012 0 .02-.019.02-.043 0-.023.01-.043.02-.043.012 0 .021-.017.021-.038 0-.022.018-.06.04-.085.022-.026.04-.061.04-.08 0-.018.007-.033.016-.033.02 0 .085-.124.085-.163 0-.016.01-.03.02-.03.012 0 .02-.02.02-.043 0-.024.01-.043.02-.043.012 0 .021-.012.021-.027s.018-.05.04-.08c.022-.03.04-.07.04-.092 0-.02.01-.037.02-.037.012 0 .02-.02.02-.043 0-.024.014-.043.031-.043s.03-.02.03-.043c0-.024.01-.043.02-.043.012 0 .02-.017.02-.039 0-.021.019-.06.04-.085.023-.025.041-.06.041-.08 0-.017.01-.032.02-.032.011 0 .02-.02.02-.043 0-.024.01-.043.02-.043.012 0 .02-.023.02-.051 0-.029.014-.057.031-.064a.052.052 0 0 0 .03-.044c0-.017.007-.034.016-.038a.535.535 0 0 0 .105-.202c0-.017.01-.03.02-.03.011 0 .02-.02.02-.044 0-.023.01-.042.02-.042.012 0 .02-.02.02-.043 0-.024.01-.043.02-.043.012 0 .021-.01.021-.023s.023-.055.05-.094a.286.286 0 0 0 .05-.095c0-.013.01-.025.02-.025.012 0 .021-.019.021-.043 0-.023.01-.042.02-.042.011 0 .02-.025.02-.054 0-.03.008-.054.018-.054.01 0 .023-.017.03-.037a.79.79 0 0 1 .108-.195.11.11 0 0 0 .026-.06c0-.016.009-.03.02-.03.01 0 .02-.02.02-.043 0-.024.009-.043.02-.043.011 0 .02-.02.02-.043 0-.023-.009-.043-.02-.043-.011 0-.02.015-.02.032zm-14.831.151c-.038.049-.016.054.03.008.02-.022.028-.04.017-.04-.012 0-.033.014-.047.032zm-.307.321c-.232.24-.339.366-.205.242.113-.104.476-.491.469-.499a2.976 2.976 0 0 0-.264.257zM.73 8.57a1.58 1.58 0 0 0-.199.225c.006.006.103-.088.216-.207.113-.12.202-.22.198-.225-.003-.004-.1.09-.215.207zm-.291.3c-.031.037-.052.072-.046.079.013.013.113-.102.113-.13 0-.024-.006-.02-.067.051zm-.267.283-.06.07.066-.064a.516.516 0 0 0 .066-.07c0-.016-.017-.002-.072.064zm.024.412c.011.032.068.064.068.038 0-.009-.018-.028-.04-.042-.032-.022-.037-.021-.028.004zm.695.757c.065.085.212.243.227.243.017 0 .002-.02-.146-.188-.078-.089-.137-.129-.08-.055zm.432.484c.011.032.09.09.089.065 0-.01-.023-.034-.05-.055-.031-.024-.046-.028-.04-.01zm.885.959c.163.196.383.426.27.282a1.964 1.964 0 0 0-.26-.29l-.07-.065.06.073zm1.3 1.436c0 .009.018.028.04.043.047.031.054.015.012-.029-.032-.034-.052-.04-.052-.014zm.157.18c.048.048.093.081.101.073.008-.008-.002-.025-.021-.036a.515.515 0 0 1-.085-.074c-.027-.028-.056-.052-.065-.052-.01 0 .023.04.07.088zm.186.198c0 .008.022.04.05.069.028.03.05.045.05.035 0-.01-.022-.041-.05-.07-.028-.027-.05-.043-.05-.034zm.987 1.076c.017.023.058.072.091.109.034.036.08.09.101.118.055.072.135.138.09.074a.674.674 0 0 0-.065-.078c-.02-.019-.036-.04-.036-.049a.933.933 0 0 0-.171-.184c-.038-.03-.039-.03-.01.01zm.76 1.314c-.02.02-.017.05.004.05.01 0 .023-.014.03-.032.011-.033-.01-.044-.035-.018zm-1.042.88c-.073.057-.068.059.025.009.03-.017.056-.038.056-.048 0-.024 0-.024-.081.04zm-.41.34c-.037.03-.036.03.005.027.023-.002.042-.016.042-.031 0-.034 0-.034-.047.004zm-.774.66c-.025.013-.045.032-.045.042 0 .01.023.003.05-.016.074-.052.072-.065-.005-.026zm-.227.19c-.027.024-.037.04-.02.037.033-.007.09-.057.078-.07-.004-.005-.03.01-.058.034zm-.06.429c0 .018.078.052.09.038.005-.004-.014-.018-.041-.032-.027-.013-.049-.016-.049-.006zm5.39 1.883c.022.006.05.019.06.03.01.01.028.019.039.019.01 0 .002-.014-.02-.032a.141.141 0 0 0-.079-.03l-.04.002.04.01z" fill="#C00723"/>
    <path fill-rule="evenodd" clip-rule="evenodd" d="M8.904.029c-.02.015-.03.034-.022.042.007.007.002.014-.013.014-.029 0-.122.093-.718.72-.237.25-.455.478-.486.508-.03.03-.098.102-.15.16-.051.057-.129.14-.171.183a3.884 3.884 0 0 0-.132.14l-.15.158a1.524 1.524 0 0 0-.138.156c-.022.032-.048.058-.057.058a.686.686 0 0 0-.126.123c-.132.15-.115.132-.256.273a.848.848 0 0 0-.115.13c0 .015-.053.075-.067.075-.022 0-.236.229-.236.252 0 .015-.008.027-.018.027a.721.721 0 0 0-.135.118.767.767 0 0 1-.135.119c-.009 0-.01.01-.004.021.007.012.002.021-.011.021-.014 0-.163.148-.333.328-.169.18-.351.371-.405.425a1.47 1.47 0 0 0-.137.155c-.022.033-.047.059-.056.059-.024 0-.237.232-.237.257 0 .012-.008.022-.019.022a.869.869 0 0 0-.15.14.905.905 0 0 0-.133.162c0 .011-.008.02-.02.02-.01 0-.254.249-.54.553-.288.304-.56.587-.604.628-.045.041-.077.082-.072.091.005.01-.005.017-.023.017s-.027.01-.02.021c.006.012.002.022-.01.022-.027 0-.316.299-1.492 1.546-.518.549-.96 1.014-.98 1.032a.815.815 0 0 0-.078.086.356.356 0 0 1-.08.076.187.187 0 0 0-.062.07c-.012.025-.027.04-.032.035-.005-.005-.045.029-.088.076-.054.059-.095.085-.134.085-.065 0-.08.067-.028.127.1.115.2.217.215.217.01 0 .018.01.018.022 0 .012.175.21.388.438.213.228.42.454.458.501.04.047.08.08.091.074.011-.006.013-.003.004.007s.034.073.094.138c.779.837 1.087 1.174 1.172 1.28.055.07.33.372.61.671.279.3.508.55.508.556a.7.7 0 0 0 .165.157c.009 0 .016.012.017.027 0 .035.273.339.29.322.006-.007.011 0 .011.015s.146.182.323.37c.177.188.322.348.323.357 0 .008.033.044.072.079.107.095.23.22.23.234 0 .02.15.19.508.578.327.354.372.423.273.423-.01 0-.06.043-.11.096a.438.438 0 0 1-.11.097c-.012 0-.045.027-.075.059a.526.526 0 0 1-.11.09.502.502 0 0 0-.116.102c-.032.04-.067.071-.078.071-.022 0-.076.044-.154.124-.026.026-.056.048-.066.048-.011 0-.037.022-.057.05a.828.828 0 0 1-.137.122c-.056.04-.122.095-.147.123-.026.026-.054.049-.063.049a.431.431 0 0 0-.1.085.384.384 0 0 1-.104.086c-.01 0-.048.03-.083.065a.274.274 0 0 1-.08.064c-.01 0-.018.015-.018.034 0 .018-.008.027-.019.02-.01-.006-.049.02-.085.058a.649.649 0 0 1-.122.1.754.754 0 0 0-.124.098 1.922 1.922 0 0 1-.125.109c-.03.024-.065.053-.077.065a1.184 1.184 0 0 1-.091.074 1.39 1.39 0 0 0-.138.123.287.287 0 0 1-.088.07.327.327 0 0 0-.095.081.372.372 0 0 1-.104.087.3.3 0 0 0-.093.08c-.035.042-.074.075-.087.075-.04 0-.082.059-.082.116 0 .045.01.056.05.056.027 0 .054.01.061.021.007.012.033.022.059.022.041 0 .123.032.218.087.02.01.053.02.074.02.022 0 .045.01.052.021.007.012.04.022.072.022.033 0 .06.01.06.021 0 .012.026.022.058.022.033 0 .065.01.072.021.007.012.04.022.072.022.033 0 .06.01.06.021 0 .012.026.022.058.022.033 0 .065.01.072.021.007.012.04.022.072.022.032 0 .06.008.06.017 0 .02.19.091.256.096.025.002.045.009.045.015 0 .007.044.025.096.04a.82.82 0 0 1 .13.048c.02.011.058.02.085.02.028 0 .055.01.062.021.007.012.039.022.07.022.033 0 .064.01.071.021.007.012.038.022.07.022.032 0 .062.014.068.032.007.018.035.032.062.032.027 0 .055.01.062.022.007.012.04.021.072.021.032 0 .06.01.06.022 0 .012.026.021.058.021.033 0 .065.01.072.022.007.011.04.021.072.021.032 0 .06.01.06.022 0 .012.026.021.058.021.033 0 .065.01.072.022.007.011.04.021.072.021.032 0 .06.01.06.022 0 .011.02.021.044.022.025 0 .063.015.085.032.021.017.06.031.084.031.025 0 .051.01.058.022.007.012.034.021.06.021.027 0 .054.01.061.022.007.012.039.021.07.021.033 0 .064.01.071.022.007.012.034.021.06.021.027 0 .054.01.061.022.007.012.04.021.072.021.032 0 .059.01.059.022 0 .011.026.021.059.021.032 0 .089.016.126.036.126.067.137.072.187.072.028 0 .051.01.051.021 0 .012.027.022.06.022.032 0 .064.01.071.021.007.012.04.021.072.021.032 0 .06.01.06.022 0 .012.026.021.06.021.033 0 .06.01.06.022 0 .012.032.021.07.021.04 0 .071.01.071.022 0 .012.027.021.06.021.034 0 .06.01.06.02 0 .012.033.028.072.035.039.008.075.023.081.034.006.01.033.019.06.019.026 0 .053.01.06.021.007.012.04.022.072.022.032 0 .059.01.059.021 0 .012.027.022.06.022.032 0 .064.01.07.021.008.012.033.022.057.022.049 0 .187.047.209.07.007.009.033.016.056.016s.06.015.08.032a.176.176 0 0 0 .096.032c.032 0 .057.01.057.021 0 .012.027.022.06.022.034 0 .06.01.06.021 0 .012.033.022.071.022.04 0 .071.01.071.021 0 .012.027.022.06.022.034 0 .06.01.06.021 0 .012.033.022.071.022.04 0 .071.01.071.021 0 .012.027.022.06.022.034 0 .06.01.06.021 0 .012.017.022.036.022.02 0 .061.014.093.032a.254.254 0 0 0 .095.032c.02 0 .042.01.049.021.007.012.039.022.072.022.032 0 .059.01.059.021 0 .012.027.022.06.022.032 0 .064.01.07.021.008.012.04.022.073.022.032 0 .059.01.059.021 0 .012.026.022.06.022.032 0 .064.01.07.021.008.012.036.022.064.022.028 0 .064.014.08.032.04.042.088.041.088 0 0-.033-.041-.086-.303-.386a64.444 64.444 0 0 1-.372-.43 112.028 112.028 0 0 0-.817-.943 74.27 74.27 0 0 0-.578-.672 24.325 24.325 0 0 0-.258-.3 66.807 66.807 0 0 1-.452-.522 258.939 258.939 0 0 0-1.419-1.64 2.966 2.966 0 0 1-.23-.281c-.005-.024.038-.063.367-.333.237-.194.438-.361.83-.688.616-.515.598-.5 1.107-.918a20.876 20.876 0 0 1 2.106-1.754c.138-.114.27-.223.292-.243.04-.037.087-.075.395-.327.14-.115.532-.443.614-.515l.302-.248.233-.194.252-.209.51-.424a213.253 213.253 0 0 1 1.008-.838 163.547 163.547 0 0 1 .867-.721 45.188 45.188 0 0 1 .622-.515c.018-.016.132-.112.254-.213l.323-.268 1.098-.913c.182-.152.52-.433.732-.607l.141-.12c.024-.023.13-.11.235-.194.105-.084.195-.16.198-.17.004-.008.02-.015.035-.015.016 0 .029-.015.029-.033 0-.024-.026-.032-.11-.032-.062 0-.112-.01-.112-.021 0-.012-.017-.022-.039-.022-.021 0-.044-.01-.051-.021-.007-.012-.03-.022-.05-.022-.02 0-.042-.014-.048-.032-.007-.018-.026-.032-.043-.032-.017 0-.03-.01-.03-.022 0-.011-.019-.021-.04-.021-.023 0-.041-.008-.041-.018 0-.01-.032-.03-.07-.047-.04-.016-.071-.037-.071-.046 0-.01-.018-.018-.04-.018-.023 0-.04-.01-.04-.021 0-.012-.019-.022-.041-.022-.022 0-.04-.01-.04-.021 0-.012-.022-.022-.049-.022-.026 0-.053-.014-.06-.032-.006-.018-.025-.032-.042-.032s-.03-.01-.03-.022c0-.012-.019-.021-.041-.021-.022 0-.04-.008-.04-.018 0-.01-.032-.03-.07-.047-.04-.016-.072-.037-.072-.047 0-.01-.018-.017-.04-.017-.022 0-.04-.01-.04-.022 0-.011-.018-.021-.04-.021-.023 0-.04-.01-.04-.022 0-.011-.019-.02-.042-.02-.022 0-.046-.015-.052-.033-.006-.018-.029-.032-.05-.032-.02 0-.038-.008-.038-.016 0-.01-.05-.04-.11-.07-.062-.03-.111-.061-.112-.07 0-.009-.018-.016-.04-.016-.022 0-.04-.01-.04-.022 0-.011-.018-.021-.04-.021-.023 0-.04-.009-.04-.02 0-.01-.023-.024-.051-.032-.028-.007-.05-.023-.05-.034 0-.012-.019-.021-.04-.021-.023 0-.041-.008-.041-.017 0-.008-.05-.04-.111-.07-.06-.029-.11-.06-.11-.07 0-.008-.019-.015-.041-.015-.022 0-.04-.01-.04-.023s-.008-.018-.018-.011c-.01.006-.038-.008-.064-.031-.025-.024-.058-.043-.073-.043-.015 0-.027-.01-.027-.021 0-.012-.018-.022-.04-.022-.022 0-.04-.007-.04-.016 0-.009-.05-.04-.111-.07-.061-.029-.111-.06-.111-.07 0-.008-.023-.015-.052-.015-.029 0-.046-.01-.039-.022.007-.012-.006-.021-.029-.021s-.041-.008-.041-.016c0-.022-.117-.092-.153-.092-.016 0-.029-.01-.029-.021 0-.012-.018-.022-.04-.022-.022 0-.04-.008-.04-.017 0-.01-.032-.03-.07-.047-.04-.016-.071-.038-.071-.047 0-.01-.018-.018-.04-.018-.023 0-.04-.008-.04-.019 0-.01-.017-.024-.036-.031a.578.578 0 0 1-.096-.055.252.252 0 0 0-.096-.043c-.019-.001-.035-.011-.035-.023s-.018-.022-.04-.022c-.022 0-.04-.008-.04-.017 0-.01-.032-.031-.071-.047-.039-.017-.07-.038-.07-.047 0-.01-.018-.018-.039-.018s-.042-.008-.045-.018a.666.666 0 0 0-.23-.132c-.016 0-.029-.01-.029-.021 0-.012-.018-.022-.04-.022-.022 0-.04-.008-.04-.017 0-.01-.032-.031-.071-.047-.039-.017-.07-.038-.07-.047 0-.01-.018-.018-.04-.018-.02 0-.041-.008-.045-.018a.666.666 0 0 0-.229-.132c-.016 0-.03-.01-.03-.022 0-.011-.017-.021-.04-.021-.022 0-.04-.008-.04-.018 0-.01-.032-.03-.07-.047-.04-.016-.07-.036-.07-.044s-.017-.02-.036-.027a1.21 1.21 0 0 1-.142-.078.508.508 0 0 0-.136-.065c-.016 0-.03-.01-.03-.022 0-.012-.018-.021-.04-.021-.022 0-.04-.01-.04-.022 0-.011-.018-.021-.04-.021-.022 0-.04-.01-.04-.022 0-.011-.014-.021-.03-.021-.018 0-.031-.01-.031-.02 0-.011-.02-.027-.045-.035a.156.156 0 0 1-.056-.029.74.74 0 0 0-.213-.11c-.016 0-.029-.009-.029-.02 0-.013-.018-.022-.04-.022-.022 0-.04-.01-.04-.022 0-.012-.018-.021-.04-.021-.023 0-.04-.01-.04-.022 0-.012-.02-.021-.042-.021-.023 0-.037-.008-.031-.018.01-.02-.343-.22-.386-.219-.014 0-.026-.01-.026-.02 0-.013-.007-.022-.017-.022-.02 0-.24-.135-.279-.171a.096.096 0 0 0-.055-.023c-.017 0-.031-.01-.031-.021 0-.012-.018-.022-.04-.022-.021 0-.044-.01-.05-.021-.008-.012-.031-.022-.053-.022-.021 0-.039-.01-.039-.021 0-.012-.01-.022-.023-.022s-.038-.013-.056-.029a1.316 1.316 0 0 0-.162-.102.725.725 0 0 1-.138-.089c-.004-.008-.024-.016-.044-.016-.02 0-.043-.01-.05-.021-.007-.012-.03-.022-.052-.022-.021 0-.039-.01-.039-.021 0-.012-.017-.022-.038-.022-.021 0-.043-.012-.048-.027-.006-.015-.054-.052-.108-.08a.439.439 0 0 1-.105-.07c-.003-.009-.024-.016-.045-.016-.021 0-.039-.01-.039-.021 0-.012-.018-.022-.04-.022-.022 0-.04-.01-.04-.021 0-.012-.023-.022-.05-.022-.028 0-.051-.008-.051-.019 0-.01-.016-.024-.035-.031a.43.43 0 0 1-.126-.08A.36.36 0 0 0 9.8.427C9.764.41 9.735.389 9.735.38c0-.009-.018-.016-.04-.016-.023 0-.04-.01-.04-.022 0-.011-.019-.02-.041-.02-.022 0-.04-.01-.04-.022 0-.012-.02-.022-.042-.022A.114.114 0 0 1 9.46.246c-.017-.018-.04-.027-.05-.02-.01.006-.018-.003-.018-.022s-.017-.033-.04-.033c-.022 0-.04-.008-.04-.018 0-.01-.032-.03-.071-.047C9.202.09 9.171.07 9.171.06c0-.01-.019-.017-.04-.017-.023 0-.041-.01-.041-.022 0-.031-.145-.025-.186.009z" fill="#E72C2E"/>
</svg>
