<svg width="40" height="20" viewBox="0 0 40 20" fill="none" xmlns="http://www.w3.org/2000/svg">
    <path d="M3.067 5.96c1.715 6.187 1.67 6.013 1.783 6.36.074.232.41.547.633.547.373 0 .653-.267.895-1.118L9.843 1.353C10.313-.001 10.513 0 11.632 0c1.453 0 1.341.774 1.117 1.47L7.496 16.5c-.261.773-.746 1.23-1.454 1.23H5c-.596 0-1.211-.263-1.565-1.346L.049 5.821c-.205-.62.26-1.044.857-1.044h.746c.707 0 1.192.41 1.415 1.183zM31.047 16.577c-.559.89-.969 1.152-1.64 1.152h-1.08c-.522 0-.894-.418-.708-.804.112-.232.112-.209.261-.44l3.167-4.649c.299-.425.485-.893.485-1.241 0-.387-.206-.814-.336-1.008l-2.362-3.51c-.446-.657-.372-1.3.336-1.3h1.23c.597 0 1.08.332 1.416.913l.796 1.448c.299.502.671.818 1.081.818.335 0 .512-.19.932-.693l2.08-2.807c.402-.555.858-1.072 1.678-1.072h.894c.857 0 .82.686.56 1.073l-3.535 4.727c-.392.56-.559.974-.559 1.36 0 .31.074.7.559 1.396l2.571 3.753c.875 1.277.783 1.23.783 1.463 0 .348-.26.573-.783.573h-1.118c-.56 0-1.1-.321-1.453-.92l-1.64-2.722c-.391-.638-.67-.82-1.006-.82-.447 0-.782.321-1.08.824l-1.529 2.486z" fill="#fff"/>
    <path d="M19.713 20c-5.37 0-8.3-4.205-8.3-8.866 0-6.231 4.296-9.068 8.202-9.068 5.469 0 8.398 4.306 8.398 8.966 0 5.219-3.32 8.968-8.3 8.968zm-.199-2.754c3.18 0 5.169-2.424 5.169-6.239 0-3.506-1.939-6.188-4.97-6.188-2.833 0-4.969 2.114-4.969 6.137 0 3.713 1.987 6.29 4.77 6.29z" fill="#fff"/>
</svg>
