<?xml version="1.0" encoding="UTF-8"?>
<svg id="Capa_1" data-name="Capa 1" xmlns="http://www.w3.org/2000/svg" version="1.1" viewBox="0 0 538.3 44">
  <defs>
    <style>
      .cls-1 {
        fill-rule: evenodd;
      }

      .cls-1, .cls-2 {
        fill: #fff;
        stroke-width: 0px;
      }
    </style>
  </defs>
  <g>
    <path class="cls-2" d="M318.4,1.6h11.9l7.1,23.6,7.9-23.7h9.7l7.9,23.7,7.1-23.6h11.7l-13.6,41h-9.8l-8.2-23.4-8.1,23.4h-9.8l-13.6-41h-.2Z"/>
    <path class="cls-2" d="M395,1.3h10.9l17.3,41h-12.1l-3-7.3h-15.7l-2.9,7.3h-11.9L394.9,1.3h.1ZM404.9,26.3l-4.5-11.6-4.6,11.6h9.1Z"/>
    <path class="cls-2" d="M431.9,11.5h-12.2V1.6h35.7v9.9h-12.2v30.8h-11.3V11.5Z"/>
    <path class="cls-2" d="M457.2,22.1h0c0-12,9.1-21.3,21.5-21.3s13.7,3.5,17.3,8.5l-8.5,6.6c-2.3-2.9-5-4.8-8.9-4.8-5.7,0-9.7,4.8-9.7,10.8h0c0,6.2,4,11,9.7,11s6.8-2,9.2-4.9l8.5,6.1c-3.8,5.3-9,9.2-18,9.2s-21-8.9-21-21.1h0Z"/>
    <path class="cls-2" d="M501,1.6h11.3v15.2h14.5V1.6h11.3v40.7h-11.3v-15.5h-14.5v15.5h-11.3V1.6Z"/>
  </g>
  <path class="cls-2" d="M0,.9h17.5c10.3,0,16.9,5.3,16.9,14.3h0c0,9.7-7.4,14.8-17.5,14.8h-5.6v11.6H0V.9h0ZM16.6,21.2c4,0,6.5-2.1,6.5-5.3h0c0-3.6-2.4-5.5-6.5-5.5h-5.3v10.8h5.4,0Z"/>
  <path class="cls-2" d="M86,1.6h11.3v30.8h19.7v9.9h-31V1.6h0Z"/>
  <path class="cls-2" d="M122.1,1.6h11.3v40.7h-11.3V1.6Z"/>
  <path class="cls-2" d="M151.6,11.5h-12.2V1.6h35.7v9.9h-12.2v30.8h-11.3V11.5Z"/>
  <path class="cls-2" d="M181,1.6h11.3v40.7h-11.3V1.6Z"/>
  <path class="cls-2" d="M198.4,22.1h0c0-12,9.1-21.3,21.5-21.3s13.7,3.5,17.3,8.5l-8.5,6.6c-2.3-2.9-5-4.8-8.9-4.8-5.7,0-9.7,4.8-9.7,10.8h0c0,6.2,4,11,9.7,11s6.8-2,9.2-4.9l8.5,6.1c-3.8,5.3-9,9.2-18,9.2s-21-8.9-21-21.1h-.1Z"/>
  <path class="cls-2" d="M256,1.3h10.9l17.3,41h-12.1l-3-7.3h-15.7l-2.9,7.3h-11.9L255.9,1.3h.1ZM265.9,26.3l-4.5-11.6-4.6,11.6h9.1Z"/>
  <path class="cls-2" d="M288.2,1.6h11.3v30.8h19.7v9.9h-31V1.6h0Z"/>
  <g>
    <path class="cls-2" d="M44.8,36.3c-4-4-6.2-9.3-6.2-15s2.2-11,6.2-15S54.1.1,59.8.1s11,2.2,15,6.2,6.2,9.3,6.2,15-2.2,11-6.2,15-9.3,6.2-15,6.2-11-2.2-15-6.2ZM46.7,21.3c0,7.2,5.9,13.1,13.1,13.1s13.1-5.9,13.1-13.1-5.9-13.1-13.1-13.1-13.1,5.9-13.1,13.1Z"/>
    <path class="cls-1" d="M57.8,14.6c.6.1,1,.4,1.5.8,1,.9,1.3,2.4.7,3.6-.6,1.3-2,2.1-3.3,1.9-1.4-.2-2.8-1.5-2.8-3,0,0,0-.2-.1-.2,0,0-.1.1-.2.2-.6,1.1-.9,2.3-.9,3.6s.7,3.3,1.9,4.6c1.2,1.3,2.6,2,4.3,2.2,2.6.3,4.8-.6,6.4-2.5,1.2-1.5,1.7-3.2,1.6-5.2-.1-1.6-.8-3-1.8-4.2-1-1.1-2.4-1.9-3.9-2.2s-2-.2-2.9,0c-.1,0-.3,0-.4.2v.2Z"/>
  </g>
</svg>