<?xml version="1.0" encoding="utf-8"?>
<!-- Generator: Adobe Illustrator 23.1.1, SVG Export Plug-In . SVG Version: 6.00 Build 0)  -->
<svg version="1.1" id="Capa_1" xmlns="http://www.w3.org/2000/svg" xmlns:xlink="http://www.w3.org/1999/xlink" x="0px" y="0px"
	 viewBox="0 0 841.89 595.28" style="enable-background:new 0 0 841.89 595.28;" xml:space="preserve">
<style type="text/css">
	.st0{fill:#FFFFFF;}
</style>
<g>
	<g>
		<g>
			<g>
				<path class="st0" d="M221.64,180.79l16.9-1.09l0.33,78.46c0.01,3.34,0.2,6.11,0.55,8.3c0.36,2.19,0.91,3.92,1.67,5.19
					s1.74,2.15,2.93,2.63c1.19,0.49,2.6,0.68,4.25,0.57c1.64-0.11,3.08-0.48,4.3-1.12c1.23-0.64,2.24-1.65,3.03-3.02
					s1.39-3.17,1.79-5.41s0.59-5.03,0.58-8.37l-0.33-78.46l16.71-1.08l0.31,74.14c0.02,5.22-0.39,9.72-1.24,13.5
					c-0.85,3.77-1.98,6.96-3.39,9.56s-3.04,4.69-4.86,6.27c-1.83,1.58-3.73,2.82-5.69,3.72s-3.91,1.52-5.86,1.85
					c-1.94,0.33-3.71,0.55-5.31,0.66c-1.6,0.1-3.36,0.11-5.28,0.03c-1.92-0.09-3.86-0.45-5.8-1.1c-1.95-0.65-3.83-1.64-5.65-2.99
					c-1.82-1.34-3.45-3.22-4.88-5.64c-1.43-2.41-2.58-5.44-3.44-9.09c-0.86-3.64-1.3-8.1-1.32-13.36L221.64,180.79z"/>
			</g>
			<g>
				<g>
					<polygon class="st0" points="310.04,269.35 309.89,232.68 328.6,231.47 328.55,218.69 309.83,219.9 309.7,187.87 
						333.92,186.31 333.87,173.52 292.87,176.18 293.32,283.22 334.96,280.52 334.91,267.73 					"/>
				</g>
				<g>
					<polygon class="st0" points="336.73,161.36 328.34,151.44 307.6,166.32 314.43,173.21 					"/>
				</g>
			</g>
			<g>
				<path class="st0" d="M374.99,170.86l16.77-1.09l0.19,44.81l19.88-1.29l-0.19-44.81l16.77-1.09l0.45,107.04l-16.77,1.09
					l-0.21-49.45L392,227.36l0.21,49.45l-16.77,1.09L374.99,170.86z"/>
			</g>
			<g>
				<path class="st0" d="M459.64,165.37l19.3-1.25l20.91,105.72l-16.97,1.1l-3.12-18.98l-20.21,1.31l-2.84,19.37l-17.03,1.1
					L459.64,165.37z M477.76,239.86l-7.99-52.83l-0.71,0.05l-7.61,53.84L477.76,239.86z"/>
			</g>
			<g>
				<path class="st0" d="M534.37,268.54c-1.73,0.11-3.59,0.1-5.6-0.04c-2.01-0.14-4.02-0.59-6.03-1.33
					c-2.01-0.75-3.94-1.87-5.78-3.36s-3.47-3.51-4.88-6.05c-1.41-2.54-2.55-5.72-3.41-9.53c-0.86-3.81-1.3-8.39-1.32-13.74
					l-0.16-37.92c-0.02-5.39,0.39-10.02,1.24-13.9c0.85-3.88,1.98-7.17,3.39-9.87c1.41-2.7,3.05-4.89,4.9-6.56
					c1.85-1.66,3.77-2.97,5.75-3.91s3.96-1.6,5.92-1.98c1.96-0.38,3.79-0.62,5.47-0.73c4.4-0.29,8.09,0.07,11.05,1.07
					c2.96,1,5.34,2.48,7.15,4.43c1.8,1.95,3.08,4.28,3.85,6.99c0.77,2.71,1.16,5.61,1.17,8.7c0.01,2.3-0.1,4.43-0.33,6.38
					c-0.23,1.96-0.58,4.12-1.04,6.49l-13.6,0.88l-0.02-5.45c-0.02-5.89-0.71-10.26-2.06-13.09c-1.35-2.84-3.32-4.17-5.91-4.01
					c-1.55,0.1-2.91,0.48-4.07,1.14c-1.16,0.66-2.13,1.72-2.9,3.17s-1.36,3.34-1.76,5.66s-0.59,5.2-0.58,8.63l0.2,48.88
					c0.01,3.34,0.19,6.11,0.52,8.3s0.87,3.93,1.61,5.22c0.74,1.29,1.7,2.18,2.9,2.66c1.19,0.49,2.63,0.68,4.31,0.57
					c1.08-0.07,2.12-0.38,3.11-0.92s1.86-1.35,2.61-2.43c0.75-1.07,1.35-2.41,1.8-4c0.45-1.6,0.67-3.46,0.66-5.59l-0.04-10.47
					l15.35-0.99l0.04,9.9c0.04,8.61-1.97,15.09-6.01,19.45C547.79,265.57,541.97,268.01,534.37,268.54z"/>
			</g>
			<g>
				<path class="st0" d="M570.71,158.18l40.99-2.66l0.05,12.78l-24.22,1.57l0.13,32.02l18.72-1.21l0.05,12.78l-18.72,1.21
					l0.15,36.66l24.87-1.61l0.05,12.78l-41.64,2.7L570.71,158.18z"/>
			</g>
			<g>
				<path class="st0" d="M624.46,154.7l13.6-0.88l27.11,69.9l0.39-0.03c-0.14-1.66-0.32-3.51-0.54-5.54
					c-0.23-2.03-0.43-4.35-0.61-6.95c-0.18-2.6-0.35-5.55-0.49-8.84s-0.22-7.01-0.24-11.14l-0.16-39.04l15.02-0.97l0.45,107.04
					l-13.73,0.89l-26.97-68.02l-0.52,0.03c0.14,1.87,0.32,3.9,0.54,6.08c0.23,2.18,0.43,4.75,0.62,7.7c0.18,2.96,0.35,6.4,0.5,10.34
					s0.23,8.63,0.25,14.06l0.13,31.46l-14.9,0.96L624.46,154.7z"/>
			</g>
		</g>
		<g>
			<path class="st0" d="M213.3,288.43l-12.44-10.51c1.26-2.34,2.33-5.07,3.2-8.2c1.19-4.28,1.77-9.51,1.75-15.69l-0.16-37.92
				c-0.02-5.47-0.49-10.11-1.38-13.92c-0.9-3.81-2.09-6.97-3.57-9.48c-1.48-2.52-3.17-4.47-5.08-5.88c-1.91-1.4-3.86-2.42-5.88-3.07
				c-2.01-0.64-4.02-1.01-6.03-1.11s-3.83-0.1-5.47,0.01c-1.73,0.11-3.61,0.36-5.63,0.74c-2.03,0.38-4.07,1.05-6.11,1.99
				c-2.05,0.95-4.01,2.26-5.88,3.92c-1.87,1.67-3.54,3.86-4.99,6.56c-1.46,2.71-2.62,6-3.49,9.88c-0.87,3.88-1.29,8.52-1.27,13.91
				l0.16,37.92c0.03,6.48,0.66,11.82,1.91,16.02c1.25,4.2,2.87,7.58,4.87,10.12c2,2.55,4.23,4.39,6.7,5.52
				c2.47,1.14,4.93,1.85,7.39,2.15c0,0,6.04,0.79,14.12-1.17c2.24-0.67,4.49-1.74,6.74-3.2l3.11,2.53L213.3,288.43z M185.98,275.25
				c-0.79,1.39-1.8,2.39-3.03,3.02c-1.23,0.62-2.66,0.99-4.3,1.09c-1.69,0.11-3.15-0.07-4.41-0.53c-1.25-0.46-2.29-1.33-3.12-2.62
				c-0.83-1.28-1.45-3.01-1.87-5.18c-0.42-2.17-0.64-4.92-0.65-8.26l-0.2-48.7c-0.01-3.42,0.18-6.3,0.58-8.63
				c0.4-2.32,1.01-4.21,1.82-5.67c0.81-1.45,1.85-2.51,3.1-3.18s2.72-1.05,4.4-1.16c1.64-0.11,3.08,0.09,4.31,0.6
				c1.23,0.51,2.25,1.43,3.06,2.78c0.8,1.35,1.42,3.16,1.84,5.43c0.42,2.27,0.64,5.12,0.65,8.55l0.2,48.7
				c0.01,3.34-0.18,6.12-0.58,8.34C187.37,272.06,186.77,273.86,185.98,275.25z"/>
		</g>
	</g>
	<g>
		<path class="st0" d="M783.09,366.87l-0.85-159.23l-49.57,19.8l25.35-120.54l-623.14,36.46h-0.01c-9.05,0.54-17.36,3.95-24.01,9.19
			l0.02-0.05l-31.4,21.04c-12.58,8.43-20.13,22.58-20.13,37.72v167.49v65.2c0,25.39,21.35,45.56,46.7,44.12L659,456.53
			c15.14-0.86,29.77-5.79,42.35-14.26l64.81-43.64l-0.19,0.01C776.36,391.31,783.16,379.63,783.09,366.87z M742.86,391.15
			l-606.53,36.12c-6.84,0.41-13.39-1.84-18-6.16c-4.04-3.78-6.27-8.85-6.3-14.27l-1.15-223.97c-0.06-12.3,11.33-23.38,24.89-24.19
			l0,0l603.11-35.29L711.77,252.3l55.25-22.07l0.73,136.73C767.83,379.26,756.43,390.34,742.86,391.15z"/>
	</g>
	<g>
		<g>
			<g>
				<path class="st0" d="M152.99,316.64l13.36-0.87l0.3,72.5l18.21-1.18l0.04,9.83l-31.57,2.04L152.99,316.64z"/>
			</g>
			<g>
				<path class="st0" d="M193.02,314.05l32.65-2.12l0.04,9.83l-19.29,1.25l0.1,24.64l14.91-0.97l0.04,9.83l-14.91,0.97l0.12,28.2
					l19.81-1.28l0.04,9.83l-33.17,2.15L193.02,314.05z"/>
			</g>
			<g>
				<path class="st0" d="M232.71,377.15c-0.01-1.77,0.09-3.4,0.31-4.91s0.55-3.14,0.99-4.91l10.37-0.67l0.02,4
					c0.01,2.22,0.16,4.17,0.46,5.85c0.3,1.69,0.79,3.09,1.46,4.22c0.68,1.13,1.58,1.95,2.7,2.48c1.12,0.52,2.49,0.73,4.1,0.62
					c2.55-0.16,4.49-0.94,5.82-2.33c1.34-1.39,2-3.34,1.99-5.84c-0.01-1.29-0.11-2.46-0.3-3.52c-0.19-1.07-0.53-2.11-1-3.14
					c-0.47-1.03-1.1-2.11-1.9-3.23c-0.79-1.12-1.82-2.37-3.06-3.73l-13.99-14.57c-2.49-2.8-4.41-5.65-5.76-8.57
					c-1.35-2.92-2.04-6.08-2.05-9.49c-0.01-2.73,0.43-5.27,1.34-7.61c0.9-2.34,2.21-4.39,3.92-6.16c1.71-1.77,3.83-3.19,6.36-4.27
					s5.38-1.72,8.58-1.93c3.88-0.25,7.13,0.05,9.73,0.91c2.6,0.86,4.68,2.08,6.23,3.65c1.55,1.57,2.65,3.37,3.3,5.4
					c0.64,2.03,0.97,4.09,0.98,6.18c0.01,1.77-0.13,3.41-0.42,4.92s-0.61,3.18-0.99,5.01l-10.31,0.67l-0.02-3.9
					c-0.02-4.37-0.71-7.68-2.06-9.92c-1.35-2.24-3.54-3.27-6.56-3.07c-2.51,0.16-4.38,0.94-5.62,2.32
					c-1.23,1.38-1.84,3.17-1.84,5.35c0.01,1.16,0.1,2.2,0.3,3.11c0.19,0.92,0.47,1.76,0.84,2.53c0.36,0.77,0.8,1.5,1.32,2.21
					s1.11,1.44,1.76,2.2l15.6,16.54c2.83,3.26,5.01,6.42,6.54,9.49c1.53,3.07,2.3,6.37,2.31,9.9c0.01,2.92-0.46,5.59-1.44,8
					c-0.97,2.41-2.36,4.49-4.18,6.25c-1.81,1.75-4.01,3.16-6.59,4.21c-2.57,1.05-5.48,1.68-8.71,1.89c-3.99,0.26-7.3-0.03-9.94-0.85
					s-4.74-2.01-6.31-3.54c-1.57-1.54-2.68-3.33-3.33-5.38C233.04,381.46,232.72,379.34,232.71,377.15z"/>
			</g>
			<g>
				<path class="st0" d="M307.75,306.62l13.88-0.9c2.1-0.13,4.27-0.22,6.53-0.25c2.25-0.03,4.45,0.17,6.61,0.61
					c2.15,0.44,4.18,1.2,6.1,2.28s3.6,2.66,5.05,4.74c1.46,2.07,2.61,4.73,3.47,7.97c0.86,3.24,1.29,7.24,1.31,11.99l0.1,23.91
					c0.02,4.76-0.38,8.82-1.21,12.18c-0.83,3.37-1.96,6.17-3.4,8.42s-3.1,4.03-5.01,5.36c-1.9,1.33-3.93,2.35-6.08,3.07
					s-4.35,1.21-6.6,1.46c-2.25,0.26-4.43,0.46-6.53,0.59l-13.88,0.9L307.75,306.62z M324.82,379.14c2.41-0.16,4.39-0.57,5.95-1.25
					s2.8-1.78,3.7-3.3c0.9-1.52,1.52-3.55,1.86-6.1c0.33-2.54,0.49-5.75,0.48-9.6l-0.11-25.55c-0.02-3.86-0.2-7.03-0.55-9.54
					c-0.36-2.5-0.99-4.45-1.91-5.85s-2.16-2.34-3.73-2.82s-3.55-0.64-5.96-0.48l-3.4,0.22l0.27,64.5L324.82,379.14z"/>
			</g>
			<g>
				<path class="st0" d="M362.48,303.07l13.36-0.87l0.34,82.34l-13.36,0.87L362.48,303.07z"/>
			</g>
			<g>
				<path class="st0" d="M390.91,301.23l13.36-0.87c1.69-0.11,3.53-0.16,5.55-0.14c2.01,0.02,4.02,0.22,6.04,0.62
					c2.01,0.4,3.96,1.09,5.84,2.06s3.55,2.35,5,4.14s2.62,4.07,3.51,6.83c0.89,2.77,1.34,6.18,1.36,10.23l0.01,2.89
					c0.02,4.4-0.37,8.2-1.16,11.38c-0.8,3.19-1.86,5.89-3.2,8.12c-1.33,2.22-2.88,4.04-4.65,5.44c-1.76,1.4-3.6,2.49-5.5,3.27
					c-1.91,0.78-3.83,1.34-5.78,1.67c-1.94,0.33-3.77,0.56-5.49,0.67l-1.29,0.08l0.1,25.07l-13.36,0.87L390.91,301.23z
					 M405.14,348.43c2.41-0.16,4.43-0.62,6.08-1.38c1.65-0.77,2.96-1.88,3.93-3.34s1.67-3.31,2.1-5.54
					c0.42-2.23,0.62-4.89,0.61-7.97l-0.03-7.42c-0.01-2.44-0.21-4.55-0.6-6.3c-0.39-1.76-1.07-3.19-2.06-4.28
					c-0.98-1.09-2.3-1.87-3.96-2.32c-1.65-0.46-3.73-0.6-6.24-0.44l-0.67,0.04l0.16,39L405.14,348.43z"/>
			</g>
			<g>
				<path class="st0" d="M441.25,297.97l13.46-0.87l0.25,60.35c0.01,2.57,0.16,4.7,0.44,6.39s0.73,3.02,1.33,3.99
					c0.61,0.97,1.38,1.65,2.33,2.02c0.95,0.37,2.07,0.52,3.38,0.43c1.31-0.08,2.45-0.37,3.43-0.87c0.98-0.5,1.78-1.27,2.42-2.33
					c0.63-1.05,1.11-2.44,1.43-4.17c0.32-1.72,0.48-3.87,0.46-6.44l-0.25-60.35l13.31-0.86l0.24,57.03
					c0.02,4.02-0.32,7.48-0.99,10.38c-0.68,2.91-1.58,5.36-2.71,7.36s-2.42,3.61-3.87,4.83c-1.46,1.22-2.97,2.18-4.53,2.87
					c-1.56,0.7-3.12,1.17-4.66,1.44c-1.55,0.26-2.96,0.43-4.23,0.52c-1.27,0.08-2.67,0.09-4.2,0.03s-3.08-0.34-4.62-0.83
					c-1.55-0.49-3.05-1.26-4.5-2.29s-2.74-2.47-3.89-4.33c-1.14-1.85-2.06-4.18-2.74-6.98c-0.68-2.8-1.03-6.23-1.05-10.28
					L441.25,297.97z"/>
			</g>
			<g>
				<path class="st0" d="M506.19,303.6L492,304.52l-0.04-9.83l41.68-2.7l0.04,9.83l-14.14,0.92l0.3,72.5l-13.36,0.87L506.19,303.6z"
					/>
			</g>
			<g>
				<path class="st0" d="M552.37,290.77l15.37-1l16.64,81.28l-13.52,0.88l-2.48-14.59l-16.1,1.04l-2.26,14.9l-13.57,0.88
					L552.37,290.77z M566.8,348.04l-6.36-40.62l-0.57,0.04l-6.07,41.43L566.8,348.04z"/>
			</g>
			<g>
				<path class="st0" d="M592.56,288.17l13.88-0.9c2.1-0.13,4.27-0.22,6.52-0.25s4.46,0.17,6.61,0.61c2.15,0.44,4.18,1.2,6.1,2.28
					c1.91,1.08,3.6,2.66,5.05,4.74c1.46,2.07,2.61,4.73,3.47,7.97c0.85,3.24,1.29,7.24,1.31,11.99l0.1,23.91
					c0.02,4.76-0.38,8.82-1.21,12.18c-0.83,3.37-1.96,6.17-3.4,8.42s-3.11,4.04-5.01,5.36c-1.9,1.33-3.93,2.35-6.08,3.07
					s-4.35,1.21-6.6,1.46c-2.25,0.26-4.43,0.46-6.52,0.59l-13.88,0.9L592.56,288.17z M609.63,360.7c2.41-0.16,4.39-0.57,5.95-1.25
					s2.8-1.78,3.7-3.3s1.52-3.55,1.86-6.1c0.33-2.55,0.49-5.75,0.47-9.6l-0.11-25.55c-0.02-3.86-0.2-7.03-0.55-9.53
					c-0.36-2.5-0.99-4.45-1.91-5.86c-0.92-1.4-2.16-2.34-3.73-2.82s-3.55-0.64-5.96-0.48l-3.4,0.22l0.27,64.5L609.63,360.7z"/>
			</g>
			<g>
				<path class="st0" d="M647.29,284.63l32.65-2.12l0.04,9.83l-19.29,1.25l0.1,24.64l14.91-0.97l0.04,9.83l-14.91,0.97l0.12,28.2
					l19.81-1.28l0.04,9.83l-33.17,2.15L647.29,284.63z"/>
			</g>
			<g>
				<path class="st0" d="M686.97,347.73c-0.01-1.77,0.09-3.41,0.31-4.91c0.22-1.51,0.55-3.15,0.99-4.91l10.37-0.67l0.02,4
					c0.01,2.22,0.16,4.17,0.46,5.85c0.3,1.69,0.79,3.09,1.46,4.22c0.68,1.13,1.58,1.95,2.7,2.48c1.12,0.52,2.49,0.73,4.1,0.62
					c2.55-0.17,4.49-0.94,5.82-2.33c1.34-1.39,2-3.33,1.99-5.84c-0.01-1.29-0.11-2.46-0.3-3.53c-0.19-1.06-0.53-2.11-1-3.14
					c-0.46-1.03-1.1-2.11-1.89-3.23c-0.79-1.12-1.82-2.37-3.06-3.73l-13.99-14.57c-2.49-2.8-4.41-5.65-5.76-8.57
					c-1.35-2.92-2.04-6.08-2.05-9.49c-0.01-2.73,0.43-5.27,1.34-7.61c0.9-2.34,2.21-4.39,3.92-6.16c1.71-1.77,3.83-3.19,6.36-4.27
					c2.53-1.08,5.38-1.72,8.58-1.93c3.88-0.25,7.13,0.05,9.73,0.91c2.6,0.86,4.68,2.07,6.23,3.65c1.55,1.57,2.65,3.37,3.3,5.4
					c0.64,2.03,0.97,4.09,0.98,6.18c0.01,1.77-0.13,3.41-0.42,4.92s-0.61,3.18-0.99,5.01l-10.31,0.67l-0.02-3.9
					c-0.02-4.37-0.71-7.68-2.06-9.92c-1.35-2.24-3.54-3.27-6.56-3.07c-2.51,0.16-4.38,0.94-5.62,2.32
					c-1.23,1.38-1.84,3.17-1.84,5.35c0.01,1.16,0.1,2.2,0.3,3.12c0.19,0.92,0.47,1.76,0.84,2.53c0.36,0.77,0.8,1.5,1.32,2.21
					s1.11,1.44,1.76,2.2l15.6,16.54c2.83,3.26,5.01,6.42,6.54,9.49c1.53,3.07,2.3,6.37,2.31,9.9c0.01,2.92-0.46,5.59-1.44,8
					c-0.97,2.41-2.36,4.49-4.18,6.25c-1.81,1.76-4.01,3.16-6.59,4.21s-5.48,1.68-8.71,1.89c-3.99,0.26-7.3-0.03-9.94-0.85
					s-4.74-2.01-6.31-3.55c-1.57-1.54-2.68-3.33-3.33-5.38C687.31,352.03,686.98,349.92,686.97,347.73z"/>
			</g>
		</g>
	</g>
</g>
</svg>
