<?xml version="1.0" encoding="utf-8"?>
<!-- Generator: Adobe Illustrator 16.0.0, SVG Export Plug-In . SVG Version: 6.00 Build 0)  -->
<!DOCTYPE svg PUBLIC "-//W3C//DTD SVG 1.1//EN" "http://www.w3.org/Graphics/SVG/1.1/DTD/svg11.dtd">
<svg version="1.1" id="Capa_1" xmlns="http://www.w3.org/2000/svg" xmlns:xlink="http://www.w3.org/1999/xlink" x="0px" y="0px"
	 width="63.729px" height="52.751px" viewBox="0 0 63.729 52.751" enable-background="new 0 0 63.729 52.751" xml:space="preserve">
<path fill="#FBC239" d="M47.754,30.53L34.817,8.681l3.897-6.53L35.109,0l-2.736,4.585L29.637,0l-3.604,2.151l3.896,6.529
	L16.916,30.53H47.754z M24.311,26.332l8.025-13.449l8.025,13.449H24.311z"/>
<g>
	<path fill="#151416" d="M0,42.115h9.348v2.389H6.059v8.241H3.271v-8.241H0V42.115z"/>
</g>
<g>
	<path fill="#151416" d="M41.863,49.438v3.307h-2.752v-10.63h4.656c2.303,0,3.859,1.299,3.859,3.67c0,2.354-1.557,3.653-3.859,3.653
		H41.863z M43.473,44.452h-1.609v2.666h1.609c1.004,0,1.455-0.537,1.455-1.333C44.928,44.972,44.477,44.452,43.473,44.452z"/>
</g>
<g>
	<circle fill="#151416" cx="62.336" cy="43.502" r="1.393"/>
</g>
<g>
	<circle fill="#151416" cx="24.006" cy="51.292" r="1.393"/>
</g>
<g>
	<path fill="#151416" d="M22.613,42.043H25.4v6.689h-2.787V42.043z"/>
</g>
<g>
	<path fill="#151416" d="M63.729,52.751h-2.787v-6.689h2.787V52.751z"/>
</g>
</svg>
