<?xml version="1.0" encoding="utf-8"?>
<!-- Generator: Adobe Illustrator 23.1.1, SVG Export Plug-In . SVG Version: 6.00 Build 0)  -->
<svg version="1.1" id="Capa_1" xmlns="http://www.w3.org/2000/svg" xmlns:xlink="http://www.w3.org/1999/xlink" x="0px" y="0px"
	 viewBox="0 0 841.89 595.28" style="enable-background:new 0 0 841.89 595.28;" xml:space="preserve">
<style type="text/css">
	.st0{fill:#FFFFFF;}
</style>
<g>
	<g>
		<g>
			<g>
				<path class="st0" d="M220.59,180.45l16.97-1.1l0.33,78.77c0.01,3.36,0.2,6.13,0.55,8.33c0.36,2.2,0.92,3.94,1.68,5.21
					s1.74,2.15,2.94,2.64c1.19,0.49,2.61,0.68,4.26,0.57s3.09-0.48,4.32-1.13c1.23-0.65,2.25-1.66,3.04-3.03
					c0.8-1.37,1.4-3.18,1.8-5.43s0.59-5.05,0.58-8.41l-0.33-78.77l16.78-1.09l0.31,74.43c0.02,5.24-0.39,9.76-1.25,13.55
					c-0.85,3.79-1.99,6.99-3.4,9.6c-1.42,2.61-3.05,4.71-4.88,6.29c-1.84,1.59-3.74,2.83-5.71,3.74c-1.97,0.9-3.93,1.52-5.88,1.86
					c-1.95,0.34-3.73,0.56-5.33,0.66s-3.37,0.11-5.3,0.03c-1.93-0.09-3.87-0.45-5.82-1.1c-1.95-0.65-3.84-1.65-5.67-3
					s-3.46-3.24-4.9-5.66c-1.44-2.42-2.59-5.46-3.45-9.12s-1.3-8.13-1.32-13.41L220.59,180.45z"/>
			</g>
			<g>
				<g>
					<polygon class="st0" points="309.33,269.35 309.18,232.54 327.97,231.32 327.91,218.49 309.12,219.71 308.99,187.56 
						333.3,185.98 333.25,173.15 292.1,175.82 292.55,283.27 334.35,280.56 334.29,267.73 					"/>
				</g>
				<g>
					<polygon class="st0" points="336.13,160.94 327.7,150.98 306.88,165.92 313.74,172.84 					"/>
				</g>
			</g>
			<g>
				<path class="st0" d="M374.54,170.48l16.84-1.09l0.19,44.98l19.96-1.29l-0.19-44.98l16.84-1.09l0.45,107.45l-16.84,1.09
					l-0.21-49.64l-19.96,1.29l0.21,49.64l-16.84,1.09L374.54,170.48z"/>
			</g>
			<g>
				<path class="st0" d="M459.51,164.97l19.37-1.25l20.99,106.12l-17.04,1.1l-3.13-19.05l-20.29,1.31l-2.85,19.44l-17.1,1.11
					L459.51,164.97z M477.7,239.75l-8.02-53.03l-0.72,0.05l-7.64,54.05L477.7,239.75z"/>
			</g>
			<g>
				<path class="st0" d="M534.53,268.54c-1.73,0.11-3.61,0.1-5.62-0.04c-2.02-0.14-4.04-0.59-6.05-1.34
					c-2.02-0.75-3.95-1.87-5.8-3.37s-3.48-3.52-4.9-6.07c-1.42-2.55-2.56-5.74-3.42-9.56c-0.86-3.82-1.3-8.42-1.33-13.79
					l-0.16-38.06c-0.02-5.41,0.39-10.06,1.24-13.96c0.85-3.89,1.99-7.2,3.41-9.91c1.42-2.71,3.06-4.91,4.91-6.58
					c1.86-1.67,3.78-2.98,5.77-3.93s3.97-1.61,5.94-1.99c1.97-0.38,3.8-0.62,5.49-0.73c4.42-0.29,8.12,0.07,11.09,1.07
					s5.36,2.49,7.17,4.44c1.8,1.96,3.09,4.3,3.86,7.02c0.77,2.72,1.16,5.63,1.17,8.73c0.01,2.31-0.1,4.44-0.33,6.41
					c-0.23,1.97-0.58,4.14-1.04,6.52l-13.65,0.88l-0.02-5.47c-0.02-5.91-0.71-10.3-2.07-13.14c-1.35-2.85-3.33-4.19-5.93-4.02
					c-1.56,0.1-2.92,0.48-4.09,1.15c-1.17,0.66-2.14,1.72-2.91,3.18c-0.77,1.46-1.36,3.35-1.77,5.68s-0.6,5.22-0.58,8.66l0.2,49.07
					c0.01,3.36,0.19,6.13,0.52,8.34c0.34,2.2,0.87,3.95,1.61,5.24c0.74,1.29,1.71,2.19,2.91,2.68c1.19,0.49,2.64,0.68,4.33,0.57
					c1.09-0.07,2.12-0.38,3.12-0.92c0.99-0.55,1.87-1.36,2.62-2.44s1.36-2.42,1.8-4.02c0.45-1.6,0.67-3.47,0.66-5.61l-0.04-10.51
					l15.41-1l0.04,9.94c0.04,8.64-1.98,15.15-6.03,19.52C548,265.55,542.16,268,534.53,268.54z"/>
			</g>
			<g>
				<path class="st0" d="M571.01,157.75l41.15-2.67l0.05,12.83l-24.32,1.57l0.13,32.15l18.79-1.22l0.05,12.83l-18.79,1.22l0.15,36.8
					l24.97-1.62l0.05,12.83l-41.8,2.71L571.01,157.75z"/>
			</g>
			<g>
				<path class="st0" d="M624.97,154.26l13.65-0.88l27.21,70.17l0.39-0.03c-0.14-1.67-0.32-3.52-0.54-5.57
					c-0.23-2.04-0.43-4.37-0.62-6.98c-0.18-2.61-0.35-5.57-0.49-8.87c-0.14-3.3-0.23-7.03-0.24-11.18l-0.16-39.19l15.08-0.98
					l0.45,107.45l-13.78,0.89l-27.08-68.29l-0.52,0.03c0.14,1.88,0.32,3.91,0.55,6.1s0.43,4.77,0.62,7.73
					c0.18,2.97,0.35,6.43,0.5,10.38c0.15,3.95,0.23,8.66,0.26,14.11l0.13,31.58l-14.95,0.97L624.97,154.26z"/>
			</g>
			<g>
				<path class="st0" d="M151.68,316.78l12.9-0.84l0.3,72.5l17.59-1.14l0.04,9.83l-30.49,1.97L151.68,316.78z"/>
			</g>
			<g>
				<path class="st0" d="M209.51,396.12c-1.36,0.09-2.84,0.08-4.43-0.03c-1.6-0.11-3.18-0.45-4.74-1.02
					c-1.56-0.57-3.07-1.43-4.52-2.58c-1.45-1.14-2.74-2.69-3.86-4.64s-2.02-4.39-2.7-7.32s-1.02-6.45-1.04-10.56l-0.12-29.16
					c-0.02-4.15,0.31-7.71,0.98-10.7c0.67-2.98,1.56-5.52,2.69-7.6c1.12-2.08,2.4-3.76,3.84-5.05c1.44-1.28,2.95-2.29,4.52-3.02
					c1.57-0.73,3.14-1.24,4.7-1.53s3-0.48,4.33-0.57c1.26-0.08,2.67-0.08,4.21-0.01c1.55,0.08,3.09,0.36,4.64,0.86
					s3.05,1.28,4.52,2.36c1.46,1.08,2.77,2.59,3.9,4.52s2.05,4.37,2.75,7.3c0.69,2.93,1.05,6.5,1.07,10.71l0.12,29.16
					c0.02,4.08-0.32,7.62-1,10.6c-0.69,2.99-1.59,5.54-2.71,7.65c-1.12,2.11-2.42,3.84-3.89,5.17s-2.98,2.39-4.52,3.19
					c-1.54,0.79-3.08,1.35-4.6,1.67C212.11,395.83,210.74,396.04,209.51,396.12z M209.47,386.72c1.26-0.08,2.36-0.36,3.31-0.84
					s1.72-1.25,2.33-2.32s1.07-2.46,1.38-4.16c0.31-1.71,0.46-3.85,0.45-6.42l-0.16-37.46c-0.01-2.63-0.18-4.83-0.5-6.57
					c-0.32-1.75-0.79-3.14-1.41-4.18c-0.62-1.04-1.4-1.75-2.35-2.14c-0.95-0.39-2.05-0.54-3.31-0.46c-1.3,0.08-2.42,0.38-3.39,0.9
					c-0.96,0.51-1.76,1.33-2.38,2.44c-0.63,1.12-1.09,2.57-1.4,4.36c-0.31,1.79-0.46,4-0.45,6.63l0.16,37.46
					c0.01,2.57,0.18,4.69,0.5,6.36c0.32,1.67,0.8,2.99,1.44,3.98c0.63,0.99,1.43,1.66,2.4,2.01
					C207.04,386.66,208.17,386.8,209.47,386.72z"/>
			</g>
			<g>
				<path class="st0" d="M239.32,376.78c-0.01-1.77,0.09-3.41,0.3-4.91c0.21-1.51,0.53-3.14,0.95-4.91l10.01-0.65l0.02,4
					c0.01,2.22,0.16,4.17,0.45,5.85c0.29,1.69,0.76,3.09,1.41,4.22c0.65,1.13,1.52,1.96,2.6,2.48c1.08,0.53,2.4,0.74,3.96,0.63
					c2.46-0.16,4.33-0.93,5.62-2.32s1.93-3.33,1.92-5.84c-0.01-1.29-0.1-2.46-0.29-3.53s-0.51-2.11-0.96-3.15
					c-0.45-1.03-1.06-2.11-1.83-3.23c-0.77-1.12-1.75-2.37-2.96-3.74l-13.51-14.6c-2.4-2.8-4.26-5.66-5.57-8.58
					c-1.31-2.92-1.97-6.08-1.98-9.49c-0.01-2.73,0.42-5.27,1.29-7.61s2.13-4.39,3.79-6.15c1.65-1.76,3.7-3.18,6.14-4.26
					c2.44-1.07,5.2-1.71,8.29-1.91c3.75-0.24,6.89,0.07,9.4,0.93c2.51,0.87,4.52,2.09,6.02,3.66s2.56,3.38,3.19,5.41
					c0.62,2.03,0.94,4.09,0.95,6.18c0.01,1.77-0.13,3.41-0.4,4.92c-0.28,1.51-0.59,3.18-0.95,5l-9.96,0.65l-0.02-3.9
					c-0.02-4.37-0.68-7.68-1.99-9.92s-3.42-3.28-6.34-3.09c-2.43,0.16-4.23,0.93-5.42,2.3c-1.19,1.38-1.78,3.16-1.77,5.35
					c0,1.16,0.1,2.2,0.29,3.12c0.19,0.92,0.46,1.76,0.81,2.53c0.35,0.77,0.78,1.5,1.28,2.21s1.07,1.44,1.7,2.2l15.07,16.58
					c2.74,3.26,4.84,6.43,6.32,9.5c1.47,3.07,2.22,6.37,2.23,9.91c0.01,2.93-0.45,5.59-1.39,8s-2.28,4.49-4.03,6.24
					s-3.87,3.15-6.36,4.2c-2.49,1.05-5.29,1.67-8.41,1.87c-3.85,0.25-7.05-0.04-9.6-0.87s-4.58-2.02-6.09-3.56
					c-1.52-1.54-2.59-3.34-3.21-5.39C239.65,381.08,239.33,378.96,239.32,376.78z"/>
			</g>
			<g>
				<path class="st0" d="M311.78,306.41l13.4-0.87c2.03-0.13,4.13-0.21,6.3-0.24c2.18-0.03,4.3,0.18,6.38,0.62
					c2.08,0.44,4.04,1.21,5.89,2.29c1.85,1.09,3.47,2.67,4.88,4.75c1.4,2.08,2.52,4.74,3.35,7.98c0.83,3.24,1.25,7.24,1.27,12
					l0.1,23.91c0.02,4.76-0.37,8.82-1.17,12.18c-0.8,3.36-1.89,6.17-3.28,8.41c-1.39,2.24-3,4.03-4.84,5.35s-3.79,2.34-5.87,3.06
					s-4.2,1.2-6.37,1.45c-2.17,0.25-4.27,0.45-6.3,0.58l-13.4,0.87L311.78,306.41z M328.28,378.97c2.32-0.15,4.24-0.56,5.75-1.24
					s2.7-1.77,3.57-3.29c0.87-1.52,1.47-3.55,1.79-6.1c0.32-2.54,0.47-5.75,0.46-9.6l-0.11-25.55c-0.02-3.86-0.2-7.03-0.54-9.54
					c-0.34-2.5-0.96-4.45-1.84-5.86c-0.89-1.41-2.09-2.35-3.6-2.83c-1.51-0.48-3.43-0.65-5.76-0.5l-3.29,0.21l0.27,64.5
					L328.28,378.97z"/>
			</g>
			<g>
				<path class="st0" d="M364.64,302.99l12.9-0.84l0.34,82.34l-12.9,0.84L364.64,302.99z"/>
			</g>
			<g>
				<path class="st0" d="M392.08,301.21l12.9-0.84c1.63-0.11,3.41-0.15,5.36-0.13c1.94,0.02,3.89,0.23,5.83,0.63
					c1.94,0.41,3.82,1.1,5.64,2.07c1.81,0.98,3.42,2.36,4.83,4.15c1.4,1.79,2.53,4.07,3.39,6.84c0.86,2.77,1.29,6.18,1.31,10.23
					l0.01,2.89c0.02,4.4-0.36,8.2-1.12,11.38c-0.77,3.18-1.8,5.89-3.08,8.11c-1.29,2.22-2.78,4.03-4.49,5.43
					c-1.7,1.4-3.48,2.48-5.32,3.26s-3.7,1.33-5.57,1.66c-1.88,0.33-3.64,0.55-5.3,0.66l-1.25,0.08l0.1,25.07l-12.9,0.84
					L392.08,301.21z M405.83,348.44c2.32-0.15,4.28-0.61,5.87-1.37s2.86-1.87,3.8-3.33s1.61-3.3,2.02-5.53s0.6-4.89,0.59-7.97
					l-0.03-7.42c-0.01-2.44-0.2-4.54-0.57-6.3c-0.37-1.76-1.04-3.19-1.99-4.28c-0.95-1.1-2.23-1.87-3.82-2.33
					c-1.6-0.46-3.61-0.61-6.03-0.45l-0.65,0.04l0.16,39L405.83,348.44z"/>
			</g>
			<g>
				<path class="st0" d="M440.7,298.06l13-0.84l0.25,60.35c0.01,2.57,0.15,4.7,0.43,6.39c0.27,1.69,0.7,3.02,1.29,3.99
					s1.34,1.65,2.25,2.02s2,0.52,3.27,0.44c1.26-0.08,2.37-0.37,3.31-0.86s1.72-1.27,2.33-2.32c0.61-1.05,1.07-2.44,1.38-4.16
					s0.46-3.87,0.44-6.44l-0.25-60.35l12.85-0.83l0.24,57.03c0.02,4.02-0.3,7.48-0.96,10.38c-0.65,2.9-1.52,5.35-2.61,7.35
					s-2.34,3.61-3.74,4.82c-1.41,1.22-2.87,2.17-4.37,2.86c-1.51,0.69-3.01,1.17-4.5,1.43c-1.49,0.26-2.86,0.43-4.08,0.51
					s-2.58,0.09-4.06,0.02s-2.97-0.35-4.46-0.84c-1.5-0.5-2.95-1.26-4.34-2.3c-1.4-1.03-2.65-2.48-3.76-4.34
					c-1.1-1.86-1.99-4.19-2.64-6.99c-0.66-2.8-1-6.23-1.01-10.28L440.7,298.06z"/>
			</g>
			<g>
				<path class="st0" d="M503.41,303.84l-13.7,0.89l-0.04-9.83l40.25-2.61l0.04,9.83L516.31,303l0.3,72.5l-12.9,0.84L503.41,303.84z
					"/>
			</g>
			<g>
				<path class="st0" d="M548,291.11l14.84-0.96l16.09,81.32l-13.05,0.85l-2.4-14.6l-15.54,1.01l-2.18,14.9l-13.1,0.85L548,291.11z
					 M561.94,348.41l-6.15-40.64l-0.55,0.04l-5.86,41.41L561.94,348.41z"/>
			</g>
			<g>
				<path class="st0" d="M586.81,288.6l13.4-0.87c2.03-0.13,4.13-0.21,6.3-0.24c2.18-0.03,4.3,0.18,6.38,0.62s4.04,1.21,5.89,2.29
					c1.85,1.09,3.47,2.67,4.88,4.75s2.52,4.74,3.35,7.98s1.25,7.24,1.27,12l0.1,23.91c0.02,4.76-0.37,8.82-1.17,12.18
					s-1.89,6.17-3.28,8.41s-3,4.03-4.84,5.35s-3.79,2.34-5.87,3.06c-2.07,0.71-4.2,1.2-6.37,1.45s-4.27,0.45-6.3,0.58l-13.4,0.87
					L586.81,288.6z M603.31,361.16c2.32-0.15,4.24-0.56,5.75-1.24s2.7-1.77,3.57-3.29c0.87-1.52,1.47-3.55,1.79-6.1
					c0.32-2.54,0.47-5.75,0.46-9.6l-0.11-25.55c-0.02-3.86-0.2-7.03-0.54-9.54c-0.34-2.5-0.96-4.45-1.84-5.86
					c-0.89-1.41-2.09-2.35-3.6-2.83c-1.51-0.48-3.43-0.65-5.76-0.5l-3.29,0.21l0.27,64.5L603.31,361.16z"/>
			</g>
			<g>
				<path class="st0" d="M658.84,367.01c-1.36,0.09-2.84,0.08-4.43-0.03c-1.6-0.11-3.18-0.45-4.74-1.02
					c-1.56-0.57-3.07-1.43-4.52-2.58c-1.45-1.14-2.74-2.69-3.86-4.64s-2.02-4.39-2.7-7.32s-1.02-6.45-1.04-10.56l-0.12-29.16
					c-0.02-4.15,0.31-7.71,0.98-10.7c0.67-2.98,1.56-5.52,2.69-7.6c1.12-2.08,2.4-3.76,3.84-5.05c1.44-1.28,2.95-2.29,4.52-3.02
					c1.57-0.73,3.14-1.24,4.7-1.53s3-0.48,4.33-0.57c1.26-0.08,2.67-0.08,4.21-0.01c1.55,0.08,3.09,0.36,4.64,0.86
					c1.55,0.49,3.05,1.28,4.52,2.36c1.46,1.08,2.77,2.59,3.9,4.52c1.14,1.94,2.05,4.37,2.75,7.3c0.69,2.93,1.05,6.5,1.07,10.71
					l0.12,29.16c0.02,4.08-0.32,7.62-1,10.6c-0.68,2.99-1.59,5.54-2.71,7.65s-2.42,3.84-3.89,5.17c-1.47,1.33-2.98,2.39-4.52,3.19
					c-1.54,0.79-3.08,1.35-4.6,1.67C661.45,366.73,660.07,366.93,658.84,367.01z M658.8,357.61c1.26-0.08,2.36-0.36,3.31-0.84
					s1.72-1.25,2.33-2.32c0.61-1.07,1.07-2.46,1.38-4.16c0.31-1.71,0.46-3.85,0.45-6.42l-0.16-37.46c-0.01-2.63-0.18-4.83-0.5-6.57
					c-0.32-1.75-0.79-3.14-1.41-4.18c-0.62-1.04-1.4-1.75-2.35-2.14s-2.05-0.54-3.31-0.46c-1.3,0.08-2.42,0.38-3.39,0.9
					c-0.96,0.51-1.76,1.33-2.38,2.44c-0.63,1.12-1.09,2.57-1.4,4.36c-0.31,1.79-0.46,4-0.45,6.63l0.16,37.46
					c0.01,2.57,0.18,4.69,0.5,6.36c0.32,1.67,0.8,2.99,1.44,3.98c0.63,0.99,1.43,1.66,2.4,2.01
					C656.37,357.56,657.5,357.7,658.8,357.61z"/>
			</g>
			<g>
				<path class="st0" d="M688.65,347.67c-0.01-1.77,0.09-3.41,0.3-4.91c0.21-1.51,0.53-3.14,0.95-4.91l10.01-0.65l0.02,4
					c0.01,2.22,0.16,4.17,0.45,5.85s0.76,3.09,1.41,4.22c0.65,1.13,1.52,1.96,2.6,2.48c1.08,0.53,2.4,0.74,3.96,0.63
					c2.46-0.16,4.33-0.93,5.62-2.32s1.93-3.33,1.92-5.84c-0.01-1.29-0.1-2.46-0.29-3.53s-0.51-2.11-0.96-3.15
					c-0.45-1.03-1.06-2.11-1.83-3.23c-0.77-1.12-1.75-2.37-2.96-3.74L696.36,318c-2.41-2.8-4.26-5.66-5.57-8.58
					c-1.31-2.92-1.97-6.08-1.98-9.49c-0.01-2.73,0.42-5.27,1.29-7.61s2.13-4.39,3.79-6.15c1.65-1.76,3.7-3.18,6.14-4.26
					c2.44-1.07,5.2-1.71,8.29-1.91c3.75-0.24,6.89,0.07,9.4,0.93c2.51,0.87,4.52,2.09,6.02,3.66s2.56,3.38,3.19,5.41
					c0.62,2.03,0.94,4.09,0.95,6.18c0.01,1.77-0.13,3.41-0.4,4.92c-0.28,1.51-0.59,3.18-0.95,5l-9.96,0.65l-0.02-3.9
					c-0.02-4.37-0.68-7.68-1.99-9.92s-3.42-3.28-6.34-3.09c-2.43,0.16-4.23,0.93-5.42,2.3c-1.19,1.38-1.78,3.16-1.77,5.35
					c0,1.16,0.1,2.2,0.29,3.12s0.46,1.76,0.81,2.53s0.78,1.5,1.28,2.21s1.07,1.44,1.7,2.2l15.07,16.58c2.74,3.26,4.84,6.43,6.32,9.5
					s2.22,6.37,2.23,9.91c0.01,2.93-0.45,5.59-1.39,8s-2.28,4.49-4.03,6.24s-3.87,3.15-6.36,4.2c-2.49,1.05-5.29,1.67-8.41,1.87
					c-3.85,0.25-7.05-0.04-9.6-0.87s-4.58-2.02-6.09-3.56c-1.52-1.54-2.59-3.34-3.21-5.39
					C688.98,351.98,688.66,349.86,688.65,347.67z"/>
			</g>
		</g>
		<g>
			<path class="st0" d="M212.22,288.5l-12.49-10.55c1.26-2.35,2.34-5.09,3.21-8.23c1.19-4.29,1.78-9.54,1.75-15.75l-0.16-38.06
				c-0.02-5.49-0.49-10.15-1.39-13.98c-0.91-3.82-2.1-7-3.59-9.52c-1.48-2.53-3.18-4.49-5.1-5.9c-1.91-1.41-3.88-2.43-5.9-3.08
				c-2.02-0.64-4.04-1.02-6.05-1.12c-2.01-0.1-3.85-0.1-5.49,0.01c-1.74,0.11-3.62,0.36-5.66,0.74c-2.04,0.38-4.08,1.05-6.14,2
				s-4.02,2.26-5.9,3.94c-1.88,1.68-3.55,3.87-5.01,6.59c-1.46,2.72-2.63,6.02-3.5,9.92s-1.3,8.55-1.27,13.96l0.16,38.06
				c0.03,6.5,0.67,11.86,1.92,16.08s2.88,7.61,4.89,10.16c2,2.56,4.25,4.4,6.72,5.54c2.48,1.14,4.95,1.86,7.42,2.16
				c0,0,6.06,0.8,14.17-1.17c2.25-0.67,4.51-1.75,6.77-3.22l3.13,2.54L212.22,288.5z M184.79,275.27c-0.8,1.39-1.81,2.4-3.04,3.03
				s-2.67,0.99-4.32,1.1c-1.69,0.11-3.17-0.07-4.43-0.53s-2.3-1.34-3.13-2.63s-1.45-3.02-1.87-5.2c-0.42-2.17-0.64-4.94-0.65-8.29
				l-0.2-48.88c-0.01-3.44,0.18-6.33,0.58-8.66c0.4-2.33,1.01-4.23,1.83-5.69s1.85-2.52,3.11-3.19c1.25-0.67,2.73-1.06,4.42-1.17
				c1.64-0.11,3.09,0.09,4.33,0.6c1.24,0.51,2.26,1.44,3.07,2.79c0.81,1.35,1.42,3.17,1.84,5.45s0.64,5.14,0.65,8.58l0.2,48.88
				c0.01,3.36-0.18,6.15-0.58,8.38C186.19,272.07,185.59,273.88,184.79,275.27z"/>
		</g>
	</g>
	<g>
		<path class="st0" d="M784.21,367.25l-0.85-159.84l-49.76,19.88l25.45-121l-625.54,36.6h-0.01c-9.09,0.54-17.43,3.96-24.1,9.23
			l0.02-0.05l-31.53,21.12c-12.63,8.46-20.21,22.67-20.21,37.87V379.2v65.45c0,25.49,21.43,45.74,46.88,44.29l555.08-31.67
			c15.2-0.87,29.89-5.81,42.52-14.32l65.07-43.81l-0.19,0.01C777.46,391.78,784.28,380.06,784.21,367.25z M743.83,391.62
			l-608.87,36.26c-6.87,0.41-13.44-1.85-18.06-6.19c-4.05-3.8-6.3-8.88-6.33-14.32l-1.15-224.84
			c-0.06-12.35,11.38-23.47,24.99-24.29l0,0l605.45-35.43l-27.22,129.41l55.47-22.16l0.73,137.26
			C768.89,379.68,757.44,390.81,743.83,391.62z"/>
	</g>
</g>
</svg>
