<svg width="160" height="98" viewBox="0 0 160 98" fill="none" xmlns="http://www.w3.org/2000/svg">
    <path d="m53.538 20.74 6.912-.46.07 18.65 8.21-.53-.07-18.652 6.91-.442.176 44.522-6.911.443-.088-20.563-8.192.531.088 20.58-6.93.443-.175-44.523zM83.412 18.793l6.93-.46.157 39.213 9.42-.619.017 5.309-16.331 1.08-.193-44.523zM104.199 17.43l7.192-.46c1.088 0 2.211-.124 3.368-.142a15.847 15.847 0 0 1 3.509.337c1.105.243 2.164.661 3.14 1.238a8.306 8.306 0 0 1 2.631 2.584 13.906 13.906 0 0 1 1.754 4.3c.48 2.13.71 4.31.684 6.494v12.936a29.64 29.64 0 0 1-.631 6.583 16.014 16.014 0 0 1-1.754 4.547 10.095 10.095 0 0 1-2.596 2.885 11.94 11.94 0 0 1-3.14 1.663 17.734 17.734 0 0 1-3.421.779 61.93 61.93 0 0 1-3.386.318l-7.174.46-.176-44.522zm8.771 39.231a8.912 8.912 0 0 0 3.07-.654 4.295 4.295 0 0 0 1.93-1.77 9.41 9.41 0 0 0 .947-3.291c.196-1.727.278-3.465.246-5.203V31.941a41.302 41.302 0 0 0-.281-5.168 8.284 8.284 0 0 0-1-3.167 3.355 3.355 0 0 0-1.93-1.522 8.536 8.536 0 0 0-3.087-.283l-1.754.124.14 34.878 1.719-.142zM50.03 65.58l-5.263-4.6a16.648 16.648 0 0 0 1.333-3.416c.526-2.14.768-4.342.72-6.547V35.09c.034-1.95-.16-3.899-.58-5.804a14.23 14.23 0 0 0-1.473-3.963 8.349 8.349 0 0 0-2.105-2.46 8.41 8.41 0 0 0-2.42-1.274 9.625 9.625 0 0 0-2.492-.46 19.239 19.239 0 0 0-2.263 0c-.783.06-1.562.167-2.333.318-.88.167-1.734.447-2.543.832a9.867 9.867 0 0 0-2.421 1.628 9.722 9.722 0 0 0-2.07 2.743 16.022 16.022 0 0 0-1.438 4.123 25.56 25.56 0 0 0-.527 5.804v15.82a24.306 24.306 0 0 0 .807 6.689 12.595 12.595 0 0 0 2 4.23 7.645 7.645 0 0 0 2.772 2.3c.97.462 2.005.766 3.07.902 1.96.171 3.936.004 5.841-.495.99-.302 1.93-.75 2.79-1.328l1.28 1.292 7.315-.407zm-11.473-5.715a2.977 2.977 0 0 1-1.263 1.256 4.163 4.163 0 0 1-1.754.46 4.261 4.261 0 0 1-1.754-.212 2.672 2.672 0 0 1-1.298-1.097 6.387 6.387 0 0 1-.772-2.16 18.612 18.612 0 0 1-.263-3.45l-.176-20.244c-.02-1.185.063-2.369.246-3.539a7.37 7.37 0 0 1 .754-2.371c.29-.56.734-1.021 1.28-1.328a4.147 4.147 0 0 1 1.755-.477 3.793 3.793 0 0 1 1.754.248c.538.235.987.638 1.28 1.15.37.71.625 1.474.755 2.265.191 1.17.28 2.354.263 3.539l.088 20.332a19.273 19.273 0 0 1-.246 3.54 6.837 6.837 0 0 1-.736 2.264" fill="#1D1D1B"/>
    <path d="m160 61.599-.105-23.819-18.437 7.432L150.896 0 23.506 7.503a15.887 15.887 0 0 0-7.824 2.619l-.228.142-.315.23-10.034 7.078a11.538 11.538 0 0 0-3.753 4.175A11.654 11.654 0 0 0 0 27.216v59.493c0 1.538.311 3.06.915 4.472a11.29 11.29 0 0 0 2.595 3.74 11.176 11.176 0 0 0 3.852 2.398c1.433.526 2.957.751 4.479.662l112.18-6.3a21.049 21.049 0 0 0 10.736-3.645l18.156-14.033a14.638 14.638 0 0 0 5.097-5.277 14.796 14.796 0 0 0 1.92-7.11l.07-.017zm-15.033 9.113-121.215 7.38a8.926 8.926 0 0 1-3.577-.47 8.983 8.983 0 0 1-3.107-1.85 7.305 7.305 0 0 1-1.72-2.407 7.363 7.363 0 0 1-.63-2.9l-.21-48.098a9.787 9.787 0 0 1 2.907-6.328 9.625 9.625 0 0 1 6.354-2.75l119.935-7.078-10.069 48.363 20.541-8.282v15.377c0 4.601-4.21 8.848-9.262 9.06" fill="#1D1D1B"/>
</svg>
