<?xml version="1.0" encoding="utf-8"?>
<!-- Generator: Adobe Illustrator 23.1.1, SVG Export Plug-In . SVG Version: 6.00 Build 0)  -->
<svg version="1.1" id="Capa_1" xmlns="http://www.w3.org/2000/svg" xmlns:xlink="http://www.w3.org/1999/xlink" x="0px" y="0px"
	 viewBox="0 0 841.89 595.28" style="enable-background:new 0 0 841.89 595.28;" xml:space="preserve">
<style type="text/css">
	.st0{fill:#FFFFFF;}
</style>
<g>
	<g>
		<g>
			<g>
				<path class="st0" d="M221.2,180.81l16.91-1.1l0.33,78.52c0.01,3.35,0.2,6.11,0.55,8.31c0.36,2.19,0.91,3.92,1.68,5.19
					c0.76,1.27,1.74,2.15,2.93,2.63c1.19,0.49,2.61,0.68,4.25,0.57s3.08-0.48,4.31-1.13c1.23-0.64,2.24-1.65,3.03-3.02
					s1.39-3.17,1.79-5.42c0.4-2.24,0.59-5.04,0.58-8.38l-0.33-78.52l16.72-1.08l0.31,74.2c0.02,5.23-0.39,9.73-1.24,13.51
					c-0.85,3.78-1.98,6.97-3.39,9.57c-1.42,2.6-3.04,4.69-4.87,6.28c-1.83,1.58-3.73,2.82-5.69,3.72s-3.91,1.52-5.86,1.85
					c-1.94,0.33-3.71,0.55-5.31,0.66c-1.6,0.1-3.36,0.11-5.28,0.03c-1.92-0.09-3.86-0.45-5.81-1.1s-3.83-1.64-5.65-2.99
					c-1.82-1.35-3.45-3.23-4.89-5.64c-1.44-2.42-2.58-5.45-3.44-9.09c-0.86-3.65-1.3-8.1-1.32-13.37L221.2,180.81z"/>
				<g>
					<polygon class="st0" points="309.67,269.43 309.52,232.74 328.25,231.53 328.2,218.74 309.47,219.95 309.33,187.9 
						333.58,186.33 333.52,173.53 292.5,176.19 292.94,283.31 334.62,280.62 334.56,267.82 					"/>
					<polygon class="st0" points="336.39,161.37 327.99,151.43 307.24,166.33 314.07,173.22 					"/>
				</g>
				<path class="st0" d="M374.68,170.87l16.78-1.09l0.19,44.84l19.9-1.29l-0.19-44.84l16.79-1.09l0.45,107.12l-16.79,1.09
					l-0.21-49.49l-19.9,1.29l0.21,49.49l-16.78,1.09L374.68,170.87z"/>
				<path class="st0" d="M459.39,165.38l19.31-1.25l20.93,105.8l-16.98,1.1l-3.12-18.99l-20.22,1.31l-2.84,19.38l-17.04,1.1
					L459.39,165.38z M477.52,239.93l-8-52.87l-0.71,0.05l-7.62,53.88L477.52,239.93z"/>
				<path class="st0" d="M534.18,268.63c-1.73,0.11-3.6,0.1-5.61-0.04s-4.02-0.59-6.03-1.33c-2.01-0.75-3.94-1.87-5.78-3.36
					s-3.47-3.51-4.89-6.05c-1.42-2.54-2.55-5.72-3.41-9.53c-0.86-3.81-1.3-8.4-1.32-13.75l-0.16-37.95
					c-0.02-5.39,0.39-10.03,1.24-13.91c0.85-3.88,1.98-7.18,3.4-9.88c1.41-2.71,3.05-4.89,4.9-6.56s3.77-2.97,5.75-3.92
					c1.98-0.94,3.96-1.6,5.92-1.98c1.96-0.38,3.79-0.62,5.48-0.73c4.41-0.29,8.09,0.07,11.06,1.07c2.96,1,5.35,2.48,7.15,4.43
					c1.8,1.95,3.08,4.29,3.85,7c0.77,2.71,1.16,5.61,1.17,8.71c0.01,2.3-0.1,4.43-0.33,6.39c-0.23,1.96-0.58,4.13-1.04,6.5
					l-13.61,0.88l-0.02-5.46c-0.02-5.9-0.71-10.26-2.07-13.1c-1.35-2.84-3.32-4.18-5.92-4.01c-1.56,0.1-2.91,0.48-4.08,1.14
					c-1.16,0.66-2.13,1.72-2.9,3.17s-1.36,3.34-1.76,5.67s-0.59,5.2-0.58,8.63l0.2,48.92c0.01,3.35,0.19,6.11,0.52,8.31
					s0.87,3.94,1.61,5.23s1.7,2.18,2.9,2.67c1.19,0.49,2.63,0.68,4.31,0.57c1.08-0.07,2.12-0.38,3.11-0.92
					c0.99-0.55,1.86-1.35,2.61-2.43c0.75-1.07,1.35-2.41,1.8-4.01c0.45-1.6,0.67-3.46,0.66-5.6l-0.04-10.47l15.36-0.99l0.04,9.91
					c0.04,8.61-1.97,15.1-6.01,19.46C547.6,265.65,541.78,268.1,534.18,268.63z"/>
				<path class="st0" d="M570.54,158.18l41.02-2.66l0.05,12.79l-24.24,1.57l0.13,32.05l18.73-1.21l0.05,12.79l-18.73,1.21
					l0.15,36.69l24.89-1.61l0.05,12.79l-41.67,2.7L570.54,158.18z"/>
				<path class="st0" d="M624.34,154.7l13.61-0.88l27.13,69.95l0.39-0.03c-0.14-1.66-0.32-3.51-0.54-5.55
					c-0.23-2.03-0.43-4.35-0.61-6.96c-0.18-2.6-0.35-5.55-0.49-8.85c-0.14-3.29-0.22-7.01-0.24-11.15l-0.16-39.07l15.04-0.97
					l0.45,107.12l-13.74,0.89l-26.99-68.08l-0.52,0.03c0.14,1.87,0.32,3.9,0.54,6.08c0.23,2.18,0.43,4.75,0.62,7.71
					c0.18,2.96,0.35,6.41,0.5,10.35s0.23,8.63,0.25,14.07l0.13,31.49l-14.91,0.97L624.34,154.7z"/>
			</g>
			<path class="st0" d="M212.86,288.53l-12.45-10.52c1.26-2.34,2.33-5.07,3.2-8.2c1.19-4.28,1.78-9.51,1.75-15.7l-0.16-37.95
				c-0.02-5.48-0.49-10.12-1.39-13.93s-2.1-6.97-3.57-9.49c-1.48-2.52-3.17-4.48-5.08-5.88c-1.91-1.4-3.87-2.43-5.88-3.07
				c-2.01-0.64-4.02-1.01-6.03-1.11s-3.84-0.1-5.48,0.01c-1.73,0.11-3.61,0.36-5.64,0.74s-4.07,1.05-6.12,2
				c-2.05,0.95-4.01,2.26-5.88,3.93c-1.87,1.67-3.54,3.86-5,6.57s-2.62,6-3.49,9.89c-0.87,3.88-1.29,8.52-1.27,13.92l0.16,37.95
				c0.03,6.48,0.67,11.82,1.91,16.03c1.25,4.21,2.87,7.58,4.87,10.13c2,2.55,4.23,4.39,6.7,5.53c2.47,1.14,4.93,1.86,7.4,2.16
				c0,0,6.04,0.79,14.13-1.17c2.24-0.67,4.49-1.74,6.75-3.21l3.12,2.53L212.86,288.53z M185.52,275.34c-0.8,1.39-1.8,2.4-3.04,3.02
				c-1.23,0.62-2.67,0.99-4.3,1.09c-1.69,0.11-3.16-0.07-4.41-0.53c-1.26-0.46-2.3-1.33-3.12-2.62c-0.83-1.29-1.45-3.01-1.87-5.18
				c-0.42-2.17-0.64-4.92-0.65-8.27l-0.2-48.73c-0.01-3.43,0.18-6.31,0.58-8.63c0.4-2.33,1.01-4.22,1.82-5.67
				c0.81-1.45,1.85-2.51,3.1-3.18s2.72-1.06,4.41-1.16c1.64-0.11,3.08,0.09,4.31,0.6c1.24,0.51,2.25,1.43,3.06,2.78
				c0.8,1.35,1.42,3.16,1.84,5.43c0.42,2.27,0.64,5.13,0.65,8.55l0.2,48.73c0.01,3.35-0.18,6.13-0.58,8.35
				C186.91,272.15,186.31,273.95,185.52,275.34z"/>
		</g>
		<path class="st0" d="M783.09,367.03l-0.85-159.35l-49.61,19.82L758,106.87l-623.61,36.49h-0.01c-9.06,0.54-17.38,3.95-24.03,9.2
			l0.02-0.05l-31.43,21.06C66.35,182,58.8,196.15,58.8,211.31v167.62v65.25c0,25.41,21.37,45.6,46.74,44.15l553.37-31.57
			c15.15-0.86,29.8-5.79,42.39-14.27l64.86-43.67l-0.19,0.01C776.36,391.49,783.16,379.8,783.09,367.03z M742.83,391.33
			l-606.99,36.15c-6.85,0.41-13.4-1.84-18.01-6.17c-4.04-3.79-6.28-8.86-6.31-14.28l-1.15-224.15
			c-0.06-12.31,11.34-23.4,24.91-24.21l0,0l603.58-35.32l-27.14,129.01l55.29-22.09l0.73,136.84
			C767.82,379.43,756.41,390.52,742.83,391.33z"/>
	</g>
	<g>
		<g>
			<path class="st0" d="M152.51,317.29l13.04-0.86l0.29,71.78l17.77-1.17l0.04,9.74l-30.8,2.02L152.51,317.29z"/>
			<path class="st0" d="M201.03,314.1l15-0.99l16.24,80.47l-13.19,0.87L216.65,380l-15.7,1.03l-2.21,14.75l-13.24,0.87L201.03,314.1
				z M215.1,370.79l-6.21-40.22l-0.55,0.04l-5.92,41.02L215.1,370.79z"/>
			<path class="st0" d="M237.18,376.74c-0.01-1.75,0.09-3.37,0.31-4.87c0.21-1.49,0.53-3.11,0.96-4.86l10.11-0.66l0.02,3.96
				c0.01,2.2,0.16,4.13,0.45,5.79c0.29,1.67,0.77,3.06,1.43,4.18c0.66,1.12,1.53,1.94,2.63,2.45c1.09,0.52,2.43,0.72,4,0.62
				c2.48-0.16,4.38-0.93,5.68-2.31c1.3-1.37,1.95-3.3,1.94-5.78c-0.01-1.27-0.1-2.44-0.29-3.49s-0.51-2.09-0.97-3.11
				c-0.45-1.02-1.08-2.08-1.85-3.2s-1.77-2.34-2.98-3.7l-13.65-14.43c-2.43-2.77-4.3-5.6-5.62-8.49c-1.32-2.89-1.99-6.02-2-9.39
				c-0.01-2.7,0.42-5.22,1.3-7.53c0.88-2.32,2.15-4.35,3.82-6.1c1.67-1.75,3.74-3.16,6.2-4.23c2.46-1.07,5.25-1.71,8.37-1.91
				c3.79-0.25,6.95,0.05,9.49,0.9c2.54,0.85,4.56,2.05,6.08,3.61c1.51,1.55,2.59,3.34,3.22,5.35s0.95,4.05,0.96,6.12
				c0.01,1.75-0.13,3.38-0.41,4.88s-0.6,3.15-0.96,4.96l-10.06,0.66l-0.01-3.87c-0.02-4.33-0.69-7.6-2.01-9.82s-3.45-3.23-6.4-3.04
				c-2.45,0.16-4.28,0.93-5.48,2.29c-1.2,1.37-1.8,3.14-1.79,5.3c0,1.14,0.1,2.17,0.29,3.08c0.19,0.91,0.46,1.74,0.82,2.5
				s0.78,1.48,1.29,2.18c0.51,0.7,1.08,1.42,1.72,2.18l15.21,16.4c2.76,3.22,4.89,6.35,6.38,9.39s2.25,6.31,2.26,9.8
				c0.01,2.9-0.45,5.54-1.4,7.92c-0.95,2.39-2.3,4.45-4.08,6.19c-1.77,1.74-3.91,3.13-6.43,4.17s-5.35,1.66-8.5,1.87
				c-3.89,0.26-7.13-0.03-9.7-0.84c-2.57-0.82-4.62-1.99-6.16-3.51c-1.53-1.52-2.62-3.3-3.25-5.33
				C237.5,381,237.19,378.91,237.18,376.74z"/>
			<path class="st0" d="M310.4,306.91l13.54-0.89c2.05-0.13,4.17-0.22,6.37-0.25c2.2-0.03,4.35,0.17,6.45,0.6
				c2.1,0.44,4.08,1.19,5.95,2.26c1.87,1.07,3.51,2.63,4.93,4.69c1.42,2.05,2.55,4.68,3.38,7.89c0.83,3.21,1.26,7.17,1.28,11.88
				l0.1,23.67c0.02,4.71-0.37,8.73-1.18,12.06s-1.91,6.11-3.31,8.33s-3.03,4-4.89,5.31c-1.86,1.32-3.83,2.33-5.93,3.04
				c-2.09,0.71-4.24,1.19-6.44,1.45c-2.2,0.25-4.32,0.45-6.37,0.58l-13.54,0.89L310.4,306.91z M327.05,378.71
				c2.35-0.15,4.28-0.57,5.81-1.24c1.52-0.67,2.73-1.76,3.61-3.27c0.88-1.51,1.49-3.52,1.81-6.04c0.33-2.52,0.48-5.69,0.46-9.51
				l-0.1-25.29c-0.01-3.82-0.2-6.96-0.54-9.44c-0.35-2.48-0.97-4.41-1.86-5.8c-0.89-1.39-2.11-2.32-3.64-2.79
				c-1.53-0.47-3.47-0.63-5.81-0.48l-3.32,0.22l0.26,63.86L327.05,378.71z"/>
			<path class="st0" d="M363.8,303.4l13.04-0.86l0.33,81.52l-13.04,0.86L363.8,303.4z"/>
			<path class="st0" d="M391.53,301.58l13.04-0.86c1.64-0.11,3.45-0.16,5.41-0.14c1.96,0.01,3.93,0.22,5.89,0.62
				c1.96,0.39,3.86,1.07,5.69,2.04c1.83,0.96,3.46,2.33,4.88,4.1c1.42,1.77,2.56,4.03,3.42,6.77c0.87,2.75,1.31,6.12,1.33,10.13
				l0.01,2.86c0.02,4.36-0.37,8.11-1.14,11.27c-0.78,3.15-1.82,5.83-3.12,8.04c-1.3,2.2-2.81,4-4.54,5.38
				c-1.72,1.39-3.51,2.47-5.37,3.24s-3.74,1.33-5.63,1.66c-1.9,0.33-3.68,0.55-5.36,0.66l-1.26,0.08l0.1,24.82l-13.04,0.86
				L391.53,301.58z M405.41,348.31c2.35-0.15,4.33-0.61,5.94-1.37c1.61-0.76,2.89-1.86,3.83-3.31c0.95-1.45,1.63-3.27,2.04-5.48
				c0.41-2.21,0.61-4.84,0.6-7.89l-0.03-7.35c-0.01-2.42-0.21-4.5-0.58-6.24c-0.38-1.74-1.05-3.16-2.01-4.24
				c-0.96-1.08-2.25-1.85-3.86-2.3c-1.61-0.45-3.64-0.6-6.09-0.44l-0.66,0.04l0.16,38.61L405.41,348.31z"/>
			<path class="st0" d="M440.65,298.35l13.14-0.86l0.24,59.75c0.01,2.55,0.15,4.65,0.43,6.32s0.71,2.99,1.3,3.95
				c0.59,0.96,1.35,1.63,2.27,2c0.93,0.37,2.02,0.51,3.3,0.43c1.27-0.08,2.39-0.37,3.34-0.86c0.95-0.49,1.74-1.26,2.36-2.3
				c0.62-1.04,1.08-2.42,1.39-4.13c0.31-1.71,0.46-3.83,0.45-6.38l-0.24-59.75l12.99-0.85l0.23,56.46c0.01,3.98-0.31,7.4-0.97,10.28
				s-1.54,5.31-2.64,7.29s-2.36,3.58-3.78,4.78c-1.42,1.21-2.9,2.16-4.42,2.84c-1.52,0.69-3.04,1.16-4.55,1.42
				c-1.51,0.26-2.89,0.43-4.13,0.51c-1.24,0.08-2.61,0.09-4.1,0.03c-1.5-0.06-3-0.34-4.51-0.83s-2.98-1.24-4.39-2.27
				c-1.41-1.02-2.68-2.45-3.79-4.29c-1.12-1.83-2.01-4.14-2.67-6.91c-0.67-2.77-1.01-6.17-1.02-10.17L440.65,298.35z"/>
			<path class="st0" d="M504.01,303.92l-13.84,0.91l-0.04-9.74l40.67-2.67l0.04,9.74l-13.79,0.91l0.29,71.78l-13.03,0.86
				L504.01,303.92z"/>
			<path class="st0" d="M549.07,291.22l15-0.99l16.24,80.47l-13.19,0.87l-2.42-14.45l-15.7,1.03l-2.21,14.75l-13.24,0.87
				L549.07,291.22z M563.14,347.92l-6.21-40.22l-0.55,0.04l-5.92,41.02L563.14,347.92z"/>
			<path class="st0" d="M588.27,288.65l13.54-0.89c2.04-0.13,4.17-0.22,6.37-0.25s4.35,0.17,6.45,0.6c2.1,0.44,4.08,1.19,5.95,2.26
				s3.51,2.64,4.93,4.69c1.42,2.06,2.55,4.68,3.38,7.89c0.83,3.21,1.26,7.17,1.28,11.88l0.1,23.67c0.02,4.71-0.38,8.73-1.18,12.06
				c-0.81,3.33-1.91,6.11-3.31,8.33c-1.4,2.23-3.03,4-4.89,5.31c-1.86,1.32-3.83,2.33-5.93,3.04c-2.09,0.71-4.24,1.19-6.44,1.45
				s-4.32,0.45-6.37,0.58l-13.54,0.89L588.27,288.65z M604.93,360.45c2.35-0.15,4.29-0.57,5.81-1.24c1.52-0.67,2.73-1.76,3.61-3.27
				c0.88-1.51,1.49-3.52,1.81-6.04c0.33-2.52,0.48-5.69,0.46-9.51l-0.1-25.29c-0.01-3.82-0.2-6.97-0.54-9.44
				c-0.35-2.47-0.97-4.41-1.86-5.8c-0.89-1.39-2.11-2.32-3.64-2.79s-3.47-0.63-5.82-0.48l-3.32,0.22l0.26,63.86L604.93,360.45z"/>
			<path class="st0" d="M651.14,284.51l15-0.99L682.37,364l-13.19,0.87l-2.42-14.45l-15.7,1.03l-2.21,14.75l-13.24,0.87
				L651.14,284.51z M665.21,341.21L659,300.99l-0.55,0.04l-5.92,41.02L665.21,341.21z"/>
			<path class="st0" d="M687.29,347.16c-0.01-1.75,0.09-3.37,0.31-4.87c0.21-1.49,0.53-3.11,0.96-4.86l10.11-0.66l0.02,3.96
				c0.01,2.2,0.16,4.13,0.45,5.79c0.29,1.67,0.77,3.06,1.43,4.18s1.53,1.94,2.63,2.45c1.09,0.52,2.42,0.72,4,0.62
				c2.48-0.16,4.38-0.93,5.68-2.31c1.3-1.37,1.95-3.3,1.94-5.79c-0.01-1.27-0.11-2.44-0.29-3.49c-0.19-1.05-0.51-2.09-0.97-3.11
				c-0.45-1.02-1.07-2.09-1.85-3.2c-0.77-1.11-1.77-2.34-2.98-3.7l-13.65-14.43c-2.43-2.77-4.3-5.59-5.62-8.49
				c-1.32-2.89-1.99-6.02-2-9.39c-0.01-2.7,0.42-5.22,1.3-7.53c0.88-2.32,2.15-4.35,3.82-6.1s3.74-3.16,6.2-4.23
				s5.26-1.71,8.37-1.91c3.79-0.25,6.95,0.05,9.49,0.9s4.56,2.05,6.08,3.61c1.52,1.55,2.59,3.34,3.22,5.35
				c0.63,2.01,0.95,4.05,0.96,6.12c0.01,1.75-0.13,3.38-0.41,4.87c-0.28,1.5-0.6,3.15-0.96,4.96l-10.07,0.66l-0.01-3.87
				c-0.02-4.33-0.69-7.6-2-9.82c-1.32-2.22-3.45-3.23-6.41-3.04c-2.45,0.16-4.27,0.93-5.48,2.29c-1.2,1.37-1.8,3.14-1.79,5.3
				c0,1.14,0.1,2.17,0.29,3.08c0.19,0.91,0.46,1.75,0.82,2.5c0.36,0.76,0.79,1.48,1.29,2.18c0.51,0.7,1.08,1.42,1.72,2.18
				l15.22,16.38c2.76,3.22,4.89,6.35,6.38,9.39s2.24,6.31,2.26,9.8c0.01,2.9-0.45,5.54-1.4,7.92c-0.95,2.39-2.3,4.45-4.08,6.19
				c-1.77,1.74-3.91,3.13-6.43,4.17c-2.51,1.04-5.35,1.66-8.5,1.87c-3.89,0.26-7.13-0.03-9.7-0.84c-2.57-0.82-4.62-1.99-6.16-3.51
				s-2.61-3.3-3.25-5.33C687.62,351.42,687.3,349.32,687.29,347.16z"/>
		</g>
	</g>
</g>
</svg>
