<?xml version="1.0" encoding="UTF-8" standalone="yes"?>
<svg xmlns="http://www.w3.org/2000/svg" width="714" height="721" data-ember-extension="1">
<path style="fill:#010101; stroke:none;" d="M387 44L387.917 45.25L388.028 45.6667L388.611 47.2222L389.528 49.0278L390.25 50L392.028 52L394 53.9167L395 54.7778L396 55.6111L397.972 57.2222L398.917 58.0833L400.472 60L401.167 62L401.028 63L399.861 64.9722L398 66.75L397 67.5L395 68.5555L394 68.8889L392 69.1111L391 68.9167L390 68.6389L388 67.5278L386 65.9167L384 64.0833L382 62.5L380 61.5278L379 61.3333L377 61.4445L375 62L373 62.6945L372 63.1111L370 64.3055L368.083 66.0278L366.472 68L365.25 70L364.778 71L364.25 72L363.389 74L362.667 76L362.333 77L361.778 79L361.583 81L361.611 83L361.583 83.9722L361.417 85.7778L361.417 87.3889L361.556 88.2222L361.778 89.0833L362.639 91L364.111 92.9722L365.028 93.9167L367 95.5833L369 97L371 98.3889L372 99.1389L374 100.556L375.972 101.833L376.917 102.472L378.528 104.056L379.111 104.917L379.75 105.694L380 106.222L381 107L380.5 109L380.333 109.556L381 111L379.833 111.778L379.556 112.306L378.972 113.111L378.472 114.028L377.278 115.917L375.778 117.583L374.917 118.306L373 119.611L372 120.139L370 120.917L369 121.111L367 120.889L365 120.167L363 119.222L362 118.75L360 117.611L359 117L358 116.417L356 115.5L354 115.083L353 115.028L352 115L350 115.083L349 115.25L348 115.472L346 116.278L344 117.472L342 119.083L340.083 121L338.417 123L337.083 125L336.028 126.944L335.444 127.944L335.167 128.5L334 130L334.194 132.056L334.194 133.972L334.194 134.917L334.222 135.778L334.389 137.389L334.528 138.222L334.806 140.028L334.889 141L334.861 142L334.667 143L333.667 145L332.889 145.972L331 147.667L330 148.278L328 148.806L326 148.583L325 148.306L323 147.611L322 147.194L320 146.389L319 146.028L317 145.333L316 145L314 144.417L312 144.167L310 144.389L309 144.639L308 144.889L306 145.694L305 146.306L303 147.806L302 148.611L300 150.139L298 151.528L296 152.5L294 152.917L293 152.944L292 152.917L290 152.583L288 151.917L287 151.444L285 150.361L283 149.194L282 148.611L280 147.306L278 145.861L277 145.167L276 144.444L274 143.25L273 142.778L272 142.25L271 141.833L270 141.389L268 140.611L266 139.806L265 139.389L263 138.667L262 138.333L260 137.667L259 137.333L257 136.667L256 136.333L254 135.694L253 135.417L251 135.056L250 134.944L249 134.778L248 134.611L247 134.389L245 134.083L244 134.028L243 134L241 134L239 134L237.028 134.056L235.222 134.194L234.389 134.306L233.611 134.389L231.917 134.667L230 134.944L229 135.056L227 135.417L226 135.694L225 136L223 136.667L221 137.333L219 138.028L218 138.417L216 139.389L215 139.944L213 141.028L212 141.583L210 142.889L209 143.611L207 145L205 146.333L203 147.667L200 149.667L198 151L197 151.694L196 152.417L194 154.083L192 155.917L191 156.778L189 158.389L187.028 160.083L186.083 161.028L184.389 163L183.611 164L181.944 166L181.056 167L179.389 168.972L178.639 169.917L177.139 171.611L176.361 172.361L174.778 173.833L173.917 174.528L172 175.528L170.083 176.056L169.222 176.167L167.694 176.306L167 176.278L166.306 176.194L164.778 175.75L163.917 175.417L162 174.861L161 174.611L159 174L157 173.417L155 173.083L153 173L151 173.083L149 173.389L147 173.778L145 174L143 174.222L142 174.417L141 174.694L139 175.306L138 175.611L136 176.222L134 177.083L132 178.194L131 178.778L129.056 179.694L127.5 180.083L126 180L126.056 181.25L125.444 182.444L124.028 184.083L122.389 186L121.639 187L120.889 188L119.583 190L118.5 192L118 193L117.083 195L116.389 197L116.139 198L115.861 199L115.639 200L115.389 201L115.111 203L115.083 203.972L115.139 204.917L115.194 205.778L115.389 207.389L115.528 208.222L115.806 210.028L115.917 211L115.972 213L115.917 214L115.583 216L114.889 218L113.694 220L112.889 220.972L111 222.75L110 223.528L109 224.139L108 224.722L106 225.556L104.083 226.056L103.222 226.167L101.611 226.389L99.9167 226.667L98 226.917L97 226.972L95 227.028L94 227.083L92 227.389L91 227.639L89 228.139L88 228.361L87 228.639L86 228.861L84 229.444L82.0278 230.278L81.0833 230.861L80.2222 231.472L79.3889 232.25L78.6111 233.083L77.0278 235L75.6389 237L75.1111 238L74.4167 240L74.0556 242L73.9444 243L73.6389 245L73.4722 246L73.4722 248L73.6389 249L73.9167 251L74.0556 252.972L74.1944 254.778L74.3056 255.611L74.3889 256.389L74.75 258.083L75.3889 260L75.8056 261L76.6111 263L77.3889 265L78.1944 267L78.6111 268L78.9722 269L79.3333 270L79.6667 271L80.3333 273L80.6667 274L81.3889 276L81.8056 277L82.1944 278L82.6389 279L83.0556 280L83.5278 281L84.4722 283L85.3889 285L86.3889 287L86.9444 288L87.9167 290L88.6111 292L88.8333 293L89.0556 294L89.2222 296L89.0556 298L88.5556 300L88.1389 301L87.75 302L86.75 304L86.1667 305L85.6389 306L84.6389 308L84.1111 310L84 312L84 313L84.0278 315L84.1111 316L84.7222 318L86.1111 320L87.9722 322L88.9167 323L90.5833 325L91.3056 326L92.5833 328L93.1111 329L93.5556 329.972L94.0833 331.778L94.1667 333.389L94.1111 334.222L93.7778 336.028L93.5 337L93.0833 338L92.6111 339L91.5556 341L91.0833 342L90.6944 343L90 345L89.4722 346.972L89.25 348.778L89.25 349.611L89.1389 351.222L89.0556 352.083L89 354L89 355L89.0278 357L89.0833 358L89.3889 360L89.6111 361L89.9167 363L89.9722 364L90.0833 366L90.2222 367L90.6389 369L90.8611 370L91.1389 371L91.3611 372L91.6111 373L91.9167 374.944L92 376.5L92 378L90.25 378.833L89.7222 379.028L89 380L87.5 379.194L86.9444 379L85.9444 378.556L84 377.5L82 376L80 374.5L78 373.5L77 373.25L76 373.083L74 373L72 373.083L70 373.389L68 373.861L67 374.167L66 374.444L65 374.861L63 375.778L62 376.25L60.0833 377.472L58.4722 379.083L57.8611 380.028L57.2778 381L56.4444 383L56.1667 384L55.6111 385.944L55 388L56.1667 389.5L56.4444 390.056L57.0278 391.056L57.5 392L58.5 394L59.5833 396L60.1944 397L61.3889 399L62.1944 401L62.3889 402L62.4444 404L62.3611 405L62.1667 407L61.8333 409L61.6111 410L60.9167 412L59.9444 414L59.3611 415L58.8056 416L57.5278 418L56.75 419L55.9167 420L54 422L53 422.972L51 424.75L49 426.056L48 426.5L46 427L45 427.194L43 427.722L41 428.639L40 429.306L38.1111 431.028L36.7222 433L36.0278 435L35.8333 436L35.6111 438L35.6111 439L35.6944 440L35.9167 442L36 444L36.0833 446L36.3889 448L36.6944 450L36.7222 451L36.5278 452.917L36.3889 453.778L36.3056 454.611L36.1944 455.389L36.1389 456.222L36.0556 457.083L36 459L36 460L36.0833 462L36.2222 463L36.6944 465L37.0278 466L37.8333 467.972L38.8611 469.778L39.4722 470.583L41.0833 472L43 473.389L45 474.861L46 475.639L47 476.389L48.9167 478.083L50.5278 480L51.7222 482L52.1389 483L52.5278 484L52.8333 486L52.6111 488L52.3611 489L51.8611 491L51.6111 492L51 494L50.6667 495L50 497L49.6944 498L49.4167 499L49.0833 501L49.0278 503L49.2222 505L49.7222 507L50.0833 508L51.0833 509.972L51.7222 510.917L52.4167 511.778L53.2222 512.583L55.0278 513.889L57 514.694L59 514.972L61 515L63 515L64 515L66 514.917L68 514.611L70 514.139L71 513.861L72 513.639L73 513.361L75 512.861L76 512.639L77 512.361L78 512.139L79 511.861L81 511.389L82 511.194L84 510.806L85 510.611L86 510.389L88 510.083L89.9722 509.944L91.7778 509.833L92.6111 509.778L94.2222 509.889L95.0833 510.028L97 510.417L98 510.694L100 511.417L101 511.889L102 512.417L104 513.694L106 515.222L106.972 516.083L107.917 517.028L109.528 519L110.75 521L111.25 522L112.444 524L113.833 526L114.556 527L115.833 529L116.472 530L118.083 531.972L119.028 532.917L121 534.528L122 535.139L124 536.167L125 536.611L127 537.306L128 537.583L130 537.917L132 538L133 538L135 537.972L136 537.917L138 537.611L139 537.389L141 537.083L142 537.028L144 537.028L145 537.083L147 537.417L148 537.694L150 538.417L152 539.5L153 540.25L154 541.083L156 543L157.917 545L158.75 546L159.528 547L160.806 549L161.389 550L162.611 552L163.167 553L163.75 554L164.75 556L165.167 557L166.056 559L166.972 561L167.417 562L168.111 564L168.389 565L168.694 566L169.306 568L169.556 569L169.694 570L169.694 570.944L169.556 571.944L169 574L169.917 574.528L170.028 574.917L170.333 575.5L170.667 577.083L170.917 579L170.972 580L171.028 582L171.056 582.972L171.139 583.917L171.194 584.778L171.389 586.389L171.528 587.222L171.806 589.028L172 591L172.083 592L172.417 594L172.694 595L173.389 597L173.806 598L174.194 599L175.056 601L176.083 603L176.694 604L177.333 605L178.667 607L180 609L181.417 611L182.222 612L184.028 614L185 615L187 617L189 619L190 619.972L191 620.917L193 622.611L195 624.111L197 625.417L198 625.972L199 626.5L201 627.417L203 628.111L204 628.361L205 628.611L207 629L209 629.361L210 629.528L212 629.528L213 629.361L215 629.056L216 628.944L218 628.583L220 627.972L221 627.611L222 627.194L223 626.806L224 626.389L226 625.694L227 625.417L229 625.083L231 625L232 625L234 625.028L235 625.083L237 625.389L238 625.611L239 625.806L241 626.194L242 626.417L244 627.028L246 627.833L247 628.25L248 628.75L250 629.639L251 630.056L253 631L255 631.917L257 632.667L258 633L259 633.306L260 633.611L261 633.861L263 634.389L265 634.972L266 635.222L268 635.417L270 635.417L271 635.444L272 635.556L274 635.528L275 635.361L277 635L279 634.583L281 634L282 633.694L283 633.389L285 632.861L286 632.611L287 632.306L288 632L290 631.417L291 631.222L292 631.083C292.998 631.014 293.999 630.986 295 631L297 631.083L299 631.417L300 631.694L302 632.389L303 632.806L305 633.611L307 634.389L309 635.25L310 635.778L311 636.25L312 636.861L314 638.167L315 638.861L316.917 640.389L318.583 642.083L319.917 644L320.917 646L321.278 647L321.556 648L321.694 649L321.639 650.944L321.639 651.944L321.528 652.5L322 654L320.75 654.778L320.361 655.306L319.667 656.111L319.083 657.028L318.083 659L317.417 661L317.25 662L317.167 663L317.389 665L317.639 666L317.889 667L318.611 669L319.111 670L320.417 671.917L322.083 673.528L324 674.75L325 675.222L326 675.75L327 676.167L328 676.611L330 677.333L331 677.667L333 678.333L335 679L337 679.583L339 679.917L341 680L343 679.972L344 679.917L346 679.611L347 679.361L349 678.861L350 678.611L351 678.306L353 677.667L355 676.972L356 676.611L358 675.75L359 675.222L360 674.75L362 673.528L363 672.75L365 671.056L366.917 669.389L368.528 667.778L369.167 666.917L370.444 665L371.778 663L372.389 662L373.306 660L374.028 658L374.389 657L374.806 656L375.194 655L375.611 654L376.25 652.028L376.611 650.222L376.694 649.389L376.806 648.611L376.944 646.917L376.972 645.972L377 645L377 643L377 641L376.972 640L376.944 639.028L376.861 638.083L376.806 637.222L376.611 635.611L376.25 633.917L375.972 632.972L375.417 631L375 629L374.528 627L373.806 625L373.389 624L372.611 622L371.75 620L371.25 619L370.389 617L369.694 615L369.417 614L369.028 612.028L368.889 611.083L368.722 609.417L368.694 608L368.806 606.583L368.944 604.917L369.083 603L369.417 601L369.694 600L370.333 598L371.028 596L371.389 595L372.25 593L372.778 592L373.25 591L374.472 589L375.25 588L377.028 586L378 585L380 583.111L382 581.611L383 581.028L385 580L387 579.083L388 578.722L390 578.306L392 578.417L393 578.639L394 578.861L395 579.139L396 579.361L397 579.639L399 580.111L400.917 580.472L401.778 580.611L402.611 580.694L403.389 580.806L405.083 580.861L407 580.583L408 580.278L409 579.917L411 579L413 577.972L414 577.389L416 575.889L418 574L419.889 572L421.361 570L421.889 569L422.611 567L423.111 565L423.389 563L423.389 562L423.167 560L423 559L422.5 557.028L421.528 555.222L420.833 554.389L419.361 552.778L417.861 550.972L416.472 549L415.5 547L415.25 546L415.139 544L415.306 543L416.028 541L417.028 539L417.583 538L418.889 536L419.611 535L420.917 533L422 531L423 529L423.472 528L423.944 527L424.361 526L425.194 524L425.611 523L425.972 522L426.333 521L427 519L427.306 518L427.611 517L428.139 515L428.361 514L428.611 513L428.806 512L429.194 510L429.389 509L429.861 507L430.139 506L430.361 505L430.639 504L430.861 503L431.389 501L431.694 500L432.333 498L432.667 497L433.417 495L434.5 493L436.083 491L437.028 490L439 488L441 486.028L442 485.111L444 483.722L446 483.111L448 483L450 483.083L452 483.472L453 483.861L454 484.25L455 484.778L457 485.75L458 486.167L459 486.611L461 487.333L462 487.667L463 488L465 488.583L467 488.917L468 488.972L469 489L471 488.917L473 488.611L474 488.361L476 487.861L478 487.306L480 486.611L481 486.167L482 485.722L483 485.139L484 484.528L485.917 482.917L487.528 481L488.722 479L489.139 478L489.556 477L489.833 476L490.111 475L490.472 473.083L490.611 472.222L490.694 471.389L490.861 469.778L490.944 468.917L490.972 467.972L491 466L491.028 464L491.083 463L491.361 461L491.556 460.028L491.722 458.222L491.694 457.417L491.694 456.694L491.722 455.306L491.833 454.583L491.944 453.778L492.389 451.972L492.694 451L493.333 449L494.028 447L494.417 446L495.389 444L495.944 443L496.472 442L497.611 440L499.111 438L501 436L503 434L507 430L509 428L510.972 426L512.75 424L513.5 423L514.583 421L515.389 419L516.194 417L516.611 416L517.333 414L517.667 413L518.306 411L518.583 410L518.917 408L519 406L519 405L519 404L519 403L518.917 401L518.75 400L518.5 399L517.583 397L516.972 396L515.583 394.083L513.917 392.389L512 390.778L511 389.917L509.083 388L507.5 386L506.5 384L506.083 382L506.056 381L506.083 380L506.472 378L506.861 377L507.833 375L509.028 373.028L509.667 372.083L511 370.389L511.667 369.611L513 367.917L514.306 366L515.389 364L515.778 363L516.306 361L516.583 359L516.667 357.083L516.694 356.222L516.694 355.389L516.75 354.639L516.75 353.139L516.694 352.389L516.694 351.694L516.667 351L516.583 349.583L516.306 347.917L516.139 347L515.944 346.083L515.806 344.472L516 343L514.833 341.5L514.583 340.944L514.028 339.944L513.611 339L512.528 337L511.25 335.056L510.694 334.056L510.361 333.5L510 332L508.5 331.306L506.944 330.389L505 329.472L504 329.139L502.056 328.361L501.5 328.139L500 327L498.333 327.111L496.833 326.806L495.972 326.694L495.472 326.556L494 327L493.222 325.833L492.694 325.583L491.889 325.028L490.972 324.611L489 323.5L488.028 322.75L487.083 321.917L485.583 320.083L484.806 318.389L484.472 316.778L484.139 314.972L483.944 314L483.722 312L483.722 310L483.806 309L484.361 307L485.389 305L486.028 304.028L487.417 302.25L488.222 301.472L490.028 300.278L492 299.444L493 299.167L495 298.639L497 298.306L499 298.417L501 298.778L503 298.889L504 298.778L506 298.361L508 297.833L509 297.528L511 296.583L513 295.306L514.917 293.778L516.528 291.972L517.806 290L518.361 289L518.944 288L519.944 286L520.389 285L521.389 283L522.472 281L523.528 279L524.083 278L525.417 276L527.083 274.028L528.028 273.083L530 271.472L532 270.278L533 269.861L534 269.472L536 269.083L537 269.028L539 269L540 269L542 269.083L543 269.222L544 269.417L546 270L547 270.333L548 270.667L550 271.417L551 271.889L553 273L554 273.611L556 274.806L557 275.389L559 276.611L560 277.194L562 278.389L563 279L565 280.111L566 280.583L568 281.333L569 281.667L571 282.306L572 282.611L573 282.861L575 283.361L576 283.611L578 283.917L579 283.972L580 284L582 283.917L584 283.528L585 283.167L586 282.806L588 282L589 281.611L591 280.722L593 279.528L594 278.75L595 277.944L597 276.222L598 275.417L600 274L601 273.333L603 272.083L605 271.083L606 270.722L607 270.417L609 270.083L611 270L612 270L614 270.083L616 270.417L617 270.694L619 271.389L621 272.167L622 272.528L624 272.917L626 273L627 273L628 273L630 272.917L631 272.778L632 272.583L633 272.306L635 271.611L637 270.75L638 270.222L639 269.75L641 268.556L642 267.833L644 266.389L645 265.694L647 264.306L648 263.583L649 262.778L651 260.972L652 260.028L653 259.083L655 257.389L656 256.611L658 254.944L659 254.056L661 252.389L662 251.611L664 249.917L666 248L666.972 247L667.917 246L669.583 244L671 242L672.306 240L672.917 239L673.944 237L674.361 236L674.806 235L675.194 234L675.611 233L676.306 231L676.583 230L676.944 228L677.056 227L677.389 225L677.722 223.028L677.778 221.222L677.722 220.417L677.667 219L677.639 218.306L677.583 217.583L677.333 215.917L677.083 214L677.028 213L676.972 211L676.917 210L676.611 208L676.139 206L675.861 205L675.611 204L675.306 203L674.667 201L673.917 199L672.944 197L672.389 196L671.417 194L671.028 193L670.417 191L670.194 190L669.806 188L669.611 187L669.389 186L669.111 184L669.111 183L669.417 181L669.694 180L670.028 179L670.417 178L671.389 176L671.944 175L673.028 173L673.583 172L674.861 170L675.556 169L676.75 167L677.75 165L678.167 164L678.611 163L679.25 161.028L679.444 160.083L679.583 159.222L679.583 157.611L679.417 155.917L679.389 154.972L679.389 154L679.389 152L679.139 150.028L678.944 149.083L678.694 147.389L678.583 146.611L678.194 145L677.778 143.389L677.389 141.778L676.722 139.972L676.222 139L675.778 138L675.222 137L674.222 135L673.75 134L672.528 132L670.917 130L669.972 129L668 127L666 125.083L664 123.417L662 122.028L661 121.389L659 120.278L658 119.833L657 119.389L656 119.028L654 118.389L653 118.139L651 117.639L650 117.389L648 117.083L647 117.028L645 117L643 117.028L642 117.083L640 117.389L639 117.639L638 117.861L637 118.139L636 118.361L635 118.611L633 118.917L631.028 119.056L629.222 119.167L628.389 119.222L626.778 119.139L625.917 119.028L624.972 118.944L623 118.611L622 118.361L621 118.139L619 117.611L618 117.306L617 117L615 116.417L613 116.056L612 115.944L610 115.639L609 115.472L607 115.5L605 116L603 116.694L602 117.083L600 118.083L598.083 119.417L596.417 121.083L595.694 122.028L594.389 124L593.806 125L593.167 126L592.528 127L590.917 128.972L589.972 129.917L588 131.528L586 132.722L584 133.528L583 133.75L581 133.944L579 133.667L578 133.278L577 132.667L575 130.972L573.083 129L572.25 128L571.472 127L570.278 125L569.389 123L568.611 121L567.806 119L567.389 118L566.611 116L565.806 114L565.389 113L565.028 112L564.306 110L563.917 109L562.944 107L562.389 106L561.389 104L560.944 103L559.917 101L558.611 99L557.861 98L557.139 97.0278L555.611 95.2222L553.917 93.6945L552.972 93.0278L552 92.4166L550 91.4722L548 90.8611L547 90.6389L546 90.3889L544 90.0833L542 90.0833L541 90.2222L540 90.3889L538 90.7778L536 91.0555L534 91.4722L533 91.8333L531 92.5555L529 93.1389L528 93.3611L527 93.6111L525 93.9167L524 93.9722L522 94L520 93.9722L519 93.9167L517 93.5833L516 93.2778L515 92.9167L513 91.9167L511 90.5833L510 89.7778L508 87.9722L507.028 87L506.083 86L504.5 84L503.389 82L502.917 81L501.694 79L499.972 77L498 75L496 73.1111L495 72.3055L494 71.6389L493 71.1111L491 70.3889L490 70.1389L488 69.6389L487 69.3889L485 69.0833L483 69.0833L481 69.4167L479 70.0278L478 70.4166L476 71.3889L475 71.9445L473 72.9445L471 73.8333L470 74.25L469 74.7778L468 75.2222L467 75.75L465 76.6111L463 77.3055L462 77.5833L460 77.9167L459 77.9722L457 77.9167L455 77.5278L453 76.7222L452 76.1389L451 75.5278L449 73.9167L448.028 72.9722L446.25 71L445.5 70L444.417 68L443.667 66L443.333 65L442.611 63L441.833 61L441.472 60L441.222 59L440.806 57L440.611 56L440.139 54L439.861 53L439.611 52L438.972 50L438.167 48L437.75 47L437.222 46L436.75 45L435.528 43L434.75 42L433.917 41L432 39L431 38L429 36L425 32L423 30L422 29L421 28.0278L420 27.1111L418 25.6389L416 24.6945L414 24L412 23.4167L410 23.1111L409 23.1111L407 23.3889L406 23.6389L404 24.1667L403 24.4445L401 25.25L400 25.7778L398 26.7778L397.028 27.25L395.222 28.4445L394.417 29.1667L393.694 29.8611L392.389 31.3889L391.25 33.0833L390.778 34.0278L390.25 35L389.833 36L389.389 37L388.667 39L388.333 40L388 40.9445L387.667 41.9445L387.444 42.5L387 44M380 99L379 100L380 99M247 152L246 153L247 152M278 191L278 292L277 293L273.944 293L272 293L270 292.972L269.056 292.944L268.056 292.75L267.5 292.722L266 292L266.583 289.944L266.778 288.944L266.917 288L267 286L267 284L267 282L266.917 280L266.806 279L266.528 277L266.417 276L266.333 274.083L266.306 273.222L266.278 272.389L266.194 271.611L266.056 269.917L266 268L266.056 266L266.139 265L266.167 264L266.222 263L266.167 262L266.139 261L266.083 259.028L266.194 257.222L266.306 256.389L266.389 255.611L266.528 254.778L266.722 252.972L266.611 251L266.472 250L266.389 248L266.417 246L266.389 245L266.389 243L266.444 242L266.5 240L266.472 238L266.444 237L266.389 236L266.472 234L266.778 232L266.917 231L266.972 230L267 228L267 226L267 225L266.917 223L266.611 221L266.278 219L266.194 217L266.222 216L266.194 215L266.194 213L266.194 212L266.222 211L266.194 210L266.194 208L266.222 206L266.167 205L266.139 204L266.083 202.028L266.167 200.222L266.25 199.389L266.222 198.611L266.278 197.778L266.222 196.917L266.25 195.972L266.167 195L266.139 194.056L266.028 192.5L266 191L267.5 190.917L268.056 190.806L270 190.583L272 190.5L274 190.528L274.944 190.583L276.5 190.778L278 191M388 190L389 191L389 195L389 196L389 206L378 206L378.167 204.583L378.222 203.333L378.194 202.611L378.194 201L378.222 199.389L378.167 198.611L378.056 196.917L378 195L378 193.056L378 190L388 190M480 190L480 192.056L480.083 194L480.306 196L480.389 197L480.306 199L480.083 201L480 203L480 204L480 206L480 223L480 228L480 230L480 231L479.972 232L479.944 232.972L479.806 234.778L479.694 235.611L479.611 236.389L479.472 237.222L479.194 239.028L479.083 240L479 242L479 244L479 247L479 258L479 261L479 263L478.972 264L478.944 264.944L478.75 265.944L478.722 266.5L478 268L475.944 267.417L474 267.083L473.056 267.028L472.056 267L470 267L469.75 265.5L469.389 263.944L469.139 262L469.167 261L469.222 259L469.194 258L469.194 256L469.222 254L469.139 252L469.056 251L469 249L469 247L469 243L469 242L469 232L469 229L469 225L469 223L468.972 221L468.917 220L468.667 218.028L468.389 216.222L468.25 214.639L468.278 213.861L468.222 213.139L468.25 212.361L468.167 211.611L468.056 209.917L468.028 208.972L468 208L468 206L468 202L468 190L470.056 190L472 190.056L474 190.167L475 190.25L475.972 190.222L476.917 190.278L478.528 190.222L480 190M155 192L154.417 194.056L154.222 195.056L154.083 196L154 197.944L154 198.944L154 201L145 201L145 264L145 272L145 275L145 276L145.083 278L145.306 280L145.389 281L145.389 282L145.194 284L145.083 285L145 287L145 289L144.944 290.944L144.75 291.944L144.722 292.5L144 294L142.5 293.917L141.944 293.778L140 293.472L139 293.444L138 293.472L136.056 293.778L135.5 293.917L134 294L133 293L133.056 291.528L133.139 291.028L133.194 290.167L133.306 288.694L133.306 287.306L133.278 286.583L133.444 284.917L133.639 283.972L133.833 282L133.667 280.028L133.389 278.222L133.306 277.389L133.222 276.611L133.194 275L133.194 274.194L133.222 273.389L133.194 272.611L133.194 271L133.194 270.194L133.222 269.389L133.167 268.611L133.111 266.917L133.167 265.972L133.222 264L133.139 262L133.056 261L133.028 260L133 258L133.056 256.028L133.139 255.083L133.194 254.222L133.361 252.611L133.444 251.778L133.444 249.972L133.361 249.028L133.278 247.222L133.306 246.417L133.333 245L133.333 243.667L133.333 243L133.417 241.583L133.639 239.917L133.722 238.972L133.694 238L133.389 236L133.25 235L133.139 234.028L133.167 232.222L133.25 231.389L133.222 230.611L133.278 229.778L133.222 228.917L133.25 227.972L133.194 227L133.194 226L133.222 224L133.389 222L133.528 221L133.806 219L133.917 218L133.917 216L133.806 215L133.583 213L133.528 212L133.417 210L133.306 209L133.083 207L133.028 206L133.056 204.056L133.25 203.056L133.278 202.5L134 201L124 201L124 191L143 191L147 191L149 191L151 191.028L151.944 191.056L152.944 191.25L153.5 191.278L155 192M373.667 191.667L373.667 192.333L373.333 192.333L373.333 192L373.667 191.667M422 200L423.083 200.306L423.472 200.194L424.25 200.222L425.806 200.194L426.611 200.222L427.389 200.194L429.028 200.278L430.5 200.583L432 201L432 211L437 211L436.917 212.5L436.778 213.056L436.611 214L436.25 215.5L436 217L437.167 215.5L437.444 214.972L438.611 213.25L439.306 212.472L441.028 211.278L442 210.833L444 210.056L445 209.778L447 209.611L449 209.806L450 209.917L452 210.028L453 210.083L455 210.417L457 211.028L457.972 211.417L458.917 211.917L460.5 213.25L461.5 215.028L461.75 216L461.917 217L462.083 219L462.389 221L462.611 222L462.833 224L462.611 226L462.389 227L462.083 229L462.028 230L462 231L462 233L462 239L462 244L462 246L462.083 248L462.222 248.944L462.417 249.944L463 252L461.5 252.722L460.944 252.75L459.944 252.944L459 252.972L458 253L456 253L455 253L453 253L448 253L448 271L448 277L448 279L448.083 281L448.222 281.944L448.417 282.944L449 285L450.139 283.5L450.722 281.944L450.889 281L450.972 280L451 279L451 278L451 275L451 266L451 264L451 263L451.028 262L451.056 261.056L451.25 260.056L451.278 259.5L452 258L453.472 258.056L453.972 258.139L455.611 258.222L456.389 258.167L458.083 258.083L459.944 258.278L461.5 258.861L463 260L462.722 261.667L462.611 262.444L462.472 263.222L462.194 265.028L462.083 266L462 268L462 269L462 270L462 272L462 276L462 278L462.083 280L462.361 282L462.528 283L462.528 285L462.111 287L461.75 288L461.306 289L459.889 290.889L458.972 291.694L457 292.889L455 293.583L453 293.917L451 294L450 294L449 294L447 293.972L446 293.917L445 293.778L443 293.278L442 292.889L440.083 291.694L438.444 290.083L437.667 289.306L437.25 288.778L436 288L436.25 289.444L436.583 290.556L437 292L435.5 292.722L434.944 292.75L433.944 292.944L433 292.972L431 293L430 293L429 293L427 292.917L425 292.5L423.111 291.5L422.333 290.75L421.722 289.917L421.111 288L421.028 287L421 286L421 284L421 283L420.917 281L420.806 280L420.611 278L420.611 276L420.583 275L420.528 274L420.361 273L420.083 271L420.056 270L420.139 268.083L420.194 267.222L420.306 265.694L420.278 264.306L420.222 262.778L420.389 260.972L420.528 260L420.611 258L420.611 256L420.694 255L420.917 253L421 251L421 250L421 248L421 246L420.972 245L420.917 244L420.806 243L420.528 241L420.417 240L420.417 238L420.528 237L420.806 235L420.917 234L421 232L420.917 230L420.694 228L420.611 227L420.611 226L420.694 224.028L420.583 223.083L420.306 222.278L419.722 221.472L418 220L417.972 221.5L417.917 222.056L417.694 224L417.583 225L417.556 225.972L417.639 227.778L417.667 228.611L417.722 229.389L417.639 230.222L417.444 232.028L417.444 232.944L417.5 233.944L418 236L416.5 236.722L415.944 236.75L414.944 236.944L413.028 236.944L411.222 236.833L410.389 236.778L409.611 236.833L407.972 236.944L406 237L406 219L404 220L403 220L403.333 221.5L403.389 223.056L403.194 225L403.028 227L403 229L403 231L403 232L403 233L403.028 235L403.083 236L403.5 238L404.417 240L405.028 241L406.333 243L407 244L408.333 246L411.667 251L413 253L414.333 255L414.972 256L416.083 258L416.5 259L416.917 261L416.972 262L417 264L417 265L417 268L417 270L417.083 272L417.306 274L417.389 275L417.389 277L417.472 279L417.639 280L417.917 282L417.972 283L417.917 285L417.778 286L417.583 287L416.889 289L416.361 289.972L414.889 291.694L413 292.889L411 293.583L409 293.917L407 294L405 294L403 293.972L402 293.917L400 293.611L399 293.361L398 293.111L396 292.306L394.111 290.889L393.333 289.972L392.722 289L392.111 287L392.028 286L392 284L392 283L392 281L392 280L392 262L403 262L403 268L403 270L403.083 272L403.194 273L403.472 275L403.583 276L403.583 278L403.361 280L403.278 281L403.444 282.944L404 285L405.139 283.5L405.722 281.944L405.889 281L405.972 280L406 279L406 278L406 275L406 271L406 269L406 268L405.917 266L405.5 264L405.083 263L404 261L403.389 260L402.194 258L401.611 257L400.333 255L399 253L397 250L395.667 248L394.333 246L393.694 245L392.639 243L392.111 241L392.028 240L392 238L392 237L392 234L392 222L392 219L392 218L392.111 216L392.722 214.028L394.111 212.306L396 211.111L398 210.389L399 210.139L401 209.667L402 209.472L404 209.472L405 209.639L407 209.944L408 210.056L410 210.417L412 211.111L413 211.639L414.889 213.111L416.278 214.944L416.889 216.5L417 218L417.694 216.5L417.667 215.944L417.722 214.944L417.389 213.056L417.25 212.5L417 211L421 211L421 207L421 205L421.028 203.028L421.056 202.111L421.25 201.306L421.278 200.778L422 200M466 204L465 205L466 204M180 253L177.944 253L176.944 253L175 253.028L174 253.083L172 253.389L171 253.583L169.056 253.694L168.056 253.556L166 253L165.417 255.056L165.222 256.056L165.083 257L165 259L165 261L165 263L165 264L165.083 266L165.361 268L165.528 269L165.611 271L165.583 273L165.667 274.917L165.75 275.778L165.75 276.611L165.833 277.389L165.944 279.083L165.972 280.028L166 281L166 281.944L166 285L167.194 284.333L167.972 283.667L169 283L168.278 281.5L168.25 280.944L168.056 279.944L168.028 279L168 278L168 276L168 273L168 259L180 259L179.806 260.833L179.722 261.639L179.694 262.306L179.667 263L179.667 264.417L179.722 266.083L179.806 267.028L179.861 268L179.944 269L179.972 270L180 271L180 273L180 279L180 282L180 283L180 284L179.917 286L179.5 288L179.056 289L177.75 290.889L176.917 291.694L175 292.889L173 293.611L171 294.111L169 294.389L168 294.389L166 294.194L165 294.083L163 293.972L162 293.917L161 293.75L160 293.5L158.028 292.5L157.083 291.75L156.25 290.917L155.5 289.972L154.944 289L154.5 288L154.083 286L154 284L154 282L154 281L154 278L154 269L154 236L154 225L154 223L154 222L154.028 220L154.083 219L154.417 217L154.722 216L155.111 215.028L155.639 214.083L157.111 212.472L159 211.278L160 210.861L161 210.472L163 210.083L165 210L166 210L168 210L170 210.083L172 210.417L174 211.028L175 211.417L176.889 212.5L178.361 214.083L179.278 216L179.583 217L179.917 219L179.972 220L180 222L180 224L179.944 225.972L179.861 226.917L179.778 228.611L179.806 229.389L179.75 231.083L179.667 232.028L179.583 234L179.639 235L179.722 237L179.694 237.972L179.667 239.778L179.667 241.389L179.694 242.222L179.694 243.083L179.75 244L179.778 245.778L179.75 246.611L179.833 247.389L179.944 249.083L179.972 249.972L180 250.944L180 253M208 252L197 252L196.972 249.944L196.917 248.944L196.667 247L196.528 246L196.389 245L196.306 244L196.194 243L196.111 241L196.167 239L196.222 238L196.167 237L196.139 236L196.083 234.028L196.167 232.222L196.25 231.389L196.278 229.778L196.222 228.917L196.25 227.972L196.194 227L196.278 225L196.5 223L196.25 221.111L195.389 219.778L194 219L194 225L194 227L194 228L193.972 229L193.944 229.972L193.806 231.778L193.722 232.611L193.694 234.222L193.806 236.028L193.833 237L193.889 238L193.833 240L193.75 241L193.722 242.917L193.778 243.778L193.75 244.611L193.833 245.389L193.944 247.083L194 249L194 251L194 253L193.944 254.972L193.806 256.778L193.694 258.306L193.694 259.694L193.75 260.389L193.722 261.139L193.778 261.861L193.75 263.389L193.667 264.222L193.639 265.083L193.583 267L193.667 268.917L193.75 269.778L193.75 270.611L193.833 271.389L193.861 272.222L193.944 273.083L194 275L194 277L194 280L194 283L194 285L193.944 286.972L193.833 288.778L193.778 289.611L193.861 291.167L193.944 291.583L194 293L182 293L182.333 291.5L182.417 289.944L182.389 289L182.472 287L182.639 286L182.917 284L183 282L182.972 280L182.917 279L182.639 277L182.444 276L182.278 274L182.306 273.028L182.306 272.083L182.278 270.389L182.194 269.611L182.056 267.917L182 266L182.028 264L182.056 263L182.139 262L182.167 261L182.25 260L182.222 259.028L182.278 258.083L182.25 256.389L182.167 255.611L182.111 253.917L182.167 252.972L182.222 251L182.167 250L182.056 248L182 246L182 244L182 241L182 238L182 236L182.056 234.028L182.167 232.222L182.222 231.389L182.167 230.611L182.139 229.778L182.056 228.917L182.028 227L182.083 226L182.389 224L182.694 222L182.583 220L182.389 219L182.083 217L182.028 216L182 214.056L182 212L183 211L187 211L189 211L189.972 211.028L191.611 211.278L192.028 211.667L192.361 211.861L192 213L193.5 212.306L194.056 211.944L196 210.917L197 210.5L199 210.083L201 210.028L202 210.111L203 210.333L203.972 210.722L204.917 211.333L206.5 213.028L207.056 214L207.5 215L207.917 217L207.972 218L208 220L208 222L208 225L208 252M264 253L263 254L249 254L249.722 255.5L249.75 256.056L249.944 257.056L249.972 258L250 260L250 262L250 263L249.944 264.972L249.833 266.778L249.778 267.611L249.833 268.389L249.944 270.083L250 272L250 273L250 276L250 285L253 285L253 282.944L253 281.944L252.972 280L252.917 279L252.611 277L252.389 276L252.111 274L252.139 272.083L252.167 271.222L252.222 270.389L252.167 268.778L252.111 267.944L252.167 267.056L252.222 265.389L252.194 264.611L252.194 263L252.194 262.194L252.25 261.389L252.222 260.667L252.389 259.833L252.333 259.417L253 258L255.056 258.583L256.056 258.778L257 258.917L259 259L260 259L260.944 259L264 259L264 280L264 283L264 284L263.972 286L263.889 287L263.694 288L262.889 289.917L261.583 291.528L259.917 292.722L258 293.528L257 293.75L256 293.917L254 294.083L252 294.306L251 294.389L250 294.389L248 294.194L247 294.056L246 293.944L244 293.5L243 293.056L241.083 291.75L240.25 290.917L238.944 289L238.5 288L238.083 286L238 284L238 283L238 281L238 268L238 236L238 225L238 221L238.028 219L238.25 217L238.5 216L239.5 214.083L241.083 212.5L243 211.417L245 210.694L246 210.417L248 210.083L250 210L251 210L253 210.028L254 210.083L256 210.417L258 211.028L259 211.417L260.917 212.5L262.5 214.083L263.056 215.028L263.5 216L263.917 218L263.972 219L264 221L264 223L264 226L264 253M347 253L333 253L333 285L336 285L336 279L336 277L335.972 275L335.917 274L335.694 272L335.583 271L335.528 270L335.5 268L335.528 267L335.556 266L335.611 265L335.583 263.028L335.389 261.278L335.278 260.472L335 259L336.5 258.667L338.056 258.611L340 258.722L341 258.722L342 258.667L343.944 258.611L345.5 258.778L347 259L347 279L347 282L347 283L347 284L346.917 286L346.528 288L346.139 288.972L345.722 289.917L344.528 291.528L342.917 292.722L341 293.528L340 293.75L338 294.056L337 294.194L335 294.389L334 294.389L333 294.306L331 294.056L330 293.944L328 293.583L327 293.278L325.028 292.361L323.306 290.889L322.111 289L321.5 287L321.389 285L321.444 283L321.389 281L321.333 279.083L321.306 278.222L321.306 277.389L321.25 276.639L321.278 275.861L321.25 275.139L321.306 274.389L321.306 273.694L321.278 272.306L321.194 271.583L321.056 269.917L321 268L321 267L321 265L321 262L321 261L321.056 259.028L321.194 257.222L321.306 255.611L321.278 253.917L321.194 252.972L321.056 251L321 249L321 247L321.028 246L321.056 245.028L321.167 243.222L321.222 242.389L321.167 241.611L321.056 239.917L321 238L321 236L321 232L321 228L321 226L321.056 224.028L321.167 222.222L321.222 221.389L321.167 220.611L321.139 218.917L321.25 217.972L321.722 216L322.111 215.028L323.306 213.25L324.111 212.5L326 211.417L327 211.028L328 210.694L330 210.222L331 210.083L333 210L334 210L335 210L336 210L338 210.083L339 210.222L340 210.417L342 211.111L343 211.639L343.972 212.306L344.889 213.111L346.278 215L346.667 216L346.889 217L347 219L347 220L347 222L347 227L347 253M389 211L389 234L389 242L389 245L389 246L389 248L389.083 250L389.194 251L389.389 253L389.389 254L389.306 255L389.083 257L389.028 258L389 259L389 260L389 262L389 268L389 273L389 274L389.028 276L389.222 278L389.583 280L389.722 280.972L389.778 281.917L389.694 283.611L389.611 284.389L389.472 285.222L389.194 287.028L389.083 288L389 289.944L389 290.944L389 293L379 293L379 287L379 285L378.972 284L378.917 283L378.611 281L378.222 279L378.083 278L378 276L378 275L378 273L378 267L378 260L378 258L378 257L378.056 255.028L378.167 253.222L378.222 252.389L378.167 251.611L378.056 249.917L378.028 248.972L378 248L378 246L378.056 244.028L378.194 242.222L378.306 240.694L378.278 239.306L378.194 238.583L378.056 236.917L378 235L378 234L378 232L378 230L378 229L378.056 227L378.139 226L378.222 224L378.167 223L378.056 221L378 219L378 218L378 216L378 211L380.056 211L381.056 211L383 210.917L384 210.806L385.944 210.611L387.5 210.667L389 211M221 211L221.333 212.5L221.472 214.056L221.528 216L221.556 217L221.667 219L221.75 219.972L221.722 220.917L221.75 221.778L221.667 222.611L221.611 223.389L221.333 225.083L221.083 227L221.028 228L221 230L221 233L221 243L221 245L221 246L221.083 248L221.306 250L221.389 252L221.306 253L221.083 255L221.028 256L221 257L221 259L221 262L221 271L221 275L221.028 277L221.083 278L221.306 280L221.389 281L221.306 282.944L221 285L222.444 284.75L223.556 284.417L225 284L224.278 282.5L224.25 281.944L224.056 280.944L224.028 280L224 279L224 277L224 274L224 260L224 211L235 211L235.556 213.056L235.722 214.056L235.806 216L235.778 217L235.861 219L235.944 220L236 222L235.972 223L235.917 224L235.611 226L235.389 227L235.083 229L235.028 230L235 232L235 233L235 239L235 244L235 246L235.083 248L235.389 250L235.694 252L235.583 254L235.222 256L235.083 257L235 259L235.083 261L235.306 263L235.389 264L235.389 265L235.222 267L235.167 268L235.389 270L235.722 272L235.778 274L235.694 276L235.722 278L235.806 279L235.944 281L235.972 282L236 283L235.972 285L235.917 286L235.611 288L235.194 290L234.778 291.944L234.722 292.5L234 294L232.5 293.75L230.944 293.472L230 293.444L229.056 293.472L227.5 293.75L226 294L226 292L224 292L223.222 293.222L221.889 294.111L220.972 294.5L219 294.833L217 294.583L215 293.889L213.083 292.694L212.25 291.889L210.944 290L210.5 289L210.083 287L210 285L210 284L210 282L210 266L210 261L210 259L210 258L210.056 256.028L210.167 254.222L210.222 253.389L210.167 252.611L210.139 250.917L210.389 249L210.611 248L210.917 246L210.972 245L211 244L211 242L211 236L211 228L211 226L211 224L210.972 223L210.806 221L210.694 220L210.611 218L210.722 216L210.694 215.056L210.417 213.5L210 212L211.5 211.278L212.056 211.25L213.056 211.056L214 211.028L216 211L217.944 211L221 211M263 211L262 212L263 211M360 211L360.083 213.056L360.389 215L360.778 217L361.056 219L361.389 221L361.611 222L361.917 224L361.972 225L362 227L362 227.944L362 231L363.139 229.5L363.722 227.944L363.972 226L364 224L364.028 222L364.083 221L364.389 219L364.611 218L364.917 216L364.972 215L365 213.056L365 211L377 211L376.972 212.5L376.778 214.056L376.389 216L376.083 218L376.028 219L375.972 221L375.917 222L375.611 224L375.222 226L375.083 227L374.917 229L374.778 230L374.389 232L374.222 233L373.944 235L373.611 237L373.389 238L373.083 240L373.028 241L372.972 243L372.944 243.972L372.833 245.778L372.778 246.611L372.861 248.222L372.944 249.083L373.028 251L373.083 252L373.389 254L373.611 255L373.917 257L373.972 258L374.028 260L374.083 261L374.194 262L374.472 264L374.611 265L374.806 267L374.861 268L374.972 269L375.056 270L375.389 272L375.611 273L375.917 275L375.972 276L376 278L376.028 279L376.083 280L376.389 282L376.611 283L376.917 285L376.972 286L377.028 288L377.083 289L377.417 290.944L378 293L365 293L365 287L365 285L364.972 284L364.917 283L364.611 281L364.389 280L364.083 278L364.028 277L364 275L364 273L364 272L363.917 270L363.778 269.056L363.583 268.056L363 266L362.278 267.5L362.25 268.056L362.056 269.056L362.028 270L362 271L362 272L362 274L361.972 276L361.917 277L361.611 279L361.222 281L361.028 283L360.972 285L360.917 286L360.611 288L360.222 289.944L360.028 291.5L360 293L348 293L348.028 290.944L348.083 289.944L348.389 288L348.611 287L348.917 285L348.972 284L349 282L349 280L349.028 279L349.083 278L349.389 276L349.611 275L349.917 273L349.972 272L350 271L350.028 269L350.083 268L350.389 266L350.611 265L350.917 263L350.972 262L351.083 260L351.389 258L351.611 257L351.944 255L352.028 254L352.139 253L352.194 252L352.389 250L352.528 249L352.778 247L352.833 246L352.611 244L352.222 242L352.083 241L351.917 239L351.778 238L351.611 237L351.222 235L351.083 234L350.917 232L350.611 230L350.389 229L350.083 227L349.917 225L349.806 224L349.528 222.083L349.389 221.222L349.194 219.611L349.111 218.778L348.806 216.972L348.611 216L348.222 214.056L348.028 212.5L348 211L360 211M391 211L390 212L391 211M126 219L125 220L126 219M166 220L166 222.056L166 223.056L165.917 225L165.667 226.972L165.417 228.778L165.361 229.583L165.333 231L165.333 231.694L165.306 233.222L165.278 234.083L165.139 236L165.056 237L165 239L165 239.944L165 243L169 243L168.417 240.944L168.222 239.944L168.083 239L168 237L168 236L168 235L168 232L168 220L166 220M334 220L333.278 221.5L333.25 222.056L333.056 223.056L333.028 224L333 225L333 227L333 228L333 230L333 236L333 238L333 239L333.111 240.889L333.333 241.667L333.667 242.278L334.278 242.667L336 243L335.75 241.361L335.667 240L335.667 239.306L335.667 236.944L335.667 234.389L335.667 233.611L335.694 232.778L335.694 231.917L335.75 230.972L335.75 229L335.694 228.028L335.694 227.083L335.722 225.389L335.806 224.611L335.833 222.944L335.694 222.083L335.139 220.778L334 220M436 220L434.556 220.722L434 220.75L432 221L432 282L433 283L437 283L437 238L437 227L437 225L437 224L436.972 223.028L436.944 222.111L436.75 221.306L436.722 220.778L436 220M449 220L448.278 221.5L448.25 222.056L448.056 223.056L448.028 224L448 225L448 227L448 230L448 243L451 243L451 220L449 220M250 221L250 226L250 228L249.972 229L249.917 230L249.694 232L249.611 233L249.667 235L249.722 237L249.528 239L249.389 239.944L249.278 240.944L249 243L250 244L251 244L253 243L252.417 240.944L252.222 239.944L252.083 239L252 237L252 236L252 235L252 233L252 231L252 230L252.083 228L252.333 226.028L252.472 225.083L252.611 224.222L252.806 222.667L252.833 222.25L253 221L250 221M319 225L318 226L319 225M350 237L349 238L350 237M376 252L375 253L376 252M127 256L126 257L127 256M362 264L363 265L362 264M405 378L406.5 377.278L407.056 377.25L408.056 377.056L409 377.028L410 377L411 377L414 377L420 377L422 377L423 377.028L424 377.083L426 377.389L427 377.611L429 377.917L430 377.972L431.944 378L434 378L433.722 379.5L433.139 381.056L432.722 382L431.611 384L430.417 386L429.472 388L429.167 389L428.639 391L428.222 393L428.083 394L428.028 396L428.333 398L428.722 399L430.111 401L432 403L433 404L435 406L440 411L452 423L456 427L458 429L460 430.917L461.917 432.611L462.778 433.389L463.611 434.222L465.222 436.028L466.083 437L468 439L470 441L471 442L472.972 444L473.889 445L474.667 445.944L475.639 447.5L476 449L473.944 450.472L472.944 451.278L472 452.083L470.083 454L468.389 455.972L467.611 456.917L465.944 458.611L465.056 459.389L463.389 461.083L462.611 462.028L460.917 464L459 466L457 467.917L456.028 468.778L454.222 470.306L453.389 471L451.861 472.417L450.361 474L449.611 474.806L448.778 475.611L446.972 477.222L445.083 479L443.389 480.778L442.611 481.611L440.917 483.222L439.972 484.083L439 485.028L438 486L436.028 488L435.083 489L433.389 490.972L432.611 491.917L431 493.611L430.194 494.361L429.389 495.139L427.778 496.639L425.972 498.222L425 499.083L423.083 500.972L422.222 501.917L420.611 503.611L419.778 504.389L418.056 506.083L416.389 507.917L415.611 508.778L414.778 509.611L412.972 511.222L412 512.083L411.028 513.028L409.222 514.917L408.389 515.778L407.611 516.611L406.778 517.389L405.917 518.222L404.083 520L402.417 521.778L401.694 522.611L401 523.361L400.306 524.139L398.778 525.639L397.917 526.389L396.028 528.083L395.083 529.028L393.389 531L392.611 532L390.917 534L389 536L388 536.972L386.028 538.778L384.222 540.306L383.417 541L382 542.333L380.667 543.694L380 544.417L378.583 546.083L377.778 547.028L376.917 548L375 550L373 552L369 556L356 569L353 572L351 574L349.083 576L348.222 576.972L346.611 578.778L345 580.389L343.389 582.056L341.778 583.778L340.917 584.611L339 586.222L338 587.083L336.083 588.972L334.417 590.778L333.694 591.583L332.306 593L331.611 593.694L330.861 594.417L329.361 596.083L328.611 597.028L326.917 598.972L325.972 599.917L325.028 600.778L323.222 602.389L322.389 603.222L321.611 604.083L319.917 606L318 608L317 609L314 612L312 614L311 615L309 616.917L307.083 618.611L306.222 619.361L304.611 620.861L303.833 621.583L302.472 622.75L301 624L299.5 623.222L298.944 622.694L297.944 621.889L297 620.972L295 619L293 617L290 614L288 612L287 611.028L286 610.083L284.028 608.389L283.083 607.611L281.389 605.944L280.611 605.056L278.917 603.389L278 602.611L276.222 600.917L274.611 599L273.778 598L272.917 597L271 595L269.028 593.083L268.083 592.222L267.222 591.389L266.389 590.611L265.611 589.778L263.917 587.972L262 586L261 585L259 583L254 578L249 573L247 571L245 569.083L243.083 567.389L242.222 566.639L241.389 565.861L239.778 564.361L238.056 562.778L236.389 560.972L234.778 559L232.972 557L231 555L230 554L225 549L218 542L215 539L214 538L212 536.083L210.028 534.389L208.222 532.778L206.611 530.972L204.944 529L204.056 528L202.389 526.083L201.611 525.222L199.917 523.611L198.028 521.917L197.083 520.972L196.222 520.028L194.611 518.222L193.778 517.389L191.972 515.778L190 513.972L189 513L187 511L184 508L181 505L179 503L177.083 501L175.389 499.028L174.611 498.083L173.806 497.222L172.194 495.639L170.611 494.139L169 492.611L167.417 491L166 489.389L165.306 488.639L164.583 487.861L162.917 486.361L161.972 485.611L160 483.917L158 482L157 481L155 479L149 473L144 468L142 466L141 465L140.028 464L138.222 462.028L136.611 460.222L135.778 459.389L133.972 457.778L133 456.917L132 455.972L130 454L129 453L125 449L125.528 447.583L125.889 447.167L126.417 446.361L127.694 445L129.194 443.583L130 442.778L130.806 441.944L132.361 440.222L133.139 439.417L133.861 438.694L135.306 437.306L136 436.583L137.417 434.917L138.222 433.972L140.028 432L142 430L143 429L145 427.083L146.972 425.389L147.917 424.611L149.611 423.028L150.333 422.306L151.167 421.722L151.583 421.361L153 421L152 419L153.5 418.222L154.056 417.694L155.056 416.889L156 415.972L158 414L159 413L161 411L162 410L164 408.028L164.944 407.111L165.944 406.306L166.5 405.778L168 405L168.472 406.5L168.361 407.056L168.333 408.056L168.167 409L168 410L167.611 412L167.389 413L167.083 415L166.972 417L166.917 418L166.611 420L166.389 421L166.083 423L166.028 424L166 425L166 427L166 432L166 434L166 436L165.889 438L165.278 440L164.667 441L162.972 443L161.056 444.889L160.056 445.694L159.5 446.222L158 447L158 449L159.5 449.778L160.056 450.306L161.056 451.111L162 452.028L164 454L166 456L169 459L186 476L198 488L202 492L203 493L204.972 495L205.917 496L207.611 498L208.389 499L210.056 500.917L210.944 501.778L212.611 503.361L213.361 504.139L214.139 504.861L214.861 505.639L215.639 506.389L216.389 507.222L217.222 508.083L219 509.917L220.778 511.611L221.611 512.389L222.389 513.194L224.056 514.806L224.944 515.611L226.611 517.194L227.361 518L228.861 519.583L229.611 520.306L231 521.667L231.667 522.333L233 523.667L234.333 525L235.694 526.417L236.417 527.222L238.028 528.972L240 531L239.75 532.5L239.389 534.056L239.194 535L238.806 537L238.611 538L238.389 539L238.083 541L238.028 543L238.083 544L238.472 546L239.278 548L240.472 550L242.083 552L243.028 552.972L244 553.917L246 555.528L247 556.167L249 557.361L250 557.944L252 558.917L252.944 559.278L254.5 559.75L256 560L254.5 559L253.944 558.778L252.944 558.194L252 557.75L250 556.611L248 555.306L246.028 553.778L245.083 552.917L243.472 551L242.278 549L241.861 548L241.472 547L241.25 546L241.083 545L241 543L241 542L241.028 540L241.083 539L241.389 537L241.611 536L242 534L242.417 532.056L243 530L244.5 530.028L246.056 530.222L247 530.389L249 530.861L250 531.139L251 531.361L251.944 531.611L252.944 531.778L253.5 531.917L255 532L255 529.944L254.972 528.944L254.917 528L254.611 526L254.389 525L254.056 523L253.944 522L253.583 520L253.306 519L252.667 517L252 515L251.333 513L250.611 511L249.806 509L249.389 508L248.694 506L248.417 505L248.222 504L248.083 503L248.028 501L248.083 500L248.417 498L248.694 497L249.417 495L250.417 493L251.583 491L252.583 489L253 488L253.889 486L254.417 485L255.583 483L256.111 482L257.083 480L258.306 478.111L260.028 476.722L260.944 476.333L262.5 476.028L264 476L264.25 474.556L264.583 473.444L265 472L267.056 472L268.056 472L270 471.889L272 471.306L274 470.139L275 469.472L277 468.528L278 468.333L280 468.444L281 468.694L282.944 469.333L283.5 469.556L285 470L285.083 468.5L285.472 466.944L286.25 465L286.778 464L287.25 463L288.389 461L289.667 459L290.306 458.056L290.917 457.056L291.306 456.5L292 455L290.5 454.556L289.944 454.333L288.944 454L287 453.389L285 452.861L284 452.639L283 452.389L282 452.194L280 451.806L278 451.389L276 451.056L275 450.944L273 450.611L272 450.389L270 450.056L269 449.944L267 449.611L265 449.222L264 449.083L262 448.917L261 448.778L259 448.389L257 448.083L256 448.028L254 448L252 447.972L251 447.917L249 447.611L248 447.389L246 447.083L245 447.028L243 447L241 447L240 447L238 447.083L237 447.222L235 447.611L233 447.917L232 447.972L230 448L228 448.028L227 448.083L225 448.389L224 448.611L222 448.917L221 448.972L219 449.028L218 449.083L216 449.389L215 449.639L214 449.861L212 450.444L210 451.25L209 451.778L208 452.222L207 452.778L205 453.75L204 454.167L203 454.611L201 455.389L199 456.167L198 456.556L196 457.139L195 457.361L194 457.611L192 457.917L190 458L189 458L187 457.917L185 457.583L184 457.306L183 456.972L181.028 456.167L180.083 455.722L178.389 454.528L177.611 453.75L176 451.972L174.5 450L173.417 448L172.611 446L171.833 444L171.472 443L171.056 441L170.944 440L170.694 438L170.611 437L170.611 436L170.806 434L170.917 433L170.944 432L170.917 431L170.694 429L170.611 428L170.694 426L170.917 424L171 422L171.083 420L171.389 418L171.611 417L171.917 415L172.083 413L172.389 411L172.806 409L173.194 407L173.417 406L173.694 405L174.306 403L174.583 402L175 400L175.389 398L175.861 396L176.139 395L176.389 394L177 392L177.333 391L178.333 388L179 386L179.611 384L180.222 382L180.583 381L181.472 379L181.944 378L182.806 376L183.194 375L183.611 374L184.389 372L185.25 370L185.75 369L186.611 367L187.389 365L187.833 364L188.25 363L188.778 362L189.778 360L190.222 359L190.778 358L191.222 357L191.778 356L192.778 354L193.25 353L193.833 352L194.389 351L195.028 350L195.667 349L197 347L198.333 345L199 344L200.389 342L201.139 341L202.611 339L203.306 338L204 337L205.417 335L207 333L208.611 331L209.389 330L211.083 328L213 326.028L214 325.083L216 323.417L218 322.028L219 321.417L221 320.417L222 320.028L224 319.389L225 319.139L227 318.639L228 318.389L230 318.167L232 318.417L234 319.028L235 319.417L236.917 320.5L237.778 321.25L239.306 323.028L240.583 325L241.5 326.944L241.75 327.944L241.917 328.5L242 330L243.472 328.5L244.833 326.972L246.389 325.222L247.222 324.389L248.083 323.611L249.028 322.778L251 320.972L252.917 319.028L254.611 317.222L255.389 316.389L256.222 315.611L257.083 314.778L258.917 312.972L260.611 311L261.389 310L263.083 308L264.028 307L265 306L267 304L270 301L272 299L274 297.083L274.972 296.222L276.778 294.694L277.583 294L278.306 293.306L279 292.583L279.694 291.778L281.222 289.972L282.083 289L284 287L286 285L290 281L293 278L295 276L297 274.111L298 273.333L300 272.444L301 272.444L303 273.333L304 274.111L306 276L308 278L310 280L311 281L312 282L313.917 284L315.611 286L317.222 287.917L319.028 289.611L319.972 290.389L321.778 292.056L322.583 292.944L324 294.611L324.694 295.389L326.222 297.083L328 298.917L329.778 300.611L330.611 301.361L331.361 302.139L332.139 302.861L332.861 303.639L333.639 304.389L335.194 306L336.806 307.611L337.611 308.389L338.389 309.194L340 310.806L341.611 312.389L342.389 313.222L344.083 315.028L346 317L348 319L351 322L354 325L356 327L357.972 328.917L358.917 329.778L360.611 331.389L361.389 332.222L363.083 333.944L364.917 335.611L365.778 336.361L367.306 337.861L368 338.639L369.417 340.222L370.222 341.083L371.083 342.028L373 344L374 345L375 346L377 347.917L377.972 348.778L379.778 350.389L380.611 351.222L382.222 353.028L383.083 354L385 356L386 357L387 358L389 360L397 368L399 370L400 371L401.917 373L403.5 374.944L404.083 375.944L404.472 376.5L405 378M480 277L480.028 278.5L480.194 280.056L480.306 281L480.389 282L480.389 283L480.306 284L480.083 286L480 287.944L480 290L478.5 290.083L477.944 290.222L476.944 290.389L476 290.611L474 290.917L473 290.972L471.056 291L469 291L469 277L480 277M254 349L253.667 347.5L253.361 346.944L252.944 346L252.056 344.5L251 343L250.556 343.778L250.722 344.306L250.917 345.111L251.833 347L252.389 348L253.667 350L254.333 351L255.611 353L256.194 354L257.389 356L258.611 358L259.833 360L260.444 361L261.167 362L262.611 364L264 366L265.417 368L266.194 369L267.806 371L268.611 372L270.139 374L270.861 375L271.639 376L272.361 377L273.139 378L273.861 379L275.389 381L276.194 382L277.806 384L278.611 385L279.389 386L281.083 388L282.028 389L284 391L285 392L287 394L289 396L291 397.972L292 398.917L294 400.611L295 401.389L297 403.056L298 403.944L300 405.583L301 406.306L302 407L304 408.333L310 412.333L312 413.667L313 414.333L315 415.611L316 416.194L318 417.389L320 418.667L320.944 419.306L321.944 419.917L322.5 420.306L324 421L324 405L324 402L324 401L324.083 399L324.417 397L324.722 396L325.556 394L326.083 393L327.417 391.028L329.083 389.222L331 387.611L332.889 385.972L333.694 385.028L334.222 384.5L335 383L332.944 381.528L331.944 380.75L330.056 379.278L329.5 378.778L328 378L328 376L329.25 375.222L329.639 374.694L330.361 373.889L331 373L332.417 371.222L334.083 369.639L336 368.222L338 367.111L339 366.694L341 366L343 365.417L345 365.083L347 365L348 365L350 365L352 365L353 365L355 365.028L356 365.083L358 365.389L358.944 365.611L359.944 365.778L360.5 365.917L362 366L361.222 364.5L360.694 363.944L359.889 362.944L358.972 362L358 361L356 359L355 358.028L354 357.083L352.083 355.389L350.389 353.778L348.778 352.056L347.917 351.222L346 349.611L344 347.917L342.028 346L341.083 345.028L339.389 343.222L338.611 342.389L337.778 341.611L335.972 339.917L334.028 338L333.083 337L332.222 336L330.611 334.083L329.778 333.222L327.972 331.611L326 329.917L325 328.972L323 327L322 326L316 320L314 318L313 317L311.028 315L310.083 314L308.389 312L307.611 311L306.778 310L304.972 308.028L303 306.333L302 305.75L301 305.444L300 305.444L298 306.333L297 307.111L295 309L294 310L292 312L287 317L267 337L262 342L260 344L258 345.972L257.056 346.889L256.056 347.694L255.5 348.222L254 349M240 385L240 381.944L240 380L240.028 378L240.083 377L240.389 375L240.611 374L240.917 372L240.972 371L241 370L241 368L241 366L241 365L240.917 363L240.778 362L240.389 360L240.083 358L240.028 357L240 355L239.972 354L239.917 353L239.611 351L239.389 350L239 348L238.611 346L238.389 345L238.194 344L237.806 342L237.611 341L237.361 340L236.861 338L236.639 337L236.361 336L236.139 335L235.528 333L235.083 332L233.972 330L232.583 328.111L231.778 327.333L230.917 326.722L229 326.111L228 326.056L227 326.083L225 326.5L223 327.472L221 328.861L220 329.639L219 330.389L217.083 332.083L215.389 334L214.611 335L213.778 336L212.944 337L212.056 338L210.472 340L209.833 341L208.611 343L207.306 345L205.861 347L205.167 348L204.444 349L203.194 351L202.611 352L201.389 354L200.833 355L200.25 356L199.778 357L198.778 359L198.222 360L197.778 361L197.222 362L196.778 363L196.222 364L195.778 365L194.778 367L194.25 368L193.833 369L193.389 370L192.611 372L192.194 373L191.389 375L190.611 377L190.194 378L189.389 380L188.611 382L187.806 384L187.389 385L186.667 387L186 389L185.694 390L185.389 391L184.861 393L184.611 394L184.306 395L183.694 397L183.389 398L183.139 399L182.611 401L182.306 402L182 403L181.417 405L181 407L180.611 409L180.389 410L180.194 411L179.806 413L179.611 414L179.389 415L179.083 417L178.917 419L178.778 420L178.389 422L178.139 423.972L178.167 425.778L178.222 426.611L178.139 428.222L178.056 429.083L178 431L178.028 433L178.056 433.972L178.194 435.778L178.306 436.611L178.389 437.389L178.694 439.083L179.139 441L179.389 442L180.028 444L180.417 445L180.917 446L182.25 447.917L184.028 449.5L185 450.056L187 450.75L189 450.972L190 450.972L191 450.917L193 450.583L194 450.306L196 449.611L197 449.194L199 448.389L201 447.611L202 447.167L203 446.722L205 445.611L207 444.306L208 443.611L209 442.861L211 441.361L212 440.611L214 438.917L215.917 437L217.611 435L218.389 434L220.056 432L220.944 431L222.583 429L224 427L224.667 426L225.333 425L226.583 423L227.472 421L227.583 419L226.667 417L224.972 415L223 413.083L221 411.389L220 410.639L218 409.167L217 408.444L215 407.194L214 406.611L212 405.389L210 404.25L209 403.778L208 403.222L207 402.778L206 402.25L204 401.389L203 401.028L201 400.417L199 400L198 399.806L196 399.361L195 399.111L193.028 398.306L191.333 396.889L190.722 395.972L190.111 394L190.083 392L190.417 390L190.694 389L191.333 387L192.028 385L192.389 384L193.278 382L194.389 380L195.028 379L196.417 377L198.083 375.083L199.028 374.278L200 373.583L202 373L203 373.167L204 373.5L206 374.667L207 375.333L209 376.583L210 377.111L212 378L213 378.389L214 378.806L216 379.611L218 380.333L219 380.667L221 381.333L223 382L224 382.306L225 382.583L226 382.806L228 383.194L230 383.611L231 383.806L233 384.194L234 384.389L235 384.611L236.944 384.917L237.944 384.972L240 385M243 331L243 332L245 333L244 331L243 331M245 334L246 335L245 334M246 336L246.5 337.5L246.833 338.056L247.778 339.944L248 340.5L249 342L249.444 341.222L249.278 340.694L249.083 339.889L248.194 338.111L247.583 337.306L247.222 336.778L246 336M247 354L247.25 355.5L247.611 357.056L247.917 359L247.972 360L248 362L248 364L248.028 366L248.194 368L248.389 370L248.389 371L248.306 372L248.083 374L248.028 375L248 376L248 378L247.972 379L247.917 380L247.611 382L247.222 384L247.083 385L246.917 387L246.778 388L246.611 389L246.194 391L245.806 393L245.611 394L245.139 396L244.861 397L244.639 398L244.361 399L243.861 401L243.611 402L242.972 404L242.611 405L242.194 406L241.389 408L240.611 410L239.75 412L239.25 413L238.389 415L237.611 417L236.75 419L236.222 420L235.778 421L235.222 422L234.75 423L233.611 425L232.972 426L232.333 427L231 429L229.667 431L228.306 433L227.583 434L225.917 436L224.111 438L223.333 438.944L222.361 440.5L222 442L224.056 441.417L225.056 441.222L226 441.083L228 441L230 440.972L231 440.917L233 440.611L234 440.389L236 440.083L237 440.028L239 440L243 440L245 440L247 440.028L248 440.083L250 440.389L251 440.611L253 440.917L254 440.972L256 441L257 441.028L258 441.083L260 441.389L261 441.611L263 441.944L264 442.056L266 442.389L267 442.611L269 442.917L271 443.083L273 443.389L274 443.611L275 443.806L277 444.194L278 444.389L279 444.611L280 444.806L282 445.194L283 445.389L285 445.806L287 446.194L288 446.389L290 446.861L291 447.139L293 447.611L294.944 447.917L295.944 447.972L298 448L299.472 445.944L300.278 444.944L301.083 444L302.917 442L303.778 441L305.389 439.028L307.083 437.222L309 435.639L310 434.861L311 434.139L313 432.639L314 431.861L315 431.167L316 430.444L317.944 429.25L318.5 429L320 428L319.222 426.75L318.694 426.361L317.889 425.639L316 424.389L314 423.194L313 422.611L312 421.972L310 420.667L309 420L306 418L302 415.333L300 414L299 413.306L298 412.611L297 411.861L296 411.139L294 409.611L292 408L290.028 406.389L289.083 405.639L287.389 404.139L286.611 403.361L284.917 401.778L283.972 400.917L282.028 399L281.083 398L279.389 396L278.611 395L276.917 393L275.972 392L274.028 390L273.083 389L271.389 387L269.861 385L269.139 384L267.611 382L266.806 381L265.194 379L263.611 377L262.806 376L261.194 374L260.417 373L259.694 372L259 371L257.611 369L256.167 367L255.444 366L254.833 365L253.611 363L252.333 361L251.667 360L250.389 358L249.222 356.111L248.583 355.306L248.222 354.778L247 354M335 377L336.5 377.694L337.056 378.083L338.056 378.694L339 379.333L341 380.611L342 381.167L343 381.75L344 382.222L345 382.75L346 383.167L347 383.611L349 384.389L351 385.167L352 385.556L353 385.833L354 386.139L356 386.611L357 386.806L359 387.194L360 387.389L361 387.611L362 387.806L364 388.194L365 388.389L366 388.611L368 388.917L369 388.972L371 389L373 389L380 389L381 390L381 394L381 396L381 397L380.917 399L380.528 401L380.167 402L379.389 404L378.611 406L377.833 408L377.472 409L377.083 411L377.056 412L377.083 413L377.5 415L377.944 416L378.5 417L380.083 419L381.972 421L382.917 422L384.5 424L385.5 426L385.75 427L385.889 429L385.611 431L385.389 432L385.222 433L384.944 435L384.75 436L384.528 437L383.75 439L383.222 440L382.25 442L381.389 444L381.028 445L380.306 447L379.944 447.944L379.167 449.5L378 451L378.583 453L378.778 454L378.917 454.5L379 456L383 456L385 456L387 455.972L387.944 455.944L388.944 455.75L389.5 455.722L391 455L390.417 452.944L390.222 451.944L390.083 451L390 449L390 447L390 441L390 420L391.5 420L393.056 420.083L395 420.361L396 420.528L397 420.556L398 420.528L399 420.361L400.944 420.083L402.5 420L404 420L405 421L405 436L405 441L405 443L405 444L404.972 445L404.917 446L404.694 448L404.611 449L404.611 451L404.583 452L404.528 453L404.361 454L404.056 456L403.944 457L403.611 459L403.361 460L403.111 461L402.417 463L401.528 465L401.056 466L400.639 467L399.722 469L398.611 471L397.389 473L396.25 475L395.222 477L394.778 478L393.778 480L393.25 480.944L392.833 481.944L392.5 482.5L392 484L394.056 486.056L395.917 487.972L397.583 489.778L398.306 490.583L399.694 491.972L400.417 492.611L402.083 493.722L403.028 494.139L404 494.5L406 494.583L407 494.25L407.972 493.667L409.694 491.972L410.889 490L411.583 488L411.917 486L412 484L411.972 482L411.667 480L410.694 478L410 477.056L409.278 476.056L408.778 475.5L408 474L409.5 473.472L410.056 473.111L411.028 472.583L412.75 471.306L413.5 470.583L414.5 468.917L414.833 467L414.528 465L413.806 463L413.389 462L412.639 460.111L412.167 459.306L411.972 458.778L411 458L411.722 456.5L411.778 455.944L412.278 454L413.111 452L413.722 451L415.194 449L415.972 448L416.694 447L417.278 446L417.778 444L417.639 443L417.306 442L416.139 440L415.472 439L414.5 437L414.167 435L414.417 433L415.028 431L415.389 430L416.278 428L416.833 427L417.389 426L418.667 424L419.333 423L420.611 421L421.722 419L422.528 417L422.917 415L422.972 414L423 412L423 411L423 409L423 402L423 400L423 399L422.944 397.028L422.833 395.222L422.778 394.389L422.833 393.611L422.944 391.917L423.083 390L423.472 388L423.833 387L424.528 385.056L424.722 384.5L425 383L420 383L418 383L417 382.972L416 382.917L414 382.611L412 382.222L411 382.083L409 382L408 382.028L407 382.083L405 382.389L404 382.611L402 382.917L401 382.972L399 383L397 383L395 383L394 383L392 383L390 382.917L388 382.5L386.028 381.5L384.222 379.917L383.417 378.972L382.722 378.056L382.083 377.056L381.694 376.5L381 375L378.944 375L377 374.917L376 374.778L374 374.361L373 374.139L372 373.861L370 373.389L369 373.194L368 373L366 372.611L365 372.389L363 372.056L362 371.944L361 371.778L359 371.389L357 371.083L356 371.028L354 370.917L352 370.639L351 370.472L349 370.472L347 370.778L346 370.944L345 371.056L343 371.389L342 371.639L341 371.861L339.083 372.472L337.417 373.5L336.083 375.028L335.694 375.528L335 377M206 379L205.75 380.5L205.361 382.056L204.861 384L204.611 385L204.306 386L203.611 388L203.167 389L202.722 390L201.556 392L200.25 393.944L199.694 394.944L199.361 395.5L199 397L200.5 397.25L202.056 397.639L203 397.861L204 398.167L205 398.444L206 398.833L207 399.194L208 399.639L209 400.056L211 401.056L212 401.639L213 402.194L214 402.806L216 404L218 405.194L219 405.833L220 406.472L222 408.056L223 408.944L224.972 410.611L225.917 411.389L227.611 413.056L229.167 414.667L230.528 415.639L232 416L232.694 414.5L233.056 413.944L234.167 412L234.722 411L235.611 409L235.972 408L236.667 406L237 405L237.583 403L237.778 402L238 400L238.222 398L238.611 396L238.778 395L238.917 394L239 392.056L239 391.056L239 389L237.5 388.583L235.944 388.222L235 388.083L233 387.917L231 387.611L230 387.361L228 386.861L227 386.639L226 386.361L225 386.139L224 385.861L222 385.306L220 384.611L219 384.194L217 383.389L215 382.611L214 382.167L213 381.75L212 381.222L211 380.778L210 380.25L209.056 379.861L207.5 379.278L206 379M342 386L340.944 387.417L339.944 388.639L338.583 390L337.778 390.694L335.972 392.222L335.028 393.083L334.111 394.028L332.722 396L332.111 398L332 400L332 401L332 404L332 411L332 414L332 415L331.917 417L331.667 418.944L331.639 419.944L331.528 420.5L332 422L333.083 421.25L333.472 420.806L335.083 419.611L336.028 419.083L338 418.194L340 417.444L341 417.167L342 416.861L344 416.389L346 416.083L348 416L350 416.028L351 416.083L352 416.25L353 416.5L355 417.5L356.917 419.083L358.5 421L359.083 422L359.972 424L360.278 425L360.472 426L360.194 428L359.639 429L357.972 431L356.056 432.944L354 435L353.556 433.5L353.333 432.944L352.667 431L352.333 430L351.583 428.028L351.083 427.083L350.5 426.25L349.75 425.5L347.972 424.5L347 424.25L346 424.083L344 424.028L343 424.083L341 424.389L340 424.639L338 425.139L337 425.389L336 425.694L335 426L333 426.583L332.056 426.778L330.5 426.972L329 427L328.222 428.5L327.694 429.056L326.889 430.056L325 431.972L324 432.917L322 434.583L321 435.306L319 436.694L318 437.389L316 438.861L315 439.639L314 440.389L312 442.083L311 443.028L310 444L308.083 446L306.389 448L305.639 449L304.139 451L303.389 452L302 454L301.333 455L300 457L298.667 459L298.028 460L297.389 461L296.806 462L295.611 464L294.417 465.944L293.889 466.944L293.528 467.5L293 469L294.5 470.139L296.056 470.722L297 470.889L299 471L300.972 470.944L301.917 470.861L303.611 470.75L304.389 470.75L305.222 470.667L307.028 470.583L309 470.694L309.944 470.806L311.5 470.972L313 471L313.5 472.5L313.806 473.056L314.528 474.944L314.917 476.5L315 478L317.056 478L318.056 477.972L319.889 477.722L320.694 477.333L321.222 477.139L322 476L323.5 476.528L324.056 476.917L325.056 477.5L326.972 479.083L328.778 480.917L329.611 481.778L330.389 482.611L332.083 484.222L333.028 485.083L335 487L335.972 488L336.889 489L338.306 491L339.028 492.917L339.139 493.778L339.222 494.611L339.167 495.389L339.028 497.083L338.778 499L338.583 500L338 502L337.333 504L337 505L336.694 506L336.389 507L336.139 508L335.861 509L335.389 511L335.083 512.944L335.028 513.944L335 516L333.5 515.639L332.944 515.306L331.056 514.222L330.056 513.694L329.5 513.361L328 513L328.028 510.944L328.083 509.944L328.389 508L328.806 506L329.194 504L329.389 503L329.861 501L330.139 500L330.361 499L330.611 498L330.917 496L330.972 495L330.972 493L330.917 492L330.5 490.111L330.111 489.333L329.222 488.361L328 488L328.306 490.056L328.389 491.056L328.361 492L328.222 493L327.611 495L327.194 496L326.389 498L326 499L325.111 501L324.583 502L323.972 503L322.583 505L320.917 506.917L319 508.528L318 509.139L317 509.722L315.056 510.528L313.5 510.917L312 511L312.083 512.5L312.222 513.056L312.389 514.056L312.611 515L312.917 516.944L312.972 517.944L313 520L314.5 521.056L315.056 521.389L317 522.611L319 523.722L321 524.556L322 524.833L324 525.389L325 525.694L327 526.306L328 526.611L330 527.139L331 527.389L332 527.694L333 528L335 528.667L336 529.028L337 529.389L339 530.25L340 530.75L342 531.611L344 532.389L346 533.278L347 533.833L348 534.389L350 535.611L352 536.806L353 537.361L353.944 537.917L354.944 538.361L355.5 538.667L357 539L357 535L358.5 534.75L359.056 534.583L360.056 534.306L361 534L362.944 533.417L364.5 533.083L366 533L366.25 531.5L366.639 529.944L366.861 529L367.139 528.056L367.389 527.056L368 525L367.028 523.5L366.861 523L366.278 521.5L366 520L368.056 519.417L370 519.083L371 519.028L372 519L374 519L375 518.972L377 518.75L377.972 518.5L379.75 517.5L381.056 515.917L381.5 514.972L381.917 513L381.917 511L381.5 509L381.083 508L380.611 507L379.611 505L378.861 503.056L378.75 502.5L378 501L378.972 500.222L379.167 499.694L380.083 497.972L381.306 496L382.111 495L383.028 494.028L384 493.083L386 491.389L386.944 490.667L387.944 489.833L388.5 489.417L390 488L390 486L388 485L388.444 483.5L388.667 482.944L389.389 481L389.833 480L390.278 479L390.833 478L392 476L393.111 474L394.056 472L395.056 470L396.167 468L396.75 467L397.222 466L397.75 465L398.556 463L398.833 462L399.139 461L399.361 460L399.806 458L400.167 456L400.333 455.028L400.472 454.083L400.611 453.222L400.694 452.389L400.861 450.778L400.944 449.917L400.972 448.972L401 448L401 446L401 442L401 424L394 424L394 446L394 449L394 451L394.056 452.972L394.139 453.917L394.25 455.611L394.389 457.167L394.333 457.583L395 459L375 459L375 456.944L375 455.944L374.972 455L374.944 454.056L374.75 453.056L374.722 452.5L374 451L375 450.222L375.222 449.694L375.806 448.889L376.222 447.972L376.778 447L377.222 446L378.222 444L378.778 443L379.222 442L379.722 441L380.389 439.083L380.694 437.389L380.889 435.778L381.194 433.972L381.611 432L381.778 431L381.917 430L381.917 428L381.5 426L381.056 425L380.5 424L378.917 422L377.028 420L376.083 419L374.5 417L373.5 415L373.083 413L373.083 411L373.25 410L373.472 409L374.25 407L375.222 405L375.75 404L376.139 403L376.556 402L376.833 401L377.139 400L377.528 398L377.528 396.056L377.25 394.5L377 393L374.944 393L373.944 392.972L373 392.917L372 392.806L370.083 392.528L369.222 392.389L368.389 392.306L367.611 392.194L365.917 392.056L364 391.917L362 391.611L360 391.194L358 390.806L357 390.583L356 390.306L355 390L353 389.333L351 388.667L350 388.333L348 387.611L347 387.194L345.056 386.472L343.5 386.083L342 386M422 428L421.5 429.5L421.194 430.056L420.472 432L420.167 434L420.472 436L420.861 437L421.833 439L422.889 441L423.278 442L423.472 444L422.972 446L422.583 447L421.528 449L420.139 451L419.389 452L418.111 454L417.667 455L417.389 456L417.5 458L417.861 459L418.75 461L419.139 462L419.556 463L419.806 464L420.056 465L420.222 467L420.139 468.944L420.056 469.5L420 471L421.5 470.222L422.056 469.694L423.056 468.889L424 467.972L426 466L427 465L430 462L443 449L443 447L438 442L436 440L434.083 438.028L433.222 437.083L431.639 435.389L430.861 434.611L429.361 433L428.639 432.194L427.861 431.389L426.444 429.833L426.083 429.417L425 428L422 428M329 437L329.083 435.5L329.25 434.944L329.5 433.972L330.5 432.25L332.083 430.861L334 429.861L335 429.472L337 429.083L339 429L341 429.083L343 429.5L344.917 430.5L345.75 431.25L346.5 432.083L347.472 434L347.667 436L347.472 437L346.5 438.889L345.75 439.694L343.972 440.889L343 441.278L342 441.583L340 441.833L339 441.75L338 441.583L336 440.972L335 440.583L333 439.528L331.056 438.222L330.5 437.75L329 437M335 434L334 435L332 436L332 437L333 439L335 438.944L336 438.75L336.5 438.722L338 438L337.639 436.528L336.722 435.25L336.389 434.778L335 434M279 475L278.028 476.5L277.833 477.056L277.361 478.056L276.667 480L276.333 481L275.611 483L275.194 484L274.389 486L273.611 488L272.75 490L272.222 491L271.778 492L271.222 493L270.778 494L270.25 495L269.444 497L269.167 498L268.861 499L268.639 499.944L268.25 501.5L268 503L263 503L263.083 501.5L263.222 500.944L263.389 499.944L263.889 498L264.222 497L264.583 496L265.389 494L265.806 492L265.583 490L265.306 489L265 488L264.417 486L264.222 485.056L264.028 483.5L264 482L262.833 482.778L262.583 483.306L262.028 484.111L261.639 485.028L260.75 487L260.222 488L259.222 490L258.75 491L258.167 492L257.611 493L256.417 495L255.889 496L255.028 498L254.694 499L254.25 501L254.167 502L254.278 503L254.472 504L255.194 506L255.611 507L256.389 509L256.833 510L257.25 511L257.75 512L258.167 513L258.611 514L259.306 516L259.583 517L259.806 518L260.194 520L260.611 522L260.778 523L260.917 524L261 526L261 527L261 528L260.972 530L260.917 531L260.611 532.944L260.25 534.5L260 536L262.056 536.583L264 537L266 537.389L268 537.778L269 537.917L271 538.028L272 538.083L273.944 538.417L276 539L276.75 537.5L276.833 536.944L277.389 535L277.694 534L278.306 532L278.611 531L279.139 529L279.389 528L280 526L280.306 525L280.694 523L280.583 521L280.389 520L280.222 519L280.056 518L279.944 517L279.583 515L278.972 513L278.611 512L278.194 511L277.806 510L277.389 509L277.028 508L276.333 506L275.694 504L275.417 503L275.083 501L275.028 499L275.083 498L275.472 496L276.25 494L276.75 493L277.611 491L278.417 489L279.417 487L280 486L280.583 485L281.5 483L281.75 482L281.917 481L281.972 480L281.944 478.056L281.75 477.056L281.722 476.5L281 475L279 475M288 476L288.417 477.444L288.75 478.556L289 480L290.5 480.444L291.056 480.667L293 481.389L295 482.25L295.944 482.75L296.944 483.167L297.5 483.5L299 484L298.889 486.056L298.667 487.056L297.667 488.917L296.028 490.528L294 492L294.778 492.806L295.306 493L296.111 493.444L297.972 494.5L299.722 495.972L300.528 496.722L300.917 497.222L302 498L300.583 500L299.778 501L299.417 501.5L298 503L298 505L299.583 506.75L299.972 507.278L301 508L299.528 510.056L298.028 512L296.694 514L295.861 516L295.528 517L294.5 518.972L293.75 519.917L292.056 521.417L290.389 522.194L289.667 522.361L288.417 522.639L287 523L286.75 524.5L286.583 525.056L286.306 526.056L285.667 528L285.333 529L284.667 531L284.333 532L284 533L283.417 534.944L283.222 535.944L283.083 536.5L283 538L284.472 538.528L285.833 539.5L287.306 541.083L288.583 543L289.556 544.972L289.889 545.917L290.083 546.778L290.194 547.611L290.139 549.222L290.056 550.083L290.028 551.028L290 553L290 554L290 557L290 564L289 565L287.5 564.917L286.944 564.778L285.944 564.611L285 564.389L283 564.083L282 564.028L280 564L278 563.972L277 563.917L275.056 563.611L273.5 563.25L272 563L272.778 564.472L273.306 564.972L274.111 565.833L276 567.389L276.972 568.222L277.917 569.083L279.611 571L280.389 572L282.083 573.917L284 575.611L285 576.389L286.972 578.083L287.917 579.028L289.611 580.917L290.361 581.778L291.861 583.361L293.361 584.861L295.639 587.139L297.139 588.639L297.806 589.333L298.917 590.583L300 592L301.472 591.222L301.972 590.694L302.833 589.917L304.306 588.222L305 587.389L306.417 585.778L308.056 584.056L309.778 582.417L310.611 581.694L311.389 581L312.222 580.306L314.028 578.861L316 577.361L317.917 575.778L319.528 573.972L320.167 573L321.472 571.083L322.25 570.222L324.028 568.611L325 567.778L325.972 566.917L326.917 565.972L327.778 565.028L329.361 563.222L330.861 561.639L332.389 560.139L333.222 559.361L335.028 557.778L336.917 555.972L337.778 555.028L339.389 553.222L341 551.611L342.611 549.917L343.389 549L345.083 547.361L346.028 546.833L347 546.667L349 547.333L351 548.778L352 549.528L352.972 550.167L354.778 551.361L356.333 552.361L356.75 552.667L358 553L359.167 551L359.528 550.444L360 549L358.75 549.056L357.556 548.528L356.778 548.028L355.917 547.361L354 546L352 544.667L350 543.389L349 542.833L348 542.25L346 541.222L345 540.778L344 540.222L342 539.25L341 538.833L340 538.389L338 537.611L336 536.806L335 536.389L333 535.667L332 535.333L330 534.667L328 534L327 533.694L326 533.389L325 533.139L324 532.861L322 532.306L320 531.611L318 530.806L317 530.361L316 529.944L314 528.917L312 527.583L310.028 525.917L308.25 524L307.472 523L306.861 522L306.278 521L305.472 519L305.083 517L305.028 516L304.917 514L304.528 512L304.167 511L303.472 509L303.278 508L303.194 507L303.722 505L304.306 504L305.722 502.056L306.222 501.5L307 500L309 500L309.722 501.444L310.25 502L312 504L314 504L315.972 501.944L317.556 500.056L318.75 498.5L320 497L319 495L320.139 494.222L320.333 493.694L320.722 492.889L320.944 491L320.917 490L320.5 488.083L319.5 486.5L317.917 485.5L316 485.111L315 485.111L313 485.472L311.111 486.222L310.306 486.778L309.778 487L309 488L307.5 487.167L306.972 486.917L305.306 485.694L304.083 484.028L303.833 483.5L303 482L304.222 481.222L304.556 480.75L305.472 479.472L306 478L299 478L297 478L296 477.972L295 477.917L293 477.528L292 477.167L291.056 476.833L289.5 476.278L288 476M271 478L270.417 480L270.222 481L270.083 481.5L270 483L271 482.222L271.222 481.694L271.778 480.944L272.5 479.5L273 478L271 478M287 484L285 486L285 487L293 487L292.222 486L291.694 485.778L290.889 485.222L290.028 484.861L288.5 484.278L287 484M283 489L282.528 491.056L281.75 493L281.25 494L280.472 496L280.25 497L280.028 499L280 500L280.083 502L280.444 503.944L281.028 505.5L282 507L282.694 506.222L282.667 505.694L282.722 504.889L282.5 503L282.806 501L283.333 500L284.694 498L285.278 497L285.861 495L285.889 494L285.778 493L285.583 492.028L284.944 490.333L284.417 489.722L284.167 489.361L283 489M335 493L336 494L335 493M393 494L391.5 495.5L389.944 496.972L389.028 497.778L387.333 499.389L386.722 500.167L386.111 501.528L386 503L387.5 502.889L389.056 502.278L390.917 500.889L392.611 499.083L393.333 498.278L394.583 497.083L396 496L396.778 497.389L397.306 497.75L398.111 498.444L399.028 498.972L401 500.083L402 500.694L404 501.972L405.944 503.028L406.944 503.25L407.5 503.444L409 503L408.222 502L407.694 501.778L406.889 501.194L405.972 500.778L405 500.222L404 499.778L402 498.75L401 498.167L400 497.611L398 496.389L396.056 495.278L395.056 494.833L394.5 494.5L393 494M291 496L291 497L292 499L290.528 499.528L290.056 499.917L289.278 500.444L288.361 501.583L288 503L290.056 502.889L291.056 502.667L292 502.278L293.889 500.944L295.222 499.5L296 498L294.5 497.028L294 496.861L292.5 496.278L291 496M334 498L335 499L334 498M291 506L289.5 507.222L288 508.167L287.056 508.75L286.5 509L285 510L285.778 511.139L286.306 511.333L287.111 511.722L289 511.944L290 511.889L291 511.694L292.944 510.972L293.5 510.667L295 510L295 508L293.556 507.333L292.444 506.667L291 506M289 515L287.056 516.417L286.25 517.222L285.778 517.583L285 519L286.5 518.75L288.028 518.278L288.889 517.889L289.667 517.417L290.639 516.389L291 515L289 515M384 523L382.5 523.806L381.944 524L380 524.806L379 525.167L378.028 525.556L376.333 526.194L375.722 526.639L375.361 526.861L375 528L377.056 527.389L379 526.861L380 526.611L381.972 525.889L383.611 524.806L384.361 523.75L384 523M248 537L247.75 538.5L247.389 540.056L247.111 542L247.25 544L247.5 545L248.5 547L250.083 548.917L252 550.528L253 551.139L255 552.222L257 553.222L258 553.75L259 554.139L260 554.556L261 554.833L262 555.139L264 555.611L265 555.806L267 556.194L268 556.389L270 556.861L271 557.139L272 557.361L274 557.778L275 557.917L277 558L279 558.083L280.944 558.417L283 559L283.722 557.5L283.75 556.944L283.944 555.944L283.972 555L284 554L284 552L284 550L283.917 548L283.556 546.056L282.972 544.5L282 543L276 543L274 543L273 542.972L272 542.917L270 542.611L269 542.389L267 542.083L265 541.917L264 541.778L262 541.361L260 540.861L259 540.611L257.111 539.944L256.306 539.417L255.778 539.167L255 538L252.944 537.917L251.056 537.611L249.5 537.25L248 537M371 538L369.5 538.75L368.944 538.833L367.944 539.167L367.028 539.389L365.333 540.056L364.722 540.583L364.361 540.833L364 542L365.5 541.75L366.056 541.583L368 541L368.972 540.667L370.639 539.917L371.222 539.472L371.417 539L371.611 538.667L371 538M257 560L257.722 560.722L258.25 560.75L260 561L259.278 560.278L258.75 560.25L257 560M261 561L261.722 561.722L262.25 561.75L264 562L263.278 561.278L262.75 561.25L261 561M543 576L544 577L543 576M303 587L302 588L303 587z"/>
</svg>